<svg
  xmlns="http://www.w3.org/2000/svg"
  viewBox="0 0 768.4 1212.1"
  aria-label="Map of UK Countries"
>
  <path
    id="ie"
    name="Ireland"
    d="M67.2,1061.3l.5.1.3,1.8-.3.3-2.2,1.6-.2-1,1-.5-.7-.9.8-.3.3-.7.5-.4Zm-29.3-15.1,2.8-.2.4.6.7-.3,1.9-.6-1.2,1,.2.5-1.4.3-.7.8-.7-.3-2.2.8-.4-.1H35.2l.6-1.7C35.7,1046.8,37.9,1046.2,37.9,1046.2ZM8.2,1016.7l.9.5.6-.7.3,1,1.8-.2-.1,1.1-4,2.5-1.6.4-.7-.5L3.1,1022l1.2-3.2,2-.3,1.6-1.2-.1-1C7.8,1016.4,8.2,1016.7,8.2,1016.7ZM51.7,877l.3,1,.3,1.2-.2,3.4-1.2.5-1-.2-1.2.1-1-1.8.9-.9-1-.2-.3-1,2.5-.8v-1l1.9-.3Zm-1.2-2.5,1.2.7,1-.5.4.8-1.5,1-2.2.8-.9-.4-.3-.6-.2-.8.4-.7,1.2-.6.9.3ZM26.2,798.4l1.1.2.8,1.2.9-.5,1.6.3.9-1.8,2.8,3.5-.3.7-1.5.1.5.9-.5.9.4.9.5-.1,1.9.2-.8,1.1.1,1.5-.8.5v.4l-.1,1-.1,1.3.3,1.1-.6,2.6H32.2L30.6,813l-.8-.9.5-.7-1.3-.9-.2-.8-1.1.6-1.1-.3.2-3.9.5-.5-1.6-1.5-3,1.2L22,804l-1.7.8-2.3-.4.1,1-3-1.9v-.3l1.8.2,1.4-1.8v-1.9l1.1.8,1.5-.1.8,1.1,2-.2,1.6-2.2.9-.7Zm3.7-30.1,1.1.5-.2,1.2,1.1.2.6,1.7,1.9.1.7.8.6.2,1.3-.7-.2,1.5-.6,1.6h-.8l-.5.6.6.6-2.1.1-1.1.4L29,777l.7,1.1-1.4.1,1.3,1.3-.4,2.2-1.4-1.1-1,.1.8,1.6-.4.9-1.3-.3-.6.8-1.2.3.1.6,2.1,1-1.2.6.6,1.7-1.1-.3-.5,1.3,1.6.5.4,1.1-.7,1-1.2.2-2.1-1-.4-1.3.7-.3-.2-2.2,2.3-5-.6-2.2.9-1.1,1.2-.1.5-1.7-3.4-1.7h1.5v-.7l.1-2.2,2.1-1,.1-.7,1.3.3.4-1.1.9.2-.3-1.2.7-.4Zm92.5-76.7,2.2,1.2-.3.9.7,2.2h-2l-.2.5-.4-.5-2.5-.2V695l.5-.2-.3-1.2,1-.7-.9-1.4,1,.2.3-1A7.53,7.53,0,0,1,122.4,691.6Zm63.9-7.7,1.4-.1,1.5,1.2,1,2.4-2.8.4-.7-.9-1.2-.3-.6-1.5,1.4-1.2Zm9.4-32.5,1.6.5.4.8,2.5-.1,1.4.9,1.6.1,1.3,1,1.9.3,1.4,1.1-.8.4.9.4-.4,1,1.2,1,.1,1.6,1.4.5.7-.3,3.4,2.4,1.9-.2.2.6,1.7.4.3,1.1,3.3.3,1.9,1.9-.1,1.1-1.8,1.7-4.4,2.3-1.7.4-7,4.2-2.9,3.5-.4,1.4-2.9,4.1h0l-.9.3-.8,1.5-.9-.6-1.2,1.1-1.8-.5-2.8,3.2-.7,1.6.7,1.2-1,1.5.4.8-.3,2.2.6,1.2-2.5.4-.8.8-.3,4.2.6,2.4-2.4,5.3-2.8,1.8-1.3,1.9-.1,3.5.7.7-.6,1-1.9-.2-.8-.1-1.7.1-1.4-.8-2.4,2-3.7,1.7-.6,1-3.5-1.4-1-1.6-.8-.2-1.7,1.5-1.3,2.2-2.5.1.5,1.2.8.2-.9,1.4.4,1.3.4.6,2.6.9.4,2.2,1.5-.3,1.1-1.2,2.6,2.4.8-.3,1.3.6,2-1.5.4.7-.3.8.6.3-.4.9-2.9,1.1-.9,1.3-2,.6-.1.9-2.1,1.8.4,1.3-1.4,1-.6-.4-6,.3-1.1-1.6-1.1.5-1.2-.2-2.3,4.3-.1,2-2.4-.1-2.4,2-3.4.3,2.1,1.5-1.1,1.3,4.5,4.1,1.5,3.2,2,1.6h2.2l-.1.8,3.2,4.5,1.7.3.8,1,.6-.7.7.2.4.8,1.4-.1-.7.8-.2,1.4.8,1.3.3,4.8,2.7,1.6.6-.5,3.4-.5.9.9,3.1-.4.7,2.6,1.1-.5,2,1.8.4,2,1.3,1.1,1.5.1.8,1.5,1.2.7,1.1-1.4,3.1,1,.8-1.9h0l1.5-1,1.1-.1h0l1.2-.1-1.2,1.2.3.6,3-.3-1.1,1.2.1.7,1.8-1.1.9,1.8,1.4-1,.4.9.6-.9-.7-1.5-.6.1-.6-.8,1.9-2.5,1.1-.4.7.5-.4,1.5-.9.8.9.9-1.4.6.6,1.1h1.1l.1-.7,1-.8-.2-1,.6-1.5,1-.9-.8-.9-.1-1.8,1.4-.4-1-.8,1.2-.2.2-.8,1.5-.4.8-.9,1.1.7,1.5-.5v-1.7l-.6-.6.9-.9-1.2-2.2h-1.1l.3-1.2-2.2-1,.3-1.3.6-.6.9.1.2-1.4-.6-1.7,2,.4,2.2-1.9,1.1-.2-.5-1.3,1.5-1.2,2-3.4,1.8-.9,1.3.7.2.7,1-.3,1.4,1,2.2,2.5.6-.2.7.8.3,2,1.2.3,1.7,4.1.1,2-.5.4.1.7-.8-.4v.8l1.5,1.6.6-.2.6.5.8,4,.8.2.1.9,1.6,1.6,1.3.1.9,1.6,1.2.1.4-1.4,1.4-.6.5.6,1.4.3,1.1,1.7.9,2.1-.1,1-1.2,2.7-.6-.1,1.1,2.8-1,.2.2,1.9-.6.7.2.8,1,.1,1.5,2.4,1.8-.8.3-1,2.1.5,1.6-.7,1.2.5.8-1,1.4-.3-.5-.6.3-.7,1.3.6,1,1.5,1.8-.5,1.6.3.4-.8,1.1-.4V789h1.5l.3,2,.8.3,1.5-1.9.7-.1,1.2,1.1h0l1.5,2.5,3,2,1,1.9,2,1.4,1.2-.7.2,1.8,1.5,1.8-2.3,2.2-3.6.1-3.3-.9-4.3-2.7-1.9.6.5,1.1-1.4,1.5v2.2l-.9.9.1,3.6.5,2.2,2.2,2.5h1.7l4.1,1.8-.8,1.2-.6,2.9.3,2,2.4.9-1.3,1.2-1.1,5.6.6,1.2.8,5.8,1.2,3.5,1.6,1.4,1.5,1.3,1.1,2.1,2.1.5,1,1.7.9.9.3,1.8-.6,1.2.8,1.1-2.1,1v1.6l.7.3-1.4,1.7-.8.9-1.1-.8-.5.7-2.9.3,5,2.3.5,4.3-.1,1.1h3.6l1,1.2-.5,2h-2.1l-1.3-2.4-1.3-.2-1.8.8-2.2,2.4-.6.4.2.7,1.2.5-.1.5-2.2.3.5,2,3.1,2,.8-.2.9.8,1.5.7.7,1.3-1.2,1.3.4,4.4.8,2.1.9.7.1,2.7,2.1,4.6.4,2.8.2,2.6-.9,3.9v3.7l.4,1.1,1.4,1.3h.7l.5.8-.9,1.3-.4,2.7-1,1-.1,1.8-1.1,1.5-.4,1.9.4.8-2.7,1.7-2.4,4.3-.5,2,.1,1.9-.1,2,.4,1.1-2.9,3.5-2.1,4.6-.7.5.2,3.3,1,1.7-.1,1.5,1,2.5-1.1,3-1.3,1.2-5.5,9.2-1.9,2.2-.9,3,.6,3.6-1.1-.2-.7-.7-3.2-.1-1.7,1.5,1,1.4v2l2.1.9.4,1.2.5-.1.1-1.4.7-.8-.2,2.6,1.2,2.9.8.4,1.6-.3,1.2,1.5-1.8,2.8-.5,1.5.3,1.1-1,1.5-3.6-1.3-4.8-.5-6.3,2.2L243,991l-2.3-1.7-3.9-1.6-5,1.4-.5-.7.6-1.7,2-2-.4-1.5-1,1.8-1.6-.1-1.1,1.8-.7.7.3.7.4.4-1.2,2,.3.9.4.8h-1.2l-2.2,1.2-1.4,1.5-.4,1.6-1.2.8-.4-.9,2.1-3V992l-.8-1.8.6-.5-1.2-2.1-.9-.3-1-2.2-.9-.2-.5,3.2.3.7-.8,1.9.7,1,.2.6-.5,1.2-1,.6.1,1-2.8,1.3-1.4-.8-3.2,1.2,1.4-2.5.2-.8-1.3-.9h-1l.4,1.5-2.1-.5-1.4,2.3-.9.2-2.1.2-4.5-1-1.9.3-2.5-.1-2,1-3,.1-1.2.4-2,2-1.5-.2-1.5.8-.9,2.1-2.4-2-2,1.6-.7-.1.4,1.7,1.4.2,1.1,1.2,3.3-.3-2.4,2-.8,4.5-1.9,1.2-5,.8-1.6,2,.8.7-.2.6-2.1.2-1.9-1.2-2.6,1.3-.8-.3h-.7l-1.5,1.1-1.1,1.9-1.4.5.1,1.2,2,.7.4.8-6.3,1.2-2.2,1.1-1.4.9.1.5,1.1,1.6-.2.4-2.6.7-.9.8-4.3.4-1.9,1.9-.8.2-.2-1-1-.2-3.7.5.3-1.3-.9-.9.9-1,.6-1,1.2-.7,1.8-.4.1-.6,1.4-1-5.9.4-3.1,1.6-1-.7-.7.9,1.4.6H137l-.7,1.2-.9.1.1.4,1.8.6-.1,1,1.3-.6.1,1-.6,1-1.9,1.6,1,.5-.7,3.5-1.3-.1-.8,1.9-2.6.1-.5,1.3-1.7-.2-.5,1.5-.8.3-.8-.7-1.5,1.7-1.1-.1.1-1.4-.8-1.5-.4.8.6,1.1-.4.6-.6-.1-.6,2.4-1.2,1.4,1.4,1.6-.7.8.7,1.1-.2.5-.7-.5-1.1-1.4-.1-1.4-1.1-.6-4.9.9-1.4-1-1.2-.6-.7,1.1,1.7.4-1.1,1.9-.1,2.1.2,1.7-.9.9-2-.7-.4-.5-.6-1-1.1.9-1.8-1.2-2.7.2-.8-.2-.4.3-.1,1.6-1.4.6.2,1.9-.6.4-1.5.8-1.1-.7-1-.8-2.8-1.3-1,.9-2.4.8-1.8.3-1.7.7-.7.3-.6.9-1.6.6-1.2.5-.9-.3-.1,1.1-1.1.1-.5.9.3,1.1-1.1.7-.9-.2.7-.8-.3-.6-2.2,1.2.4-1.7-.8.3-.8.7-.6.5-2.8,1.8-1.2-.7-1.1.6-.5-.6,1.9-1.1.3-2-1.1.3.4.8-1.1.7-.4-.2-.4-1.2-1.2.5-.4-.5-.4-.3-.4-.7,1.5-1.2.8-3.2-1.3.2h-.7l-2-1.1.2,1.2.5.8.7.1-1.3,1.8-1.2-.5-1,.6-2.3,1.1.2-1.6-.9.1-.4,1.9-2.6.6v.7l-2.8.6-.2-1.2-.5-.9-.1-.9-1.1.3.3.8-.7.4-2.5,1.1.4,2.6-2.5.8-1.8,1.3-.2-.4.8-.8-1.2-1.3-1.1,2.3-1.4.1.1-1.4.7-1-1.9-.9,2.6-1.3,2.8-2.7,1.1-.5,1.9.1,2.2-1.9,1.5-.8v-1.2l3.9-2.4.5-1.2,2.1-.4.6-.6-.4-.8-1.4,1-1.4-.2-2.1,1.6-1.1-.2-1.3,1.7-.8-.2-1.4.4-.8.9-1.3.1-.8.6-1.3.4-.9.9-1.3.1-1.4.9H39.7l4.2-2.8-.4-.5.5-.6,4.1-2,1.3-1.3,6.6-2.9,1.3-1.1,3.8-1,1.4-1.6,1.5-.1.3-.9-.1-.8,1.3-2.7-.6-.3-.4-.3-1.6,1.6-1.2-.2-.6-1.1-1.2-.2.2-1.2-.7-1-.9.2.4.9-.4.7.5,1-.3,1-1.5,1-.9.5-2.3,1.9-3.2,1.1-.2-.8-2.5.2-.6-1.7-.6.7.6,1.1-.4.7-.8-.3-1.2.9-3,.8-.5-.5-2.5.6-1.3.4-1.5-.5-.7,1.7-.5.6v1l-.7.8-1.7-.1-.2-.5-4.6,3.2-.9-.5-3.5-.4-.5-.3-1.6.8v-1.2l-.9-.4.1-.5.9-.6,1.3.8,2-1.2.7.5,1.6-1.3-.4-.7v-1.4l-.8.2-1.8-.8-.3-.5.8-1.1,1,.3.4-.6,1.1.8,1.5-.9,1.3.5.8-1.2,1.7-.2.5-1.8,1.1-1-.7-.2-1.5.6-1.5-.6,2-1.9,2.9-.5v-.4l2.9-1.9.2.5-.9,1.8.8-.1,2.3-1.7-.6-.8.7-1.2.7.6.8.9,1.1.2,1.5-.4-.5-.8-2-.8-.3-.6,3-1.3-.1-1,2-1.2.8-1.4,5.5-1.1,1.2-1.4,3.9-1.6,1-1.3-2.2,1.1-1.3.2-1.7.7-1.5-.4L47,1026l-6,2-.1,1-1.3.7-.5-.1.1-.8-1.2-.6-1.5,1.3-.4.4-2.6.3-4,3-1.5-.4-1.2.9-.1.6-2.7.4-.1.8-1.3.4-.5.7-.6-.4,1.1-1.5-1.4-.2-.4-.7-.8.4-2.3-1.5-.9.2-.5-.4v-.4l1.3.1,1.3-.6.6-1.8-.4-.3.3-1.9-2-2-2.6.4-1.6,2.1-.1,1.2-.9.8-1.2.8-2.2,1.2-.8-1.5,1.2-.7-.3-1.2.1-.9.4-1.6-.3-.6-3.8.3.8-1.6-.5-.4-.4-1.5.3-.8H8.2l2.5-1.3,1,.2,1.6-1.9,1.2,1.5v-1.2l-.2-.8-1.7-1,3.1-2.1-2.1-.1-.7,1.2-.6-.7.1-.6-2.5-.1.2-.6,2.3-1.2,1,.5.5-2.8,1.9-.5.8.8.5-1.4,1.5-1.1,1.7-.4,1.2-1.2,1.2.2h1.2l2.1-1.5,2.5.2,3.2-1.7,2.8-1.3,1,.2-1.2-2,2.4-2.5,2.6-.7,1.1-1,1,.2.5-.7,1.6.6-.7-1.5.4-1.4-.5-1-.8,1.1-.5-.8L32,995.1l1.2.9.5,1.8.7.4-.4.7-1.1-.7L31,995l-3.9.6-2.8,1.5-.8-.3-2.3.8-1.1-.2L18,998.8l-1-1.5-.8.5H14.5l-1.4-2.2-.9-.3-1.6,1.2,2.9.5v.9l-1.6.3-2-.4-.2-.7-2.2-1-1,1.3,1.9,1.1-2.4.1-4.1,1.1-.3-1-1.3-.2,1.1-1.3-.6-1,.2-1.3.2-1V993l.3-1.1-.6.1-.1-.4,4-2.8-.4,2.6,1.8.2,1,1,.4-1.5-.9-.9,1.5-1.9L7,987.8l.6-1.4,3.7-1,.8-1.5,1.6-.2.9-1.3,1.7-.6,1.1.5.2-1.1,1.9-.8,1.3.2-.4,2.4.8.4-2,3.2,1.4-.8,1.3.3.4-.9,3-.5,3.1-3.4V980L27,978.6l1.4-.2,1.2.4v.6l-.4,3.5,1.4,1.7,2.8,1.9,2-.2,1.7.5,2.1-.7,1.5-1.3.8.6h1.4l1.4-.9,1.3.7.6-.8.8-.4-2.3-1.6-2.3.3-2.3-.9H38.7l.8-1,1.3-.3.6-.9-2.2.3-.3-.4,1.2-1,1-2.7.1-4.6-1.4-.9-3.7-.3L34,968.4l.4-1.1,2.1-1.1,2.9.6,2.3-.8,3.6-1.7,2.4-2.5,2.5-.8.8-3.2-.4-1,.7-.8.2-.8-.6-.9,3-2.7.9-.4,4.1.7H60l1.1-.1,1.5,1.3,1.5-.1.9-1.5h3.5l.5-.9,1.5.5.1.9,2.3-.4,2,.7L81,949l2.9-.7.5-.6,2.4-.1,3.2-2,.4,1.3.6.1.5-.8,1.2.1.4.9,1.3-1,.1-1.2.5-.2.7-2,9.2-1.3,1.2,1.6.7-1.2,1.7-.5-.3-.6-6-2.3-1.5-.1-2.6.9-.3.7-2.1-.2-.3-.8,2.7-1.7-1.3-2.2.1-1.3-.8-.5.7-1.3-.9-.7H94.8l-3.4,1.9-.3.5-.2,2.1-2.4,3.9-.9.3-.5,1.7-1.7,1.2-.6,1.5-1.4,1.4-6.7.9-1,2.2-.7.3-2.6.2-.4-.6.1-.7,3-2.3.7-1.5h-.9l-.2.9-1.3.7L66,947.3l-1-.7-2.4-.1-1.7-1.2h-1l-.9-1.1-.1-2.5-.3-.5h-.7l-1,.7-.1.8v.9l.9-.1-.1,1.3-1.5.6-.7.7.1.7-2.4-.3-2,.9-1.8.1-1.2,2.7-1.7-.6-.4.9-3.8,1.4-2.2-.6-1.1.1-.4.9L37,953l-3-.4,1.1-.6.6-1.2,1-.5,1.2-1,3.8-1,1.6-2.6,3.5-1.8.8-1.6,1.7-.7,1.3-1.6h1.8l-.7-1.3.7-1.4,1.9-1-1.1-1.2.5-.4,1.2-.2.2-1.1,3.1-.8,1.7.7,1.8-.4.5-1.2-.6-.9,1.2-.7-.6-3.3,2.2-.9.1-1.5,1.5-.6-.2-.6-1-.5.6-1.8.5-1.7,2.3-1.2,1.7-2.1.9-.3.3-1.4-.9-1.3L67.8,914l-2.3-.4-1.8.7-.6-.2.1-1,2.6-2.5.2-2,2.4-2.4-1-1,2.7-3.4.5-2.3,3.1-2.2,1.4-2.7-.2-1.3.6-1.3,1.3-1.1,2.6,1.5,2.4,1,1.7,1,.7-.1.9-.9,2.4-1,.9-.1-.9-.8-2,.2-.9-.6,2.2-.9,1.8.4,1.1-.3,3,1.8v-1l-2.1-.9-.3-.6,1.5-.5,2,.2,1.4-.8.1,1-1.5.6,2.1.8,1.5.8-.3-2-.9-.8-.1-.5v-1.5l3.5-2.9-.7-.2-1.1,1-1.3.3-2.8-.1-1.6-.4,1.1-.7,2.1-2-1.6-.7.9-1,2.4-.3.4-1.2-.9-.2-1.7.3v.8H93.4v-.9l-1.4.4-2.4.4-4.1,1.3-2.8.5-3.4.1-7.3.7-1.9-.4-2.4.9H64.5l-.9.8-1.6.1-1.9.3-2-1.8-.2-1.3-.6-1.3,1.8-1.5-.9-1.4-.8.5-.6.8-.5.8.6,1.1-.7,2.4-.3.3-1.4.2-.8-.7-.3-1.3,2.1-3-.3-1-.4-.6v-1.7l-.9-.9.3-.7,1.9-.3,1.4.5,1.2-2.3-1.5-.7h-.7l-.6-2.2-.5-.4-.2-.7-.4.4.8,1.3v2.2l.1,1-2.8.5-1.4-.9.9-.4.5-.5-.2-.6,1.2-.8-.6-1.3.5-.8-.2-.7-1.5.6-.5,1.2-1,.5-1,.9-.2.6L48,872.4l-1,.6.2,1.5-2.5.7-1.1-.5-1.3-.3-.3-.1-1,.3-.6.2-.5.5-1.5-.5L38,874l-.9-.7-.6-.7L37,871l.7-.9.5-1-.5-.2-.1-.9h1.5l2-1.2.7.2,1-.8,1.4-.6-.8-.1-.1-.5,1-1-1.8.5-.6-.6.2-.5,1.3-.1-.1-.4H41.7l-1.3,1.2-.8.3-.4,1.6-1-.6-.3-2-.7-.9-1.2.7-.2,2.8-1.5,1-.7-.4-.7.2-.3-.5-2.6.4-1.2-.5-.5-2.5-1.6-.7-1-1.2-.5,1.2h-.8l-.4.6-.9.9-1.9-2.1-2.1,1.2,1.8-3.5,1.2-1.5,2.3.7.5.4,1,.8,1-2.1-.5-.6-1-1.1-1.2-.7,1-.8-.4-.9-1.1.1-1.2-.7-.6-.7-.2-.6.3-.8-.7-2-2,.3-1.4-.5.6-.6-.1-.6,1.7-.7.9-.4,1,.8.6-.3-.3-1.2V846l1.6-.1.5.5,1.2-.2.7.8,1.1-.5,2,.5.2.5-.6.4.9,1.3,1.5-.1.7-.3,1-.3-1.5-.8v-.8l-2.9-1.1-1.4-1.7-.3-1.7,1.8.4,1.5-.5,1.9,1.1,2.1.3,1.5-.4.3-.6.4-.8,1.6-.2-.3-.9.7-.6-.5-2-2.2-.4-.2-.5.5-2.1-.8-2,1.6-4.4-.3-1.2-.6-.4.2-1.1,5.2-.7,2.5-1.2h.7l.3.7,3.1-.1,3.5-1.3.3.7h1l.3-.7,1.5.5,1.9.2v-.5l.3-.7,2.2-1-1.4-.1h-2l-1.8-1.3-.2-.8.5-1,.5-.5-.4-.9,1-.7,1.5-1.2-1.5-.5,1.2-.5-.2-.3-.6-.4.5-.2,2-1-1.4-.4-.7.5h-.4l-.8-.4-.8-.4H52l-.9-.1h-1l-2.5.1v-.5l-1.5-.2v1l-2.6-1.1-.5.6-1.2,1.8-3.3,1.4-2.3.4-1.3-.9-.4-.8.3-1.3-.3-2.4.9-.5.9-1.7-1-1.1.5-1.4.9.7.7-.8,2.4.1.9,1,.9.3.8-.5.1-1.1.3-1.5-1-.1.1,1.2-.6,1.5-.7-1.9-1.3.2.2-2.9-.5-.8-1.6-1.1.2-.7-1-.8-.8-2.2,1-.8-.3-2.1L34.4,794l-1.3-.5-1.4.5.3-2.1-1.4-2.2,3.1-.8.6-1.1.6.3.5-.5-.2-1-.6-.3-.5.9-1.6-1.7.1-1.1,1.8.7.4-.7-.9-.5-1-1.2,1.1-1.2.7-1.2.5-.6-2-.3-.3.4-2.1-1.9-.3-1,4,1.2,3.2-.6v-.8l-1.1-.3.5-.5.3-1.2.7-3,3.2-1.2.8.5.2-1.6-2.4-.8-1.4-.3v-1.7l.4-.7h1.2l1.8-1.8,1.7-.1,1.3.4,1.2,1.2,2.2.4,1.1.6,1.7.4,1.4-1.2,3.9.2.9.3v.8l2.7.4.9-.2.3-.9,1.3.2,1.7,1.1,1.3-.5,2.4.3.1,1.3.6.2,2.3-2.7v-.9l1.4,1.2,3.7.8.9,1.3.2,1.9H78l.8-1,.6,1.3-.9,3.2h1.6l-.2,1.8-.9.7-.7.7,4,1.7-.4,1.1,1.3.7.5.7.8-.3-.2-1.7-.5-1,2.5-1-.1-1.1,2.7-5.2-.3-.8.5-1.5,7.6.2,1.5.8,1.1,1.4,1.8,1.1.4-.3,1.9,1.3,1.9-.9,2-2,.5.3v1l1.6.5,2.7-1h1.3l2.4,2.6,1.6,2.7,1.3,1.6h.5l.1-1,3.4-.3-1.6-1-1.7-.4v-.8l-2-2.2-1.3.6,1.1-2.2-.3-.9h1.4l.1.7,1.2.2,1.5-.5,1.7.3.8-.6,1,.5.7-.5-2.8-2.1-3.2-.4v-3.2l1.2,1.7,2.2.7,1-.5.1-1.1-1.9-.3-.6-.5-3.2-.6-1.6.9-1.8.4-.5-1.2-1.4-.7.2-.2.2-.6,2.2-1,1.2.2.5-1.2,2.9-1.3,1.3-.7,3.7-2.2.1-.9,1.2-1.3-.1-1-.9-.5,1.2-1-.1-.9.9-.3.2,1.6,1.3.3,1.9-.9,4-.7,1.4-.9,1.8.1-.1-1,1.1-.5.6-2.2-.7-1.6,3.5-2.4-.7-2.3.2-.4.9.1,2.5-2.5v-3.1l1,.4.1,2.1.8-.2.2-2,1.4-1.1-.9-.4.8-1.9-1.5.4-1.9.7-1.2.3-3,2.4-4,1.8.4-2.2,1.2-1.5-1-1.2-3.4,1.8-.6,1.6-2.5,2.3-2.4.8-.7.7.1.7-1.4.8,1-1.5v-.8l3-1,1.3-1.6-.7-1.8-.4-.2-1.8,1.4-1.1.2,1.2-3.6-.5-.1-1.2,1.7.4.7-.3.8-1.8,1.9-.6-.1.2-1-.4-.3.6-.8-.2-1.2-3.5,1.9-2.7.6-.5-.3-2.2-.2-.7-.5-3.1.4-.3-.9.5-.5-1-1.1-5.1-1.6v-.9l-1.2.5.6-3.2-.6.1-.7-.6v-.9l.5-.4,1,.5,1.2-.8,1,.2.9-.5h-1.1V723l.6-.7-.3-.4,2.5-.6.2-1,.9-.9,1,.2.4-1.1,4.6-.9,3.7,1.5,1.3-.6.2.7-.6.1.4.3,1.1-.3,1.8.7,2.3-.1-2.1-.2-.3-.8-1.1-.6-2.4-.2-1.4-1,.1-.7,1.9.6,2.7-.7.2,1h.6l.5,1.2,1.8.8.6-1.3-1.7-.3-.4-1.4-.3-.4-.4-.6-2.6-.1.1-.9-2-.8.3-.9-2.5-.3,1.5-1,1.9.8.4-.5-.3-.9,1-.9,2.8.9,1.4-1.3,1,.5.7.3.9.3.3-1.1-.6-3,1.1.3,1.2-.8,1.8,1-.2-.7,1-.8-2.1-.4-.3-1.8-1.1.9-1.1-.6.4,1.7-.6.5-1.6-1.6-2.1-.7-.9-.8-.1-1.2.7-.1.2-.7-.9-.6.2-.9,1.2-.1.1.6-.1.4.3.2,1.5-.1,1.4-.9.4.5,1-1-3.2-1.2-.3-1-1.7-1.7.5-.4-1.1-1,.2-.8,1.8-.6.1.7,1.2.4-.5-1.4,1-1.1-.8-.9.4-.8.5-.1.6,1,.9-.9,1.1.2.4-.9-.5-1.3,1.6-1,.4-1-.4-1.1.7-.5-.1-2,1.3-1.5-.3-1.5.7-.7-.4-.6.7-.9,3.4,1.1.8-.4.5.7,2.9.2.9-.6.3-1.4h.8l.3.8-1.9,1.4-.7-.1.9.5-.4,1.4.6.2.5-.8.5.4-.1.8.4-.5-.3-1.9.9.5.3-1.6-.4-.7,3.4-.6,1.3-1.3.9.4.7-.3.5-1.1-.6-.5.7-.8-.7-.2.4-1.7,1.6-.3.7-1,1,1.5,1.6-.2.2.6-.3,1.3-1,.7H157l-.5.9,1.6-.6,1.6,1.1,1.2-1.4,1.1.4-.3,1.3,1.4.3-2.2,2,2.5-1.4,1.2.5-.7,1.5-1.6.4-1,1.5,1.2-.7.7.2.1-.6.7.9-.2.9.8-.1-.3-1.2,1.3-1.1-.6-.5,1.1-1.1.4-1.5-.8-1.7-.8.5-1.4-1.3.4-3.1.5.4,1-.6.9.7.6-.1-.2-1.3h.9l.2-1.4.9.4.1,2.4-1.1.7-.1,1.5-.6.7,1,1.2-.3,1.1h.6v-.7l.5.5.1-.5,1.1.2.3-.6.7.8-.2.5.8.4.1-.9.8.6,1.1,1,1.4,2.6-1.6,4.8.9-.8.2.9.6-.6-.3-.8,1.6-5.2-.9-.8v-2l-1,.6.1-1.5-.4.4-.8-.8.2-.7.9.6-.7-2.2.4-.9-.5-.5-.9,1,.2,1.7h.5l-.6.7.2,1.2.8.6-.4,1.4-2.1-1.9-.2-.6.7.3.2-.7-.8-.3-1.4.8-.9-1.5-.8-.1-.2-1,2.5-2.5v-.4l.6-.8h.5l.6-.6.4.9,1.5-.1.6-.8-.1-1,.8.2,1.5-1.5h1.5l-.2.5.5.2,1.5,4-.3,1.7-1.1,1.5,1.4,1.8.7-.2,1.2.9-.2,1.2,2.2,3,1.2.5.2,1.6-.8.9.3,1.2-.5,1.1-3.1,1.4-.8.9v1.3l-1.7.4-1,1.2.1.8.9-.8,1,.3,1.9-1.2.6.2.5,1.2v.9l-1.4,1.6-3.6,2.5-1.1,3-1.6,1v.9l.4-.6,2.2-.6.4-.8.8.8,1.7-3.3,3.6-3.3.8.4.6-.5.2-1.8,1.1.1.9-.7.5.4,1.2-.2.6-.7-.8-2.9-1.4-1.5.1-1.3,1.3-2.1-.3-1.9-.8-.1-.8-1.9-1-.6-1.1-2.5-2.2-1.2.9-.7-.6-.5.8-2.3,1.1-1.1-.9-1,1.2-.8.4-1v-.7l-1-1.1.3-.6,1.1-.4,2.2,1,.2-1.6.9.6v.8l1.4.3-.3-.8,1-.5h2.2l.5-2.5.7-.3,1.7.6.7,1.1.7-.1.6,1.1-.6.6-2.1-.3-.1.7h2l1.8,1.2,1-.8.4.6,1.2-.2-1.3-1.2.9-.6-1.5.2-3.4-2.1-.3-1.5-1.1-.8.3-2.9-1.5-.2-1.2-1.7-.5.1,1.7-.9,1-.8Z"
  />
  <path
    id="gb-wls"
    name="Wales"
    d="M452.7,872.2l.9,1.7,1.4.5,3.9,2.9,1.7,2,1.1.4,3,2.7.8.4.5-.4.4-2h0l1.4.1h0l5.4,4.2,1.3,1.8.5,1.2-.5,1.2-3.9,1.5-.1.5.8.3,1,1.9,2.9,1.8.8.3,1.4-1-1.3,3.1,1.6,1-.1,1.2,1,1,.1.8-.7.9.8.8v1.9h.7l.7,2.3,2,.7h0l.7-.2h0l1.2-.2h0l.6.1.3.7h0l1.6.2h0l.5.2-.1.3h0l-.5,1,.7,1.3-.2,3.1-1.8.3-2.8,3-.8-1.9-1.7-2V913l-3.2-.9h0l-.8.7h0l-1.5.5-1.2-.7-1.7-1.5-.6.1-1.7.3-1.6,2.8-2.6.4-1.2-.5-.9,1.2-.3,2.5-1.5-.1-.6.5v1.5l1.2.8-2.2,2.1.7.5-1,2.5v1.2l.5.1h0l.3.4h0l-.5.4.2.5,2.5,1,.7-.9,1.3-.3-.1,1.9,1,.8,1.6.2h1.9l.4.9-.6.8,1.9.9-.4.5.4.4,1.7.2.1,1.8h-.9l.1-.9h0l-.7.2h-2l-.2.2h0l-.8,2.8-.8.2.1,1.6.4.1-.8,2.8-2,.7,1.4,1-.8.3-1.3,2,.2,1-1.8,1.4h-1.3l.1,1.2,1.5,3.1-1.4.9v.7l2.3-.4h0l1.1-.7h0l-.8-.6.4-.6,1.7-.4,1.6-1.7,1.7-.3.9,2.2-.6,3.2h0l-1.8-.1h0l-.3,1.1.4,1-.7.2h0l-.3.1h-3.9l-2.1.8-2.5,1.8-1.1-.2-2.4,2.8h0l.3,1h0l.6,1.8,2.6,1.2,1.1,1,.4,1.2,2.8,1.1,3.1,2.9,1.2.4,4.2-1.1,1.2.6h0l-.8,2-2.1.8v2.2l-.6,1.2h0v1l.5.2h0l3.4.6-.9.3h0l-.8.6h0l-1.8-.5-1.9.8-.8.7.2,1.2-1.8.3-.3,1.9.4.2-1.8,1.3.4,1.9-1.7,1.9,1.5.9,1.1-.8.5.7-1.3,1.2-2.6.6v.5h0l-.4.5h0l2.2.9.1,1.3-1.1.4-.1,2.4,2.1,2.8.3,1.1-.7,2,1.9,3.8,3.4,3.9.3,1.8.6.4,1.4-.4.6,2.3,4.8-2.2.2-.8h.8l1.9,1.1-1.2.7,1.3-.2.4,1.2.9.1,1.3,1.5,2.1,1-.6,1.6,2.2,2.7h.3l1.1-1.1.4.9,1-.5.2,1.1,1.7-.2,1,1h0l-.7.3.1,1.2-1.2.9.5.8-.6,2.7,1.1,1.5-.6,1.7-1,.6,1.2,2.5-.1.5h-.8l.9.8-.2,1.1,1,.8-1.7.6-.1.6.5.3.8-.4h0l-.9,1.5h0l.7.3v1.1l.8,1.2h0l-.6,2.9-2.1,1.1-.7,1.3-.8.1-1.3,2.9-2.2,1.5-1,.6-1.1-.7-4.1,1.3-1.2-.3.7-.8-.4-.3-.7-.1-1.9-.4-3.1.5-7.4,4.1-2.1,2.2-.4,1.3-1.4,1.1-.3,3.7-2.1,1-1.5-.8-3.4,1.7-1.9-.7-2.1,1.1-1.5-.3-2.6.5-1-.7-8.7-1.4-2.1-3.4-2.6-2.3-1.2-1.8-3,.2-1-.4-2.5-3.3-1.8-5.2-1.9-1.3.3-1.2-2.6-2.1-1.3.5.1-.6-1-.2.2-.4-1.9.8-1.8-.4-1.2.5-1.4,3.2,1,.8-3.4.3-.8-.5-1.7,1.1-3.9-1.1-1.8,1,.6,1.4-.5.4-2.6-.7-.7.4v.8l-.5-.1-4.4-2.5-1.5.3-.2-.4.9-1.2-.2-1.7-1.1-1.8,3.3-2.2.5-2.3,1.6-.8-1.2-.2.2-.6,2.5-.8-.8-.4-1.5.4-2.7,1.9-.5-.6-1.6-.1-3.5-3.2-.7-.6-1.8-.5h-1.4l.2-1.4,2.5-1.1-.4-.3-.4-1.1-2.9,2.2-1.5.1-5.2-1.4-6.8,1.1-1.3,1.4v.8l1,.8-1.2,1.3-.2.9.5.5-1.2,1.2v.7l-2.8-.1-.1.9h-.9l-.7.9-3.1-1.2-1.8.1-.2.8-2.1,1-.4,1.1.4.8-1-.1-.8,1.5-1.4-.1-2.4-1.5-1.2.4-3.3-1.2-.2-.8.6-.7v-.4l-1-2.3-2.2-.5-.6-.6-.2-.1-.5-.8,1.3-1,1.6.2.3.9,1,.1.5-1.5,1.5-.1,2.9.6-.3.6.7.3-.2-1.4,1.1-.5,1.5-.5,1.1.4.7-.8h.9l.4-.9.1-.2.1-1.5-.9-.9.7-2.9-.6.4-1.1-.4,1.1,1-.5,2.1.8,1.1-.3,1.8-.8.1-.8.6-1-.4-3.1.9-3.1-1.2-1.8.3-1.4.1-.8-1.4-1.1,1-.7-.6-.5.4-1.7-.2-.3.8.6.6v1.4l-.8.1-.4.8-.9-1v-1.9l-.8-.2-.7-1.1-1.4.3.3-.5-1.5-1.5,2.6.4.6-2.2,1,.1,1.7-1.8,2.9.1.6-3.6-1.4-4.7-.7-1-2.6.3v-.6h-1.9l-.6-.7-1.6.1-.2.5-1.1-.3-1.9,1.4-.1-.7-1.4.3.8-1.4-.5-1,1.1-.9-.3-.9-.7.1.6-.6,1.1-.6,1.9-.1,1.4-1.4,1.6-.3-.2-.6.8-.3.3-1,2.7.2.9-1.7.8.5,1.3-.2.5-1,.8.2-.1-1.2.5-.5-1-.9,1.5-1.1-1.1-1.1,1.1-1.1-.2-.5,3.2.6.3.5,1.7-.5.3.9.3.2-.6,1,.4.4.9.4.1-.5,3.2-.8.6-2.5,1,.4v.8l.5.3,2.2-.2.7-.9-.5-.9.6-1.1,2.9-.8,2-2,1-2.1-.4-.6,1.1-1.4,1.5,1,1.1-.8.1-1.4,2.6-.4.2-.5h3.7l1.1-.7,1.2.9h1.7l2.9-2.6,2.7-1.7,3.2-3.8.8-.4.8.9,1.1-.6.6.3,4-3.4,1.7-.5,1.9-1.5,2.1-3,1.9-2.8,1.7-5.3,1.5-2.4-.2-1.6.8-1.9-.1-2,1.8-3-.6-4.9-.8-1-1.1-3.5-2.4-4.1,2.1-6,2.4-2-.3-3.4-1.1-2.3-4.6-6.5v-.9l1.6-1.2.5-2.1-2.7-5.4-2.2-1.6-1.8-.5-2.1,1h-3.2l-.7.5-.2,1.2-4.2-.2-.2,1.2-3,.8-1.7,1.6.2,1.2-1.5,1.1-.4,1.8,1,1.5-.2,1.1-1.8.2-.8,1.5-.9-.9.3-1.3-2.2-1.8-2-.7-2.5,2.5-1.4-.5-1.4,1.2-.7-.8-1.2-.2-.9,2.2-1.6-.7-.6-1,.9-.7.1-1.2,1.8-2.2v-1.8l1.8-.6.3-1.4,1.3-.6,1.2-2.8H367l1.1-1.8,1.3-.3,1.5-1.2,3.2-.2,2.4-2.6.7-.2,2.1-3.2h1.6l3.5-3.6.8-1.6.4-3.2-.7-3.2v-.8l4.1-2.5,2.4-3.3,1.9-1.2.3-2.2.8-1,2.2-.8,1.6-1.7,1.8-.8,1.1-1.6,1.6-2.2,5.8,1.8,3.3-1.2,2.2-1.9,1.2-2.2v-1.5l-.8-.6.7-1,2.3.5,1,1.5,2.5-.5,1,1,1.7.5.6,1.7,3.7.7,3.9.1,3.8-1.7,3.1-2.7,2.7-.9,6.6-1.9,2.9.3,1.1,1.2h.1Z"
  />
  <path
    id="gb-eng"
    name="England"
    d="M590.1,1140.3l1.9,1.7-2.2,1.9-2.1.3-1.7,1.2-1.5,5.2-4.7,1.8-2.7.4-5.5-5.1-3.7-1.7-2.4-2.3-1.6-.3-3.7.9-1.1-.2,1.1-.2v-.8l1.4-.5,1.6-2.8h2.3l3.4-2,1.4.2.5-.6,3-.9.5-1.1,2.3-1.7h0l1,.6,1.5-.4,2.5,2.1,1.3.4-.2.6,4.2-.4.2.8.2-1.1,1.2-.1-.7.2.1.6,1.1.4-.6.1,1.1,1,.5,1.4.3.2-.4-.7.7.7Zm178.3-185h0l-.5-2.6.8-2-.1-6-2.9-9-6-7.4-10.8-9.5-5.6-3.9-4.6-2-8.7-1.1-10.6-3.4-1.3.4.5.3-1.9.1-.5-.1,1-.1-4.7-1.4-.6-.1.7.3-.8.2-.2.7-1.5.2.4-.2-9.3-1-2.3.5-.2.3h-.2l-.2.5-3.1-.8-2.9.7-2.6,2.8-1.8,6.7-2.3,3.7-3.2,3.8.2,2.2-.9.5-3.9-3.7-1.5-.2-1.2,2.7h0l1.2-2.7-1.3.9-3.4-1.3-.2-2.1-3.7-4.3-6.8-1,.3-.3-1.7-.5-.4-1.5,1-1.6,3.2-1.9,2.1-4,2.9-3.6,4.4-2.5,1.3-1.8,7-4.5.6-8.2-1.8-7.7-4.1-9-1.8-6.3-4.7-8.6-3-1.8-1-1.2h-2.1l.3-.2-1.8-.7-1.7-2.4-1.3-.8-.3-1.2-5.5-2.3-5.5-4-3.8-4.7-2.1-3.9-1.8-.4-7.9,1.8-.7-.2.8-.2h-.5l-.1-.6-.1-.6,1.2-.4,1.2-.3.3,1,.6-.1,5.6-2.4h1.5l1.2.7.3-.3,2.6,4.5,5.5,5.8.7-.1-.9-1,1.3,1.3h-.5l.8.2,6.4.4,4.4,2,.2-.4-.1.6,1.3,1.2.3-.8.2.7.4-.5.7.8-.6,2.3,2.5-3-1.1-5.2-.8-1.6-9.2-12.6-7.3-11.5-4.1-12.3v-4.9l1.1-2.9.4.1,1.4-2,5.3-1.2-.1-1.3-5.3-3.1-3.3-.9-1.7-1-1.6-1.8-.6-1.8.4-1.5,1.2.1-3.5-1.4-.4-1-1.2-.6-.7.2-1.1-.6v-1l-1.8-1.9.5-1.6-1.4-.6.2-1.1-.8-.8v-2.2l-.5-.9h-.5l-2-5.2-1.8-2.3-.8.3-1.2-1-.5-1.7.7-1.5-2.3-2-1-1.9-.8-.2-.2-.6-4.7-1.1-.9-2.1-.9-.1-.9-1.5-2.4.6-.3-1.5-1-.4-.9-1.6-1.8.3-2.8-1.5h-2.6l-2-1.8-1.5-.2-.6.5-1.3-.5-3.4-2-.8-1,.5-.1h-.8l.9-.3-1.1.2-.7-.5-.2.1-1.7-.3-2.5-1.7.1-.5-.7-.3-.7,2h0l.7-2-1.7-.8-1.4-2.6.3-1.4,1.2.1-.2-1-4.5-2.9-3.8-5.7-.3-3.5-.8-2.2.3-.5-1.5-1.7-1.1-4.9.7-.9-.5-.8.4-.7-.4.5-.1-1,.6.2-.7-.4-.2-1.2.6-.4-.4-.3.5-.2.2-1.4-.5-1.5-2.7-2.5-.6-1.2.4-.4.3-.2-1,.8-.8-.4.9-.9.9.2-1-.5-.8-1.7.3-.5-1.5-1.8.2-1.9-.5.1v-.6l-.3.2-2-2.9-.3-1.3.6-.3-2.2-4.7.6-2.5,1-.5-.2-.9-1.5-2-.3-1,.4-.6-1.6-1.6-1.1-2.7-.2-2.7.9-2,.8-.1-.6-.7.6-.6-3-3-.9-2.6v-1.4l.9-1.2-.1-.9,1.1-.3-.1-.6.3.2-.7-1,.5.1-.3-.8.4-.3-.2-.7-1.1-.5.4-.9-.4-1.2v-3.9l-1.5-.8.5-1.2-.7-.4.6-.7-.8-.2.4-.6-.5.2-.8-1v-1.4l.9-.5-.6-.2.2-.5-1.2-1.4.3-.9-1.6-.9-1.6-2.3-2.8-1.1-1.9-1.5-1.8-3.5.9-.5v-2.2l-1.9-.3-5.9-2-3.5-2.8-1.9-2.7-.1-1.5-.5-.8-.1-.5-2.2-3.4h0l-2.1,1.4-.3.3-1,1,.2,2.9h-.9l-.6.5.2,1.1-1.3,1.2-1-.2-.3.8v.7L522,614l.6,1.3-.4.3-1.2,1.1-1.7,2.4.1,1-.8.2-1.1,1.1,1,.8-.4.5H518l-1.5-.5-1.3.1-1.2-.5-1.5.5-.7,1.2.7.7,1-.2-.5.9,1.4,1.8.5.9-.3,1.6,3.1,3.1.9,3.2-.2,1.8,1.4,1.8.1.9.3,1.1,2.2.7-1.5.8-.9,2.5-1.5.9-2-.3-.9.8-1.2.8-.7.7-.5.6-1.3-.1v.4l-.7.6.9,2-.6.6-.3.4.3.7-3,2h-.1l-.6-.4-.4-.5h-1.5l.1-.3-.8-.2-1.3.7-1.5.2-2,3.2-2.2.7-.7,1.5-.5.5-.9.7-1.4,1-1.2,2.3-1.2.2,2.2,1.4-1.2.3-.2,2.2-1.2.5-.9-.2-.8,1.7-.6,1.8h0L489,674l-1,.5-.9.4-3.6,3-2.2.3-.5.6.3.8-2,1.8-1.7,1.5-.4.7-.3,1.1-1.1-.1-.6.8-.9.2.1,1.2-1.9,1-5-.4-.5.6,1.7,1.3-1.5,2.9.3,1.2-.9.7.1.6-.9.4v1.3l-3-.3-1.3,1.7-.9.9-2.7-1.4-6.9.1-2.1,1.7.5.4.9-.9.5.5-2.2,4.7-.9.4-2.3,3.5-1.2.5-2.1,2.9-1.6,2-.1.5.6.8.9.5.2.4-1.2,1.3.3.6.4-.3h.8l-.1,2.5-3.4,3.6-1.3,3.3-3.8,4.9.5,4.6-.7,2-.1,2.8-1.4,3.8-1.9,1.3-.1.7,1.2,2.3,1.4,1.1,2,3.5,4.5,5.6,1,1.8v1.2l2.5,3.2.9,3.1.1,3.1,5.1,8.5.7,1.9L449,783l2,2.5.5,1.4,5.2,10h2.1l.1-1.8-2.6-1.4-.6-2.7.7-1,1.5-.2,1.9,1.6,1.5-1.1,2-3.6,2.3-2.6.5-3.1,1.3-1.8,1.5.9.8,2.4,2.2,2.3,1.9-.4,2.2-5,1.5-.3,1.1.4.3,3.1.4.1-.5-.1.9,1.8,2,.9.3,4.7-2.9,3-2.2.9-1.3,1-.4.5-.5,2.3-.2.5,1.5.3.2,3,1.4,3.4-6.3,3-3.1.6-1.3,1.5-.7,1.7.6,2.3-1.5,11.5,2.7,2.7,4.9.8,4.4-.6-.8,1.3-2.2.8-2.8,2.5-4.1,5.5-.8,2.9-.6.9-1,.3-2.4,6.7-.1.6-.4,1.1,2.3,1.8.9,2.4,3.2,4,.8,1.9,1.9,5.5,1.4,1.5,5.8,4,1.1.1.4-1,.7.4.7-.2.6-1.6h0l-.6,1.6-.7.2.4.8,3.5.2.1,1-1.2,1.9-.7-.6-2.2-.2-2.1,1-1.7.1-3-1.7-1.9-2.6-3.1-10.6-.7-.9-1.3.1-1.6,2-4,1.2-1.8,2-2.4,1.1v.8l.9,1.6,4.3,3.3.9,2.7,2,2.4v.6l-.9.5.3.9,1.5.6.2.6,1.4.1,5.4,4.2,1.3,1.8.5,1.2-.5,1.2-3.9,1.5-.1.5.8.3,1,1.9,2.9,1.8.8.3,1.4-1-1.3,3.1,1.6,1-.1,1.2,1,1,.1.8-.7.9.8.8v1.9h.7l.7,2.3,2,.7.7-.2,1.2-.2.7.1.2.7,1.6.2.5.2-.1.3-.5,1,.7,1.3-.2,3.1-1.8.3-2.8,3-.8-1.9-1.7-2V913l-3.2-.9-.8.7-1.5.5-1.2-.7-1.7-1.5-.6.1-1.7.3-1.6,2.8-2.6.4-1.2-.5-.9,1.2-.3,2.5-1.5-.1-.6.5v1.5l1.2.8-2.2,2.1.7.5-1,2.5v1.2l.5.1.3.4-.5.4.2.5,2.5,1,.7-.9,1.3-.3-.1,1.9,1,.8,1.6.2h1.9l.4.9-.7.8,1.9.9-.4.5.4.4,1.7.2.1,1.8h-.9l.1-.9-.7.2h-2l-.2.2-.8,2.8-.8.2.1,1.6.4.1-.8,2.8-2,.7,1.4,1-.8.3-1.3,2,.2,1-1.8,1.4h-1.3l.1,1.2,1.5,3.1-1.4.9v.7l2.3-.4,1.1-.7-.8-.6.4-.6,1.7-.4,1.6-1.7,1.7-.3.9,2.2-.6,3.2-1.8-.1-.3,1.1.4,1-.7.2-.3.1h-3.9l-2.1.8-2.5,1.8-1.1-.2-2.4,2.8.3,1,.6,1.8,2.6,1.2,1.2,1,.4,1.2,2.8,1.1,3.1,2.9,1.2.4,4.2-1.1,1.2.6-.8,2-2.1.8v2.2l-.6,1.2v1.1l.5.2,3.4.6-.9.3-.8.6-1.8-.5-1.9.8-.8.7.2,1.2-1.8.3-.3,1.9.4.2-1.8,1.3.4,1.9-1.7,1.9,1.5.9,1.1-.8.5.7-1.3,1.2-2.6.6v.5l-.4.5,2.2.9.1,1.3-1.1.4-.2,2.4,2.2,2.8.3,1.1-.7,2,1.9,3.8,3.4,3.9.3,1.8.6.4,1.4-.4.6,2.3,4.8-2.2.2-.8h.8l1.9,1.1-1.2.7,1.3-.2.4,1.2.9.1,1.3,1.5,2.1,1-.6,1.6,2.2,2.7h.3l1.1-1.1.4.9,1-.5.2,1.1,1.7-.2,1,1h0l-.7.3.1,1.2-1.2.9.6.8-.6,2.7,1.1,1.5-.6,1.7-1,.6,1.2,2.5-.2.5H489l.9.8-.2,1.1,1,.8-1.7.6-.1.6.5.3.8-.4-.9,1.5.7.3v1.1l.8,1.2,1.5-3,3.5-4.2,7-7,2.9-1.9-.2-1.1-1.7-1.1.1-1.2,1.2-1.1,2.1-.1.7.8.2,1.5-1.1,3.4-1.1,1.5-3.6,1.6-2.4,4-.2,1.2-2.3,1.9-2.1,4.3-5.1,5.4-.3,1.6-1,1.5h0l-.7,1-1.1,3,2,2,1.4-.6.7,1.3,1.1.7h0l-1.1-.7-.7-1.3-1.4.6-2-2h-.7l-.3.8-2.5-.2-1.8.9-5.3,5.7-1.8,2.9-4.3,1.2v1.2l-2.4,4.7-.5.6-.9,3.4-2.2,2.7-.1.5,1.2.7,1.4-.1.2.5-1.9,1.2-2.1,1.9-6.3,1.2-5,2.1h-4.5l-3.3-.3-3.2-2.9-.9.4-1.9-1.4-2.9-.8-2.2.1-.7.8-2,.7-.9-.8-5.3-.8-.7,1.8h0l.8-1.8-3-.4-1.1-.9h0l-1.5,1.6-2.5-.3-2.8,1.1-2.1-.8-2,1.2-4.3.3-1,.9-3-1.1-.5.7h-2l-2.9,1.3-1.8-.1-.5,1-1.4.3,1.1.6-.3,2.9-.5.7-2.1.2,1.1.9-.1,1.1,1,.6-.6,3.1,2,1.6.6,1.2-2.3-1.5-.5,3.3-1.5.5-2.8,4-2.1.6-3-.5-2.3-2-2.7-.7-3.5-.1-.6,1.5.4,2.2-1,3.3.2.8-.5.3.1,1.1h-.1l-.4.3-.9,2.2.8,3.8-.3,8.2-.8,1.1-2.4,1-.4.9-1.3.6-.8.6-.2,2.4-1.5,1v.9l-1.1.2-.5.8-1.3.2-.2,1-.9-.3-1.3.7-.2,1.3.4.5-1.9,4.8-2.2.8-1.6-.5-.6.6-.6.3-1.2.7-1.2-.2-1.1-.9-.7.7.9.8-.7,1.2-.1.7-.8-.2.2-.9-1.7,1.1-.8,1.4-2-.2-.5-.6-.8.2.7,2.2-.2,1.6-1.1,1.2.7.9-.8,4.7-1.8,2.2-1.5-.7-.4,1.2-2.5.8v1l-.7.6.5,1.2-.8,3.1-1.2.5.1.6-1.3,1.3-2.2.3.1,1.2-1.1,2.3-3.3,2.1-1.6,1.8-2.5.7-.6-.8-1.1.3-.5,2.2-2,2.2-.1-.4h-2l-.6-1.8-3.9.3-3.2,2.7-.6-.4-1.8,2.4-2.8.2-2.4,3.8,1.2,3.8-1.2,1.1-.4,1.4.6.8.8.1.1.9.8.9,1.6-.3.5-.6.5.4,1.1-1.1,2.6-.1,2.2-1.8.6-1.8-1-1.7.2-.3,1-.5v-.9l2.8-.4.3,1.1,1-.7.8.9-.3.4,1.1-.1.6,1.3,1.2-.7,1.1.1,1.8,1.3,1-.3,1.6,1.1.3-.3,2.3,2.8-.1,1.4,1.1.8.3,1.9-.6,1,1.5,1.8-.2.9,1.7.6.7,1.5.8-.8h.7v-1.7l1.2-2.2,2.7-.6,1.4.6.7-1.2-.3-1.2,1.8-.7.1-1.4.6-.4-.8-1.5-.7-.2.3-1.7-1.9-.1.7-.3-1.5-.7-3.6.6.6-.5,1.1-.1.4-.9.5.7,2.7-.4.6-.7-.6-.5-.1-1.1,1.2-.8-.2-.6,1.3-.7.8.4-.5-1.2-1,.3-.8-1.4,1.3.6.7-.8.2-.6-.8-.4-.3-1.3,1-1.3,1.1-.5.2.1-.7.6.6,2.1.5-.1-.6,2.6,1.4.1-.8.7.5,1,1.8-1.2-.1-.6.7-.7-.1-1.9,1.1-1.8,1.5-.4.9,1,1-1.6,2.5-2.2,2.8.4,1.3,1.1v-1.1l1.1-.8-.3-.7,1.2-1.1-1.2-.5-.2-.8.8-2.4.7-.6.7.2-.9-2.1.6-1.2,3.5-1.2,1.2.6-.2,1.8.8.6.4-.9.9-.1.8-.6.3.6,1.7-.4.5.5,1.2-.8,2.6.8,2.2-.6.3-.6,1.5.5.1-.7,1.5-.4-.1-.9,1.4-.9,7.1-.1,2.2.7,3.1,2,.6.8-.4.7.3.8.8-.7,1.4.1-.8-1.5,2.2-1.6-.6-1.1-.8.3-.7-1.1-.2-2-1-.6.4-.5.5-1.1.4-1.9-.8-3.1h0l.9,3.2-.4,1.9-.1,1.2,1,.9.3,2.1,1.2.1.1.7,1.3-.5,1,.6.3,3.9,1,.5,1.4-.5.7.8-.2.7,2.3,1.1,3-1.5,1.8.4,1-.4.2,1.1,2.1.2.8.7-.2.9.9-.2,1,1.6.7.2v1.8l-.7.1.2.4,2.8,2.1,2.1.8.5-.6-.1-1.1,1-1.4.5.1-.5-2.1.4.8.5-.2-.4.2.5-.4-.5.5.1,1.1.8-.2-1.2.4-.7,1.2,2.3.9.9,1.3,1.1-.4,1.5-1.6,1.6.4,1-.3-1.1-1.7,1.1-5.2,1.9-2.7,2.5-.7.5-.9-1.3-2.4.2-1.3-.9-.9,1,.7.3,2.7,1.9,1.2,1.6-1.1-.2-1.1.8-2.1,3.2-2-.7-6.4-1.8-5.2h-.8l1-2.8,1.6-1.8.1-1.4,2.7-3.1-.1-.5-.7.3-.5-.6-.4-2.5.3-1.1.2.4-.2-.8.4.6-.3,1.2.5.6.1-1.3.1.9.3-.1-.4.6.4-.1-.5.4.6.3-.4.1-.1,1.3.4-.8,2.8,1.7,1.6-.1v-.8l.8-.6,1.8-.8.8.2,1.6-3,1.6-1.5,4-1.1,6-.1,1-1.7,4,.3,4.4-1.9v-.1l2.3-1.5,7.3,1.5,9.8,5.3,6.7,5.1,5,5-.4,4.8,2.6-3.6-.8-1.7.4-.3-2.4-.2-.6-1.2,1.3-1.7,1.1.5-1-.5.5-.8-.6-.5,1.6-2,5.5.3,1,.7,5.2.8,2.7-.7.7.8h1.8l.7.8.8-.5.5,1,1.2.7,2.6.2.6,1.7,1.8-1.2,4.8-.6.5-1.3-.8-.1-.1-.9,2.1-2.5-1.1.2-.6-.5-.2-1,.7-1.7-.6-.7,2.2-2.3,2-1.1,3.4-.6,5.1.9,1.2-2.1,2.3-.5.6-1.4h.1l-.7,1.5,6.1,1.5,2.8,1.6-.4-.9,2.5-2.7,2.9-1.6,3.5-.9,2.5-1.8,1.8.1,1.4-2,1.3-.6.1-.6-.8-.7-.8.6.6-.7-1.4-2.1.8-.8,1.7,1.9,5.4,2.4,1.5,2,1.8.5,1.2,1.1,2.5-1.2.8.8,3.1-.8.3.4-.1-.4.8-.2.7,1.6.3-.6-.8-.7,5.5.7h0l1.1.1,3.3,1.6,4.7,3.8,2.7-4.1,2.7-1.3,8.8-2.1,11.1-.7,5.3-1.7,3.5-.5,7.8,1.2.8.3-.2,1.2,1.3.3v-1.2l9.4,3.4-.3-.5.9-.1,3.3,2.4,1.1.3.9-.4,3.4,2.1,3.1.3,2.7-3.7,1.9-1.3,1.3-2.3,1.5-1,2.7-1.2,11.1-2.3,3.7-1.3,1.3-.7,3.7-3.8,2.8-1.4,2-.2,2.8.6.9-1.1h0l-1,1.1,5.8,1.1,2.1-.1.4-2-.7-4.4.2-2,1.5-2.7,2-2.2,4-2.2,6.2-.8-.4-.3,1.1-.3.2-1.1,1.2-.6,2.6-.3,2.2-1.1,1.5.2-.9-.3.6.1-.6-.5.2-.4,1.3-.4.3.6v-.9l2.3-1,1.7-3.4-.1-5.6-1.3-5.9.2-2.9,2.8-.8,1.3-5.2-1.3-2-.7.5-2.4-.2-1.1.7-1.9-.1-1.2.6-1.3-.3-2.6.8-2.3-.5-3.9.8-4.5-.1-2.8.8-.2-.6.1.6-2,1-2,.1.2-.4-.6.4.4-1.3-1.5-2.8-3.1-2.2-4.3-.8-1.7-1.2-3.8-.8-.6-.5.1-2.1-3.5-1.5v-1.7l-11.6.5-1.5.6-1.1,2.1-.8,1.8-1.9.6h-3.5l-1.2-.4-1.2-1.8-2.5,1.2L671,1061l-.8.7-.5,2.1-1.9,1.1-1.4,2.3h0l1.4-2.3,1.9-1.1.5-2.1.8-.7,3.3,2.5,2.5-1.2,1.2,1.8,1.2.4h3.5l1.9-.6.8-1.8L684,1061l.1-1.2,1.1-1.4,4-1.2,3,.5,2-.3,2.7-1.5,1.9.1,2.5-1,3.8,1.3,9.7-6.5,1.4-2.3h-2.5l2.4-6.7-.5-3.7.6-2.1-1-1-1.3.1-1.5,1.1-.7-1,2.6-2.4h3.5l.8-.8,1,.3-.5-.5h1.1l.1-2.1.5-.1,1.4,1.2-1-.6,1,2.7,4.8-.5,1.3-.3,6.6-4.6,3.3-4.6-.2-1.1-1.6-1,.5-.5-.4.3-.7-.4,1.1-3.3.7-.9,1-.2-.4-1.4h-4.4l-5.6-.2-3.2.7h0l3.2-.7,5.6.2,2.3-.8.9.4,1.5-.7,1.4,1,.2,1.9,1.7-2.5,1.5-.7,1.7-2.4,2.2-1.8,1-2.4,1.8-2.3,6.6-3.6,2.7-10.3.8-9.5,1.2-2.4,1.5-1.1.9-3.7,2.3-5.2.4-4.9,2.1-3.5Z M251.4,665.6h.7l.8,1.2,2.5.3.4.5,2.7-1.5,1,.3,2.6,1.5,1.2-.1,3.4,2.8,3.6-1.1,1.4-1.4h1.1l1.4,1.8,3.3,1.3.9,2.5,1.1.7.5,2.7-1,1.5.3,2.9-1.1,2.1-.4,2.6,1.1.9,3-.7,1.9,1.2-.9,4.8-.9,2,.2.7,1.4.2.6,1.2h1.2l1,.9,1.4,2.2,1.2,3.6,1.2.9h1l.3,1.9,1.6,1.6,1,2.2,1-1.1,1.1-.2,2.2,1.2,2.3,4.6.1,4.2-1.3,2.4-2.4,2.1-5.9,2.2-.5,1-2.9,2.4-1.4,4,.3,1.2-.3,1.5v.7h.9l1-.7.4-1.8,1.7-.6,3.4-2.9,3.6-1.8,1.7,1.2,2.2-.3,1.4-.3.6.8.9-.8v-.9l1.3.5,1.9-.2,3.3,3.7v2.9l.6,2.1,2.8,3.8-.4,2.9.8,1.2.5,2.9,1.9,1.3-.6,1,.5,2.2-.8.5-.5,1.5-.9.1-.6.8.9,1.7.2,2.9-.6.5-.6-.2-.6.8-.2,1.3.7.5-1.1,1,.2,1-.6,1.1-.7-1.4-.8.2-.2-2-.6-.2-.6-1.9-1.8-2.1.2-2.5,1.8-1.3.8-.3.4-1.7-.7-.8.4-.8-.4-.8-.1-.9.2-1-.5-.3-.9-4-.8-.2-.4.2-1-1v-.8l-5.5-3.8-1,1.6.1,2.4-1.4.8.3.4,1.8.3.2,1.5.9-.3.7.6-1.1.7.1,1.8.4.2.9.7.5,1.3.4,1v.6l.3.7-.5.3-.3.7.8.7-.6.6-.5,1.6.5,1.5-.5.3-.2,1.7-1.9.9.1.7,2,.3.6-.9,1.5-.7,2.7-.4-.3,1.2.5.7.3-1.1.8.7.6,5.4.2.7-.6.6-.9,2.4-1.9,2.4-.6.3-.5,1.2-.5.2-.3-1-.4-.3-.4-.4-.5.6.5,1.5-1.5,1.7-1.2-2.4-.9-.3-1.8.2-.5-.5-1.7.7-4,.4-.8-1.5,1.1-.2.4-2.1-1.3,2.6-1.2.9v1.2l.4-1,1-.6.4,1.3-3.2,2.5-.6,1.2,1,1.9.2,2.3-1.5,6.3-3.6,3.1-.7,1.6-1.8.2-1.9,2.5-2.5,1.6-3-1.8.5-.9,1.5.1-1.3-1.6L271,794l-1.2-.8-.5-2.1-.8-.6h-4l-1.2-1.1-.7.1-1.5,1.9-.8-.3-.3-2h-1.5v4.4l-1.1.4-.4.8-1.6-.3-1.8.5-1-1.5-1.3-.6-.3.7.5.6-1.4.3-.8,1-1.2-.5-1.6.7-2.1-.5-.3,1-1.8.8-1.5-2.4-1-.1-.2-.8.6-.7L240,791l1-.2-1.1-2.8.6.1,1.2-2.7.1-1-.9-2.1-1.1-1.7-1.4-.3-.5-.6-1.4.6-.4,1.4-1.2-.1L234,780l-1.3-.1-1.6-1.6-.1-.9-.8-.2-.8-4-.6-.5-.6.2-1.5-1.6v-.8l.8.4-.1-.7.5-.4-.1-2-1.7-4.1-1.2-.3-.3-2-.7-.8-.6.2-2.2-2.5-1.4-1-1,.3-.2-.7-1.3-.7-1.8.9-2,3.4-1.5,1.2.5,1.3-1.1.2-2.2,1.9-2-.4.6,1.7-.2,1.4-.9-.1-.6.6-.3,1.3,2.2,1-.3,1.2h1.1l1.2,2.2-.9.9.6.6v1.7l-1.5.5L207,777l-1,1-1.5.4-.2.8-1.2.2,1,.8-1.4.4.1,1.8.8.9-1,.9-.6,1.5.2,1-1,.8-.1.7H200l-.6-1.1,1.4-.6-.9-.9.9-.8.4-1.5-.7-.5-1.1.4-1.9,2.5.6.8.6-.1.7,1.5-.6.9-.4-.9-1.4,1-.9-1.8-1.8,1.1-.1-.7,1.1-1.2-3,.3-.3-.6,1.2-1.2-1.2.1h0l-.6-.3v-1.3l-2.5-2.8-.8-3.5-1.1-1.5-.2-1.2-2.8-1.8h-1l-.4.8-1.6.8,2.7,2.8,1.4.2.8,3.5,1.9,1-.2,2.7,1.8,2h0l-.8,1.9-3.1-1-1.1,1.4-1.2-.7-.8-1.5-1.5-.1-1.3-1.1-.4-2-2-1.8-1.1.5-.7-2.6-3.1.4-.9-.9-3.4.5-.6.5-2.7-1.6-.3-4.8-.8-1.3.2-1.4.7-.8-1.4.1-.4-.8-.7-.2-.6.7-.8-1-1.7-.3-3.2-4.5.1-.8h-2.2l-2-1.6-1.5-3.2-4.5-4.1,1.1-1.3-2.1-1.5,3.4-.3,2.4-2,2.4.1.1-2,2.3-4.3,1.2.2,1.1-.5,1.1,1.6,6-.4.6.4,1.4-1-.4-1.3,2.1-1.8.1-.9,2-.6.9-1.3,2.9-1.1.4-.9-.6-.3.3-.8-.4-.7-2,1.5-1.3-.6-.8.3-2.6-2.4-1.1,1.2-1.5.3-.4-2.2-2.6-.9-.4-.6-.4-1.3.9-1.4-.8-.2-.5-1.2,2.5-.1,1.3-2.2,1.7-1.5.8.2,1,1.6,3.5,1.4.6-1,3.7-1.7,2.4-2,1.4.8,1.7-.1.8.1,1.9.2.6-1-.7-.7.1-3.5,1.3-1.9,2.8-1.8,2.4-5.3-.6-2.4.3-4.2.8-.8,2.5-.4-.6-1.2.3-2.2-.4-.8,1-1.5-.7-1.2.7-1.6,2.8-3.2,1.8.5,1.2-1.1.9.6.8-1.5.9-.3h0l.4,2.5,1.1-.5.4-1.2h.6l.5.1,1.6-.4,2,.2.4,1.4,1.1.5,4.7-.8.4-.2.2-.8,1.9-1.9-.5-1.2.1-.5.8-1.6,1.1-.3,1.4-5.2v-4.1l1.2.3,3.6,2.5,10-.1.7-2.1,3.8-1.1.3-.5-.5-1,1,.8,3.3-.4,2.7-1.4.4.4,1-1-.2-.9,1.6-.8.1-.7,2.3-.6Z"
  />
  <path
    id="gb-sct"
    name="Scotland"
    d="M339.2,634l1.1,1.5v1.4l-1.5-1.5-.2-1.1.6-.3Zm-11.3-20.5,3.9,2.2,2.5,2.6,1.4,3.9.7,3.8-1.6,2.1.1,1,2.7,1,1.6,2.2-2.7,2.4.5.9,2.5,1.4-.9,2.3,1,2.8-.3,1.1-2,1.8-1.3-.6-1.5.2-1.8,1.1-3.7-.4-.7-.6v.4l-.4-1-3.3-2-.8-3.6-1.8-.9.8-5.6-.3-1.5-2.9-4.5v-2l1.9-5.5,2.2-1.1.9-2,1.8.1-.5-.6.5-.8,1.5-.6Zm-29-.9.8.8-1.2,1.4.6,1.2-.6,1.4.9.2-1.1.9.5,1.1-.3.9-1.8,1.5-.4-1,.6-1.4h-.7l-.2-1,1.2-1.8.5-1.9.5.2.3-1.4-.6.2.2-.7.5.1.3-.7Zm51.6-7.1.6,3-.5,1.4-.8,1-.3-1-1.8,1.2-.3-1.3,1.3-3.5,1.8-.8Zm-17.6-14.7,1.4.3,3,3.4,2.2,1.2.2.9-.8,1.2,1.7.4.3,2.3,2.1-.5.2,3.8,1.3,4.5-1.6,1.7,1,1.3.3,1.5-1.6.9-1.7-1.4-.7-3-2-1.9-1.4.6-.3-3.4-.8.1-.4-1.2.6-3.6-2.1-.8-2.9-3.9v-1.3l-.5-.5,2.5-2.6Zm-59.4-1.5.5.5v1.5l-.8,3.3.8,1.1,1.1,4.7-.1,3.2,1.2,3.3,2.4,2-.4,2.4,1.5,2-.7,1.6.6.9.4.6.4,1.3-1.9,1.8-.6.4.2.4-.7.4-.5,1.7-1.1.5.3-1.2-3.9,2.5-1-.6-1.3.8-.5-1-1.3.3-.3.4.5.7-1.9,3.2-1.1.3-.6,1.2-2.8-.3-.1-.7-1.6-.3.6-2.1-.3-1.1,2.1-3.5,2.1-.1.2-1.6-1.7-4.1-1.5-1.4-1.8-.1.1-1.5.7-2,1.7-.4,1.9-1.3v-1l-1.5-1.4-2-.2-1.5.6-1.4,4.1-2.7,4.3-4.6,3.9-1.4-.7-.2-1.2-.9-.7,1.7-1.4.2-1-.7-.5.6-1.8,1-1.3,1.2-.5-.5-.5.7-1.5v-1.3l-.3-.5-1.4-.2-.1-.6,1.8-1.8.2-1.5-.6-.5.6-.5V599l1.3-.3.3-.6,1,.9,1.3-.7.7-1.3,3.5-2.5.4.6.2,1.2,2-.3,3.2-2.7.8-1.3,1.4-1.6,1.5.2.7-1,2.7-.3Zm-1.3-21.9,1,1.4-1.6,2.9-.4,1.7-2,2.2,1,.8-.5.7.3.3-1.5,1.7.3.8-.5.7-.3-.6-1,.3v1l-1.5,1.2-.5-.7.5-.9-1.3.1-.1-.7-.1-.3,1-.7.6-.5.1-1.1-1.2.8-.6-.3.8-.6.1-.8.8-.1.1-.6-.5-.2-.1-.8.5-1,.3-1,1-1.4,1.5-.8-.1-.6.8-.3,1.2.5V569Zm27.6-1.9,1.4,2.3-.4.7.4,1.3L297,577l-1.4,3.5-1,.4-1.7,4.5-.6.6-.4-.3-1,3.2.4.2-2,4,.2,1.7-.9,1.2.3-1.2h-.8l.1,2-.5.6-1.3-.6-.8.6-.9,3.6.7.9-.8,1-.7,2.8L281,605l-1.7.3-.2-.6-1.6-.6-1.4-2.8v-3.6l-.6-1,.7-3.4.7-.4,1.9-3.9,1.1-.8,6.3-1.4.6.3,2.1-1.3-.2-1h-.5v.5l-1.2.1-.3,1.1-1.3.4-3.4-1.7-.8.2.4-2,2.1-2.8.8-2.3,5.6-4.8,1.7-1.2h1l-.1-.8,1.2-.8.2-.9,1,.3.5-1.1,1.9-1.2v-.9l1-.5.5.4-.1-.9.9-.4Zm1.2-5.7,1,1-.3.7.5,2.1-.7-.1-1.1,1.1-2.8-.1-.5-1.1.5-1,.4.2.6-1.4Zm5.1-3.4,1.1.8.2,1.8-1.5,1.4-.5-1.7.7-2.3Zm-1.9-4.5.5.6-.1,1.2.9.8-1,3.2.3,2.8-.4.5-.9-.5-.1-1.5-.9-1.2.6-2.2.2-.9.2-2.1.7-.7Zm2.9-5.7.2,2.2-1.1.9.5,1.6-.9.4.1.6-.8.7-.8-1.2.2-1.7-1-.2-.2-.6,2.2-2.8,1,.5.6-.4Zm-49.8-3.4.1,1.8-1,2-1.4,1.3-1.2-.3-.3-.5,1.4-1.5-.8-.7,3.2-2.1Zm55.8-8.4.6.4-.6.2v.8l-3.4,4.5-.5.3.4-.9-.6-.4-1.6.2,1.6-3.2h1.2l.9-.7,2-1.2Zm-50.9-8.3.4.1,1.3-.1.5.9,1.7-.8.7-.3h.7l2.8,2,1,.2,1.3,1.1-1.2,1-1.7-.3-.3.7h-.7l-.5-.6-.5-.2h-1l.3.8-.5.5-.5-1.8-1.4-.6-.5.6-.3-1.2-.7.5-.9-.2v-2.3Zm55.4-7.1-5.1,7.2-5.1,4.2h-.7l1.4-1.7.3-2.1-1.4.3,3.9-1.9,4-4.7-.1-1.1.9.6,1.9-.8Zm-83.6.4.9,1.5.9.1.1,1.9-.6.4-.7.2-.9-.3.4,1h-.7l-.7-1-1.7.4-.4.9.9.9-1,2.1h-2.2l-.7-.4-1.2.5-1.2,1.6.4,1.5-.4,1.8-1.2.5-1.2-.3-.6-1.5-.9-.3-1.5.7.3-4.1-.3-.7-.4-1.1.2-.4.7-1.5,1-.2.4-.8,1.2-.3H224l1.6.4.2,1,.7.1,1.1-1.4,2.5-1.3h.7l1.2-.2.7-.2.4-.3.9-1.2Zm39.5-11.3.6.3.2,1.1,3,.6.5,1.2-.6.9,1,.9,1.3.2,1.2,2.4,1.5,1.2,2.2,6.6.9-.4,1.3.9.7-.7,2.7.1,2.1,1.5.4-1,1.9.3,1.9,2.9,1.5.8,1-.7,1.1,1.9.8.1,1.1,1.1.3,1,1.4-.5.4,1.1-.4,2.8v.8l-.9,2.8-.8.8-2.4-.8.5-2.7-2.1.5.7.6v1l-1.4.4-.2,1.2-2.1,1.8L300,539l1.1.2-.3,1.4-3.2,3.3-5.3,2.9-.2.6-2.7-.5-.9-.8,1.6-1.3V544l1-.4-.3-1-1.1.4-.2-.6-1.7,1-1.9,2.9-1.8.4-1.7-.5-.6,1.1-2.9,2.2-.9.1-1.3-1.2-.6.5-2.4.1-1,1.4h-.8l-.8-.7-.9.5-1.4-.7-1.4.9-1.5-.3-.9,2.4-.6-.1-.7-.5-.9-.3-.8.4-1.2-.3-1-.9-.5-.4-1,.1-.9-.4.5-1.4-.1-1,1.5-4.3,3.8.3.6.4.9.5.2,1.4h-1l1,.6h1.7l.1-1.1H266l-.3-1.1.3-.6,1-.1,2.6,1.3.2-.5.5-.5,1.4.5,1.8-.5,1.5-.2,2.6-1.5.7-.2,2.2-.9.6-1.2-.6-1,1.1-.2L280,538l-2.2,2.1-1.4.5-1.7.6h-2.5l-1.7,1-1.2-.2-1-1.7.2-1.4,3.5-3.1.2-1.7.6-.4-.4-.8,1.7-1.5,2.2.4,1.8-.5.7-1.2,1.6-.6.4-1.2.8-.3v-1.3l-1.1-.4-1.5,1.2-3.8.7-1.2.8-.6-.4-.4-.6-.9-.1-.2-.7.7-.4-.6-1.1-1.5-.6-.8-.4-2.7-2.2-3.6.7-.5-.7-.9.1-1.9-.9.2-1.9,2.1-.6,1.4-2.3-2,.3-.6-3.5.8.5,1.1-.6,1.4.4.8-1.3,1.5,1.2.4-.8-.1-2.6h.8l1,.3.1-1.2,2,.2,1.2-1.3,1.3-.4ZM251.8,504l1.2.4.1,1.5-2.9,6.1-.5.5-1-.9-.2,2.4-1.5,1-1,.9-.8.4-1.2.1-.8.9-1-1.5-.8,1.8h-.6l.2-.9-.4-.2-1.6.2-.2,1.8-.9.6-.3-1.5-.6-.4.5-1.2.5.6,1.2-1.8.2.7,1-.2-.1-.8.8-.1.6-1.9,1.1-.4.4-1.9h.8l1-.8.8-.6-.1-.7,1.3-.4,1.2-1.9,1.5-.5.3-.7.5-.4,1.3-.2Zm-73.7-11.2,2,.7-1.6.7-1.5-.8,1.1-.6Zm86.7-6.8.6.1.9.6,1.2-.3.5,1.1-.2.9-.5.1-.6.5-.8-1.2-.6.8-.7-.2-.5-1.1,1-.5-.3-.8Zm-85.4,2.3h.4l-.7,2.1.4.9-1.3.7h-.7l-.3-.7.6-1.2-.7-1.1.7.2,1.6-.9Zm2.9-3.7,1.4.7-.9.9L181,486l.6-.7-.3-.5,1-.2Zm90.4-9.7,1.4,1.1.5,1.4-.3,4.1-1.3,2-1.5.1-2.9-1.6-.2-2.1,1-1.3,2-.1.2-1.7-.6-.7Zm-87.2,5,1.7.4.6,1.5-.5-.3-.1.9-1-.4v.5l-1.1-.8-.4-1.4.8-.4Zm-2.7-5.4,2.3.4.2.4-.6.4,2.7.3.9.7-2.2-.4-1,1.3H187v.5l-1,.6-.7-.2-.2.5-1-.1-.8-1.5h1v-.8L182,476l1.3-1-.5-.5Zm78-12.9,2.3,1.4.6,1,1.4.4.8,1.9-1.7.5v.6l1.9.2.4.5-1.4,5-1.6,1-.5,1.2-1.1.8-1.2-.1-1-1.5-1.5-.4-.5-2.4-1.1-.2-4.1-3.8,3.1-2.6.8-1.5,4.4-2Zm-14.3-1.1,4.3.3v1.4l1.2.7.3.6h-1.1l-.4-.5-1.4.5-.3-1.5-1.1.1-.4-.1H247l-1.1,1.3-1.8.5-1.3-1.1,1.9-1.5,1.7.1.1-.8Zm-56.2,1.3,1.8.9-.4-.1,1.1,2.7-1.1,1.2,1.4,1.8.6,1.1,1.1.3.1,1.2-1.2-.1-.5.4-.7.4-.8,1-.5.2-.3.4.7.9-.5.5-.7-.3-.4.7-1.8-.3.1-.8-.6-.2-.6.7-.5.5-2.8-.7-.5-.6.7-1.8,1.7-.1.7-.8v-1l.2-.7-.6-.5.8-.8-1.4-.9,2.7-.2,1.5-.8.8-2.5-.4-1.7Zm3.9-.3,1.1,1.2-.9,1.1h-.7l-.4-1.4.3-.4Zm5.3-3.2.2.4.5-.5,1.6.1-.6,2.8.1.5-.9,1.1-1.2-1,.3-1.3-.7-1.4.2-.6.5-.1Zm69-8.9,1.5.3.1,1.3-.8.8-1-.5.4,1.9-1.2.7-1-.3-1.1-2.2,1.8-1,.3-.1,1-.9ZM281.8,431l2.9.8,1.5,1.3.1,2.9-1.2.9-2.5.1-.8-1.5-.8-.2-.9-2.3.4-1.5,1.3-.5Zm-75.1-10-.5,1.1.5.3.1.5-1,.7v.3l-1.9-.6.5-.4.3-.3-.2-.7,2.2-.9Zm-10.9-.4,1-.1,2.5,2.5.9.1.2.1-.7.4.6.8.4-.4,1.1.8.2.8-1.5-.5.5.6.8.5.4.5,1.6,1.5,1,.1-.1.9-.6.7h-.9l-.6.8-.6-.4-2.1-.9.2.4,1.5,1.6,1.1.3.9.1.2-.6.5.2.5.4-.5.6.6.5-.1,1.1,1.4-.5.4.8-.7.5.3.4-.4,1.2-1.4-.1-1.7,2.5.7.4-.1.9-.9.6.2,1.1-.3.6-.6.6-.8-.2-.1.5-1.4-.5.4,1.2,1.6-.1.2.7h.6l-.3,1.9,1,1.2.4,2.3-1.5,1.6h-1l-1.2-.7-.5.1.1.5h-.9l-.7-.1v-.5l-1.1.2.1.4,1.5.7v.5l.7.4,1.7-.7,2.7.8-.4.9.7.3.7-.1.2.8.9.2-.4,1.2-1,.3.3,1-1.9-.4-1.3-1.1-1.7.7-4.2-.2-.5-.8-1-.1.3-.8-.5-1.1-1-.3.7-.9-.9-1.2.7-1.4-1.3-3.8.2-2.7-.7-.5v-1.8l-1.4-.6,1.3-.2.8-1.3.1-2-.4-.4.5-.1.1-.9-1.2-.4.3-.4.8.5.3-.8.8-.2.3-1.2-.1-4.9-1.8-4.7.3-.5,1,.1.7-1.2,1.4-.2-.2-1.6.7-.4.4.6Zm87.1-9.3-.3,1.8-1,2.8-1.6,1.6-.4,1.4.8,2,.1,2.6,1,2.1h.6v1.5l-1.8,3-1.9.5-1.1-.7-.6-1.9.2-3.4-.5-.5.4-.6-.6-3.8,1.6-4.5.6-.3,2,1,.4-1.2-1.2-.5-.2-1.1v-1.3l.7-.9.8.8,1.1-.3Zm-75.8-1,1,.1-.1.6.8.6-.5.2-.6.2,1,.4-1.5,1.8-.8-.5.3-1.3-1.2-.7.3-1h.3Zm-9.6,1.4h0l2,.9.8-.5,1,.6,1.1.4.6.3.3.2.6.3,1.6,1.5.5-.1-.7.7-1.5-.8-.4,1.2,1.1-.1.4.6-1.5-.1-.6-.1.1,1h-.4l-.2-.5h-.6l.4.5.1.4.7.7,1.2.2-1.2-1,2-.1,1.1,1.3.1.6-.1.5-.2.4.5.3-1.2.6-1,.3-.4.5-1.9-.7.5,1.2-1.6-.6v.8l-1.3-.1-2.3-2.5-1.1.1-.6-.6-.6.3-1.5-.8.5-.1.1-.8-.3-1-.9-.8V416l.6-.4-.8-.3.2-1,2-.5v-1.6l2.8-.5Zm86-10.9.6.2.4,1.6-1.6,6.7-1.3-1.9.3-.9-.6-.9,1.4-.4-.6-2.8.4-.6.4-.1.8.6.1-.6-.6-.3.3-.6Zm-105.6,5.6.5.3-.3.6.9.5,1.4-1.2.7.4-.5.7.5.3-.9.2-.4,1.2h-.9l.7-.3-.2-1.2-.7.5-.9-.8-1.2.4.4.5-1.2-.2.3-1,.5.4,1.3-1.3Zm82.8-19.2,1.3-.9h.8l.3,1.1.1.6,2.5,2.3.9,4,2.7.6,2.6,5.5.8-.1-.7,2.5.5,2.3-.5,5.4.8,1.7-.6,6.4-1.9,2.3-.6-.5-.6.9.6.5h.7l.9-.6,1.2.1,1.1,1.3-.5,2.4-.8.4,1.8,3.4.8-.4.6.6-.8,1,.7,1-.4.8-.5-.4-1.5.4-1.3,1.9L274,432h3.8l1,2.4-2.4,2,.2.8,3.3-2.2,1.4,1.8,3.6,1.4.2-.4,1,.1,1.2,1.2-.5,1.3.9.2,1-.3,1.4-1.5,2.9-.1,2-1.6,1.6-.5,2.7.4-1.2,1.3,4-.5,1.2,1.1-1.3,2.3.3,1.3-.5,1.8-3,2.8-3,1.7-1,.4-1.3-1,.3,1.6-.4,1.4.3.5.8-.8.2.9L294,453l-.1.4v1.3l-1.4,1.6-1.7-.1-1.2,2.8-.8.3-.7,1.5.2.8-1.4.9-.6,1.2-2,1-1,.4-1.8,1.3-1.1.2-.4-1.2-.5-.9-.4-1.3,1-2.8.7-.3-.1-.5.7-3.2.8-.2-.4-.7-.8.1.4-1.1,1.6-.9-.2-.6.5-.5,1.5-.6,1.1-1.2.8-1.1,3-.7,1.2-1.6-1.7,1.1-1-.3-.1.8-1.5.2-1.3-.6-3.6,1-.6-3.8-1-.7-.9-2-.2.8.9,2.1-.3,1.5-.6.9-.6-.2v1.3l-2.2,5-1.9-1.5.6-3.5-.4-2.1-.8-.6-.4.8-.9-.3-.4-1-.4.2-.3.5-.7,1.7-2.5-.3-6.4,2.2-.6-.2.5-1.4,1.7-1.7.2-1.3-.9-.2-2.6,1.7-1.5-.8-1.4-2.4v-1.4l2-.4.4-2-1,1.2-2.6.4-1.4-1.1-.1-1-1.5-1.5-.6-2.7-1.4-.9v-2.1l1.6-1.4.6.2.6-.7.6.1-.1-1.6,2.8,1.6,1.9,2.7,1.6.6-2-3-1.7-1.7-.5-.5-.7-.3.3-1.3-.8.9-1.9.1-.8,1-.3-1,.6-1.2L251,426l.3-.8-.6-.7.3-1.7-.6-1-.5,2.4-1.6,1.8.4-1.4-.5-.3.6-1.1-.7-1.1-.1,1-.6.4-.7.6-.6-.6-.7.2.4.4.2,5.4-.5.7h-.7l-.8-.3-1.8-1.7-2-.9-1,.4-1.9-1.9-1,.1-1.4-2.3.6-.7-.9-2.5-1.3-.6-.2-.6-1.4,1,.2-2.3.5-.6-.2-1.5,1.5-.1,2.4,1-1.4-1.7-.4-2.3.1-1.9,2-1.6.8,1.9,1.1.9,1.3,2.3v1.2l.9.2.8,1.8.8.2.1.6.8-.4.1-.9.5.1.4-.9-.4-.5-.6.5-.7-.5-.1-.5.6.2.1-.7-.6-.6-.8-3-.6.2-.1-.8,1.8.1,1.2-.9,1.8,1.8.6-1.4-1.5-1.1-1.3-2.3-2.3-1.8-.5,1.1-.3-.2v-1.1l.8-.5.5-2.9-.1-3,1.3.3,2.1,2,.9,1.9.2,2.8.8.5.9-.4,2.2,1.6,2,2.4.7,1.7,2.2-2.2-1.3,3.8.6.9.2-1.6,1-1.5,1.2-.5-.4-1.5.5-.7,1,1,.5,2,1.6.8.6.5.4.2.5,1,.4-.6-2.8-3.3-2.1-5.4.3-.9.8.7,1.3-2.6-.6-.3-.4.6-1.2-.1v-3.2l-2-3.5.4-.7,1-.3-.2-1.2,1.6.1,1.9-1.3.5-1-.3-.5-.3-1.6.6-.5.6-.5Zm-61.6.3-.2,2.4,1.4.7.2-.3,1.8.6.9-1.7-.1-.4-.7.3-.2-.7,3.1.1.7-1.3.9.6-.4.6.9.1,1.5,1.5-.4.9.5.3-.4.6.2.2.8.1,1-.8.6.1,1.3.9.1.6,1,.6.4-.3.8.9-2.4,3.9-2.1-2.1-.6-.2-.3-.1-.2.2-.5.8.5.7-.3.6.1.6.1.8-.4.5.6.5.6-.6.9.3.9-.8.8.3-1,3.2-1.8,1.1.7.5-.4,1.5.4.7-.9,1.2v1l-.1.7-1.8.1-1.2.1-1.6-.1v.8l1.4,2.5-.3.7-1.6-.6h-.8l-1.2-.8-.6-.1-1.2-.5-.8.5-1.8-.8-.5-1.1-.8.5-1.5.4v-3l-2.5-2.7-.2-.2-1.5-2-1-.1-1.8-.3.1-1-.8-.3-.5-.6-.6-.9-.8.2-.4-1.3-.9-.2.7-1.1h.6l.7-.2v-.9l-.6-.5,1.7-.8-.3-1,.8-1,.3-.4-.6-1,1.2-.5,1,.6.7-.5.4.2,1.5-.1.7-.4.7-.5H195l.2.4.2.5,1.5-.7.4-.7-.5-.8h.6l.1-.6.7-.2.1-1,.8.1Zm1.4-2.7.9.6-.3,1.9-1.3-.8-.1-1.2.8-.5Zm7.9-2.2,1.3,1-.6.7v1l1.9,1h-1.2l-1.5-1.5-.5.3.6,1.2-.7-.3-.3,1-3.1-.3,1.7-3.6,2.4-.5Zm4.6-1.3,2.4,2.6-2.6-1.4-.2-.8Zm.6-2.8.7,1.8-.4,1-1.5-2Zm-9.4-1.3.9.1,1,1.6-1.4,1.3-1.4.1-1.5-1.4.6-1.1,1.8-.6Zm33.1-11.1,3.4,1-.3.5.6.2.2,1-1.9.8-.2-.4-.6-.1-.9-.1-.4-.7-.2-.6-.4-1,.7-.6ZM218.1,361l1,.4.4,1.8-.4.7-.2.5-.9,1.5-2.3-1.7-.4,1.4-1.5.9v-1.7h-.7l.1-.6.7.2.1-.5,1.6-.2.5-1.8,2-.9Zm-7.7-13.7,1.5,1.2.5,2-.3.9-.8.1-1-1-1.2.3-1.2-2.1.6-.8,1.9-.6Zm15.1-26.6.4.5h2.2l1,2.1,1.1-.1.3,1.1.9.5.6.5.3.4v2.1l-1.3-.7h-4l-.5-1.5,1.1.4-.1-.7-.4.1-.7-1.1v-.5l-.7-.8-.2-2.3Zm39.7-30.5,1,1.3,1.3.6-.2,1.4,2.8,2.7-.9,1.1v1.4l1.7,2-.1,1.5-1.3,1.1-1.5,4.6,1,1.7,2.2,1.5-2,.4-1.7,2.5-.7.1-.6,1,.1,1.6-2.1.6.3.5-.6.8.3.7-.4.6-2.4.4-.4,1.1.5,1.5-1.2,1.5,2,2.5.6.3.5.1,2.3-2,.7.2.8-.6,1.3-2.3,1.9-.6.5-1.2.6-.2,1.4.6-.3,1-.9.5.4.8-1.1,1.4.7.9-.4.8-.7.9-2.2,1v1.1l-2.1,1h-.9l-.2-.8-1-.3-.9-1.9-1.7.3-.6.6-.2.2-.2.8-.7.3-.7-.3-.3-1.6-.6.4-.9-.3-.4-1.1-.5.6.7,1.9.4.3-.4,1,.6.2.7,3-.4.6.3.5v1.4l-1.2.3-1.1-.1-1.1.1-2.8-1v.3l.3.3,1.1.5.5-.2.9.8-1.8,1-.9,1.3-1.2-.1-1.5.1-1.1.5-.1.4-3.3.7.9.9.2-.8,2.3.1,1.1-.8h1.6l.7-.2h1.8l.8.7.5-.9-.7-.4,2.3-1.4.2,1.1.2.6-.3.7.1.9,1,.7.8.3-.8,1,.8.4-.4,1.9h-3.8l2.1.8,2.7.2-.5,2.5-1.4,1.1v1l-1.9-1.5-.8.2h-.3l-.9.6-.4-.7-.7-.8-.2,1.1-1.8-.8.6.8-1.4.2-1-.9.1,1.1-2.8.1,3.3.7,2.7-.3,1.5,1.5-.4.4.5.8-.4,1,.3.6-1.2.5-.2,2.8-1.9-.3-1.1,1.6L247,357l.5,4.7-1.5.3-.9.5-.4-.4-.9-1.1-.9-3.2-.5.2-1.3-1.5,1,3.3,1.3,2h-1.1l-.5-.6-.8-.3-.4.8-1.5-2.1-1.1-2.9-.6-.2-.7-2.6.5-1.2-.6-2,1.6-2.9,1.4-1v-1.3h-.3v.9l-1.9,1.6-1.5,2.2-2,1.1-.1,1,1.2.6,1.1,3.4-.2,1,1.1-.1,2.1,3.8-.5.8-1-.3-.9.4,2.7,1.8.3,2.1-2,.2-3-.7-.9-1.1-.9-.3-1.9.1.8,1.2.1,1-.7-.7-.7.4.5,1.7.9.3.3-.7.7.4,1.2,3h.9l.3,1.8-.9.6-.6.1-.8-.5-1.5-1,.6,1.8.2.5-.4,1.2-1.3-.6-.7-.4-.6-.2-.8,1.4-.4-1.3-.6.1.4,1.7v.2l-.6.3-.3-.4h-.7l-.1.6.7,2h-1.5l-.2-.4h-.4l-.2,1.2.6.4-2.4.7-.4,2.3-.8.3-1.2-.6.6,1.5-.6.1-1.8-2.8-1.1-.3-.1-.6-.6-.8-1.5-1.2-1.9-3.3-1.1-.2-1.1-1.1-.9-2.5,1.7-.5,1.4.8.3,2.1.1-1,.9.2,1.4-1.3h1.1l.4-1.1.7-.3.6-2.4.6-.4.7.6,1-.6-.3-2.3.9-.7V363l.6.4,1.4-1,2.3.5.6.7,1.3.1.3-.7,1.9.5-2.7-1.8-.6-.9,1.6-.4-.4-.8-.6.6-3.5-.8-.5-.5-1.4-1.2-1.6.1-1.9-1.8-.3.3.6,1.1-1.8.3-2.1-1.2-.1-1-.6.5-.8-.2-.2-2.6-.5-.6-.8.9-.7-.3.3-.9,1.2-.6.4-2.4,2.1,1.4.2-1.5,1.2-1.1,2.5-1.2,1.5.2,1.7-1-2.6.2L216,348l-1.4-.9v-.6l2.6-.9-2.4-.1.4-1,1.9-.9-.4-1.2-.7,1-1.8.8-1.2.3-.8-.7-.8-5.2h-.6l-.8-1,.4-2,.9.2.5-.8.2-.7.9-1.1-.4-1.8-.6-.3.3-.8,1.2-.7.2.6,1.3.4.1-.7.4-.4-.9-.8.8-1.5-.5-.3.6-2.4.7-.1v-.7l1-.7-.1,1.4.6-.4,1.4.3,1.2,1.5.6-.3-.2-1,.5-.5,1.6,2.2,1.2-.1.4.6-.2,1.2-2-.1-1.2.1,1.9,1.9.6-.2.5.2h1.4l.4.9h.4l.1-.9.3-.2.8-.5.8-.3.7-.9.7-.2.4.5,1.7.1.8.6,1.4.8.6-.6,1.1,2,.4-.8v-.6l-.3-1-.5-.1-.9-.2-.6-.5.3-.9.9.2.2-.5-1.2-.6-1.4-1.8-.5-.3-.8-1.5-.6-.6.2-.7-.8-1.8-.4-.7-.2-.5.8-.8.5.1.7-.8-.6-.9h1l.8-.7,1.5-.5,1.4-.7.3-.9,1.4-1,.9-.1,1.2-.5.2-1,.6.2.4-.6.7,1.4,1.1-.4.4-.3.8-.4,1.5-1.4,2-.1-.1-1,1.7-2.8,1.4-.2.8-1.4,2.7-1.9.5-1.3,4.9-2.8,1.4-2.3,1.9-.3,1.9-2.2v-1.1l-.6-.4,1.8-.9Zm181.3-18.8,1.4,1,.7,2,2.1.4,1.9-1.2,1.8-.2.7.6.8-.1.3-.5,1.9-.6,2.1,2.6,3.6-1,2.2.4.9-.5,1.7.5-.8,1.8-.3,3.8-1.8.7.8,1.3-.5,2.1-3.9,5.3.5,4.6,1,.9,3.1-.7.5,1-.5,1.4-.1,2.4-1.5,2.1-.4,2.3-1.4,3.1.1.9-2.8,2.4-4.3,5.5-2,.9-2.4.2-2.6,1.4-3.6,2.3-1.6,2.5-1.4,1.9-1.7,1.9-.7,2.1-2.1,2.9-6.4,4.7-1.1,1.6-1.9.7-.8,1.4-2.4,2.3-1,.1-1.2,1.6-1.1.6-.8-.4-1.7,1-2,2.2-.6,4-1.7.4-1.3,1.6-2.9.7-2.9,1.5-1,3.3.5,1.4-.6,1,.4,2.2-1.1,1.5-.1,1.2.6,1.1.5.6,2.1.4-2.6.5h-2.8l-4.6.8-2.1-.5-1.2-.7-.2-.7-1.9-.5-3,.1-1.1,1-1.1-.1-.2.4,1.8.4,4.6-1,2.2,3.3,1-1.2,3.1.8,1.2.9,1.2.4,3.7-2.4,3.1-.9,3,3,.9.5,1.3-.2,1.8-.9,1.1-2.9,2.5-.7-1.1,3.3-5,7.3-2.9,2.9-1.1,3-2.6,3.7-.9.4-3-.4-.4-1.6-1.5-1.5-.8.2-2.3.9-2.9,2.9-2.7-.6-1.1.1-1.5,1.5-1.8-.1-.9,2.3-2.8,1-2.1,2.9-1,.5-1.4,3.3.7-.1.4-1.1.7-.7.9-.3,7.1-6.3,2-1,3.8-.3,1.1,1.4,1.1.4,2.1-.4,3.1-2.2,2.7.9-1,1.8-2,1.5-3.7,4.8-.7,2.1,1.4,1.8-2.7-.5-1.8,1.2-4.8,7-7.2.4-1.2.3-1.1-.1-.5.5,1.4.7,1.5.7,4.3.3,1.6-1.2,2.1-.6,2.8.9,1.9-3.2,6.2-4.5.3-.9-.3-.7-1.7-1.3,3.1-2.5,1.7.1,4.4,1.9,3.8-.4,1.6-1.1,2.2-2.5,2.2-.8,1.5-1.5,1.3-1.5,4.9-1.3,1.1-.5,3.3.8,3.2-.3,2.1-2.1-.1-2.6h2.4l1.5-.9,5.5-1.6,2.7.6,1.7-.4.9,1.4,5.5,2.9,9.4,2.8,5.8-2.6.8-1.4,4.5-1,.4,1.1,1,.5,2.1-.9.9.9,1.8.2.5,1,1.6-1.1,2,1,1-.8,2.1,1.1,2.1-.2,1.2.4,1.3.6,2.4.1,1.8-.2,3,.5,1.3-.5,1.9.6,2.4-.9.7.7,1.4-.8.1-1.3,1.8-1,2.2,1.9.9-.3,2.4.4,1.2.9,1.1-.3.8-1.1.6.1,2.2-2.1.5.4,2.5-.3,1.8.8,2.3-.6.6.8-.2,1,.7.5,1.4.4,1.5-1,1.4,1.3,2.4,4.6,3.7,2.3-.3,4.2.7,1.9.8.7-.2,3.2.5,1.2,2,1.4-.3.8-.8,1.1-.7.7,1.4,1.8-.6,1-2.3,2.9.2,1-.7,1.2-1.9,1.3v1.9l-3.3,2.8-.8,1.7-2.9,2.9-2.9,5.8-2.4,5.9-1.3,5.2,1.8.3-.2,2.3,1.9,1.5v2.4l-1.3,2.5h-2.1l.1.7-1.6,2.7.2.7-4.2,5.8-1.2,4.4-1.7,1.4.8,1.9-.4.5.1,4.4-1.2,1.6v1.5l-1.1,2.2-1.9,2.2-1.6,1.8-.9,2.3-1.2,1.4-2.1.9L509,495l-1.1-.2-1.7,2.3-1.5,4.9v.7l.7.5-.3,1.7-1.8,1.8-1-.1-1,1.6-.1,2.7,1.4.9-2.5,3.9-.1,1.1-1.9,2.4-3.6,1.4-1.5,2.5-2,1.2-1.8,1.9-.8.1-1.5,4-5.1-1.6-1.2.5.7.6-3.3.5-1.4-.7-1.1.1-2.8.6-2.7,1.5-2.9.8-2,1.5-.1,1.3-1.3,1.2-.9.8-.1-.1-.9.2-.6-.4-1,1.5-2.2,1.3-1.1-.1L456,541l-2,.3-.5.8,1.2.5,2.4-.7,1.9-1.5,7.7-3.5,2.8-1.7,1.8-.5,2.4-1.3,1.6-1.8,2.1-.2,6.4.8,4.4-.3-.2.1-1,.5h-2.5l-1.5.3-.4,7.7.4,2.8,1.3.7.2.7,4.5,1,.8-.3,2.1,1,1.8,2.8,2.2.8.7.9-1,1.9-1.1.3-4.2,4.2-6,2.7-1.7,1.8-1.4-.5-.9.6-2.2-.8-.6-1.5-2-.8-1.3-.3-1.5.8-3.3,3.6-2.2,1.2-1.9,2.7h-.7l-1.8,2-1.8.8-.2,3.3-1.2,2.6-1.1.1-1,.8-1.1-.4-.7.4-1-.7-1.7.4-2.6,2.5h-1.2l-1.1.9-1.6-.1-.6,2.2-1.3-1.2-.5.5h-2.8v-1.7l-5.5-1.3-.9-.7-2.3.3-.6-.6-2-.1-2.4.2-1.5-.8L424,574l-.5.5.9.7,1.4,2.6,4.3,1.2,1.3.1,3.8,1.7,10.4,2.6,1-.1,1.8-1.2,1.3.4h1.6l2.3,2.2,2.8-.8.3.7h1.1l1-1.1,1.5.4,2.2,2.7,2.7,1.7,2.1-1,2.4.6,3.9-2.6,1.2-.2,1.5-.4.6-3.8,2-2.5,1.5-.5,2-2.4,2.4-.5,1.2.8,1-.3,2.5.6,1.2-.5,3.1.8,1.4,1.6.5,1.5,1.5.9,1.3,1.8,2.8-.2,2.4,1,1.8.8.4.9,1.4.7,1.1.7.7,1.9,3,1.7.1.5,4.5,1,2.4-.9,3.3,1.8h2.3l.7,2-.4.7,1.9,1.7.8.3h.8l.6,3.5.8.6,1.4,2.9-2.1,1.3h0l-.3.3h0l-1,1h0l.2,2.9h-.9l-.6.5.2,1.1-1.3,1.2h0l-1-.2h0l-.3.8h0v.7h0l-1.8.8.7,1.3h0l-.4.3h0l-1.2,1.1h0l-1.7,2.4.1,1-.8.2h0l-1.1,1.1,1,.8-.4.5h-.1l-1.5-.5h0l-1.3.1h0l-1.1-.5-1.5.5-.7,1.2.7.7h0l1-.2-.5.9,1.4,1.8h0l.5.9-.2,1.7h0l3.1,3.1.9,3.2-.2,1.8,1.4,1.8h0l.1.9h0l.3,1.1h0l2.2.7-1.5.8-.9,2.5-1.7.6h0l-2-.3-.9.8h0l-1.2.8h0l-.7.7h0l-.5.6-1.3-.1v.4h0l-.7.6.9,2-.6.6h0l-.3.4h0l.3.7-3,2h-.1l-.6-.4h0l-.4-.5h-1.5l-.2-.1h0l-.8-.2-1.3.7h0l-1.5.2-2,3.2-2.2.7h0l-.7,1.5h0l-.5.5h0l-.9.7h0l-1.3,1-1.2,2.4h0l-1.2.2,2.2,1.4-1.2.3-.2,2.2h0l-1.2.5-.9-.2-.8,1.7h0l-.6,1.9-.7,1.5-1,.5h0l-.9.4h0l-3.6,3-2.2.3h0l-.5.6.3.8-2,1.8h0l-1.8,1.5-.4.7-.3,1.1-1.1-.1h0l-.6.8h0l-.9.1.1,1.2-1.9,1h0l-5-.4h0l-.5.6,1.8,1.3-1.5,2.9.3,1.2-.9.7h0l.1.6h0l-.9.4v1.3l-3-.3-1.2,1.6-.1.1h0l-.9.8-2.7-1.4h0l-6.9.1h0l-4.7,1.4-1.3,1-.2,1.5-1.3.7-1.3-.6v-1l-2,1.2-.7.8-1.6-.5-1.1,2-1.1.1-.7,1.4-4.5,4.8-3.6-1.1-3.8,1.2-.3-.7,1.1-.9-1.2-.1-2.5,1.4-.8,1.6-.6-.5-1.1,2.1-1.4.2-1,1.4-4.1,1.6-1.5,1.7-1.3.4-3.9-.2-2.3-3.2-.5.8-.1,2.9-1.1-.3-1.1-1.6-.4.8-1.6-.4-1.4-1.6-.3-1.3-1-.6-.9.7.2-1.4-1,.2.1-1-.7-.3-.2.8v-.8l-.9-.6.5-.1-4.7-1.3,1,1.4-2-2.1-3.3-2,.4,1.6,1.7,1-.4.9.8,1.6-1.1-2-.5.5,2,4.1-.2,1-.8.3-.2,1.7.4,1.5-.7,3.1.3,1.2.7.3v1.2l-.5,1.1-.4-.3v.9l-1.8,1.4-6.4-2.6-1.7-1.1-.5-1.1-.6.2-.5-1.4-1.6-.5-.8-1.9.2-.5-1.1-1.5-4.4-2.7-2.4-2.6-3.6-.7-1.4-1-.4-1-1.7-.9-1.8.2-4,2.4-2.3,3,1,2.5v1.5l1.3,2.5.6,4.1,2.5,2.3-1.1,3.1.4,1.6,1.4.3-1.4.3-.6-.6-2.4-.4-2.7-2.3L346,727l1.5-1.1-1.1-1.9.4-1.3-2-.6.2-1.7-.9-.5.1-1.9-.7-1.2-1.9-1.1.1-.8-.7-.9-3.1-2.1-2.8-3.4.1-1-2.4-5.1-.1-3.8.5-1.9-.5-.7,1.6-3.6,1.2.1,2.8-1.2,1.9,4.6,1.3.8-.3.8-.6-.6-.7.4.5,3.8,2.2,2.4,2-1.5.3-.6-.8-3-.8-1.8-.8-.5-1.8-5.8.7-3.1,2.3-3.7,1-5.3,2.6-2.9h.8l1.7-3.5,3.1-2.8.1-2.6,1.7-3.7-.1-3.9-.5-1,2.3-1.7.4-1.3,2-1.4.4-4.4,2.1-2.6,5-2.1.7-1.3-.1-1.4.9-.6.6-2.3-.6-2.1-1.4-1.1-.6-1.6-1.4-.7.1-.5.6.3.6-.6.3-1.8-1.3-2.9-1.9-1.9-3-1.8-1.2-.5-.7.6-.9-1h-1.3l.2-.9-2.7-4.2-2.7-1.9.1-3.5.5-.6.6-.2V611l.7-.1.2-.2.9-1.2-.2-2.3-1.8-4.4-.1-7-.6-1,1.7-2.1-.8-.3.3-3.4,3.6-2.2.9.5.7-1.6,6.2,2.2-.5,1.5,1.2.4,1-.7,1.5-1.2-3.6-1.7-.4-2.7-.7-.7-2.6-.9-.5-.8h-1.2l.1-1.2-1.9-3.2.1-1.4-.9-1.5-.6,2.3,1,2.8.9,1.8,1,.5.3,1.1,1.4.2.2,1.4-2.5.8-2.1-.1-1-.8v-1.5l-.9-1.4v-2.4l-.8-1.3v-.9l2.6-6.3,1-.9,2.7-6.2,2-2.1.2-.8-2.5,2-2.5,5-.3,1.8-1,.8-1,1.9-1.5-1-.3-1.7.5-2.3-1.1-2.9-.9.5,1,2.2-.6,3.7,2.2,2.7-2.3,4.5,1,7-.3.6-2.4-1.4-.8.2.1,1,2,.8.5,1.1-.8,2.4-.8.5-1.1,4.9-1.4,2.1-.5,2-4-1.1.2-1.2-1.8-7.8-2.3-2.2-1-4.1-.4,1.2.7,2.7,2.2,3.9.5,4.3-2.4-.2-3.4-3.5-.8-.1-.7-1.5.2-1.4-.4-.1-.5,1.6.5,1.1-.8,2.1-1.9,1.5-.2,1,2.2,4.2.3,3.2-1,.2-.6-1.2-1.4-.3-.6-.9-1.9.2-.1-1.1-1.2.1-.4-.5.4-2.1-.3-.2-.7-.7-.9-.6-.8-.9.6-2.4-.3-1.1,1.1-3.2-1.1-1.8.9-3.4.6-.6.6-.5,1.9-4.8,4.7-5.7-.1-1.7.5-.8,1.4-.8,1.9-.3,3-2,1.2-1.2.2-1.9,1.4-3,1.5-1.5,3.6-1.7,3.6-3.6-4.9,3.2-3.1,1-.4-1.4-1.2,1-2.1,4.8-.4-.5.4,1.4-.8,1.8-1.7,1.5-3,.8-2.8,2.4-1.1,1.6-.1,1.8-1.6,1-1,2.8-1.1.8-.6-.1-.8,1-.4,3.1-1-.1-1.5,2.4-.5-.4h-1.1l-1.1-.5-.3-1.1h-.9l.2,5.2.9,2.9.6,5.8,1.1.9-.5.1,1,1.9-1.2.7,1.7.2,2,3.3,1,.8,1.6,4.8L324,609h-1.5l-2.7,1.6-3.4,4.6-.1,2.5-.6.5-.6,3.6-.8.7.5,4.5,1,1.4v1.8l-.6.5-.4-1h-.6l-.8,1,.2,4.6-.9.2-.4,4.3-2,2.1-.5,3.8-1.9,1.2-1.1-.5-.3.4,1.4,1.2,2.7-1.6.1.7-1,.3,1.8,3.1.4,3.4-2.6,3.4-.1.8-2.8,1.8-5.1-.1-2.4,1.8-2.3.3-2.3-1.2-.4-1.2.5-8.9,2.5-2.5.3-1.1,1.6-.3.6-1.8.1-8.5.6-1.8-.8-4.3,1.4-1.4,1.3-5.1.5-3.9-.7-1.6,2.5-1.6,1.1-1.5,1.4-2.9-.2-.4,1-.8.8-2.2,1.3-.2,2.1-1.8.4-1,1.7-1.1,2.6-5.7-4.9,6.5-1.3,1.3-2.4,1.2-1.2,1.8v-.6l-1.2.2.6-1.6-.9-.6.6-.8-.3-.3-1.5.6-1.7-1.5-.3-1.5.5-3.8.8-2,1.6-2,.4-1.9,2.3-3.3-.4-.4-1.2.4-2.4,3.2-.7-.2-1.3,1.8-.4-.1.2-2.2-.6-.3.1-1,1.5-3.7,1.5-1.6,2.6-4.7,1.2-.6.6-1,.1-.4-1.8,1.2,1.9-2.9-1.4,1.2-.5.6h-1.7l.8.8-2.4,3.8-.1.4-1,1.8-1.7,3.6-.9-.6,1.5-2.8-1,.3,2.9-7.6.9-.8.6-2.2,1.1-1,1.9-3.4,1.1.5,1.5-.5v-.8l-.7-.2-.4-.5-.4-1,3.9-8.3h-1.2l-.4.8-2.9,2.7v.9l-1.1,1.5-1,.1.7-1.8.4-1.3.8-1.1-.1-.9,2.6-4.6-.2-1.5-.8-.1-.3-.6,1.5-.3,1.1-1.1.9.3.2-.8,1.3-.3-1-1.4-.9,1.1-2.7-.1-1.4,1.4-.9-.1.8-3.7-.6-.2.9-5.6,1.5-1.7.8.1.2-.4v-1.2l1.5-3.9,2.6-2-.8-1.6.2-1.2.5.1.6-1.1,1.5-1.1.3.7,1.3-.6.3.5,2.8-.5.8-.6,1.5,1.1.9-.8,2.9.8,1.2,1.2.8.5,2.7-1.2,1.2-.8,1.2-2,1.3-.6-.6-.6,1-1.2,1.6-2.4,2.3-5.6-.8.4-2.5,5.3-1.2.8-1.2.7-1.7,4.4L330,532l-1.6-1.9-2,.4-3.7-1.3-1.1.3-.2,1.2h-2.9l.8-1.4-.6-2-.7-.6-.8.1-1.4,2.1.2-1.4-1.3.8,3.8-6.2.9-.1.3,1-.3,1.2,1.2.7,3.1-1.2,2.4-2.9,1.4.2,1.5-.5.2-.5-.9-.1-1.4.6-1.2-.3-1.2.4-1,1.5-1.9,1.2-1-.1-.7-2.1-1-.5h-.6l.6-1.4,2-2.4,1.2-2.7,3.9-3.9-.1-1-1.5-.2.5-.7,2.4-1.9.9-.3.8.6,1.9-2.3,2.7-.1,1.8,1.2,1-.6.9.3,1.4-1.5,8-2.4-2.6.1-9.3,3.3-.5-.8-1.1-.8-4-.2,1.3-3.2,7.4-10.2-.8-.6-1.8,2.6-4.8,4.8-.1,1-1.6,2.3.8,1.2-1.9.9-.7,1.5-.5-1-1,.1-2.6,2.5-.4,1.3-2.7,3.2-2.1.4-2.2,3.1-1.2.5-.6-.6h-1.2l.1.5,1.6.6-4.3,7-2.4,2.2-5.5,3.2-.7-1.6L299,524l-.7-.8-.7.7-1-1.6,1.5-2.7-.2-.6-2,3.3-7.7-2.2-3.4-3.5-1.2-3.2-1.4-1.2-.4-2.9.3-.6,1.9.1,1.4-.7,1.7.4.8-.5-2.5-.4.6-1,.9-.1,1.9,1.6.4,1.4,3.8,2.3.2-.5-.8-.7-2.2-1.2V508l2.3-.4,5.8-4.7,1.6.5,1,1.7,1.1-.3,2,1,3-.1.5-.5,3.4-.2.1-.5-4.4-.1-2.7.5-3.7-2.8-3.3.2-.6.3-3.9,3.8-1.2-.9-2.6.8L287,506l-.5-1.2h-.7l-.9.2-.8,1.4-.9-1.3-2.7.4-1-1.2-1.4-.4-1.8.7-1-.1-2,.7-2.6-.5-1.9-1.4-.9-1.8.4-.8.5-.5.6-1.3,1.2.1v-.9l-.7-.4.4-.7,1.3.3,1.4-1.1,1.8-.4,3.4.5.8-.2.8-.2,1.3-.2.3-.8,2,.4.9-.7.1-1.1,1.3.8,2,2.9h.6l1-1.2,1,.7v-.5l-.8-.7-.6-1.2.4-.9,1.5.7,1-.1.8-.7,1.9.1-.1-.3-.4-.6h-1.4l-1.2.7-2.2-.6.7-2.3.6.1.8-2.6,1.4-.4,1.1.7.6-.9,1.3.2,2.1-1.3,2.1.6.9-2.1,1.8-1-.1-1.1h-.6l-1.7,2-.7,1.4-3.9-1.3.2-.7,2.2-1.8,1.6-.4.1-.4-.6-.3-.2-.5-4,.6-1.9.9-.5-.3-1.4.9-.9-.4-1.4,1.1-1-.3-.3-.7-.9.2-.1-1.2,1.5-.5.5-1.1.8.8,1.8-.1-.1-1h-1.5l-.2-.6-1.5-.8.7-.7,1.1.2,1.2-2.7-.3-1,1.4-1.4-.6-.3.1-1.6.9-1,.1-1.6.7-.5,5.9-.7,1.2,3.2,4.5,2.4.1-.6,2.8-.6,4.1-1.6-.7-.7-1.1.2-4.4,2-1.1-1.1-1.5-.4-1.5-2.8.6-1-.4-1.1-1.6-.4-1.5.6-.5.8-1-.8-.4-1.5-1.1.5-.5-2.5,1.1-2,2.1-1.5,1.2-2.7,2.6-.1,2.1-1,3.2,1,1.7,2.7,1.1.5,1,.5.4-.4.7-.9,1.2.2,4.6-1.4,1.9.1-2-.7-4.3,1.1-2.2.4-1.5-1.3-.7-2.4-1.2-.6-1.8-.8-3,.3-1.9-1.6.1-1.2.6-1.8,2.2-1.6.9-1.7-.3-1.2-1.4-.6.2-1.3,1-1.4,2.4-1,1.4.1,2.8-1.4,3.2,4,2.6,2.3,1.3-.3.2-.7v-.4l-2.8-1.4-3.5-3.8.1-1.1,1.6-1.7-1.6.9-.8,1.1-2.3.5-1.9.6-.3-.8-1.3.4-2-1.3-4.6.7-.6-.6.3-1.5.6-2.2.9-.2.5-1,1,.2-.3-1.9,1.4.1,1.1-1.1.1,1.6,3.3-1,1-1.1h2.7l4.4-4.1.4-1.7-1-.7-1.9,2-.7.9-2.3,3-1.9-.1-1.3.5-.6-.5.2-.6-1.7-.3-.3-.6.4-1,2-1-.9-1.8-4.5,3-2.2,2.4-1.3.7-2.8.5-.9-1.4-.6-.5-.7-.1.1-2.8.1-1.8-.3-1,.5-2.5-.7-1-1.6-.1-1.2-3.8,1.2-9,.3-1.4.8-2,.9.3.7-.9.8,1.2,1,.1.8,1,.5.4,1.2.9-.4.5.4.6,1-.4.6-.6.4-.5.7.7v2.1l1.6.7,1.5,1.8-.4-4,1.7,1.5.8.5.6-.8,2.1.7.7-.3,1.6.1.7-1.8-1-.8-1.2.3-2-.7-1.5.5-1.3.2-.9-.2-1.1.8-.1-.9-2.1-1.3.2-1,1.2.5-.3-1-2.6-1.1-.6-1.3.2-1.1-1.4-2-1.8-1.5-2.2-.5.5-2.5,1.5-2.7-.1-1.5,3.2-1.4.9.3-.1.8,2,.3.5-.3.9-.3-.5-1.1-.8-.1.2-1.3-.7-.9-3.7-.1-1.6-1.5-1.7-.6.6-4.1-.9-5.5.4-1.1-.3-2.1.6-.4,1.6.1,1.2-1.1,1.4.4,1.4-.3,1.2.1,1,.5-.6,2.5.5,1,.8.2.6,1.2-.4,1,.2,2,2.6,3.4,1.2.4.2-.9-1.4-2,.8-.8.6.2,1.3.3-.2-.8-.9-.4.9-1.6.1-2.4-1.2-.6-.2-1.1-2.3-.5.2-.9-1-1.9-.1-1.3,2.4-4.1,2.4.6,1.2.1.7.7-.1,2.6,1.1,2.6,3,.8,1.3.9.7-.4-.2-.8,1.2-1.4.2-2.3,1-1.8,1.5.5,3.1,2.3,1.4,2.3,1,.7,5,1.6.2-.5-.9-.8-.3-1.1-4.1-1.5-.4-1.5-1.4-1.7-3.5-.8-.6-2.1,2.1.1-.1-.8.8-.2.5.5-.2.9,1.7,1.5,1.8.5,3.8-.4,1.4.5,4.2,4,1.7.5,2.4,4.8.9.3-.6-2.9-1.3-2.4-1.9-1-.7-1.5h-1.4l-.8-1.5-2.8-2.2,1.6-.5.6-.8.2-.7-.7-.4.1-1.4-2-.1-.8-.4-.4-1-3.9-.9-.1-1.4-1.4-2-1-1-.9-1.6-3.6-.5-.3-.8.7-1.5-1.9-1.2-.9-1.7.2-1,.5-1.5.7-.9.6-.1,2.9,2.2,1.1,2.1h.4l.4-1.3.7.5,1.1,1,1.4.4,1.1-1-.3-1.2.4-1,.1-1.2-.4-.8-.6-.6-.5-.8,2.5-.2-1.4-.6-.8-1.5h2.4l.5-.5.6-.6.2-.9-1.7.9-2.7-.9-.2-.8-.4-1,.7-.1V330l-1.6-.5-.8-1.5-.8-1-.3-1.8-1.2-1.5-1.5-.8.7-2.2,1.2-1.2.5,1.5,1.9-.1-.2,1.1,1.2.3,1,1.8,2.1-2.1,1.8-.7-1.7-.2-.6-.9,1.1-1.2.3.9h1.1l.8.4,1.6,1.4,1.2-.6.6,1.4.4-2,.9.5,1.2-.8v-.7l.9-.4h.6l3.4,2.8,1.8-.4.4-.9.9.4.2,1.4,1.6,1.7,1.5.2.2-.7-2.8-2.2,1.6-.7-3.3-.9-.7.5-1.4.3-3.5-2.5-1.5-.1v-1.1l-.2-.4-.6-1.1.1-1.3,1.1-1-.9-.8-.5.9-.6.1-.5-.5.7-1.4-1.1-.8v-1.1l-.8-.2.1-.4.6-.9,2-3-.5-1.6.7-1.4.7.1,1,1.8,1.6.1,1.1.1.6.5-.1.9,1.2-.1.3-.2.5-.9-1.8-.6-.5-.5-1.5-.6-1.2-1h2.5l-1.1-1-1.3.1-.3-.8.9-1.1,1.3-1.3.5-.3,2.8.5,2.4,3,.1-.7-.6-.7.5-.6-1.4-.5-.2-.9-2-.7-.3-.5-2-.7-.3-1-1.5-.1-.7-1.2.5-3.2.8-1.4.9-1.2,1.3.1,1.4-1.1,1.1-1.9-.1-.8,1.1-1.1-.4-1,.6-.6-.2-2.8.5-1.2.7-.2,2.7,2,1.2-.8,2.5.5,1.2-.3,1.7,1.9,1.5.4.5,1-.2,1.5.5.3.8-.9.6.4,1.2-.5-1.4-2.4,1.5-.5.5.7-.3.9.8.9.6-.1.5,1.9,1-.2.8.5v1l1.9.8H367v2.2l-3.7,4.4-2.6,5.4,1.1.2.7-1.9h.9l.9-1.5,1.9-.6.2-1.6-.5-.3,1.7-2.6,1.5-.4.2,1.1,1.3-2.4-.6-2.4.9-2.8.8-.3.5.6,1-.1.7-.5,2.6.5.5,1.1,2.3.9,1,.6,1,.7-.2,2.5.6.6.8-1.4,1.2-.6-.1.9-.9.6-.2,2.1-1.6.5-1.4,1.6.3.1.5.6.4-.9-.3-.5.6-.4,1.2.1,1.2-1.1.6-.2,2-3.2,1.4-.4.5.4,1.1-.6,2.1.8.5,1.1.7.1.7-.5-.2-.8,1.2-.4.7-1.4h.6l1.5,1.3.7-1,1-1.9,1.1.4.3-.7h.6l.8.4,1.2.5.9-.3,1.5-1,.3-2.3,1.2-.1.4-1,.8,3.8h2.2l.8-.5H412l2.6.6,1.9.7,3.9-1.2,1.8-.2,1.5-.6,1.7-2.1,2.3-1.4,1-1,1.1-.8.3.8,1,.2,6-1-.8,1.8,1.6,1.2,2.6-1.5,1.5-.2,1.8.2.1.9,2.1.1,1.6.8,1.1-2.5-3.9-2.9.3-2.2,1.4-1.5Zm16.4-3,1,1.5-.3,1.6-1.4.2-.6.7-.3-.9,1-1.4v-1.5l.6-.2Zm2.9-18.6.2.9h-.9l-1.3,1.3.1.4,1.5-.4-.2,2.2-1.4-.7-.2.7-1.4.2-.7-.4-.6-1.4.4-.7,1.4-1.1,3.1-1Zm-6.2-.8,1.3,1.7-.7,1.2-.8-.1-.6-1.4Zm-11.9-9.2,2,.6.9,1.6-.1.8,1.8.4,4.5,3.3.1.5-.2.7v1l1.2,1-1.1,1.4,1.5.6-.5,1.1,2.1.7-1.9,1-.5,1-.5-.3-2.2.8-.6,1.5,1.2.4,1.8-2.1,2.6-.1.9-.6,1,.8-1,1.6,1.4-.4-.1.5-3.5,1.2-2.2-.7.1.8-.8.6-1.1-1.2-2.5.7-.5-.3-2.3-4.2.4-.5-2.6-2.5-.6-3.5-3.4-.6.1-1.9h.4l.2-1.8,1.2-2.4,1.5-.1,1.3-1.4Zm3-1,1.8,1,.6-.6.5,1.8-1.3.4-1.4-.6Zm31.9-17.9.2,2.2-1.5,2.7,1.1,2.3-1.3,1.2h-.6l-.6-.7-.7-.8-1.3-.3-1,.4h-.1l-.3-.7-.9.9-1.2-.3,2-5.8.9,2,2,.5,1.1-1.1-.2-1.7h1.4l1-.8Zm-10.1-.4.3,1.2.8.4-.4.6-.6-.2-.8.4-.3-.9-.9-.2v-.7l1.9-.6Zm.1-4.4.5.2.2,1-1,.9-3.1-.4Zm-16.3-3.2h1.6l1.1,1.4h1l.9,1.1,3.2,1.7,1.5-.5.2,1.2,1.2.3.4.8v.4l-1,.4,1,.4,1.1,1.7,1,.1.6,1.1v2.1l-.8,1.3.3.7-.8.1-.9-1.2-1.3-.1.4,1.4-.7.8.1.9-1.2-.1-.5.7-.5.2-.2.9-.9-.1.5.9,1.1.5,2,.2,1.1-1.5h1.9l2.4,1.8.1,1.2.6.2.8-.8.2-1.8.9-1.2.1,1.2.8-.6,1.1.2-.2.8-.7,1.3,1.1.2-1.4,1,.4,1-.4,1,.5.4,1.3-.2.3-.5,1.1-.7.5-1.4,2,.6,1.4-1.5.7,1.7v2l-.8-.6-1.1.3-1.4,1.4,1,.6-.1,1.4.4.5-.4.9,1.7-.4-.2.7.5.4.1-.5.4-2-.9-.7,6-3.3.1,2.9-.1,1.1-.6.4.3,2.2-1.1.2-1.1-.6-.9,1.2-1.4-.2-1.1,2.5-1.1.9v1.3l-.7.5-.5-.4.3-.6-1.3-1.4-1.8-1-.8.5.2.6-.4.8-.3,1.2,1.4.1-.3,2.2,2,.3-1.3,1.2-.7,1.1v1.3l-.5.6-.8,1v1l-.7.1-.5.8.7,1-.4,1.5-.8.7,1.9,1.6-.9,1.8.6.3-.4.4-2.5.4-.4-1.4-.6.5v-1l-1-1,.2-.8.6-.1v-3l-.9-.1-1.8-2.4.7-1,1,1h.7v-.7l-1.3-1.8-1.4,1.1-.6-.3,1.3-1.7,1.6.6.2-.5,1.5-.5.4,1.2.8-1.1,2.1-.3.5-.6-2,.2-2-.8-.2-.6-.8.6-.5-.5,2-1h1.3l1.5.6-.7-2.6.4-1.4-1.2-.6.2-1-2.5-4.6.2-2.3-1-.3-.7,1.3-2.2,1.4-2.2.4-.6-.5-.3,1.5-1.1-.6-1,.2-.5.7.4.4-.9.5-1.7-.4-1,.3-.4.7-.7.4-2-1.9-1.2-2.3.5-2.7-1.1-.8V234l-.8,2.5-1.6.2.1.7-.7.7-1.9-.4-.6-1-1.4-.6.4-.9-1-3.2.6-1.3-.1-.9-.1-1.6h.5l.4-.9-.6-1.3,1.3-.8-.9-.8.2-1.9-.5-.8.4-.9-.5-1.6,2.4-3.2-1.4-.8,3-.2,4.5-2.1Zm37.2-1.1,1.2,1.2-.6.3.3.5,1.5.7,1-.6.4.5-.3.5-1.9.1-.1,1.3.7,1.2,2.7-.4.6-.7.4.4-1,1.3.3,1.6,1.3.7-1,1.6-.4-.3-1.2-.2-.5,1.2-.7-.4-.6.9-.5-.2v-3.1l-1.6-1.2-1.5.8.8,1.7-.4,1.4-2,.1-.6-.5,1.2-3.8,1.2-.5,1.4.3.4-1.1-.1-.7-3.3-3.4,1.3.1,1.6-1.3Zm-18.5-1,1.1,1-.9,4.9-1.2-2.1-.4-2,.2-1.4Zm-9.4-3.6.4.6,1-.2.1,1.7,1.1.7,2.3-.1,1.6-1.2.3.8.7.1v.8l-.4.4-.4-.6-.8,1.5.9,3.3-2.2,1.1-2.6.1-3.5-2.4-1.6-3.5,3.1-3.1Zm21-5.8L488,203l-.4.6-1.5-.6-.1-1.1Zm-1.3-.5.3.8-.5,1.6,1.8,1.1-1.9,3.9.4,4,1,.6.1.7-.3.7-.9-.3-.5.5-.5-.4-1.1,1-.3-2.9-1.3-1.6-.6.3-.2-2.6.3-.6.3.9,1,.4,1.4-.8.1-2.1-.9-.8.6-1.6-.5-.9,2.2-1.9Zm12.7-6.8,1.3.5.7-.5.2.4-.7,1.5-1.2.5.3,1.5-.3.5,1.3.6.4-.9.7.1,1.3-1.1.5-1.2,2.2.4.1-1.8,1.6-1.1.6.3-.4,1.3.6,2,1.3.7,1.3-.3v.6l-1.8.2-.4-.4-1.1.6-.6-1.1-2.6.6-2.5,4.5v.9l.8.3-.1,1.2-1.1-1.1-.2-.4-2.3-.3-.5,2.1-.7-.8.4-1.8-1.7,1.5-.6-1.1H493l-.3,1.7-.8,1,.3.4-1.1.3-.3,2-1-.9.2,1.5-.6.2-.5-1.5.3-3,1,.2.3-.9,1.2-1.6,2.4-2.1,1.2-.3-.7-.9,1.2-.1-1.4-1.7-.4-3.2.5.2.5,2.1.7-.9.9.5,1.4-1.3v-.6Zm-25.1-6.6.9,1.2-.9.6.2,2.3-1.7.4-.5.8h1.7v1l1.1-.3,1.4.4,1.1.4.5,1.7.9.5.1,2.5.6-.5.9.3,1.2,2.4-.1.4-1.2-.7-1.5,2.9-.4-1,.7-.8.1-1.7-.6-.3-.5-.4-1.4-2-.7-.2-.2-.8-.9.1-.8.6.8.9-2,.4-.5,1.3-.7-1.2-1.9-1.4.5-1-.3-2.4-2.3-1.7-.7-1.3v-.5l2.4,1.2.5-.8,1.1.3.7-.9h.8l.4-2.3,1.2-.4Zm4.9-3.2.7,1.7-.2,1.1-.1.7-1,.5.7,1.2v1.2l-.5,1.2-.8-.6-.5,1-.4-3.4.9-1.4.4-2.7.8-.5Zm31-1,1,1.6-.7-.4-1.5.5-.4,1.5,1.1,1.6-.8.1-1,1L506,188l-1.3-.1,1.3-2.4-.2-1.1,1.6-.7.1.7.5-.1.8-1Zm48.9-19.7.3.5-.6,1.1,1,.1-.2.9-1-.1.4,1.2-1.1-.4-.3,1.6-1.6.2-.2-1.3.5.2.4-.6-.4-.7.2-1.2.3-.5.2-.9,1.4.2.7-.3Zm26.5-56.8,2,1.5-.1.5-.8.4-.6-.3-.1-1.2-.6-.1.2-.8ZM577,95.7l.2,1.4L576,99.9l-.2.9-1.1,2.2-.2-1,.6-1.8-.1-2.1,1.3-2.1.7-.3Zm-.9-2.7.4,1.7L575,97.8v1.8l-.4,1.2-.5.1v1l-1.2,1-.5-1.1.8.1.7-1.4-.3-1.2.5-.7-.4-.5.8-1.1.1-1.2-.5-1.1.7-.4,1.1.6.2-1.9Zm2.5-1.6-.6,3.2-1.5.9.8-1.2V91.9C577.2,91.9,578.6,91.4,578.6,91.4Zm-50.1-3.3.8.5.6-.4.8,2.2-.6.7.3.6-.6,1.9-.7.6-.2-.9-1.2-.4-.4-1.2-1.5-.6.4-1.6,2.3-1.4Zm65.2.3.3.4,1.7.1.2,1.5-.5.1v.8l-.8-.3-.7-1.7-.6.3-.1-1,.5-.2ZM591,84.2l.7,1.9-.5,1.4.3.6.9-.4.5-1.2.3.6-.5,3.1-1.1,1.5-.2,3.4-3.1-2.2-.3-2.3.6-.3.2-1.1-2.2-3,.1-.9h.8l.3-.5.7.7.3-.4,1,.4.5.9.7.1-.7-1.8.7-.5Zm-31.8-2.7,1.1.9-.1,1.2-1-.3-.2.5-1.1-1.1.3-1,1-.2Zm7-16.7v1.3l.8-.6,1.5,1.1-.9.3-.4.8-.6-.1-.3,1.1-.6-1.3-.5-.8Zm5.5-.2.8,1.1-1.3,1.6-.7-.7.1-.8.8-.1-.6-.7.9-.4Zm-20.9-.4.6.8.6-.5.5.2h.5l.8-.1.4,1.3-.8.5.8.1-.2.9-.8-.2-.6.9-1-.1-.4-.4.8-.8-.4-.5-.9,1.2-.4-.7.3-.2-1.2-1.3.7-.4-.2-.7Zm18.3-5.6.9,1.1,2.1.7.1,1.1-.8,2.1-2.5.8-1.3-.5-.7-1-.1-1.3-.7-1,.8-.2.4-.7.5-.6,1.3-.5Zm32.4.3v.6l.8.3L600.6,61l-1.4,2.8-1.7,1.4-.2,1.1-1.7.7-1.2-1h-.9v-.8l1.4-.7-.4-.9,1.2-2,1.7-.2.9-1.6,1.7.7,1.5-1.6Zm9.6-5.4-.2.9.6.6-1.4-.2-1.4,1.3.8-1.5.8-1.1ZM596.6,29.4l.4.5.6-.3.4.8-.6.3-.1.8-1.4-.4-.1,1.2-.7-.8.9-1.1v-1Zm7.8-1.8,2.2.7.5.9L607,31l.4.6.6-.5V32l.7-.4.4-1.4,1.1-.2v1.2l.6.2-.4,1.5-.9.7.3.5h-.6l.2.8-.8,1.1-.4-1.1-.5.3-.7-.6-.4-1.1-1,.7-.8-1.3-.8.5-1.1-.3-.3.8,1.2.6,1,1.6-2.2.8-1-1.2-1.9-4.8-.5-.1.7-2.7,1.1.5.7-.5-.2.8.9.5,2-1.8Zm-2.8-5.9,2.2,1-.6,1.5-.3-.5-.7.3-.1-.9-1-.7A6.82,6.82,0,0,0,601.6,21.7Zm-7.2-5.9.8-.2.8.8-.4,1.6.5,1.1-.2,2.2.5.6-.3.6.6,2.2-.6.9.3,1.1.8.2-1.1.8-.3-.7-1.8-.5-.9-1.1-.1-1.1-1.2-1,.9,3.1,1,1.6.9.2.2,1.5-.6,1.5-1.1.6-1.5-1.3-1,.6,1.3.3.3.7,1.9.1.1,1.3.7-.5v1.1l.9.2-.5.7.4,1.2-1.3.7.8,1-.2.6-2.2-.2v.8l.8.6-.5.5.3.5,1.1-.2-.5,1,.3.7-.1,1.2-.7-.1-.1,1.2.6.5-.9,1.1-.8-.4-.9.3-1.3-1.2-1.3.1-.4-1.1-.4.9.3.7,1.3.5-.3,1.6-2.5,2-2.6-.1.4,1.1.1.9.6.7v.5l-.5.4.4,1.8-1.4-.4-.3.4.3.7H585l.3,4.7.7-3.3.5-.2h.8l-.4-.9,1-1,.2-1.2.7.6,1.2-1.6,2.6-1.7-.4,2.4L590,56.1l-2,1-1.2,2.4.9.1,1.2-1.5,1.4.9.7-.2v4l-1.3.2-1.3,1.2-.8-.6-3.6-.1.8.6.4,3,.8-2,1.2,2.1.2-.7.8-.2.8.9,1.4-.5.3.5-.8,1.5.7.7-.3.7-1.8-.4-2.8,2.8h1l-.6.9.5-.1,1.4.3h.4l.4.6L590,74l-.3,1.4-1.3-.6-.3.6-1-.1-.7,1.6.3.4-1.8.6-.1-1.8.9-.9L584,75l-.1-.7-.4-.3-.4.2.1,1.6.6.2.1,1-.9,1-1,.2-.4.8,1.3.2,1-.9.6.4-2.2,4,1.1-.6,1.5-2.1.7-.1-.9,1.5.7.4-1.1.6v1.2l2.1-1.2-.2,1.9.8-.3-.7.9v1.3l-.6.5.6,1.3.7-.1.8,1.3-.3.6-.7-.8-.7.3.3,2.5-1-1.6-.2,2.8-.8-1.2-1-.2-.2.7.8.7-.3,1.5-1.6.8,1.1,1.3-.6,2,.6.1-.3,1,.8.8-.3,1.4,1.2.9h.8v.9l-.4-.5-2,.2-.3.4-1-.1.6,3.3,1.6,2.1-.7.2.2,2.1-.6-.3-.5-2.5h-.5l-.4,1.7-1.2-1.9-.4,1-1.1-.2.5,1.6,1,.2-.6,1.4.6,1.3-.7.5.4,1.9-.7.4L579,118l-1.3-.2,1.4,1.8-.5,1.7.3,1.1-.7.4V124l.9-.3-.1,2.2-.5.7-1.2-2.9-.8,1.7-.6-1.1.7-1.4L576,121l-1.5-.1-.5,1.7-.5-1.2-1.5.5-.7-3.1,1.8-.9-.5-.7v-1l.7-.2-.2-1.4,1.2.4.3-.4h.7v-.8l-.5-.2.4-1.9-1.8-.1.6-.5-.2-.8,1.5,1.1-1-3.4,1-1.4.3.5.5-.9-.3-.8,1-2.4.1-2.7,1.4-4.8.5-.1.2-4.6-.5-.4-.5.6h-1.2l1-1.8H577l1.1-6.2-.7.4.1,1.1L576,87.6l-.6-.5,1-7.9-2.2,3.2v-2l-.8-1.6-.5-.8.1-.7.9.2-.2-.8-1.4-.6-1,.7.3,1.1.8-.2.2,2,.8.9v2.6l-.8.4.3-2.4-1.6,1.2-.2-2.2-.6,3.9.4.9-1.3,1.8-1.1-.9-.4-.4-.5-.1.1,3-.8.8-.4-1.8-1.1-.2h-.8l-.7-.3-.1-2.3-1.6.4-.7-1.4.3-1.7,1.7-.6.8-.2-.3-.6.1-1.7-.7-.5-.4-.6.6-.5-1.2-.7.1,1.6,1,.6-.4,1.3-1.8,1.4v.9l-.3.7-.4-.6.4-2.1-.3-.2-.7.3-1.2-.5-1.2.4,1,.7-.1.5-1.8.4v-.7l-1.6-.9.9-1.2-1.1.3-1.5-1.2-.8.1V76.8l-.8-1,.4-1.3.5-1.3.5-.3-.7-.6-.6.1-.2-.8,1.1-1.6H554l.3-.6,1,.3.4-.6.8.4,1.8-.2.4,1.3h.6l.8,1.1.2-.8,1.5-.4.6.5-.1-.8-1-.3.2-.5,2.8-1.7.6.2.5,1.3,1-.2.3.2.1-.7,1.2-1,.6-.3.6-1,.5,1.8.5-.6,1.5.8.5,3.3.7.3.1-1.7.2-.5-.3-2.1-.5-.4.6-.6-.2-1.1.9-1.1.5.1.4,1.2.6-.2-.5-2.9,2.5-.1-.2-1.2-2.6.6-1.3-.5,1-1.5-.3-1.8-.8.4-.6,1.9-1.8-.9-.3-1.5-.4-1.1.5-1.2-1.4.1-1.4-.3.3-.9-.6-1.1.6-.6-.1-1,1.7-.8-2.7-.2V49.2l-.2-.6.7-2.7-2,1.9.5.7-1.1,2.2-1.1-1.8.4-.9.9-.3-.3-1-1.3.7-.7-.4-.5.3-1-1.4L560,47.7l-.9-.7-.6.7-.7-.3-.7-.2h-.9l-.1-.8.8-.5.5-2.4,1.5.6.6-.5.8-.8V39.9l.4.1.3-1.5,1.4-1,.9,1.1v2.1l4.3,3.5,3.4-1-3.8.2L564.5,40l.2-1.2,1.4-.8v-.9l2.4-1.7.1-1-.7-1,.6-1.7,1-1.1v-.7l2.8,1.4,1.6-.5-.1-.7.5-1.6.9.8,1.3-2,7.8.4,1.7-2.9.2,4.6,1-.1,1,2,.7.1L587.7,29l-1.1-.6V26l.5-.3.6-4.1-.5-2.8,1-1.9-.5-1,.7.1.5-.6,1.4.2.6-.3h.9l1.3,1.1.5-.6ZM603.8.3l.7,1.6-.6,3.7.8-.9.8-3.4.7-.1.2-.7,1,1.2h1.2v.8l1.3-.1-.3,1.2,1.4.2v.5l-2,.1-.7.6L610,6.4l-.2,2.4-2.7-1.2-.8.4,1.1.9-.1,1,2,1.5.3,1.7-5.3,5.7,1.7,1.5.6-.8.1,1.7h-.6l-.9,1.2-.3-.6-2.6-.5-.1-.8-.5-.1L599.5,23l-.1-.8h-1V21.1l-1,.1.5-1.5.6-.1-1.2-3.1.3-.4,1.2.9.5-.3-.2-.9-.8-.2.6-.4-.5-1.7,1-.7-.1-1.3.7-.4.5-2.5-1.4-1.2L601,5.1l-.8-.4.7-.6.9.2.3-1.3.8-.5L602.3,1l1.5-.7Z"
  />
</svg>
