<svg
	xmlns="http://www.w3.org/2000/svg"
	viewBox="0 0 768.4 1212.1"
	aria-label="Map of UK Major Cities"
>
	<path
		name="United Kingdom"
		d="M292.3 772.8 292.7 770.7 291.58 772.93 292.3 772.8 M161.7 768.7 161.57 768.86 161.6 768.9 161.76 768.72 161.7 768.7 M421 1182.5 420.6 1182.82 420.73 1182.77 421 1182.5 M195.68 420.28 195.1 419.7 195.5 420.3 195.68 420.28 M420.73 1182.77 420.7 1182.8 420.9 1182.7 420.73 1182.77 M430.8 1170 431.7 1170.9 431.5 1172.2 432.09 1173.28 431.8 1170.7 430.8 1170 M4,1018.5l-1.2,3.2,2.3-1.2.7.5,1.6-.4,4-2.5.1-1.1-1.8.2-.3-1-.6.7-.9-.5s-.4-.3-.4-.4l.1,1L6,1018.2Z M40.3,1048l.7-.8,1.4-.3-.2-.5,1.2-1-1.9.6-.7.3-.4-.6-2.8.2s-2.2.6-2.1.8l-.6,1.7H37l.4.1,2.2-.8Z M66.9 1061 66.4 1061.4 66.1 1062.1 65.3 1062.4 66 1063.3 65 1063.8 65.2 1064.8 67.4 1063.2 67.7 1062.9 67.4 1061.1 66.9 1061 M17.7 804.1 20 804.5 21.7 803.7 22.4 805 25.4 803.8 27 805.3 26.5 805.8 26.3 809.7 27.4 810 28.5 809.4 28.7 810.2 30 811.1 29.5 811.8 30.3 812.7 31.9 814.1 33 814.1 33.6 811.5 33.3 810.4 33.4 809.1 33.5 808.1 33.5 807.7 34.3 807.2 34.2 805.7 35 804.6 33.1 804.4 32.6 804.5 32.2 803.6 32.7 802.7 32.2 801.8 33.7 801.7 34 801 31.2 797.5 30.3 799.3 28.7 799 27.8 799.5 27 798.3 25.9 798.1 25 798.8 23.4 801 21.4 801.2 20.6 800.1 19.1 800.2 18 799.4 18 801.3 16.6 803.1 14.8 802.9 14.8 803.2 17.8 805.1 17.7 804.1 M49.1 877 51.3 876.2 52.8 875.2 52.4 874.4 51.4 874.9 50.2 874.2 49.3 873.9 48.1 874.5 47.7 875.2 47.9 876 48.2 876.6 49.1 877 M47.3 879.8 48.3 880 47.4 880.9 48.4 882.7 49.6 882.6 50.6 882.8 51.8 882.3 52 878.9 51.7 877.7 51.4 876.7 49.5 877 49.5 878 47 878.8 47.3 879.8 M122.5,696.1l.2-.5h2l-.7-2.2.3-.9-2.2-1.2a7.53,7.53,0,0,0-.9-.9l-.3,1-1-.2.9,1.4-1,.7.3,1.2-.5.2v.7l2.5.2Z M316.6,748.7l-1.9-1.3-.5-2.9-.8-1.2.4-2.9-2.8-3.8-.6-2.1v-2.9l-3.3-3.7-1.9.2-1.3-.5v.9l-.9.8-.6-.8-1.4.3-2.2.3-1.7-1.2-3.6,1.8-3.4,2.9-1.7.6L288,735l-1,.7h-.9V735l.3-1.5-.3-1.2,1.4-4,2.9-2.4.5-1,5.9-2.2,2.4-2.1,1.3-2.4-.1-4.2-2.3-4.6-2.2-1.2-1.1.2-1,1.1-1-2.2-1.6-1.6-.3-1.9h-1l-1.2-.9-1.2-3.6-1.4-2.2-1-.9h-1.2l-.6-1.2-1.4-.2-.2-.7.9-2,.9-4.8-1.9-1.2-3,.7-1.1-.9.4-2.6,1.1-2.1-.3-2.9,1-1.5-.5-2.7-1.1-.7-.9-2.5-3.3-1.3-1.4-1.8h-1.1l-1.4,1.4-3.6,1.1-3.4-2.8-1.2.1-2.6-1.5-1-.3-2.7,1.5-.4-.5-2.5-.3-.8-1.2h-.7l-2.3.6-.1.7-1.6.8.2.9-1,1-.4-.4-2.7,1.4-3.3.4-1-.8.5,1-.3.5-3.8,1.1-.7,2.1-10,.1-3.6-2.5-1.2-.3V676l-1.4,5.2-1.1.3-.8,1.6-.1.5.5,1.2-1.9,1.9-.2.8-.4.2-4.7.8-1.1-.5-.4-1.4-2-.2-1.6.4-.5-.1h-.6l-.4,1.2-1.1.5-.4-2.5-.55.18.15-.28.9-.3,2.9-4.1.4-1.4,2.9-3.5,7-4.2,1.7-.4,4.4-2.3,1.8-1.7.1-1.1-1.9-1.9-3.3-.3-.3-1.1-1.7-.4-.2-.6-1.9.2-3.4-2.4-.7.3-1.4-.5-.1-1.6-1.2-1,.4-1-.9-.4.8-.4-1.4-1.1-1.9-.3-1.3-1-1.6-.1-1.4-.9-2.5.1-.4-.8-1.6-.5-1,.8-1.7.9.5-.1,1.2,1.7,1.5.2-.3,2.9,1.1.8.3,1.5,3.4,2.1,1.5-.2-.9.6,1.3,1.2-1.2.2-.4-.6-1,.8-1.8-1.2h-2l.1-.7,2.1.3.6-.6-.6-1.1-.7.1-.7-1.1L195,659l-.7.3-.5,2.5h-2.2l-1,.5.3.8-1.4-.3V662l-.9-.6-.2,1.6-2.2-1-1.1.4-.3.6,1,1.1v.7l-.4,1-1.2.8.9,1-1.1,1.1-.8,2.3.6.5-.9.7,2.2,1.2,1.1,2.5,1,.6.8,1.9.8.1.3,1.9-1.3,2.1-.1,1.24-.3-.24-1.4.1-1.4,1.2.6,1.5,1.2.3.7.9,2.51-.36.29,1.06-.6.7-1.2.2-.5-.4-.9.7-1.1-.1-.2,1.8-.6.5-.8-.4-3.6,3.3-1.7,3.3-.8-.8-.4.8-2.2.6-.4.6v-.9l1.6-1,1.1-3,3.6-2.5,1.4-1.6v-.9l-.5-1.2-.6-.2-1.9,1.2-1-.3-.9.8-.1-.8,1-1.2,1.7-.4v-1.3l.8-.9,3.1-1.4.5-1.1-.3-1.2.8-.9-.2-1.6-1.2-.5-2.2-3,.2-1.2-1.2-.9-.7.2-1.4-1.8,1.1-1.5.3-1.7-1.5-4-.5-.2.2-.5h-1.5l-1.5,1.5-.8-.2.1,1-.6.8-1.5.1-.4-.9-.6.6h-.5l-.6.8v.4l-2.5,2.5.2,1,.8.1.9,1.5,1.4-.8.8.3-.2.7-.7-.3.2.6,2.1,1.9.4-1.4-.8-.6-.2-1.2.6-.7h-.5l-.2-1.7.9-1,.5.5-.4.9.7,2.2-.9-.6-.2.7.8.8.4-.4-.1,1.5,1-.6v2l.9.8-1.6,5.2.3.8-.6.6-.2-.9-.9.8,1.6-4.8-1.4-2.6-1.1-1-.8-.6-.1.9-.8-.4.2-.5-.7-.8-.3.6-1.1-.2-.1.5-.5-.5v.7h-.6l.3-1.1-1-1.2.6-.7.1-1.5,1.1-.7-.1-2.4-.9-.4-.2,1.4h-.9l.2,1.3-.6.1-.9-.7-1,.6-.5-.4-.4,3.1,1.4,1.3.8-.5.8,1.7-.4,1.5-1.1,1.1.6.5-1.3,1.1.3,1.2-.8.1.2-.9-.7-.9-.1.6-.7-.2-1.2.7,1-1.5,1.6-.4.7-1.5-1.2-.5-2.5,1.4,2.2-2-1.4-.3.3-1.3-1.1-.4-1.2,1.4-1.6-1.1-1.6.6.5-.9h.9l1-.7.3-1.3-.2-.6-1.6.2-1-1.5-.7,1-1.6.3-.4,1.7.7.2-.7.8.6.5-.5,1.1-.7.3-.9-.4-1.3,1.3-3.4.6.4.7-.3,1.6-.9-.5.3,1.9-.4.5.1-.8-.5-.4-.5.8-.6-.2.4-1.4-.9-.5.7.1,1.9-1.4-.3-.8h-.8l-.3,1.4-.9.6-2.9-.2-.5-.7-.8.4-3.4-1.1-.7.9.4.6-.7.7.3,1.5L135,681l.1,2-.7.5.4,1.1-.4,1-1.6,1,.5,1.3-.4.9-1.1-.2-.9.9-.6-1-.5.1-.4.8.8.9-1,1.1.5,1.4-1.2-.4-.1-.7-1.8.6-.2.8,1.1,1-.5.4,1.7,1.7.3,1,3.2,1.2-1,1-.4-.5-1.4.9-1.5.1-.3-.2.1-.4-.1-.6-1.2.1-.2.9.9.6-.2.7-.7.1.1,1.2.9.8,2.1.7,1.6,1.6.6-.5-.4-1.7,1.1.6,1.1-.9.3,1.8,2.1.4-1,.8.2.7-1.8-1-1.2.8-1.1-.3.6,3-.3,1.1-.9-.3-.7-.3-1-.5-1.4,1.3-2.8-.9-1,.9.3.9-.4.5-1.9-.8-1.5,1,2.5.3-.3.9,2,.8-.1.9,2.6.1.4.6.3.4.4,1.4,1.7.3-.6,1.3-1.8-.8-.5-1.2h-.6l-.2-1-2.7.7-1.9-.6-.1.7,1.4,1,2.4.2,1.1.6.3.8,2.1.2-2.3.1-1.8-.7-1.1.3-.4-.3.6-.1-.2-.7-1.3.6-3.7-1.5-4.6.9-.4,1.1-1-.2-.9.9-.2,1-2.5.6.3.4-.6.7v1.7h1.1l-.9.5-1-.2-1.2.8-1-.5-.5.4v.9l.7.6.6-.1-.6,3.2,1.2-.5v.9l5.1,1.6,1,1.1-.5.5.3.9,3.1-.4.7.5,2.2.2.5.3,2.7-.6,3.5-1.9.2,1.2-.6.8.4.3-.2,1,.6.1,1.8-1.9.3-.8-.4-.7,1.2-1.7.5.1-1.2,3.6,1.1-.2,1.8-1.4.4.2.7,1.8-1.3,1.6-3,1v.8l-1,1.5,1.4-.8-.1-.7.7-.7,2.4-.8,2.5-2.3.6-1.6,3.4-1.8,1,1.2-1.2,1.5-.4,2.2,4-1.8,3-2.4,1.2-.3,1.9-.7,1.5-.4-.8,1.9.9.4-1.4,1.1-.2,2-.8.2-.1-2.1-1-.4v3.1l-2.5,2.5-.9-.1-.2.4.7,2.3-3.5,2.4.7,1.6-.6,2.2-1.1.5.1,1-1.8-.1-1.4.9-4,.7-1.9.9-1.3-.3L127,750l-.9.3.1.9-1.2,1,.9.5.1,1-1.2,1.3-.1.9-3.7,2.2-1.3.7-2.9,1.3-.5,1.2-1.2-.2-2.2,1-.2.6-.2.2,1.4.7.5,1.2,1.8-.4,1.6-.9,3.2.6.6.5,1.9.3-.1,1.1-1,.5-2.2-.7-1.2-1.7v3.2l3.2.4,2.8,2.1-.7.5-1-.5-.8.6-1.7-.3-1.5.5-1.2-.2-.1-.7h-1.4l.3.9-1.1,2.2,1.3-.6,2,2.2v.8l1.7.4,1.6,1-3.4.3-.1,1h-.5l-1.3-1.6-1.6-2.7-2.4-2.6h-1.3l-2.7,1-1.6-.5v-1l-.5-.3-2,2-1.9.9-1.9-1.3-.4.3L99,771l-1.1-1.4-1.5-.8-7.6-.2-.5,1.5.3.8-2.7,5.2.1,1.1-2.5,1,.5,1,.2,1.7-.8.3-.5-.7-1.3-.7.4-1.1L78,777l.7-.7.9-.7.2-1.8H78.2l.9-3.2-.6-1.3-.8,1h-.9l-.2-1.9-.9-1.3-3.7-.8-1.4-1.2v.9l-2.3,2.7-.6-.2-.1-1.3-2.4-.3-1.3.5-1.7-1.1-1.3-.2-.3.9-.9.2-2.7-.4V766l-.9-.3-3.9-.2-1.4,1.2-1.7-.4-1.1-.6-2.2-.4-1.2-1.2-1.3-.4-1.7.1-1.8,1.8H38.6l-.4.7V768l1.4.3,2.4.8-.2,1.6-.8-.5-3.2,1.2-.7,3-.3,1.2-.5.5,1.1.3v.8l-3.2.6-3.46-1,1.26,0,1.1-.4,2.1-.1-.6-.6.5-.6h.8l.6-1.6.2-1.5-1.3.7-.6-.2-.7-.8-1.9-.1-.6-1.7-1.1-.2.2-1.2-1.1-.5-.7.4.3,1.2-.9-.2-.4,1.1-1.3-.3-.1.7-2.1,1-.1,2.2v.7H22.8l3.4,1.7-.5,1.7-1.2.1-.9,1.1.6,2.2-2.3,5,.2,2.2-.7.3.4,1.3,2.1,1,1.2-.2.7-1-.4-1.1-1.6-.5.5-1.3,1.1.3-.6-1.7,1.2-.6-2.1-1-.1-.6,1.2-.3.6-.8,1.3.3.4-.9-.8-1.6,1-.1,1.4,1.1.4-2.2L28,777.9l1.4-.1-.7-1.1,1.54,0,.26.85,2.1,1.9.3-.4,2,.3-.5.6-.7,1.2-1.1,1.2,1,1.2.9.5-.4.7-1.8-.7-.1,1.1,1.6,1.7.5-.9.6.3.2,1-.5.5-.6-.3-.6,1.1-3.1.8,1.4,2.2-.3,2.1,1.4-.5,1.3.5,2.1-1.1.3,2.1-1,.8.8,2.2,1,.8-.2.7,1.6,1.1.5.8L39,804l1.3-.2.7,1.9.6-1.5-.1-1.2,1,.1-.3,1.5-.1,1.1-.8.5-.9-.3-.9-1-2.4-.1-.7.8-.9-.7-.5,1.4,1,1.1-.9,1.7-.9.5.3,2.4-.3,1.3.4.8,1.3.9,2.3-.4,3.3-1.4,1.2-1.8.5-.6,2.6,1.1v-1l1.5.2v.5l2.5-.1h1l.9.1h2l.8.4.8.4h.4l.7-.5,1.4.4-2,1-.5.2.6.4.2.3-1.2.5,1.5.5-1.5,1.2-1,.7.4.9-.5.5-.5,1,.2.8,1.8,1.3h2l1.4.1-2.2,1-.3.7v.5l-1.9-.2-1.5-.5-.3.7h-1l-.3-.7-3.5,1.3-3.1.1-.3-.7h-.7l-2.5,1.2-5.2.7-.2,1.1.6.4.3,1.2L35,832.9l.8,2-.5,2.1.2.5,2.2.4.5,2-.7.6.3.9-1.6.2-.4.8-.3.6-1.5.4-2.1-.3L30,842l-1.5.5-1.8-.4.3,1.7,1.4,1.7,2.9,1.1v.8l1.5.8-1,.3-.7.3-1.5.1-.9-1.3.6-.4-.2-.5-2-.5-1.1.5-.7-.8-1.2.2-.5-.5-1.6.1v.4l.3,1.2-.6.3-1-.8-.9.4-1.7.7.1.6-.6.6,1.4.5,2-.3.7,2-.3.8.2.6.6.7,1.2.7,1.1-.1.4.9-1,.8,1.2.7,1,1.1.5.6-1,2.1-1-.8-.5-.4-2.3-.7-1.2,1.5-1.8,3.5,2.1-1.2,1.9,2.1.9-.9.4-.6h.8l.5-1.2,1,1.2,1.6.7.5,2.5,1.2.5,2.6-.4.3.5.7-.2.7.4,1.5-1,.2-2.8,1.2-.7.7.9.3,2,1,.6.4-1.6.8-.3,1.3-1.2H43l.1.4-1.3.1-.2.5.6.6,1.8-.5-1,1,.1.5.8.1-1.4.6-1,.8-.7-.2-2,1.2H37.3l.1.9.5.2-.5,1-.7.9-.5,1.6.6.7.9.7.4.8,1.5.5.5-.5.6-.2,1-.3.3.1,1.3.3,1.1.5,2.5-.7-.2-1.5,1-.6,1.4-2.6.2-.6,1-.9,1-.5.5-1.2,1.5-.6.2.7-.5.8.6,1.3-1.2.8.2.6-.5.5-.9.4,1.4.9,2.8-.5-.1-1V868l-.8-1.3.4-.4.2.7.5.4.6,2.2h.7l1.5.7-1.2,2.3-1.4-.5-1.9.3-.3.7.9.9v1.7l.4.6.3,1-2.1,3,.3,1.3.8.7,1.4-.2.3-.3.7-2.4-.6-1.1.5-.8.6-.8.8-.5.9,1.4L57,879.1l.6,1.3.2,1.3,2,1.8,1.9-.3,1.6-.1.9-.8h3.2l2.4-.9,1.9.4,7.3-.7,3.4-.1,2.8-.5,4.1-1.3,2.4-.4,1.4-.4v.9h1.4v-.8l1.7-.3.9.2-.4,1.2-2.4.3-.9,1,1.6.7-2.1,2-1.1.7,1.6.4,2.8.1,1.3-.3,1.1-1,.7.2-3.5,2.9v1.5l.1.5.9.8.3,2-1.5-.8-2.1-.8,1.5-.6-.1-1-1.4.8-2-.2-1.5.5.3.6,2.1.9v1l-3-1.8-1.1.3-1.8-.4-2.2.9.9.6,2-.2.9.8-.9.1-2.4,1-.9.9-.7.1-1.7-1-2.4-1-2.6-1.5-1.3,1.1-.6,1.3.2,1.3L73.4,897l-3.1,2.2-.5,2.3-2.7,3.4,1,1-2.4,2.4-.2,2-2.6,2.5-.1,1,.6.2,1.8-.7,2.3.4,2.4-1.1.9,1.3-.3,1.4-.9.3-1.7,2.1-2.3,1.2-.5,1.7-.6,1.8,1,.5.2.6-1.5.6-.1,1.5-2.2.9.6,3.3-1.2.7.6.9-.5,1.2-1.8.4-1.7-.7-3.1.8-.2,1.1-1.2.2-.5.4L54,936l-1.9,1-.7,1.4.7,1.3H50.3L49,941.3l-1.7.7-.8,1.6L43,945.4,41.4,948l-3.8,1-1.2,1-1,.5-.6,1.2-1.1.6,3,.4,1.5-.7.4-.9,1.1-.1,2.2.6,3.8-1.4.4-.9,1.7.6,1.2-2.7,1.8-.1,2-.9,2.4.3-.1-.7.7-.7,1.5-.6.1-1.3-.9.1v-.9l.1-.8,1-.7h.7l.3.5.1,2.5.9,1.1h1l1.7,1.2,2.4.1,1,.7,7.4-1.4,1.3-.7.2-.9h.9l-.7,1.5-3,2.3-.1.7.4.6,2.6-.2.7-.3,1-2.2,6.7-.9,1.4-1.4.6-1.5,1.7-1.2.5-1.7.9-.3,2.4-3.9.2-2.1.3-.5,3.4-1.9h1.1l.9.7-.7,1.3.8.5-.1,1.3,1.3,2.2-2.7,1.7.3.8,2.1.2.3-.7,2.6-.9,1.5.1,6,2.3.3.6-1.7.5-.7,1.2-1.2-1.6-9.2,1.3-.7,2-.5.2-.1,1.2-1.3,1-.4-.9-1.2-.1-.5.8-.6-.1-.4-1.3-3.2,2-2.4.1-.5.6-2.9.7L74.6,952l-2-.7-2.3.4-.1-.9-1.5-.5-.5.9H64.7l-.9,1.5-1.5.1-1.5-1.3-1.1.1H58.6l-4.1-.7-.9.4-3,2.7.6.9-.2.8-.7.8.4,1-.8,3.2-2.5.8L45,964l-3.6,1.7-2.3.8-2.9-.6L34.1,967l-.4,1.1,2.1,1.6,3.7.3,1.4.9-.1,4.6-1,2.7-1.2,1,.3.4,2.2-.3-.6.9-1.3.3-.8,1h1.4l2.3.9,2.3-.3,2.3,1.6-.8.4-.6.8-1.3-.7-1.4.9H41.2l-.8-.6-1.5,1.3-2.1.7-1.7-.5-2,.2-2.8-1.9-1.4-1.7.4-3.5v-.6l-1.2-.4-1.4.2,1.4,1.4V981L25,984.4l-3,.5-.4.9-1.3-.3-1.4.8,2-3.2-.8-.4.4-2.4-1.3-.2-1.9.8-.2,1.1-1.1-.5-1.7.6-.9,1.3-1.6.2-.8,1.5-3.7,1-.6,1.4,1.2.5-1.5,1.9.9.9-.4,1.5-1-1-1.8-.2.4-2.6-4,2.8.1.4.6-.1-.3,1.1v.9l-.2,1-.2,1.3.6,1L0,998.2l1.3.2.3,1,4.1-1.1,2.4-.1-1.9-1.1,1-1.3,2.2,1,.2.7,2,.4,1.6-.3v-.9l-2.9-.5,1.6-1.2.9.3,1.4,2.2h1.7l.8-.5,1,1.5,2.1-1.4,1.1.2,2.3-.8.8.3,2.8-1.5,3.9-.6,1.9,3.2,1.1.7.4-.7-.7-.4-.5-1.8-1.2-.9,9.4-1.9.5.8.8-1.1.5,1-.4,1.4.7,1.5-1.6-.6-.5.7-1-.2-1.1,1-2.6.7-2.4,2.5,1.2,2-1-.2-2.8,1.3-3.2,1.7-2.5-.2-2.1,1.5H22.4l-1.2-.2-1.2,1.2-1.7.4-1.5,1.1-.5,1.4-.8-.8-1.9.5-.5,2.8-1-.5-2.3,1.2-.2.6,2.5.1-.1.6.6.7.7-1.2,2.1.1-3.1,2.1,1.7,1,.2.8v1.2l-1.2-1.5-1.6,1.9-1-.2-2.5,1.3H5.2l-.3.8.4,1.5.5.4-.8,1.6,3.8-.3.3.6-.4,1.6-.1.9.3,1.2-1.2.7.8,1.5,2.2-1.2,1.2-.8.9-.8.1-1.2,1.6-2.1,2.6-.4,
		2,2-.3,1.9.4.3-.6,1.8-1.3.6-1.3-.1v.4l.5.4.9-.2,2.3,1.5.8-.4.4.7,1.4.2-1.1,1.5.6.4.5-.7,1.3-.4.1-.8,2.7-.4.1-.6,1.2-.9,1.5.4,4-3,2.6-.3.4-.4,1.5-1.3,1.2.6-.1.8.5.1,1.3-.7.1-1,6-2,5.5-2.4,1.5.4,1.7-.7,1.3-.2,2.2-1.1-1,1.3-3.9,1.6-1.2,1.4-5.5,1.1-.8,1.4-2,1.2.1,1-3,1.3.3.6,2,.8.5.8-1.5.4-1.1-.2-.8-.9-.7-.6-.7,1.2.6.8-2.3,1.7-.8.1.9-1.8-.2-.5-2.9,1.9v.4l-2.9.5-2,1.9,1.5.6,1.5-.6.7.2-1.1,1-.5,1.8-1.7.2-.8,1.2-1.3-.5-1.5.9-1.1-.8-.4.6-1-.3-.8,1.1.3.5,1.8.8.8-.2v1.4l.4.7-1.6,1.3-.7-.5-2,1.2-1.3-.8-.9.6-.1.5.9.4v1.2l1.6-.8.5.3,3.5.4.9.5,4.6-3.2.2.5,1.7.1.7-.8v-1l.5-.6.7-1.7,1.5.5,1.3-.4,2.5-.6.5.5,3-.8,1.2-.9.8.3.4-.7-.6-1.1.6-.7.6,1.7,2.5-.2.2.8,3.2-1.1,2.3-1.9.9-.5,1.5-1,.3-1-.5-1,.4-.7-.4-.9.9-.2.7,1-.2,1.2,1.2.2.6,1.1,1.2.2,1.6-1.6.4.3.6.3-1.3,2.7.1.8-.3.9-1.5.1-1.4,1.6-3.8,1-1.3,1.1-6.6,2.9-1.3,1.3-4.1,2-.5.6.4.5-4.2,2.8h2.2l1.4-.9,1.3-.1.9-.9,1.3-.4.8-.6,1.3-.1.8-.9,1.4-.4.8.2,1.3-1.7,1.1.2,2.1-1.6,1.4.2,1.4-1,.4.8-.6.6-2.1.4-.5,1.2-3.9,2.4v1.2l-1.5.8-2.2,1.9-1.9-.1-1.1.5-2.8,2.7-2.6,1.3,1.9.9-.7,1-.1,1.4,1.4-.1,1.1-2.3,1.2,1.3-.8.8.2.4,1.8-1.3,2.5-.8-.4-2.6,2.5-1.1.7-.4-.3-.8,1.1-.3.1.9.5.9.2,1.2,2.8-.6v-.7l2.6-.6.4-1.9.9-.1-.2,1.6,2.3-1.1,1-.6,1.2.5,1.3-1.8-.7-.1-.5-.8-.2-1.2,2,1.1h.7l1.3-.2-.8,3.2-1.5,1.2.4.7.4.3.4.5,1.2-.5.4,1.2.4.2,1.1-.7-.4-.8,1.1-.3-.3,2-1.9,1.1.5.6,1.1-.6,1.2.7,2.8-1.8.6-.5.8-.7.8-.3-.4,1.7,2.2-1.2.3.6-.7.8.9.2,1.1-.7-.3-1.1.5-.9,1.1-.1.1-1.1.9.3,1.2-.5,1.6-.6.6-.9.7-.3,1.7-.7,1.8-.3,2.4-.8,1-.9,2.8,1.3,1,.8,1.1.7,1.5-.8.6-.4-.2-1.9,1.4-.6.1-1.6.4-.3.8.2,2.7-.2,1.8,1.2,1.1-.9.6,1,.4.5,2,.7.9-.9-.2-1.7.1-2.1,
		1.1-1.9-1.7-.4.7-1.1,1.2.6,1.4,1,4.9-.9,1.1.6.1,1.4,1.1,1.4.7.5.2-.5-.7-1.1.7-.8-1.4-1.6,1.2-1.4.6-2.4.6.1.4-.6-.6-1.1.4-.8.8,1.5-.1,1.4,1.1.1,1.5-1.7.8.7.8-.3.5-1.5,1.7.2.5-1.3,2.6-.1.8-1.9,1.3.1.7-3.5-1-.5,1.9-1.6.6-1-.1-1-1.3.6.1-1-1.8-.6-.1-.4.9-.1.7-1.2h-1.1l-1.4-.6.7-.9,1,.7,3.1-1.6,5.9-.4-1.4,1-.1.6-1.8.4-1.2.7-.6,1-.9,1,.9.9-.3,1.3,3.7-.5,1,.2.2,1,.8-.2,1.9-1.9,4.3-.4.9-.8,2.6-.7.2-.4-1.1-1.6-.1-.5,1.4-.9,2.2-1.1,6.3-1.2-.4-.8-2-.7-.1-1.2,1.4-.5,1.1-1.9,1.5-1.1h.7l.8.3,2.6-1.3,1.9,1.2,2.1-.2.2-.6-.8-.7,1.6-2,5-.8,1.9-1.2.8-4.5,2.4-2-3.3.3-1.1-1.2-1.4-.2-.4-1.7.7.1,2-1.6,2.4,2,.9-2.1,1.5-.8,1.5.2,2-2,1.2-.4,3-.1,2-1,2.5.1,1.9-.3,4.5,1,2.1-.2.9-.2,1.4-2.3,2.1.5-.4-1.5h1l1.3.9-.2.8-1.4,2.5,3.2-1.2,1.4.8,2.8-1.3-.1-1,1-.6.5-1.2-.2-.6-.7-1,.8-1.9-.3-.7.5-3.2.9.2,1,2.2.9.3,1.2,2.1-.6.5.8,1.8v1.4l-2.1,3,.4.9,1.2-.8.4-1.6,1.4-1.5,2.2-1.2H229l-.4-.8-.3-.9,1.2-2-.4-.4-.3-.7.7-.7,1.1-1.8,1.6.1,1-1.8.4,1.5-2,2-.6,1.7.5.7,5-1.4,3.9,1.6,2.3,1.7.9,1.6,6.3-2.2,4.8.5,3.6,1.3,1-1.5-.3-1.1.5-1.5,1.8-2.8-1.2-1.5-1.6.3-.8-.4-1.2-2.9.2-2.6-.7.8-.1,1.4-.5.1L255,979l-2.1-.9v-2l-1-1.4,1.7-1.5,3.2.1.7.7,1.1.2-.6-3.6.9-3,1.9-2.2,5.5-9.2,1.3-1.2,1.1-3-1-2.5.1-1.5-1-1.7-.2-3.3.7-.5,2.1-4.6,2.9-3.5-.4-1.1.1-2-.1-1.9.5-2,2.4-4.3,2.7-1.7-.4-.8.4-1.9,1.1-1.5.1-1.8,1-1,.4-2.7.9-1.3-.5-.8h-.7l-1.4-1.3-.4-1.1v-3.7l.9-3.9-.2-2.6-.4-2.8-2.1-4.6-.1-2.7-.9-.7-.8-2.1-.4-4.4,1.2-1.3-.7-1.3-1.5-.7-.9-.8-.8.2-3.1-2-.5-2,2.2-.3.1-.5-1.2-.5-.2-.7.6-.4,2.2-2.4,1.8-.8,1.3.2,1.3,2.4h2.1l.5-2-1-1.2h-3.6l.1-1.1-.5-4.3-5-2.3,2.9-.3.5-.7,1.1.8.8-.9,1.4-1.7-.7-.3v-1.6l2.1-1-.8-1.1.6-1.2-.3-1.8-.9-.9-1-1.7L272,845l-1.1-2.1-1.5-1.3-1.6-1.4-1.2-3.5-.8-5.8-.6-1.2,1.1-5.6,1.3-1.2-2.4-.9-.3-2,.6-2.9.8-1.2-4.1-1.8h-1.7l-2.2-2.5-.5-2.2-.1-3.6.9-.9v-2.2l1.4-1.5-.5-1.1,1.9-.6,4.3,2.7,3.3.9,3.6-.1,2.3-2.2-1.5-1.8-.2-1.8-1.2.7-2-1.4-1-1.9-3-2-1.44-2.4h3.64l.8.6.5,2.1,1.2.8,4.4.4,1.3,1.6-1.5-.1-.5.9,3,1.8,2.5-1.6,1.9-2.5,1.8-.2.7-1.6,3.6-3.1,1.5-6.3-.2-2.3-1-1.9.6-1.2,3.2-2.5-.4-1.3-1,.6-.4,1v-1.2l1.17-.88.63,1.18,4-.4,1.7-.7.5.5,1.8-.2.9.3,1.2,2.4,1.5-1.7-.5-1.5.5-.6.4.4.4.3.3,1,.5-.2.5-1.2.6-.3,1.9-2.4.9-2.4.6-.6-.2-.7-.6-5.4-.8-.7-.3,1.1-.5-.7.3-1.2-2.7.4-1.5.7-.6.9-2-.3-.1-.7,1.9-.9.2-1.7.5-.3-.5-1.5.5-1.6.6-.6-.8-.7.3-.7.5-.3-.3-.7V751l-.4-1-.5-1.3-.9-.7-.4-.2-.1-1.8,1.1-.7-.7-.6-.9.3-.2-1.5-1.8-.3-.3-.4,1.4-.8-.1-2.4,1-1.6,5.5,3.8v.8l1,1,.4-.2.8.2.9,4,.5.3-.2,1,.1.9.4.8-.4.8.7.8-.4,1.7-.8.3-1.8,1.3-.2,2.5,1.8,2.1.6,1.9.6.2.2,2,.8-.2.7,1.4.6-1.1-.2-1,1.1-1-.7-.5.2-1.3.6-.8.6.2.6-.5-.2-2.9-.9-1.7.6-.8.9-.1.5-1.5.8-.5-.5-2.2Zm-155,20.2,0,0,.13-.16.06,0Zm101.1-35.1s2,2,3,1c0,6-7,7-5,13-3,1-3-3-6,0-1,0-2-2-3-3-2-1-4,4-6,2s-3-6-2-7c9-6,1-16,8-20,1,0,0,3,2,4,5,4,8-3,12-1C271.7,724.8,260.7,728.8,262.7,733.8Zm29.6,39-.72.13,1.12-2.23Z M570.3 691.8 570.1 692 570.6 691.6 570.3 691.8 M420.6 1182.82 420.5 1182.9 420.7 1182.8 420.73 1182.77 420.6 1182.82 M590.3 1139.8 589.6 1139.1 590 1139.8 589.7 1139.6 589.2 1138.2 588.1 1137.2 588.7 1137.1 587.6 1136.7 587.5 1136.1 588.2 1135.9 587 1136 586.8 1137.1 586.6 1136.3 582.4 1136.7 582.6 1136.1 581.3 1135.7 578.8 1133.6 577.3 1134 576.3 1133.4 574 1135.1 573.5 1136.2 570.5 1137.1 570 1137.7 568.6 1137.5 565.2 1139.5 562.9 1139.5 561.3 1142.3 559.9 1142.8 559.9 1143.6 558.8 1143.8 559.9 1144 563.6 1143.1 565.2 1143.4 567.6 1145.7 571.3 1147.4 576.8 1152.5 579.5 1152.1 584.2 1150.3 585.7 1145.1 587.4 1143.9 589.5 1143.6 591.7 1141.7 589.8 1140 590.3 1139.8 M767.6,952.4l.8-2-.1-6-2.9-9-6-7.4-10.8-9.5-5.6-3.9-4.6-2-8.7-1.1-10.6-3.4-1.3.4.5.3-1.9.1-.5-.1,1-.1-4.7-1.4-.6-.1.7.3-.8.2-.2.7-1.5.2.4-.2-9.3-1-2.3.5-.2.3h-.2l-.2.5-3.1-.8-2.9.7-2.6,2.8-1.8,6.7-2.3,3.7-3.2,3.8.2,2.2-.9.5-3.9-3.7-1.5-.2-1.3.9-3.4-1.3-.2-2.1-3.7-4.3-6.8-1,.3-.3-1.7-.5-.4-1.5,1-1.6,3.2-1.9,2.1-4,2.9-3.6,4.4-2.5,1.3-1.8,7-4.5.6-8.2-1.8-7.7-4.1-9-1.8-6.3-4.7-8.6-3-1.8-1-1.2h-2.1l.3-.2-1.8-.7-1.7-2.4-1.3-.8-.3-1.2-5.5-2.3-5.5-4-3.8-4.7-2.1-3.9-1.8-.4-7.9,1.8-.7-.2.8-.2H631l-.1-.6-.1-.6,1.2-.4,1.2-.3.3,1,.6-.1,5.6-2.4h1.5l1.2.7.3-.3,2.6,4.5,5.5,5.8.7-.1-.9-1,1.3,1.3h-.5l.8.2,6.4.4,4.4,2,.2-.4-.1.6,1.3,1.2.3-.8.2.7.4-.5.7.8-.6,2.3,2.5-3-1.1-5.2-.8-1.6L656.8,824l-7.3-11.5-4.1-12.3v-4.9l1.1-2.9.4.1,1.4-2,5.3-1.2-.1-1.3-5.3-3.1-3.3-.9-1.7-1-1.6-1.8-.6-1.8.4-1.5,1.2.1-3.5-1.4-.4-1-1.2-.6-.7.2-1.1-.6v-1l-1.8-1.9.5-1.6-1.4-.6.2-1.1-.8-.8v-2.2l-.5-.9h-.5l-2-5.2-1.8-2.3-.8.3-1.2-1-.5-1.7.7-1.5-2.3-2-1-1.9-.8-.2-.2-.6-4.7-1.1-.9-2.1-.9-.1-.9-1.5-2.4.6-.3-1.5-1-.4-.9-1.6-1.8.3-2.8-1.5h-2.6l-2-1.8-1.5-.2-.6.5-1.3-.5-3.4-2-.8-1,.5-.1h-.8l.9-.3-1.1.2-.7-.5-.2.1-1.7-.3-2.5-1.7.1-.5-.7-.3-1.7-.8-1.4-2.6.3-1.4,1.2.1-.2-1-4.5-2.9-3.8-5.7-.3-3.5-.8-2.2.3-.5-1.5-1.7L573,704l.7-.9-.5-.8.4-.7-.4.5-.1-1,.6.2-.7-.4-.2-1.2.6-.4-.4-.3.5-.2.2-1.4-.5-1.5-2.7-2.5-.6-1.2.2-.2-.5.4-.8-.4.9-.9.9.2-1-.5-.8-1.7.3-.5-1.5-1.8.2-1.9-.5.1v-.6l-.3.2-2-2.9-.3-1.3.6-.3-2.2-4.7.6-2.5,1-.5-.2-.9-1.5-2-.3-1,.4-.6-1.6-1.6-1.1-2.7-.2-2.7.9-2,.8-.1-.6-.7.6-.6-3-3-.9-2.6v-1.4l.9-1.2-.1-.9,1.1-.3-.1-.6.3.2-.7-1,.5.1-.3-.8.4-.3-.2-.7-1.1-.5.4-.9-.4-1.2v-3.9l-1.5-.8.5-1.2-.7-.4.6-.7-.8-.2.4-.6-.5.2-.8-1v-1.4l.9-.5-.6-.2.2-.5-1.2-1.4.3-.9-1.6-.9-1.6-2.3-2.8-1.1-1.9-1.5-1.8-3.5.9-.5v-2.2l-1.9-.3-5.9-2-3.5-2.8-1.9-2.7-.1-1.5-.5-.8-.1-.5L531,603.5h0l-1.4-2.9-.8-.6-.6-3.5h-.8l-.8-.3-1.9-1.7.4-.7-.7-2h-2.3l-3.3-1.8-2.4.9-4.5-1-.1-.5-3-1.7-.7-1.9-1.1-.7-1.4-.7-.4-.9-1.8-.8-2.4-1-2.8.2-1.3-1.8-1.5-.9-.5-1.5-1.4-1.6-3.1-.8-1.2.5-2.5-.6-1,.3-1.2-.8-2.4.5-2,2.4-1.5.5-2,2.5-.6,3.8-1.5.4-1.2.2-3.9,2.6L467,587l-2.1,1-2.7-1.7-2.2-2.7-1.5-.4-1,1.1h-1.1l-.3-.7-2.8.8-2.3-2.2h-1.6l-1.3-.4-1.8,1.2-1,.1-10.4-2.6-3.8-1.7-1.3-.1-4.3-1.2-1.4-2.6-.9-.7.5-.5,2.1,2.2,1.5.8,2.4-.2,2,.1.6.6,2.3-.3.9.7,5.5,1.3v1.7h2.8l.5-.5,1.3,1.2.6-2.2,1.6.1,1.1-.9h1.2l2.6-2.5,1.7-.4,1,.7.7-.4,1.1.4,1-.8,1.1-.1,1.2-2.6.2-3.3,1.8-.8,1.8-2h.7l1.9-2.7,2.2-1.2,3.3-3.6,1.5-.8,1.3.3,2,.8.6,1.5,2.2.8.9-.6,1.4.5,1.7-1.8,6-2.7,4.2-4.2,1.1-.3,1-1.9-.7-.9-2.2-.8-1.8-2.8-2.1-1-.8.3-4.5-1-.2-.7-1.3-.7-.4-2.8.4-7.7,1.5-.3h2.5l1-.5.2-.1-4.4.3-6.4-.8-2.1.2-1.6,1.8-2.4,1.3-1.8.5-2.8,1.7-7.7,3.5-1.9,1.5-2.4.7-1.2-.5.5-.8,2-.3.9-1.2,1.1.1,2.2-1.3,1-1.5.6.4.9-.2.1.1.9-.8,1.3-1.2.1-1.3,2-1.5,2.9-.8,2.7-1.5,2.8-.6,1.1-.1,1.4.7,3.3-.5-.7-.6,1.2-.5,5.1,1.6,1.5-4,.8-.1,1.8-1.9,2-1.2,1.5-2.5,3.6-1.4,1.9-2.4.1-1.1,2.5-3.9-1.4-.9.1-2.7,1-1.6,1,.1,1.8-1.8.3-1.7-.7-.5v-.7l1.5-4.9,1.7-2.3,1.1.2,1.3-1.6,2.1-.9,1.2-1.4.9-2.3,1.6-1.8,1.9-2.2,1.1-2.2v-1.5l1.2-1.6-.1-4.4.4-.5-.8-1.9,1.7-1.4,1.2-4.4,4.2-5.8-.2-.7,1.6-2.7-.1-.7H530l1.3-2.5v-2.4l-1.9-1.5.2-2.3-1.8-.3,1.3-5.2,2.4-5.9,2.9-5.8,2.9-2.9.8-1.7,3.3-2.8v-1.9l1.9-1.3.7-1.2-.2-1,2.3-2.9.6-1-1.4-1.8.7-.7.8-1.1.3-.8-2-1.4-.5-1.2.2-3.2-.8-.7-.7-1.9.3-4.2-3.7-2.3-2.4-4.6-1.4-1.3-1.5,1-1.4-.4-.7-.5.2-1-.6-.8-2.3.6L528,387l-2.5.3-.5-.4-2.2,2.1-.6-.1-.8,1.1-1.1.3-1.2-.9-2.4-.4-.9.3-2.2-1.9-1.8,1-.1,1.3-1.4.8-.7-.7-2.4.9-1.9-.6-1.3.5-3-.5-1.8.2-2.4-.1-1.3-.6-1.2-.4-2.1.2-2.1-1.1-1,.8-2-1-1.6,1.1-.5-1-1.8-.2-.9-.9-2.1.9-1-.5-.4-1.1-4.5,1-.8,1.4-5.8,2.6-9.4-2.8-5.5-2.9-.9-1.4-1.7.4-2.7-.6-5.5,1.6-1.5.9h-2.4l.1,2.6-2.1,2.1-3.2.3-3.3-.8-1.1.5-4.9,1.3-1.3,1.5-1.5,1.5-2.2.8-2.2,2.5-1.6,1.1-3.8.4-4.4-1.9-1.7-.1-3.1,2.5,1.7,1.3.3.7-.3.9-6.2,4.5-1.9,3.2-2.8-.9-2.1.6-1.6,1.2-4.3-.3-1.5-.7-1.4-.7.5-.5,1.1.1,1.2-.3,7.2-.4,4.8-7,1.8-1.2,2.7.5-1.4-1.8.7-2.1,3.7-4.8,2-1.5,1-1.8-2.7-.9-3.1,2.2-2.1.4-1.1-.4-1.1-1.4-3.8.3-2,1-7.1,6.3-.9.3-.7.7-.4,1.1-.7.1,1.4-3.3,1-.5,2.1-2.9,2.8-1,.9-2.3,1.8.1,1.5-1.5,1.1-.1,2.7.6,2.9-2.9,2.3-.9.8-.2,1.5,1.5.4,1.6,3,.4.9-.4,2.6-3.7,1.1-3,2.9-2.9,5-7.3,1.1-3.3-2.5.7-1.1,2.9-1.8.9-1.3.2-.9-.5-3-3-3.1.9-3.7,2.4-1.2-.4-1.2-.9-3.1-.8-1,1.2-2.2-3.3-4.6,1-1.8-.4.2-.4,1.1.1,1.1-1,3-.1,1.9.5.2.7,1.2.7,2.1.5,4.6-.8h2.8l2.6-.5-2.1-.4-.5-.6-.6-1.1.1-1.2,1.1-1.5-.4-2.2.6-1-.5-1.4,1-3.3L411,354l2.9-.7,1.3-1.6,1.7-.4.6-4,2-2.2,1.7-1,.8.4,1.1-.6,1.2-1.6,1-.1,2.4-2.3.8-1.4,1.9-.7,1.1-1.6,6.4-4.7,2.1-2.9.7-2.1,1.7-1.9,1.4-1.9,1.6-2.5,3.6-2.3,2.6-1.4,2.4-.2,2-.9,4.3-5.5,2.8-2.4-.1-.9,1.4-3.1.4-2.3,1.5-2.1.1-2.4.5-1.4-.5-1-3.1.7-1-.9-.5-4.6,3.9-5.3.5-2.1-.8-1.3,1.8-.7.3-3.8.8-1.8-1.7-.5-.9.5-2.2-.4-3.6,1-2.1-2.6-1.9.6-.3.5-.8.1-.7-.6-1.8.2-1.9,1.2-2.1-.4-.7-2-1.4-1-1.4,1.5-.3,2.2,3.9,2.9-1.1,2.5-1.6-.8-2.1-.1-.1-.9-1.8-.2-1.5.2-2.6,1.5-1.6-1.2.8-1.8-6,1-1-.2-.3-.8-1.1.8-1,1-2.3,1.4-1.7,2.1-1.5.6-1.8.2-3.9,1.2-1.9-.7-2.6-.6h-1.4l-.8.5h-2.2l-.8-3.8-.4,1-1.2.1-.3,2.3-1.5,1-.9.3-1.2-.5-.8-.4h-.6l-.3.7-1.1-.4-1,1.9-.7,1-1.5-1.3h-.6l-.7,1.4-1.2.4.2.8-.7.5-.7-.1-.5-1.1-2.1-.8-1.1.6-.5-.4-1.4.4-2,3.2-.6.2-1.2,1.1-1.2-.1-.6.4.3.5-.4.9-.5-.6-.3-.1,1.4-1.6,1.6-.5.2-2.1.9-.6.1-.9-1.2.6-.8,1.4-.6-.6.2-2.5-1-.7-1-.6-2.3-.9-.5-1.1-2.6-.5-.7.5-1,.1-.5-.6-.8.3-.9,2.8.6,2.4-1.3,2.4-.2-1.1-1.5.4-1.7,2.6.5.3-.2,1.6-1.9.6-.9,1.5h-.9l-.7,1.9-1.1-.2L363,292l3.7-4.4v-2.2h-1.4l-1.9-.8v-1l-.8-.5-1,.2-.5-1.9-.6.1-.8-.9.3-.9-.5-.7-1.5.5,1.4,2.4-1.2.5-.6-.4-.8.9-.5-.3.2-1.5-.5-1-1.5-.4-1.7-1.9-1.2.3-2.5-.5-1.2.8-2.7-2-.7.2-.5,1.2.2,2.8-.6.6.4,1-1.1,1.1.1.8-1.1,1.9-1.4,1.1-1.3-.1-.9,1.2-.8,1.4-.5,3.2.7,1.2,1.5.1.3,1,2,.7.3.5,2,.7.2.9,1.4.5-.5.6.6.7-.1.7-2.4-3-2.8-.5-.5.3-1.3,1.3-.9,1.1.3.8,1.3-.1,1.1,1h-2.5l1.2,1,1.5.6.5.5,1.8.6-.5.9-.3.2-1.2.1.1-.9-.6-.5-1.1-.1-1.6-.1-1-1.8-.7-.1-.7,1.4.5,1.6-2,3-.6.9-.1.4.8.2v1.1l1.1.8-.7,1.4.5.5.6-.1.5-.9.9.8-1.1,1-.1,1.3.6,1.1.2.4v1.1l1.5.1,3.5,2.5,1.4-.3.7-.5,3.3.9-1.6.7,2.8,2.2-.2.7-1.5-.2-1.6-1.7-.2-1.4-.9-.4-.4.9-1.8.4-3.4-2.8h-.6l-.9.4v.7l-1.2.8-.9-.5-.4,2-.6-1.4-1.2.6-1.6-1.4-.8-.4h-1.1l-.3-.9-1.1,1.2.6.9,1.7.2-1.8.7-2.1,2.1-1-1.8-1.2-.3.2-1.1-1.9.1-.5-1.5-1.2,1.2-.7,2.2,1.5.8,1.2,1.5.3,1.8.8,1,.8,1.5,1.6.5v.7l-.7.1.4,1,.2.8,2.7.9,1.7-.9-.2.9-.6.6-.5.5H326l.8,1.5,1.4.6-2.5.2.5.8.6.6.4.8-.1,1.2-.4,1,.3,1.2-1.1,1-1.4-.4-1.1-1-.7-.5-.4,1.3h-.4l-1.1-2.1-2.9-2.2-.6.1-.7.9-.5,1.5-.2,1,.9,1.7,1.9,1.2-.7,1.5.3.8,3.6.5.9,1.6,1,1,1.4,2,.1,1.4,3.9.9.4,1,.8.4,2,.1-.1,1.4.7.4-.2.7-.6.8-1.6.5,2.8,2.2.8,1.5h1.4l.7,1.5,1.9,1,1.3,2.4.6,2.9-.9-.3-2.4-4.8-1.7-.5-4.2-4-1.4-.5-3.8.4-1.8-.5-1.7-1.5.2-.9-.5-.5-.8.2.1.8-2.1-.1.6,2.1,3.5.8,1.4,1.7.4,1.5,4.1,1.5.3,1.1.9.8-.2.5-5-1.6-1-.7-1.4-2.3-3.1-2.3-1.5-.5-1,1.8-.2,2.3-1.2,1.4.2.8-.7.4-1.3-.9-3-.8-1.1-2.6.1-2.6-.7-.7-1.2-.1-2.4-.6-2.4,4.1.1,1.3,1,1.9-.2.9,
		2.3.5.2,1.1,1.2.6-.1,2.4-.9,1.6.9.4.2.8-1.3-.3-.6-.2-.8.8,1.4,2-.2.9-1.2-.4-2.6-3.4-.2-2,.4-1-.6-1.2-.8-.2-.5-1,.6-2.5-1-.5-1.2-.1-1.4.3-1.4-.4-1.2,1.1-1.6-.1-.6.4.3,2.1L293,371l.9,5.5-.6,4.1,1.7.6,1.6,1.5,3.7.1.7.9-.2,1.3.8.1.5,1.1-.9.3-.5.3-2-.3.1-.8-.9-.3-3.2,1.4.1,1.5-1.5,2.7-.5,2.5,2.2.5,1.8,1.5,1.4,2-.2,1.1.6,1.3,2.6,1.1.3,1-1.2-.5-.2,1,2.1,1.3.1.9,1.1-.8.9.2,1.3-.2,1.5-.5,2,.7,1.2-.3,1,.8-.7,1.8-1.6-.1-.7.3-2.1-.7-.6.8-.8-.5-1.7-1.5.4,4-1.5-1.8-1.6-.7v-2.1l-.7-.7-.4.5-.6.6-1,.4-.4-.6.4-.5-1.2-.9-.5-.4-.8-1-1-.1-.8-1.2-.7.9-.9-.3-.8,2-.3,1.4-1.2,9,1.2,3.8,1.6.1.7,1-.5,2.5.3,1-.1,1.8-.1,2.8.7.1.6.5.9,1.4,2.8-.5,1.3-.7,2.2-2.4,4.5-3,.9,1.8-2,1-.4,1,.3.6,1.7.3-.2.6.6.5,1.3-.5,1.9.1,2.3-3,.7-.9,1.9-2,1,.7-.4,1.7-4.4,4.1h-2.7l-1,1.1-3.3,1-.1-1.6-1.1,1.1-1.4-.1.3,1.9-1-.2-.5,1-.9.2-.6,2.2-.3,1.5.6.6,4.6-.7,2,1.3,1.3-.4.3.8,1.9-.6,2.3-.5.8-1.1,1.6-.9-1.6,1.7-.1,1.1,3.5,3.8,2.8,1.4v.4l-.2.7-1.3.3-2.6-2.3-3.2-4-2.8,1.4-1.4-.1-2.4,1-1,1.4-.2,1.3,1.4.6.3,1.2-.9,1.7-2.2,1.6-.6,1.8-.1,1.2,1.9,1.6,3-.3,1.8.8,1.2.6.7,2.4,1.5,1.3,2.2-.4,4.3-1.1,2,.7-1.9-.1-4.6,1.4-1.2-.2-.7.9-.4.4-1-.5-1.1-.5-1.7-2.7-3.2-1-2.1,1-2.6.1-1.2,2.7-2.1,1.5-1.1,2,.5,2.5,1.1-.5.4,1.5,1,.8.5-.8,1.5-.6,1.6.4.4,1.1-.6,1,1.5,2.8,1.5.4,1.1,1.1,4.4-2,1.1-.2.7.7-4.1,1.6-2.8.6-.1.6-4.5-2.4-1.2-3.2-5.9.7-.7.5-.1,1.6-.9,1-.1,1.6.6.3-1.4,1.4.3,1-1.2,2.7-1.1-.2-.7.7,1.5.8.2.6h1.5l.1,1-1.8.1-.8-.8-.5,1.1-1.5.5.1,1.2.9-.2.3.7,1,.3,1.4-1.1.9.4,1.4-.9.5.3,1.9-.9,4-.6.2.5.6.3-.1.4-1.6.4-2.2,1.8-.2.7,3.9,1.3.7-1.4,1.7-2h.6l.1,1.1-1.8,1-.9,2.1-2.1-.6-2.1,1.3-1.3-.2-.6.9-1.1-.7-1.4.4-.8,2.6-.6-.1-.7,2.3,2.2.6,1.2-.7h1.4l.4.6.1.3-1.9-.1-.8.7-1,.1-1.5-.7-.4.9.6,1.2.8.7v.5l-1-.7-1,1.2h-.6l-2-2.9-1.3-.8-.1,1.1-.9.7-2-.4-.3.8-1.3.2-.8.2-.8.2-3.4-.5-1.8.4-1.4,1.1-1.3-.3-.4.7.7.4v.9l-1.2-.1-.6,1.3-.5.5-.4.8.9,1.8,1.9,1.4,2.6.5,2-.7,1,.1,1.8-.7,1.4.4,1,1.2,2.7-.4.9,1.3.8-1.4.9-.2h.7l.5,1.2,1.6.3,2.6-.8,1.2.9,3.9-3.8.6-.3,3.3-.2,3.7,2.8,2.7-.5,4.4.1-.1.5-3.4.2-.5.5-3,.1-2-1-1.1.3-1-1.7-1.6-.5-5.8,4.7-2.3.4v1.4l2.2,1.2.8.7-.2.5-3.8-2.3-.4-1.4-1.9-1.6-.9.1-.6,1,2.5.4-.8.5-1.7-.4-1.4.7-1.9-.1-.3.6.4,2.9,1.4,1.2,1.2,3.2,3.4,3.5,7.7,2.2,2-3.3.2.6-1.5,2.7,1,1.6.7-.7.7.8,2.3.6.7,1.6,5.5-3.2,2.4-2.2,4.3-7-1.6-.6-.1-.5h1.2l.6.6,1.2-.5,2.2-3.1,2.1-.4,2.7-3.2.4-1.3,2.6-2.5,1-.1.5,1,.7-1.5,1.9-.9-.8-1.2,1.6-2.3.1-1,4.8-4.8,1.8-2.6.8.6-7.4,10.2-1.3,3.2,4,.2,1.1.8.5.8,9.3-3.3,2.6-.1-8,2.4-1.4,1.5-.9-.3-1,.6-1.8-1.2-2.7.1-1.9,2.3-.8-.6-.9.3-2.4,1.9-.5.7,1.5.2.1,1-3.9,3.9-1.2,2.7-2,2.4-.6,1.4h.6l1,.5.7,2.1,1,.1,1.9-1.2,1-1.5,1.2-.4,1.2.3,1.4-.6.9.1-.2.5-1.5.5-1.4-.2-2.4,2.9-3.1,1.2-1.2-.7.3-1.2-.3-1-.9.1-3.8,6.2,1.3-.8-.2,1.4,1.4-2.1.8-.1.7.6.6,2-.8,1.4h2.9l.2-1.2,1.1-.3,3.7,1.3,2-.4,1.6,1.9,2.9-1.6,1.7-4.4,1.2-.7,1.2-.8,2.5-5.3.8-.4-2.3,5.6-1.6,2.4-1,1.2.6.6-1.3.6-1.2,2-1.2.8-2.7,1.2-.8-.5-1.2-1.2-2.9-.8-.9.8-1.5-1.1-.8.6-2.8.5-.3-.5-1.3.6-.3-.7-1.5,1.1-.6,1.1-.5-.1-.2,1.2.8,1.6-2.6,2-1.5,3.9v1.2l-.2.4-.8-.1-1.5,1.7-.9,5.6.6.2-.8,3.7.9.1,1.4-1.4,2.7.1.9-1.1,1,1.4-1.3.3-.2.8-.9-.3-1.1,1.1-1.5.3.3.6.8.1.2,1.5-2.6,4.6.1.9-.8,1.1-.4,1.3-.7,1.8,1-.1,1.1-1.5v-.9l2.9-2.7.4-.8h1.2l-3.9,8.3.4,1,.4.5.7.2v.8l-1.5.5-1.1-.5-1.9,3.4-1.1,1-.6,2.2-.9.8-2.9,7.6,1-.3-1.5,2.8.9.6,1.7-3.6,1-1.8.1-.4,2.4-3.8-.8-.8h1.7l.5-.6,1.4-1.2-1.9,2.9,1.8-1.2-.1.4-.6,1-1.2.6-2.6,4.7-1.5,1.6-1.5,3.7-.1,1,.6.3-.2,2.2.4.1,1.3-1.8.7.2,2.4-3.2,1.2-.4.4.4-2.3,3.3-.4,1.9-1.6,2-.8,2-.5,3.8.3,1.5,1.7,1.5,1.5-.6.3.3-.6.8.9.6-.6,1.6,1.2-.2v.6l1.2-1.8,2.4-1.2,1.3-1.3,4.9-6.5-2.6,5.7-1.7,1.1-.4,1-2.1,
		1.8-1.3.2-.8,2.2-1,.8.2.4-1.4,2.9-1.1,1.5-2.5,1.6.7,1.6-.5,3.9-1.3,5.1L299,630l.8,4.3-.6,1.8-.1,8.5-.6,1.8-1.6.3-.3,1.1-2.5,2.5-.5,8.9.4,1.2,2.3,1.2,2.3-.3,2.4-1.8,5.1.1,2.8-1.8.1-.8,2.6-3.4-.4-3.4-1.8-3.1,1-.3-.1-.7-2.7,1.6-1.4-1.2.3-.4,1.1.5,1.9-1.2.5-3.8,2-2.1.4-4.3.9-.2-.2-4.6.8-1h.6l.4,1,.6-.5v-1.8l-1-1.4-.5-4.5.8-.7.6-3.6.6-.5.1-2.5,3.4-4.6,2.7-1.6h1.5l.8-2.1-1.6-4.8-1-.8-2-3.3-1.7-.2,1.2-.7-1-1.9.5-.1-1.1-.9-.6-5.8-.9-2.9-.2-5.2h.9l.3,1.1,1.1.5h1.1l.5.4,1.5-2.4,1,.1.4-3.1.8-1,.6.1,1.1-.8,1-2.8,1.6-1,.1-1.8,1.1-1.6,2.8-2.4,3-.8,1.7-1.5.8-1.8-.4-1.4.4.5,2.1-4.8,1.2-1,.4,1.4,3.1-1,4.9-3.2-3.6,3.6L342,557l-1.5,1.5-1.4,3-.2,1.9-1.2,1.2-3,2-1.9.3-1.4.8-.5.8.1,1.7-4.7,5.7-1.9,4.8-.6.5-.6.6-.9,3.4,1.1,1.8-1.1,3.2.3,1.1-.6,2.4.8.9.9.6.7.7.3.2-.4,2.1.4.5,1.2-.1.1,1.1,1.9-.2.6.9,1.4.3.6,1.2,1-.2-.3-3.2-2.2-4.2.2-1,1.9-1.5.8-2.1-.5-1.1.5-1.6.4.1-.2,1.4.7,1.5.8.1,3.4,3.5,2.4.2-.5-4.3-2.2-3.9-.7-2.7.4-1.2,1,4.1,2.3,2.2,1.8,7.8-.2,1.2,4,1.1.5-2,1.4-2.1,1.1-4.9.8-.5.8-2.4-.5-1.1-2-.8-.1-1,.8-.2,2.4,1.4.3-.6-1-7,2.3-4.5-2.2-2.7.6-3.7-1-2.2.9-.5,1.1,2.9-.5,2.3.3,1.7,1.5,1,1-1.9,1-.8.3-1.8,2.5-5,2.5-2-.2.8-2,2.1-2.7,6.2-1,.9-2.6,6.3v.9l.8,1.3v2.4l.9,1.4v1.5l1,.8,2.1.1,2.5-.8-.2-1.4-1.4-.2-.3-1.1-1-.5-.9-1.8-1-2.8.6-2.3.9,1.5-.1,1.4,1.9,3.2-.1,1.2h1.2l.5.8,2.6.9.7.7.4,2.7,3.6,1.7-1.5,1.2-1,.7-1.2-.4.5-1.5-6.2-2.2-.7,1.6-.9-.5-3.6,2.2-.3,3.4.8.3-1.7,2.1.6,1,.1,7,1.8,4.4.2,2.3-.9,1.2-.2.2-.7.1v.8l-.6.2-.5.6-.1,3.5,2.7,1.9,2.7,4.2-.2.9h1.3l.9,1,.7-.6,1.2.5,3,1.8,1.9,1.9,1.3,2.9-.3,1.8-.6.6-.6-.3-.1.5,1.4.7.6,1.6,1.4,1.1.6,2.1-.6,2.3-.9.6.1,1.4L366,644l-5,2.1-2.1,2.6-.4,4.4-2,1.4-.4,1.3-2.3,1.7.5,1,.1,3.9-1.7,3.7-.1,2.6-3.1,2.8-1.7,3.5H347l-2.6,2.9-1,5.3-2.3,3.7-.7,3.1,1.8,5.8.8.5.8,1.8.8,3-.3.6-2,1.5-2.2-2.4-.5-3.8.7-.4.6.6.3-.8-1.3-.8L338,691l-2.8,1.2-1.2-.1-1.6,3.6.5.7-.5,1.9.1,3.8,2.4,5.1-.1,1,2.8,3.4,3.1,2.1.7.9-.1.8,1.9,1.1.7,1.2-.1,1.9.9.5-.2,1.7,2,.6-.4,1.3,1.1,1.9-1.5,1.1.5,2.8,2.7,2.3,2.4.4.6.6,1.4-.3-1.4-.3-.4-1.6,1.1-3.1-2.5-2.3-.6-4.1-1.3-2.5v-1.5l-1-2.5,2.3-3,4-2.4,1.8-.2,1.7.9.4,1,1.4,1,3.6.7,2.4,2.6,4.4,2.7,1.1,1.5-.2.5.8,1.9,1.6.5.5,1.4.6-.2.5,1.1,1.7,1.1,6.4,2.6,1.8-1.4V726l.4.3.5-1.1V724l-.7-.3-.3-1.2.7-3.1-.4-1.5.2-1.7.8-.3.2-1-2-4.1.5-.5,1.1,2-.8-1.6.4-.9-1.7-1-.4-1.6,3.3,2,2,2.1-1-1.4,4.7,1.3-.5.1.9.6v.8l.2-.8.7.3-.1,1,1-.2-.2,1.4.9-.7,1,.6.3,1.3,1.4,1.6,1.6.4.4-.8,1.1,1.6,1.1.3.1-2.9.5-.8,2.3,3.2,3.9.2,1.3-.4,1.5-1.7,4.1-1.6,1-1.4,1.4-.2,1.1-2.1.6.5.8-1.6,2.5-1.4,1.2.1-1.1.9.3.7,3.8-1.2,3.6,1.1,4.5-4.8.7-1.4,1.1-.1,1.1-2,1.6.5.7-.8,2-1.2v1l1.3.6,1.3-.7.2-1.5,1.3-1,4-1.19-1.59,1.29.5.4.9-.9.5.5-2.2,4.7-.9.4-2.3,3.5-1.2.5-2.1,2.9-1.6,2-.1.5.6.8.9.5.2.4-1.2,1.3.3.6.4-.3h.8l-.1,2.5-3.4,3.6-1.3,3.3-3.8,4.9.5,4.6-.7,2-.1,2.8-1.4,3.8-1.9,1.3-.1.7,1.2,2.3,1.4,1.1,2,3.5,4.5,5.6,1,1.8v1.2l2.5,3.2.9,3.1.1,3.1,5.1,8.5.7,1.9-.3,1.3,2,2.5.5,1.4,5.2,10h2.1l.1-1.8-2.6-1.4-.6-2.7.7-1,1.5-.2,1.9,1.6L461,790l2-3.6,2.3-2.6.5-3.1,1.3-1.8,1.5.9.8,2.4,2.2,2.3,1.9-.4,2.2-5,1.5-.3,1.1.4.3,3.1.4.1-.5-.1.9,1.8,2,.9.3,4.7-2.9,3-2.2.9-1.3,1-.4.5-.5,2.3-.2.5,1.5.3.2,3,1.4,3.4-6.3,3-3.1.6-1.3,1.5-.7,1.7.6,2.3L465,825.2l2.7,2.7,4.9.8,4.4-.6-.8,1.3-2.2.8-2.8,2.5-4.1,5.5-.8,2.9-.6.9-1,.3-2.4,6.7-.1.6-.4,1.1,2.3,1.8.9,2.4,3.2,4,.8,1.9,1.9,5.5,1.4,1.5,5.8,4,1.1.1.4-1,.7.4.4.8,3.5.2.1,1-1.2,1.9-.7-.6-2.2-.2-2.1,1-1.7.1-3-1.7-1.9-2.6-3.1-10.6-.7-.9-1.3.1-1.6,2-4,1.2-1.8,2-2.4,1.1v.8l.9,1.6,4.3,3.3.9,2.7,2,2.4v.6l-.9.5.3.9,1.5.6.2.6.3,0-.4,2-.5.4-.8-.4-3-2.7-1.1-.4-1.7-2-3.9-2.9-1.4-.5-.9-1.7-.6-2.1h-.1l-1.1-1.2-2.9-.3-6.6,1.9-2.7.9-3.1,2.7-3.8,1.7-3.9-.1-3.7-.7-.6-1.7-1.7-.5-1-1-2.5.5-1-1.5-2.3-.5-.7,1,.8.6v1.5l-1.2,2.2-2.2,1.9-3.3,1.2-5.8-1.8-1.6,2.2-1.1,1.6-1.8.8-1.6,1.7-2.2.8-.8,1-.3,2.2-1.9,1.2-2.4,3.3-4.1,2.5v.8l.7,3.2-.4,3.2-.8,1.6-3.5,3.6H379l-2.1,3.2-.7.2-2.4,2.6-3.2.2-1.5,1.2-1.3.3-1.1,1.8h-1.1l-1.2,2.8-1.3.6-.3,1.4-1.8.6V923l-1.8,2.2-.1,1.2-.9.7.6,1,1.6.7.9-2.2,1.2.2.7.8,1.4-1.2,1.4.5,2.5-2.5,2,.7,2.2,1.8-.3,1.3.9.9.8-1.5,1.8-.2.2-1.1-1-1.5.4-1.8,1.5-1.1-.2-1.2,1.7-1.6,3-.8.2-1.2,4.2.2.2-1.2.7-.5H390l2.1-1,1.8.5,2.2,1.6,2.7,5.4-.5,2.1-1.6,1.2v.9l4.6,6.5,1.1,2.3.3,3.4-2.4,2-2.1,6,2.4,4.1,1.1,3.5.8,1,.6,4.9-1.8,3,.1,2-.8,1.9.2,1.6-1.5,2.4-1.7,5.3-1.9,2.8-2.1,3-1.9,1.5-1.7.5-4,3.4-.6-.3-1.1.6-.8-.9-.8.4-3.2,3.8-2.7,1.7-2.9,2.6h-1.7l-1.2-.9-1.1.7h-3.7l-.2.5-2.6.4-.1,1.4-1.1.8-1.5-1-1.1,1.4.4.6-1,2.1-2,2-2.9.8-.6,1.1.5.9-.7.9-2.2.2-.5-.3v-.8l-1-.4-.6,2.5-3.2.8-.1.5-.9-.4-.4-.4.6-1-.3-.2-.3-.9-1.7.5-.3-.5-3.2-.6.2.5-1.1,1.1,1.1,1.1-1.5,1.1,1,.9-.5.5.1,1.2-.8-.2-.5,1-1.3.2-.8-.5-.9,1.7-2.7-.2-.3,1-.8.3.2.6-1.6.3-1.4,1.4-1.9.1-1.1.6-.6.6.7-.1.3.9-1.1.9.5,1-.8,1.4,1.4-.3.1.7,1.9-1.4,1.1.3.2-.5,1.6-.1.6.7h1.9v.6l2.6-.3.7,1,1.4,4.7-.6,3.6-2.9-.1-1.7,1.8-1-.1-.6,2.2-2.6-.4,1.5,1.5-.3.5,1.4-.3.7,1.1.8.2v1.9l.9,1,.4-.8.8-.1v-1.4l-.6-.6.3-.8,1.7.2.5-.4.7.6,1.1-1,.8,1.4,1.4-.1,1.8-.3,3.1,1.2,3.1-.9,1,.4.8-.6.8-.1.3-1.8-.8-1.1.5-2.1-1.1-1,1.1.4.6-.4-.7,2.9.9.9-.1,1.5-.1.2-.4.9h-.9l-.7.8-1.1-.4-1.5.5-1.1.5.2,1.4-.7-.3.3-.6-2.9-.6-1.5.1-.5,1.5-1-.1-.3-.9-1.6-.2-1.3,1,.5.8.2.1.6.6,2.2.5,1,2.3v.4l-.6.7.2.8,3.3,1.2,1.2-.4,2.4,1.5,1.4.1.8-1.5,1,.1-.4-.8.4-1.1,2.1-1,.2-.8,1.8-.1,3.1,1.2.7-.9h.9l.1-.9,2.8.1v-.7l1.2-1.2-.5-.5.2-.9,1.2-1.3-1-.8v-.8l1.3-1.4,6.8-1.1,5.2,1.4,1.5-.1,2.9-2.2.4,1.1.4.3-2.5,1.1-.2,1.4h1.4l1.8.5.7.6,3.5,3.2,1.6.1.5.6,2.7-1.9,1.5-.4.8.4-2.5.8-.2.6,1.2.2-1.6.8-.5,2.3-3.3,2.2,1.1,1.8.2,1.7-.9,1.2.2.4,1.5-.3,4.4,2.5.5.1v-.8l.7-.4,2.6.7.5-.4-.6-1.4,1.8-1,3.9,1.1,1.7-1.1.8.5,3.4-.3-1-.8,1.4-3.2,1.2-.5,1.8.4,1.9-.8-.2.4,1,.2-.1.6,1.3-.5,2.6,2.1-.3,1.2,1.9,1.3,1.8,5.2,2.5,3.3,1,.4,3-.2,1.2,1.8,2.6,2.3,2.1,3.4,8.7,1.4,1,.7,2.6-.5,1.5.3,2.1-1.1,1.9.7,3.4-1.7,1.5.8,2.1-1,.3-3.7,1.4-1.1.4-1.3,2.1-2.2,7.4-4.1,3.1-.5,1.9.4.7.1.4.3-.7.8,1.2.3,4.1-1.3,1.1.7,1-.6,2.2-1.5,1.3-2.9.8-.1.7-1.3,2.1-1.1.6-2.9-.14-.21,1.34-2.69,3.5-4.2,7-7,2.9-1.9-.2-1.1-1.7-1.1.1-1.2,1.2-1.1,2.1-.1.7.8.2,1.5-1.1,3.4-1.1,1.5-3.6,1.6-2.4,4-.2,1.2-2.3,1.9-2.1,4.3-5.1,5.4-.3,1.6-1,1.5-.7,1-1.1,3h-.7l-.3.8-2.5-.2-1.8.9-5.3,5.7-1.8,2.9-4.3,1.2v1.2l-2.4,4.7-.5.6-.9,3.4-2.2,2.7-.1.5,1.2.7,1.4-.1.2.5-1.9,1.2-2.1,1.9-6.3,1.2-5,2.1H447l-3.3-.3-3.2-2.9-.9.4-1.9-1.4-2.9-.8-2.2.1-.7.8-2,.7-.9-.8-5.21-.79h0l-3-.4-1.1-.9-1.5,1.6-2.5-.3-2.8,1.1-2.1-.8-2,1.2-4.3.3-1,.9-3-1.1-.5.7h-2l-2.9,1.3-1.8-.1-.5,1-1.4.3,1.1.6-.3,2.9-.5.7-2.1.2,1.1.9-.1,1.1,1,.6-.6,3.1,2,1.6.6,1.2-2.3-1.5-.5,3.3-1.5.5-2.8,4-2.1.6-3-.5-2.3-2-2.7-.7-3.5-.1-.6,1.5.4,2.2-1,3.3.2.8-.5.3.1,1.1h-.1l-.4.3-.9,2.2.8,3.8-.3,8.2-.8,1.1-2.4,1-.4.9-1.3.6-.8.6-.2,2.4-1.5,1v.9l-1.1.2-.5.8-1.3.2-.2,1-.9-.3-1.3.7-.2,1.3.4.5-1.9,4.8-2.2.8-1.6-.5-.6.6-.6.3-1.2.7-1.2-.2-1.1-.9-.7.7.9.8-.7,1.2-.1.7-.8-.2.2-.9-1.7,1.1-.8,1.4-2-.2-.5-.6-.8.2.7,2.2-.2,1.6-1.1,1.2.7.9-.8,4.7-1.8,2.2-1.5-.7-.4,1.2-2.5.8v1l-.7.6.5,1.2-.8,3.1-1.2.5.1.6-1.3,1.3-2.2.3.1,1.2-1.1,2.3-3.3,2.1-1.6,1.8-2.5.7-.6-.8-1.1.3-.5,2.2-2,2.2-.1-.4h-2l-.6-1.8-3.9.3-3.2,2.7-.6-.4-1.8,2.4-2.8.2-2.4,3.8,1.2,3.8-1.2,1.1-.4,1.4.6.8.8.1.1.9.8.9,1.6-.3.5-.6.5.4,1.1-1.1,2.6-.1,2.2-1.8.6-1.8-1-1.7.2-.3,1-.5v-.9l2.8-.4.3,1.1,1-.7.8.9-.3.4,1.1-.1.6,1.3,1.2-.7,1.1.1,1.8,1.3,1-.3,1.6,1.1.3-.3,2.3,2.8-.1,1.4,1.1.8.3,1.9-.6,1,1.5,1.8-.2.9,1.7.6.7,1.5.8-.8h.7v-1.7l1.2-2.2,2.7-.6,1.4.6.7-1.2-.3-1.2,1.8-.7.1-1.4.6-.4-.8-1.5-.7-.2.3-1.7-1.9-.1.7-.3-1.5-.7-3.6.6.6-.5,1.1-.1.4-.9.5.7,2.7-.4.6-.7-.6-.5-.1-1.1,1.2-.8-.2-.6,1.3-.7.8.4-.5-1.2-1,.3-.8-1.4,1.3.6.7-.8.2-.6-.8-.4-.3-1.3,1-1.3,1.1-.5.2.1-.7.6.6,2.1.5-.1-.6,2.6,1.4.1-.8.7.5,1,1.8-1.2-.1-.6.7-.7-.1-1.9,1.1-1.8,1.5-.4.9,1,1-1.6,2.5-2.2,2.8.4,1.3,1.1v-1.1l1.1-.8-.3-.7,1.2-1.1-1.2-.5-.2-.8.8-2.4.7-.6.7.2-.9-2.1.6-1.2,3.5-1.2,1.2.6-.2,1.8.8.6.4-.9.9-.1.8-.6.3.6,1.7-.4.5.5,1.2-.8,2.6.8,2.2-.6.3-.6,1.5.5.1-.7,1.5-.4-.1-.9,1.4-.9,7.1-.1,2.2.7,3.1,2,.6.8-.4.7.3.8.8-.7,1.4.1-.8-1.5,2.2-1.6-.6-1.1-.8.3-.7-1.1-.2-2-1-.6.4-.5.5-1.1.4-1.9-.8-3.1.9,3.2-.4,1.9-.1,1.2,1,.9.3,2.1,1.2.1.1.7,1.3-.5,1,.6.3,3.9,1,.5,1.4-.5.7.8-.2.7,2.3,1.1,3-1.5,1.8.4,1-.4.2,1.1,2.1.2.8.7-.2.9.9-.2,1,1.6.7.2v1.8l-.7.1.2.4,2.8,2.1,2.1.8.5-.6-.1-1.1,1-1.4.5.1-.5-2.1.4.8.2-.08.4-.32-.27.27.17-.07-.2.1-.2.2.1,1.1.8-.2-1.2.4-.7,1.2,2.3.9.9,1.3,1.1-.4,1.5-1.6,1.6.4,1-.3-1.1-1.7,1.1-5.2,1.9-2.7,2.5-.7.5-.9-.62-1.15,1.82,1.15,1.6-1.1-.2-1.1.8-2.1,3.2-2-.7-6.4-1.8-5.2h-.8l1-2.8,1.6-1.8.1-1.4,2.7-3.1-.1-.5-.7.3-.5-.6-.4-2.5.3-1.1.2.4-.2-.8.4.6-.3,1.2.5.6.1-1.3.1.9.3-.1-.4.6.4-.1-.5.4.6.3-.4.1-.1,1.3.4-.8,2.8,1.7,1.6-.1v-.8l.8-.6,1.8-.8.8.2,1.6-3,1.6-1.5,4-1.1,6-.1,1-1.7,4,.3,4.4-1.9v-.1l2.3-1.5,7.3,1.5,9.8,5.3,6.7,5.1,5,5-.4,4.8,2.6-3.6-.8-1.7.4-.3-2.4-.2-.6-1.2,1.3-1.7,1.1.5-1-.5.5-.8-.6-.5,1.6-2,5.5.3,1,.7,5.2.8,2.7-.7.7.8h1.8l.7.8.8-.5.5,1,1.2.7,2.6.2.6,1.7,1.8-1.2,4.8-.6.5-1.3-.8-.1-.1-.9,2.1-2.5-1.1.2-.6-.5-.2-1,.7-1.7-.6-.7,2.2-2.3,2-1.1,3.4-.6,5.1.9,1.2-2.1,2.3-.5.6-1.4h.1l-.7,1.5,6.1,1.5,2.8,1.6-.4-.9,2.5-2.7,2.9-1.6,3.5-.9,2.5-1.8,1.8.1,1.4-2,1.3-.6.1-.6-.8-.7-.8.6.6-.7-1.4-2.1.8-.8,1.7,1.9,5.4,2.4,1.5,2,1.8.5,1.2,1.1,2.5-1.2.8.8,3.1-.8.3.4-.1-.4.8-.2.7,1.6.3-.6-.8-.7,5.5.7,1.1.1,3.3,1.6,4.7,3.8,2.7-4.1,2.7-1.3,8.8-2.1,11.1-.7,5.3-1.7,3.5-.5,7.8,1.2.8.3-.2,1.2,1.3.3v-1.2l9.4,3.4-.3-.5.9-.1,3.3,2.4,1.1.3.9-.4,3.4,2.1,3.1.3,2.7-3.7,1.9-1.3,1.3-2.3,1.5-1,2.7-1.2,11.1-2.3,3.7-1.3,1.3-.7,3.7-3.8,2.8-1.4,2-.2,2.72.58,0,0,5.8,1.1,2.1-.1.4-2-.7-4.4.2-2,1.5-2.7,2-2.2,4-2.2,6.2-.8-.4-.3,1.1-.3.2-1.1,1.2-.6,2.6-.3,2.2-1.1,1.5.2-.9-.3.6.1-.6-.5.2-.4,1.3-.4.3.6v-.9l2.3-1,1.7-3.4-.1-5.6-1.3-5.9.2-2.9,2.8-.8,1.3-5.2-1.3-2-.7.5-2.4-.2-1.1.7-1.9-.1-1.2.6-1.3-.3-2.6.8-2.3-.5-3.9.8-4.5-.1-2.8.8-.2-.6.1.6-2,1-2,.1.2-.4-.6.4.4-1.3-1.5-2.8-3.1-2.2-4.3-.8-1.7-1.2-3.8-.8-.6-.5.1-2.1-3.5-1.5v-1.7l-11.6.5-1.5.6-1.1,2.1-1.4-1.1.1-1.2,1.1-1.4,4-1.2,3,.5,2-.3,2.7-1.5,1.9.1,2.5-1,3.8,1.3,9.7-6.5,1.4-2.3h-2.5l2.4-6.7-.5-3.7.6-2.1-1-1-1.3.1-1.5,1.1-.7-1,2.6-2.4h3.5l.8-.8,1,.3-.5-.5h1.1l.1-2.1.5-.1,1.4,1.2-1-.6,1,2.7,4.8-.5,1.3-.3,6.6-4.6,3.3-4.6-.2-1.1-1.6-1,.5-.5-.4.3-.7-.4,1.1-3.3.7-.9,1-.2-.4-1.4h-4.4l2.3-.8.9.4,1.5-.7,1.4,1,.2,1.9,1.7-2.5,1.5-.7,1.7-2.4,2.2-1.8,1-2.4,1.8-2.3,6.6-3.6,2.7-10.3.8-9.5L761,977l1.5-1.1.9-3.7,2.3-5.2.4-4.9,2.1-3.5-.1-3.6ZM431.5,1172.2l.2-1.3-.9-.9,1,.7.29,2.58Z M587.7 90.3 588 92.6 591.1 94.8 591.3 91.4 592.4 89.9 592.9 86.8 592.6 86.2 592.1 87.4 591.2 87.8 590.9 87.2 591.4 85.8
	 	590.7 83.9 590 84.4 590.7 86.2 590 86.1 589.5 85.2 588.5 84.8 588.2 85.2 587.5 84.5 587.2 85 586.4 85 586.3 85.9 588.5 88.9 588.3 90 587.7 90.3 M267.2 486.1 266 486.4 265.1 485.8 264.5 485.7 264.8 486.5 263.8 487 264.3 488.1 265 488.3 265.6 487.5 266.4 488.7 267 488.2 267.5 488.1 267.7 487.2 267.2 486.1 M214 380 213.3 378.2 212.1 379 213.6 381 214 380 M271.2 483.3 272.7 483.2 274 481.2 274.3 477.1 273.8 475.7 272.4 474.6 270.7 475.8 271.3 476.5 271.1 478.2 269.1 478.3 268.1 479.6 268.3 481.7 271.2 483.3 M301.9 563.3 301.4 561.2 301.7 560.5 300.7 559.5 298.3 560.9 297.7 562.3 297.3 562.1 296.8 563.1 297.3 564.2 300.1 564.3 301.2 563.2 301.9 563.3 M267.9 529.7 268.4 530.3 269.1 530.3 269.4 529.6 271.1 529.9 272.3 528.9 271 527.8 270 527.6 267.2 525.6 266.5 525.6 265.8 525.9 264.1 526.7 263.6 525.8 262.3 525.9 261.9 525.8 261.9 528.1 262.8 528.3 263.5 527.8 263.8 529 264.3 528.4 265.7 529 266.2 530.8 266.7 530.3 266.4 529.5 267.4 529.5 267.9 529.7 M268 451 269 451.5 269.8 450.7 269.7 449.4 268.2 449.1 267.2 450 266.9 450.1 265.1 451.1 266.2 453.3 267.2 453.6 268.4 452.9 268 451 M211.1 338.3 211.9 343.5 212.7 344.2 213.9 343.9 215.7 343.1 216.4 342.1 216.8 343.3 214.9 344.2 214.5 345.2 216.9 345.3 214.3 346.2 214.3 346.8 215.7 347.7 219.5 346 222.1 345.8 220.4 346.8 218.9 346.6 216.4 347.8 215.2 348.9 215 350.4 212.9 349 212.5 351.4 211.3 352 211 352.9 211.7 353.2 212.5 352.3 213 352.9 213.2 355.5 214 355.7 214.6 355.2 214.7 356.2 216.8 357.4 218.6 357.1 218 356 218.3 355.7 220.2 357.5 221.8 357.4 223.2 358.6 223.7 359.1 227.2 359.9 227.8 359.3 228.2 360.1 226.6 360.5 227.2 361.4 229.9 363.2 228 362.7 227.7 363.4 226.4 363.3 225.8 362.6 223.5 362.1 222.1 363.1 221.5 362.7 221.5 364 220.6 364.7 220.9 367 219.9 367.6 219.2 367 218.6 367.4 218 369.8 217.3 370.1 216.9 371.2 215.8 371.2 214.4 372.5 213.5 372.3 213.4 373.3 213.1 371.2 211.7 370.4 210 370.9 210.9 373.4 212 374.5 213.1 374.7 215 378 216.5 379.2 217.1 380 217.2 380.6 218.3 380.9 220.1 383.7 220.7 383.6 220.1 382.1 221.3 382.7 222.1 382.4 222.5 380.1 224.9 379.4 224.3 379 224.5 377.8 224.9 377.8 225.1 378.2 226.6 378.2 225.9 376.2 226 375.6 226.7 375.6 227 376 227.6 375.7 227.6 375.5 227.2 373.8 227.8 373.7 228.2 375 229 373.6 229.6 373.8 230.3 374.2 231.6 374.8 232 373.6 231.8 373.1 231.2 371.3 232.7 372.3 233.5 372.8 234.1 372.7 235 372.1 234.7 370.3 233.8 370.3 232.6 367.3 231.9 366.9 231.6 367.6 230.7 367.3 230.2 365.6 230.9 365.2 231.6 365.9 231.5 364.9 230.7 363.7 232.6 363.6 233.5 363.9 234.4 365 237.4 365.7 239.4 365.5 239.1 363.4 236.4 361.6 237.3 361.2 238.3 361.5 238.8 360.7 236.7 356.9 235.6 357 235.8 356 234.7 352.6 233.5 352 233.6 351 235.6 349.9 237.1 347.7 239 346.1 239 345.2 239.3 345.2 239.3 346.5 237.9 347.5 236.3 350.4 236.9 352.4 236.4 353.6 237.1 356.2 237.7 356.4 238.8 359.3 240.3 361.4 240.7 360.6 241.5 360.9 242 361.5 243.1 361.5 241.8 359.5 240.8 356.2 242.1 357.7 242.6 357.5 243.5 360.7 244.4 361.8 244.8 362.2 245.7 361.7 247.2 361.4 246.7 356.7 248.6 360.1 249.7 358.5 251.6 358.8 251.8 356 253 355.5 252.7 354.9 253.1 353.9 252.6 353.1 253 352.7 251.5 351.2 248.8 351.5 245.5 350.8 248.3 350.7 248.2 349.6 249.2 350.5 250.6 350.3 250 349.5 251.8 350.3 252 349.2 252.7 350 253.1 350.7 254 350.1 254.3 350.1 255.1 349.9 257 351.4 257 350.4 258.4 349.3 258.9 346.8 256.2 346.6 254.1 345.8 257.9 345.8 258.3 343.9 257.5 343.5 258.3 342.5 257.5 342.2 256.5 341.5 256.4 340.6 256.7 339.9 256.5 339.3 256.3 338.2 254 339.6 254.7 340 254.2 340.9 253.4 340.2 251.6 340.2 250.9 340.4 249.3 340.4 248.2 341.2 245.9 341.1 245.7 341.9 244.8 341 248.1 340.3 248.2 339.9 249.3 339.4 250.8 339.3 252 339.4 252.9 338.1 254.7 337.1 253.8 336.3 253.3 336.5 252.2 336 251.9 335.7 251.9 335.4 254.7 336.4 255.8 336.3 256.9 336.4 258.1 336.1 258.1 334.7 257.8 334.2 258.2 333.6 257.5 330.6 256.9 330.4 257.3 329.4 256.9 329.1 256.2 327.2 256.7 326.6 257.1 327.7 258 328 258.6 327.6 258.9 329.2 259.6 329.5 260.3 329.2 260.5 328.4 260.7 328.2 261.3 327.6 263 327.3 263.9 329.2 264.9 329.5 265.1 330.3 266 330.3 268.1 329.3 268.1 328.2 270.3 327.2 271 326.3 271.4 325.5 270.7 324.6 271.8 323.2 271.4 322.4 272.3 321.9 272.6 320.9 271.2 320.3 270.6 320.5 270.1 321.7 268.2 322.3 266.9 324.6 266.1 325.2 265.4 325 263.1 327 262.6 326.9 262 326.6 260 324.1 261.2 322.6 260.7 321.1 261.1 320 263.5 319.6 263.9 319 263.6 318.3 264.2 317.5 263.9 317 266 316.4 265.9 314.8 266.5 313.8 267.2 313.7 268.9 311.2 270.9 310.8 268.7 309.3 267.7 307.6 269.2 303 270.5 301.9 270.6 300.4 268.9 298.4 268.9 297 269.8 295.9 267 293.2 267.2 291.8 265.9 291.2 264.9 289.9 263.1 290.8 263.7 291.2 263.7 292.3 261.8 294.5 259.9 294.8 258.5 297.1 253.6 299.9 253.1 301.2 250.4 303.1 249.6 304.5 248.2 304.7 246.5 307.5 246.6 308.5 244.6 308.6 243.1 310 242.3 310.4 241.9 310.7 240.8 311.1 240.1 309.7 239.7 310.3 239.1 310.1 238.9 311.1 237.7 311.6 236.8 311.7 235.4 312.7 235.1 313.6 233.7 314.3 232.2 314.8 231.4 315.5 230.4 315.5 231 316.4 230.3 317.2 229.8 317.1 229 317.9 229.2 318.4 229.6 319.1 230.4 320.9 230.2 321.6 230.8 322.2 231.6 323.7 232.1 324 233.5 325.8 234.7 326.4 234.5 326.9 233.6 326.7 233.3 327.6 233.9 328.1 234.8 328.3 235.3 328.4 235.6 329.4 235.6 330 235.2 330.8 234.1 328.8 233.5 329.4 232.1 328.6 231.3 328 229.6 327.9 229.2 327.4 228.5 327.6 227.8 328.5 227 328.8 226.2 329.3 225.9 329.5 225.8 330.4 225.4 330.4 225 329.5 223.6 329.5 223.1 329.3 222.5 329.5 220.6 327.6 221.8 327.5 223.8 327.6 224 326.4 223.6 325.8 222.4 325.9 220.8 323.7 220.3 324.2 220.5 325.2 219.9 325.5 218.7 324 217.3 323.7 216.7 324.1 216.8 322.7 215.8 323.4 215.8 324.1 215.1 324.2 214.5 326.6 215 326.9 214.2 328.4 215.1 329.2 214.7 329.6 214.6 330.3 213.3 329.9 213.1 329.3 211.9 330 211.6 330.8 212.2 331.1 212.6 332.9 211.7 334 211.5 334.7 211 335.5 210.1 335.3 209.7 337.3 210.5 338.3 211.1 338.3 M215.1 383.6 212.7 381 212.3 381.4 212.5 382.2 215.1 383.6 M237 365.8 236.3 366.4 236.7 367.4 236.9 368 237.3 368.7 238.2 368.8 238.8 368.9 239 369.3 240.9 368.5 240.7 367.5 240.1 367.3 240.4 366.8 237 365.8 M235 523 235.6 522.6 235.5 520.7 234.6 520.6 233.7 519.1 232.8 520.3 232.4 520.6 231.7 520.8 230.5 521 229.8 521 227.3 522.3 226.2 523.7 225.5 523.6 225.3 522.6 223.7 522.2 222.6 522.2 221.4 522.5 221 523.3 220 523.5 219.3 525 219.1 525.4 219.5 526.5 219.8 527.2 219.5 531.3 221 530.6 221.9 530.9 222.5 532.4 223.7 532.7 224.9 532.2 225.3 530.4 224.9 528.9 226.1 527.3 227.3 526.8 228 527.2 229 527.2 230.2 527.2 231.2 525.1 230.3 524.2 230.7 523.3 232.4 522.9 233.1 523.9 233.8 523.9 233.4 522.9 234.3 523.2 235 523 M226.1 323.5 226.1 324 226.8 325.1 227.2 325 227.3 325.7 226.2 325.3 226.7 326.8 230.7 326.8 232 327.5 232 325.4 231.7 325 231.1 324.5 230.2 324 229.9 322.9 228.8 323 227.8 320.9 225.6 320.9 225.2 320.4 225.4 322.7 226.1 323.5 M264.5 576.5 264.4 577.3 263.6 577.9 264.2 578.2 265.4 577.4 265.3 578.5 264.7 579 263.7 579.7 263.8 580 263.9 580.7 265.2 580.6 264.7 581.5 265.2 582.2 266.7 581 266.7 580 267.7 579.7 268 580.3 268.5 579.6 268.2 578.8 269.7 577.1 269.4 576.8 269.9 576.1 268.9 575.3 270.9 573.1 271.3 571.4 272.9 568.5 271.9 567.1 270 568.7 270 570.2 268.8 569.7 268 570 268.1 570.6 266.6 571.4 265.6 572.8 265.3 573.8 264.8 574.8 264.9 575.6 265.4 575.8 265.3 576.4 264.5 576.5 M299.5 565.2 298.6 565.6 298.7 566.5 298.2 566.1 297.2 566.6 297.2 567.5 295.3 568.7 294.8 569.8 293.8 569.5 293.6 570.4 292.4 571.2 292.5 572 291.5 572 289.8 573.2 284.2 578 283.4 580.3 281.3 583.1 280.9 585.1 281.7 584.9 285.1 586.6 286.4 586.2 286.7 585.1 287.9 585 287.9 584.5 288.4 584.5 288.6 585.5 286.5 586.8 285.9 586.5 279.6 587.9 278.5 588.7 276.6 592.6 275.9 593 275.2 596.4 275.8 597.4 275.8 601 277.2 603.8 278.8 604.4 279 605 280.7 604.7 283.6 605.4 284.3 602.6 285.1 601.6 284.4 600.7 285.3 597.1 286.1 596.5 287.4 597.1 287.9 596.5 287.8 594.5 288.6 594.5 288.3 595.7 289.2 594.5 289 592.8 291 588.8 290.6 588.6 291.6 585.4 292 585.7 292.6 585.1 294.3 580.6 295.3 580.2 296.7 576.7 300.9 569.5 300.5 568.2 300.9 567.5 299.5 565.2 M307.1 558.7 306.9 556.9 305.8 556.1 305.1 558.4 305.6 560.1 307.1 558.7 M305.2 545.8 303 548.6 303.2 549.2 304.2 549.4 304 551.1 304.8 552.3 305.6 551.6 305.5 551 306.4 550.6 305.9 549 307 548.1 306.8 545.9 306.2 546.3 305.2 545.8 M610 53.2 609.2 54.3 608.4 55.8 609.8 54.5 611.2 54.7 610.6 54.1 610.8 53.2 610 53.2 M304.3 553.4 304.4 552.2 303.9 551.6 303.2 552.3 303 554.4 302.8 555.3 302.2 557.5 303.1 558.7 303.2 560.2 304.1 560.7 304.5 560.2 304.2 557.4 305.2 554.2 304.3 553.4 M298.6 612.3 298.3 613 297.8 612.9 297.6 613.6 298.2 613.4 297.9 614.8 297.4 614.6 296.9 616.5 295.7 618.3 295.9 619.3 296.6 619.3 296 620.7 296.4 621.7 298.2 620.2 298.5 619.3 298 618.2 299.1 617.3 298.2 617.1 298.8 615.7 298.2 614.5 299.4 613.1 298.6 612.3 M246.2 460.2 246.1 461 244.4 460.9 242.5 462.4 243.8 463.5 245.6 463 246.7 461.7 247.3 461.7 247.7 461.8 248.8 461.7 249.1 463.2 250.5 462.7 250.9 463.2 252 463.2 251.7 462.6 250.5 461.9 250.5 460.5 246.2 460.2 M265.6 466 264.8 464.1 263.4 463.7 262.8 462.7 260.5 461.3 256.1 463.3 255.3 464.8 252.2 467.4 256.3 471.2 257.4 471.4 257.9 473.8 259.4 474.2 260.4 475.7 261.6 475.8 262.7 475 263.2 473.8 264.8 472.8 266.2 467.8 265.8 467.3 263.9 467.1 263.9 466.5 265.6 466 M241.1 517.3 241.9 515.5 242.9 517 243.7 516.1 244.9 516 245.7 515.6 246.7 514.7 248.2 513.7 248.4 511.3 249.4 512.2 249.9 511.7 252.8 505.6 252.7 504.1 251.5 503.7 250.2 503.9 249.7 504.3 249.4 505 247.9 505.5 246.7 507.4 245.4 507.8 245.5 508.5 244.7 509.1 243.7 509.9 242.9 509.9 242.5 511.8 241.4 512.2 240.8 514.1 240 514.2 240.1 515 239.1 515.2 238.9 514.5 237.7 516.3 237.2 515.7 236.7 516.9 237.3 517.3 237.6 518.8 238.5 518.2 238.7 516.4 240.3 516.2 240.7 516.4 240.5 517.3 241.1 517.3 M280.1 617.4 279.7 616.1 279.3 615.5 278.7 614.6 279.4 613 277.9 611 278.3 608.6 275.9 606.6 274.7 603.3 274.8 600.1 273.7 595.4 272.9 594.3 273.7 591 273.7 589.5 273.2 589 270.5 589.3 269.8 590.3 268.3 590.1 266.9 591.7 266.1 593 262.9 595.7 260.9 596 260.7 594.8 260.3 594.2 256.8 596.7 256.1 598 254.8 598.7 253.8 597.8 253.5
	  	598.4 252.2 598.7 252.2 601 251.6 601.5 252.2 602 252 603.5 250.2 605.3 250.3 605.9 251.7 606.1 252 606.6 252 607.9 251.3 609.4 251.8 609.9 250.6 610.4 249.6 611.7 249 613.5 249.7 614 249.5 615 247.8 616.4 248.7 617.1 248.9 618.3 250.3 619 254.9 615.1 257.6 610.8 259 606.7 260.5 606.1 262.5 606.3 264 607.7 264 608.7 262.1 610 260.4 610.4 259.7 612.4 259.6 613.9 261.4 614 262.9 615.4 264.6 619.5 264.4 621.1 262.3 621.2 260.2 624.7 260.5 625.8 259.9 627.9 261.5 628.2 261.6 628.9 264.4 629.2 265 628 266.1 627.7 268 624.5 267.5 623.8 267.8 623.4 269.1 623.1 269.6 624.1 270.9 623.3 271.9 623.9 275.8 621.4 275.5 622.6 276.6 622.1 277.1 620.4 277.8 620 277.6 619.6 278.2 619.2 280.1 617.4 M309.4 540 312.8 535.5 312.8 534.7 313.4 534.5 312.8 534.1 310.8 535.3 309.9 536 308.7 536 307.1 539.2 308.7 539 309.3 539.4 308.9 540.3 309.4 540 M179.1 488 177.5 488.9 176.8 488.7 177.5 489.8 176.9 491 177.2 491.7 177.9 491.7 179.2 491 178.8 490.1 179.5 488 179.1 488 M176.3 407.7 177.5 407.3 178.4 408.1 179.1 407.6 179.3 408.8 178.6 409.1 179.5 409.1 179.9 407.9 180.8 407.7 180.3 407.4 180.8 406.7 180.1 406.3 178.7 407.5 177.8 407 178.1 406.4 177.6 406.1 176.3 407.4 175.8 407 175.5 408 176.7 408.2 176.3 407.7 M180.7 485.7 182.5 485.9 183.4 485 182 484.3 181 484.5 181.3 485 180.7 485.7 M178.2 493.9 179.8 493.2 177.8 492.5 176.7 493.1 178.2 493.9 M184 476.3 184 477.1 183 477.1 183.8 478.6 184.8 478.7 185 478.2 185.7 478.4 186.7 477.8 186.7 477.3 184.8 477.3 185.8 476 188 476.4 187.1 475.7 184.4 475.4 185 475 184.8 474.6 182.5 474.2 183 474.7 181.7 475.7 184 476.3 M184.4 480 184.8 481.4 185.9 482.2 185.9 481.7 186.9 482.1 187 481.2 187.5 481.5 186.9 480 185.2 479.6 184.4 480 M323.4 617.1 321.2 618.2 319.3 623.7 319.3 625.7 322.2 630.2 322.5 631.7 321.7 637.3 323.5 638.2 324.3 641.8 327.6 643.8 328 644.8 328 644.4 328.7 645 332.4 645.4 334.2 644.3 335.7 644.1 337 644.7 339 642.9 339.3 641.8 338.3 639 339.2 636.7 336.7 635.3 336.2 634.4 338.9 632 337.3 629.8 334.6 628.8 334.5 627.8 336.1 625.7 335.4 621.9 334 618 331.5 615.4 327.6 613.2 326.1 613.8 325.6 614.6 326.1 615.2 324.3 615.1 323.4 617.1 M338.3 634 338.5 635.1 340 636.6 340 635.2 338.9 633.7 338.3 634 M349.5 610.6 350.3 609.6 350.8 608.2 350.2 605.2 348.4 606 347.1 609.5 347.4 610.8 349.2 609.6 349.5 610.6 M209.5 386 210.7 386 208.8 385 208.8 384 209.4 383.3 208.1 382.3 205.7 382.8 204 386.4 207.1 386.7 207.4 385.7 208.1 386 207.5 384.8 208 384.5 209.5 386 M333.5 598.8 335.6 599.6 335 603.2 335.4 604.4 336.2 604.3 336.5 607.7 337.9 607.1 339.9 609 340.6 612 342.3 613.4 343.9 612.5 343.6 611 342.6 609.7 344.2 608 342.9 603.5 342.7 599.7 340.6 600.2 340.3 597.9 338.6 597.5 339.4 596.3 339.2 595.4 337 594.2 334 590.8 332.6 590.5 330.1 593.1 330.6 593.6 330.6 594.9 333.5 598.8 M200.8 387 201.1 385.1 200.2 384.5 199.4 385 199.5 386.2 200.8 387 M204.4 379.9 205.8 378.6 204.8 377 203.9 376.9 202.1 377.5 201.5 378.6 203 380 204.4 379.9 M210 350.2 211 351.2 211.8 351.1 212.1 350.2 211.6 348.2 210.1 347 208.2 347.6 207.6 348.4 208.8 350.5 210 350.2 M185.2 399.8 186 399.6 186.6 400.5 187.1 401.1 187.9 401.4 187.8 402.4 189.6 402.7 190.6 402.8 192.1 404.8 192.3 405 194.8 407.7 194.8 410.7 196.3 410.3 197.1 409.8 197.6 410.9 199.4 411.7 200.2 411.2 201.4 411.7 202 411.8 203.2 412.6 204 412.6 205.6 413.2 205.9 412.5 205.32 411.47 206.4 412.1 206.1 413.4 206.9 413.9 208.4 412.1 207.4 411.7 208 411.5 208.5 411.3 207.7 410.7 207.8 410.1 206.8 410 205.8 410.4 205.5 410.4 205.23 411.3 204.5 410 204.5 409.2 206.1 409.3 207.3 409.2 209.1 409.1 209.2 408.4 209.2 407.4 210.1 406.2 209.7 405.5 210.1 404 209.4 403.5 211.2 402.4 212.2 399.2 211.4 398.9 210.5 399.7 209.6 399.4 209 400 208.4 399.5 208.8 399 208.7 398.2 208.6 397.6 208.9 397 208.4 396.3 208.9 395.5 209.1 395.3 209.4 395.4 210 395.6 212.1 397.7 214.5 393.8 213.7 392.9 213.3 393.2 212.3 392.6 212.2 392 210.9 391.1 210.3 391 209.3 391.8 208.5 391.7 208.3 391.5 208.7 390.9 208.2 390.6 208.6 389.7 207.1 388.2 206.2 388.1 206.6 387.5 205.7 386.9 205 388.2 201.9 388.1 202.1 388.8 202.8 388.5 202.9 388.9 202 390.6 200.2 390 200 390.3 198.6 389.6 198.8 387.2 198 387.1 197.9 388.1 197.2 388.3 197.1 388.9 196.5 388.9 197 389.7 196.6 390.4 195.1 391.1 194.9 390.6 194.7 390.2 193.4 390.2 192.7 390.7 192 391.1 190.5 391.2 190.1 391 189.4 391.5 188.4 390.9 187.2 391.4 187.8 392.4 187.5 392.8 186.7 393.8 187 394.8 185.3 395.6 185.9 396.1 185.9 397 185.2 397.2 184.6 397.2 183.9 398.3 184.8 398.5 185.2 399.8 M215 365.3 215.4 363.9 217.7 365.6 218.6 364.1 218.8 363.6 219.2 362.9 218.8 361.1 217.8 360.7 215.8 361.6 215.3 363.4 213.7 363.6 213.6 364.1 212.9 363.9 212.8 364.5 213.5 364.5 213.5 366.2 215 365.3 M205.9 433.2 204.5 433.7 204.6 432.6 204 432.1 204.5 431.5 204 431.1 203.5 430.9 203.3 431.5 202.4 431.4 201.3 431.1 199.8 429.5 199.6 429.1 201.7 430 202.3 430.4 202.9 429.6 203.8 429.6 204.4 428.9 204.5 428 203.5 427.9 201.9 426.4 201.5 425.9 200.7 425.4 200.2 424.8 201.7 425.3 201.5 424.5 200.4 423.7 200 424.1 199.4 423.3 200.1 422.9 199.9 422.8 199 422.7 196.53 420.23 196.8 420.2 199.1 422.7 200.4 422.8 200.4 422 202 422.6 201.5 421.4 203.4 422.1 203.8 421.6 204.8 421.3 206 420.7 205.5 420.4 205.7 420 205.8 419.5 205.7 418.9 204.6 417.6 202.6 417.7 203.8 418.7 202.6 418.5 201.9 417.8 201.8 417.4 201.4 416.9 202 416.9 202.2 417.4 202.6 417.4 202.5 416.4 203.1 416.5 204.6 416.6 204.2 416 203.1 416.1 203.5 414.9 205 415.7 205.7 415 205.2 415.1 203.6 413.6 203 413.3 202.7 413.1 202.1 412.8 201 412.4 200 411.8 199.2 412.3 197.2 411.4 194.4 411.9 194.4 413.5 192.4 414 192.2 415 193 415.3 192.4 415.7 192.4 416.5 193.3 417.3 193.6 418.3 193.5 419.1 193 419.2 194.5 420 195.1 419.7 195.68 420.28 195.5 420.3 195.1 419.7 194.4 420.1 194.6 421.7 193.2 421.9 192.5 423.1 191.5 423 191.2 423.5 193 428.2 193.1 433.1 192.8 434.3 192 434.5 191.7 435.3 190.9 434.8 190.6 435.2 191.8 435.6 191.7 436.5 191.2 436.6 191.6 437 191.5 439 190.7 440.3 189.4 440.5 190.8 441.1 190.8 442.9 191.5 443.4 191.3 446.1 192.6 449.9 191.9 451.3 192.8 452.5 192.1 453.4 193.1 453.7 193.6 454.8 193.3 455.6 194.3 455.7 194.8 456.5 199 456.7 200.7 456 202 457.1 203.9 457.5 203.6 456.5 204.6 456.2 205 455 204.1 454.8 203.9 454 203.2 454.1 202.5 453.8 202.9 452.9 200.2 452.1 198.5 452.8 197.8 452.4 197.8 451.9 196.3 451.2 196.2 450.8 197.3 450.6 197.3 451.1 198 451.2 198.9 451.2 198.8 450.7 199.3 450.6 200.5 451.3 201.5 451.3 203 449.7 202.6 447.4 201.6 446.2 201.9 444.3 201.3 444.3 201.1 443.6 199.5 443.7 199.1 442.5 200.5 443 200.6 442.5 201.4 442.7 202 442.1 202.3 441.5 202.1 440.4 203 439.8 203.1 438.9 202.4 438.5 204.1 436 205.5 436.1 205.9 434.9 205.6 434.5 206.3 434 205.9 433.2 M193.3 461.7 193 462.1 193.4 463.5 194.1 463.5 195 462.4 193.9 461.2 193.3 461.7 M186.3 474.6 186.8 474.1 187.4 473.4 188 473.6 187.9 474.4 189.7 474.7 190.1 474 190.8 474.3 191.3 473.8 190.6 472.9 190.9 472.5 191.4 472.3 192.2 471.3 192.9 470.9 193.4 470.5 194.6 470.6 194.5 469.4 193.4 469.1 192.8 468 191.4 466.2 192.5 465 191.4 462.3 191.8 462.4 190 461.5 189.7 461.5 190.1 463.2 189.3 465.7 187.8 466.5 185.1 466.7 186.5 467.6 185.7 468.4 186.3 468.9 186.1 469.6 186.1 470.6 185.4 471.4 183.7 471.5 183 473.3 183.5 473.9 186.3 474.6 M206.4 422.1 205.9 421.8 206.4 420.7 204.2 421.6 204.4 422.3 204.1 422.6 203.6 423 205.5 423.6 205.5 423.3 206.5 422.6 206.4 422.1 M199.9 457.9 199.4 458.4 199.2 458 198.7 458.1 198.5 458.7 199.2 460.1 198.9 461.4 200.1 462.4 201 461.3 200.9 460.8 201.5 458 199.9 457.9 M253.5 547.3 254.7 547.6 256.1 546.3 257.1 544.3 257 542.5 253.8 544.6 254.6 545.3 253.2 546.8 253.5 547.3 M572.1 101.5 572.6 102.6 573.8 101.6 573.8 100.6 574.3 100.5 574.7 99.3 574.7 97.8 574.7 97.5 576.2 94.4 575.8 92.7 575.6 94.6 574.5 94 573.8 94.4 574.3 95.5 574.2 96.7 573.4 97.8 573.8 98.3 573.3 99 573.6 100.2 572.9 101.6 572.1 101.5 M489.7 208.7 489.5 207.2 490.5 208.1 490.8 206.1 491.9 205.8 491.6 205.4 492.4 204.4 492.7 202.7 494.5 202.7 495.1 203.8 496.8 202.3 496.4 204.1 497.1 204.9 497.6 202.8 499.9 203.1 500.1 203.5 501.2 204.6 501.3 203.4 500.5 203.1 500.5 202.2 503 197.7 505.6 197.1 506.2 198.2 507.3 197.6 507.7 198 509.5 197.8 509.5 197.2 508.2 197.5 506.9 196.8 506.3 194.8 506.7 193.5 506.1 193.2 504.5 194.3 504.4 196.1 502.2 195.7 501.7 196.9 500.4 198 499.7 197.9 499.3 198.8 498 198.2 498.3 197.7 498 196.2 499.2 195.7 499.9 194.2 499.7 193.8 499 194.3 497.7 193.8 497.7 194.4 496.3 195.7 495.4 195.2 494.7 196.1 494.2 194 493.7 193.8 494.1 197 495.5 198.7 494.3 198.8 495 199.7 493.8 200 491.4 202.1 490.2 203.7 489.9 204.6 488.9 204.4 488.6 207.4 489.1 208.9 489.7 208.7 M578.3,91.1s-1.4.5-1.3.5V94l-.8,1.2,1.5-.9Z M583.7 107.3 584.3 107.4 584.4 108.6 585 108.9 585.8 108.5 585.9 108 583.9 106.5 583.7 107.3 M574.2 101.7 574.4 102.7 575.5 100.5 575.7 99.6 576.9 96.8 576.7 95.4 576 95.7 574.7 97.8 574.8 99.9 574.2 101.7 M527.4 92.6 528.6 93 528.8 93.9 529.5 93.3 530.1 91.4 529.8 90.8 530.4 90.1 529.6 87.9 529 88.3 528.2 87.8 525.9 89.2 525.5 90.8 527 91.4 527.4 92.6 M505.7 187.7 506.2 188.9 507.2 187.9 508 187.8 506.9 186.2 507.3 184.7 508.8 184.2 509.5 184.6 508.5 183 507.7 184 507.2 184.1 507.1 183.4 505.5 184.1 505.7 185.2 504.4 187.6 505.7 187.7 M565.4 67.1 566 68.4 566.3 67.3 566.9 67.4 567.3 66.6 568.2 66.3 566.7 65.2 565.9 65.8 565.9 64.5 564.9 66.3 565.4 67.1 M550.3 66.3 550 66.5 550.4 67.2 551.3 66 551.7 66.5 550.9 67.3 551.3 67.7 552.3 67.8 552.9 66.9 553.7 67.1 553.9 66.2 553.1 66.1 553.9 65.6 553.5 64.3 552.7 64.4 552.2 64.4 551.7 64.2 551.1 64.7 550.5 63.9 549.6 63.9 549.8 64.6 549.1 65 550.3 66.3 M558.9 83 559.9 83.3 560 82.1 558.9 81.2 557.9 81.4 557.6 82.4 558.7 83.5 558.9 83 M558.1 165 557.1 164.9 557.7 163.8 557.4 163.3 556.7 163.6 555.3 163.4 555.1 164.3 554.8 164.8 554.6 166 555 166.7 554.6 167.3 554.1 167.1 554.3 168.4 555.9 168.2 556.2 166.6 557.3 167 556.9 165.8 557.9 165.9 558.1 165 M600.81,22.11h0S600.79,22.13,600.81,22.11Z M593.4 88.1 592.9 88.3 593 89.3 593.6 89 594.3 90.7 595.1 91 595.1 90.2 595.6 90.1 595.4 88.6 593.7 88.5 593.4 88.1 M597.7 30.1 597.3 29.3 596.7 29.6 596.3 29.1
	   	595.7 29.1 595.7 30.1 594.8 31.2 595.5 32 595.6 30.8 597 31.2 597.1 30.4 597.7 30.1 M597.2 64.9 598.9 63.5 600.3 60.7 602 59.5 601.2 59.2 601.2 58.6 599.7 60.2 598 59.5 597.1 61.1 595.4 61.3 594.2 63.3 594.6 64.2 593.2 64.9 593.2 65.7 594.1 65.7 595.3 66.7 597 66 597.2 64.9 M603.7 33.1 604.5 32.6 605.3 33.9 606.3 33.2 606.7 34.3 607.4 34.9 607.9 34.6 608.3 35.7 609.1 34.6 608.9 33.8 609.5 33.8 609.2 33.3 610.1 32.6 610.5 31.1 609.9 30.9 609.9 29.7 608.8 29.9 608.4 31.3 607.7 31.7 607.7 30.8 607.1 31.3 606.7 30.7 606.8 28.9 606.3 28 604.1 27.3 602.1 29.1 601.2 28.6 601.4 27.8 600.7 28.3 599.6 27.8 598.9 30.5 599.4 30.6 601.3 35.4 602.3 36.6 604.5 35.8 603.5 34.2 602.3 33.6 602.6 32.8 603.7 33.1 M570.2 66.3 570.9 67 572.2 65.4 571.4 64.3 570.5 64.7 571.1 65.4 570.3 65.5 570.2 66.3 M306.4 530.1 307.1 530.1 312.2 525.9 317.3 518.7 315.4 519.5 314.5 518.9 314.6 520 310.6 524.7 306.7 526.6 308.1 526.3 307.8 528.4 306.4 530.1 M569.7 59.4 568.8 58.3 567.5 58.8 567 59.4 566.6 60.1 565.8 60.3 566.5 61.3 566.6 62.6 567.3 63.6 568.6 64.1 571.1 63.3 571.9 61.2 571.8 60.1 569.7 59.4 M597.6 19.4 597.1 20.9 598.1 20.8 598.1 21.9 599.1 21.9 599.2 22.7 601.4 20.1 601.9 20.2 602 21 604.6 21.5 604.9 22.1 605.8 20.9 606.4 20.9 606.3 19.2 605.7 20 604 18.5 609.3 12.8 609 11.1 607 9.6 607.1 8.6 606 7.7 606.8 7.3 609.5 8.5 609.7 6.1 608 4.7 608.7 4.1 610.7 4 610.7 3.5 609.3 3.3 609.6 2.1 608.3 2.2 608.3 1.4 607.1 1.4 606.1 0.2 605.9 0.9 605.2 1 604.4 4.4 603.6 5.3 604.2 1.6 603.5 0 602 0.7 602.6 2.2 601.8 2.7 601.5 4 600.6 3.8 599.9 4.4 600.7 4.8 598.8 7.1 600.2 8.3 599.7 10.8 599 11.2 599.1 12.5 598.1 13.2 598.6 14.9 598 15.3 598.8 15.5 599 16.4 598.5 16.7 597.3 15.8 597 16.2 598.2 19.3 597.6 19.4 M601.9,23.7l.7-.3.3.5.6-1.5-2.2-1s-.4.61-.49.71l1,.69Z M552.5 69.7 551.4 71.3 551.6 72.1 552.2 72 552.9 72.6 552.4 72.9 551.9 74.2 551.5 75.5 552.3 76.5 552.3 78 553.1 77.9 554.6 79.1 555.7 78.8 554.8 80 556.4 80.9 556.4 81.6 558.2 81.2 558.3 80.7 557.3 80 558.5 79.6 559.7 80.1 560.4 79.8 560.7 80 560.3 82.1 560.7 82.7 561 82 561 81.1 562.8 79.7 563.2 78.4 562.2 77.8 562.1 76.2 563.3 76.9 562.7 77.4 563.1 78 563.8 78.5 563.7 80.2 564 80.8 563.2 81 561.5 81.6 561.2 83.3 561.9 84.7 563.5 84.3 563.6 86.6 564.3 86.9 565.1 86.9 566.2 87.1 566.6 88.9 567.4 88.1 567.3 85.1 567.8 85.2 568.2 85.6 569.3 86.5 570.6 84.7 570.2 83.8 570.8 79.9 571 82.1 572.6 80.9 572.3 83.3 573.1 82.9 573.1 80.3 572.3 79.4 572.1 77.4 571.3 77.6 571 76.5 572 75.8 573.4 76.4 573.6 77.2 572.7 77 572.6 77.7 573.1 78.5 573.9 80.1 573.9 82.1 576.1 78.9 575.1 86.8 575.7 87.3 577.2 84.2 577.1 83.1 577.8 82.7 576.7 88.9 577.5 88.9 576.5 90.7 577.7 90.7 578.2 90.1 578.7 90.5 578.5 95.1 578 95.2 576.6 100 576.5 102.7 575.5 105.1 575.8 105.9 575.3 106.8 575 106.3 574 107.7 575 111.1 573.5 110 573.7 110.8 573.1 111.3 574.9 111.4 574.5 113.3 575 113.5 575 114.3 574.3 114.3 574 114.7 572.8 114.3 573 115.7 572.3 115.9 572.3 116.9 572.8 117.6 571 118.5 571.7 121.6 573.2 121.1 573.7 122.3 574.2 120.6 575.7 120.7 576.3 122.6 575.6 124 576.2 125.1 577 123.4 578.2 126.3 578.7 125.6 578.8 123.4 577.9 123.7 577.9 122.5 578.6 122.1 578.3 121 578.8 119.3 577.4 117.5 578.7 117.7 578.9 116.2 579.6 115.8 579.2 113.9 579.9 113.4 579.3 112.1 579.9 110.7 578.9 110.5 578.4 108.9 579.5 109.1 579.9 108.1 581.1 110 581.5 108.3 582 108.3 582.5 110.8 583.1 111.1 582.9 109 583.6 108.8 582 106.7 581.4 103.4 582.4 103.5 582.7 103.1 584.7 102.9 585.1 103.4 585.1 102.5 584.3 102.5 583.1 101.6 583.4 100.2 582.6 99.4 582.9 98.4 582.3 98.3 582.9 96.3 581.8 95 583.4 94.2 583.7 92.7 582.9 92 583.1 91.3 584.1 91.5 584.9 92.7 585.1 89.9 586.1 91.5 585.8 89 586.5 88.7 587.2 89.5 587.5 88.9 586.7 87.6 586 87.7 585.4 86.4 586 85.9 586 84.6 586.7 83.7 585.9 84 586.1 82.1 584 83.3 584 82.1 585.1 81.5 584.4 81.1 585.3 79.6 584.6 79.7 583.1 81.8 582 82.4 584.2 78.4 583.6 78 582.6 78.9 581.3 78.7 581.7 77.9 582.7 77.7 583.6 76.7 583.5 75.7 582.9 75.5 582.8 73.9 583.2 73.7 583.6 74 583.7 74.7 585.4 74.9 584.5 75.8 584.6 77.6 586.4 77 586.1 76.6 586.8 75 587.8 75.1 588.1 74.5 589.4 75.1 589.7 73.7 588.5 73.9 588.1 73.3 587.7 73.3 586.3 73 585.8 73.1 586.4 72.2 585.4 72.2 588.2 69.4 590 69.8 590.3 69.1 589.6 68.4 590.4 66.9 590.1 66.4 588.7 66.9 587.9 66 587.1 66.2 586.9 66.9 585.7 64.8 584.9 66.8 584.5 63.8 583.7 63.2 587.3 63.3 588.1 63.9 589.4 62.7 590.7 62.5 590.7 60.2 590.7 58.5 590 58.7 588.6 57.8 587.4 59.3 586.5 59.2 587.7 56.8 589.7 55.8 591.9 53 592.3 50.6 589.7 52.3 588.5 53.9 587.8 53.3 587.6 54.5 586.6 55.5 587 56.4 586.2 56.4 585.7 56.6 585 59.9 584.7 55.2 583.5 55.2 583.2 54.5 583.5 54.1 584.9 54.5 584.5 52.7 585 52.3 585 51.8 584.4 51.1 584.3 50.2 583.9 49.1 586.5 49.2 589 47.2 589.3 45.6 588 45.1 587.7 44.4 588.1 43.5 588.5 44.6 589.8 44.5 591.1 45.7 592 45.4 592.8 45.8 593.7 44.7 593.1 44.2 593.2 43 593.9 43.1 594 41.9 593.7 41.2 594.2 40.2 593.1 40.4 592.8 39.9 593.3 39.4 592.5 38.8 592.5 38 594.7 38.2 594.9 37.6 594.1 36.6 595.4 35.9 595 34.7 595.5 34 594.6 33.8 594.6 32.7 593.9 33.2 593.8 31.9 591.9 31.8 591.6 31.1 590.3 30.8 591.3 30.2 592.8 31.5 593.9 30.9 594.5 29.4 594.3 27.9 593.4 27.7 592.4 26.1 591.5 23 592.7 24 592.8 25.1 593.7 26.2 595.5 26.7 595.8 27.4 596.9 26.6 596.1 26.4 595.8 25.3 596.4 24.4 595.8 22.2 596.1 21.6 595.6 21 595.8 18.8 595.3 17.7 595.7 16.1 594.9 15.3 594.1 15.5 593.3 15.5 592.8 16.1 591.5 15 590.6 15 590 15.3 588.6 15.1 588.1 15.7 587.4 15.6 587.9 16.6 586.9 18.5 587.4 21.3 586.8 25.4 586.3 25.7 586.3 28.1 587.4 28.7 588.6 31.1 587.9 31 586.9 29 585.9 29.1 585.7 24.5 584 27.4 576.2 27 574.9 29 574 28.2 573.5 29.8 573.6 30.5 572 31 569.2 29.6 569.2 30.3 568.2 31.4 567.6 33.1 568.3 34.1 568.2 35.1 565.8 36.8 565.8 37.7 564.4 38.5 564.2 39.7 566.9 43.1 570.7 42.9 567.3 43.9 563 40.4 563 38.3 562.1 37.2 560.7 38.2 560.4 39.7 560 39.6 560 42.5 559.2 43.3 558.6 43.8 557.1 43.2 556.6 45.6 555.8 46.1 555.9 46.9 556.8 46.9 557.5 47.1 558.2 47.4 558.8 46.7 559.7 47.4 560.8 45.6 561.8 47 562.3 46.7 563 47.1 564.3 46.4 564.6 47.4 563.7 47.7 563.3 48.6 564.4 50.4 565.5 48.2 565 47.5 567 45.6 566.3 48.3 566.5 48.9 566.5 50.5 569.2 50.7 567.5 51.5 567.6 52.5 567 53.1 567.6 54.2 567.3 55.1 568.7 55.4 570.1 55.3 569.6 56.5 570 57.6 570.3 59.1 572.1 60 572.7 58.1 573.5 57.7 573.8 59.5 572.8 61 574.1 61.5 576.7 60.9 576.9 62.1 574.4 62.2 574.9 65.1 574.3 65.3 573.9 64.1 573.4 64 572.5 65.1 572.7 66.2 572.1 66.8 572.6 67.2 572.9 69.3 572.7 69.8 572.6 71.5 571.9 71.2 571.4 67.9 569.9 67.1 569.4 67.7 568.9 65.9 568.3 66.9 567.7 67.2 566.5 68.2 566.4 68.9 566.1 68.7 565.1 68.9 564.6 67.6 564 67.4 561.2 69.1 561 69.6 562 69.9 562.1 70.7 561.5 70.2 560 70.6 559.8 71.4 559 70.3 558.4 70.3 558 69 556.2 69.2 555.4 68.8 555 69.4 554 69.1 553.7 69.7 552.5 69.7 M450.4 238.5 450.6 240.5 452 241.1 453.3 240.7 452.8 238.9 452.2 239.5 450.4 238.5 M465.7 250.4 465.5 249.5 462.4 250.5 461 251.6 460.6 252.3 461.2 253.7 461.9 254.1 463.3 253.9 463.5 253.2 464.9 253.9 465.1 251.7 463.6 252.1 463.5 251.7 464.8 250.4 465.7 250.4 M446.7 251.2 449.3 253.7 448.9 254.2 451.2 258.4 451.7 258.7 454.2 258 455.3 259.2 456.1 258.6 456 257.8 458.2 258.5 461.7 257.3 461.8 256.8 460.4 257.2 461.4 255.6 460.4 254.8 459.5 255.4 456.9 255.5 455.1 257.6 453.9 257.2 454.5 255.7 456.7 254.9 457.2 255.2 457.7 254.2 459.6 253.2 457.5 252.5 458 251.4 456.5 250.8 457.6 249.4 456.4 248.4 456.4 247.4 456.6 246.7 456.5 246.2 452 242.9 450.2 242.5 450.3 241.7 449.4 240.1 447.4 239.5 446.1 240.9 444.6 241 443.4 243.4 443.2 245.2 442.8 245.2 442.7 247.1 446.1 247.7 446.7 251.2 M462 268.3 462 269.8 461 271.2 461.3 272.1 461.9 271.4 463.3 271.2 463.6 269.6 462.6 268.1 462 268.3 M458.5 250.1 459.1 251.5 459.9 251.6 460.6 250.4 459.3 248.7 458.5 250.1 M280.2 431.2 279.8 432.7 280.7 435 281.5 435.2 282.3 436.7 284.8 436.6 286 435.7 285.9 432.8 284.4 431.5 281.5 430.7 280.2 431.2 M281.6 406.2 281.3 407.1 282.6 409 284.2 402.3 283.8 400.7 283.2 400.5 282.9 401.1 283.5 401.4 283.4 402 282.6 401.4 282.2 401.5 281.8 402.1 282.4 404.9 281 405.3 281.6 406.2 M273.3 422.3 272.2 421 271 420.9 270.1 421.5 269.4 421.5 268.8 421 269.4 420.1 270 420.6 271.9 418.3 272.5 411.9 271.7 410.2 272.2 404.8 271.7 402.5 272.4 400 271.6 400.1 269 394.6 266.3 394 265.4 390 262.9 387.7 262.8 387.1 262.5 386 261.7 386 260.4 386.9 259.8 387.4 259.2 387.9 259.5 389.5 259.8 390 259.3 391 257.4 392.3 255.8 392.2 256 393.4 255 393.7 254.6 394.4 256.6 397.9 256.6 401.1 257.8 401.2 258.2 400.6 258.8 400.9 257.5 403.5 256.7 402.8 256.4 403.7 258.5 409.1 261.3 412.4 260.9 413 260.4 412 260 411.8 259.4 411.3 257.8 410.5 257.3 408.5 256.3 407.5 255.8 408.2 256.2 409.7 255 410.2 254 411.7 253.8 413.3 253.2 412.4 254.5 408.6 252.3 410.8 251.6 409.1 249.6 406.7 247.4 405.1 246.5 405.5 245.7 405 245.5 402.2 244.6 400.3 242.5 398.3 241.2 398 241.3 401 240.8 403.9 240 404.4 240 405.5 240.3 405.7 240.8 404.6 243.1 406.4 244.4 408.7 245.9 409.8 245.3 411.2 243.5 409.4 242.3 410.3 240.5 410.2 240.6 411 241.2 410.8 242 413.8 242.6 414.4 242.5 415.1 241.9 414.9 242 415.4 242.7 415.9 243.3 415.4 243.7 415.9 243.3 416.8 242.8 416.7 242.7 417.6 241.9 418 241.8 417.4 241 417.2 240.2 415.4 239.3 415.2 239.3 414 238 411.7 236.9 410.8 236.1 408.9 234.1 410.5 234 412.4 234.4 414.7 235.8 416.4 233.4 415.4 231.9 415.5 232.1 417 231.6 417.6 231.4 419.9 232.8 418.9 233 419.5 234.3 420.1 235.2 422.6 234.6 423.3 236 425.6 237 425.5 238.9 427.4 239.9 427 241.9 427.9 243.7 429.6 244.5 429.9 245.2 429.9 245.7 429.2 245.5 423.8 245.1 423.4 245.8 423.2 246.4 423.8 247.1 423.2 247.7 422.8 247.8 421.8 248.5 422.9 247.9 424 248.4 424.3 248 425.7 249.6 423.9 250.1 421.5 250.7 422.5 250.4 424.2 251 424.9 250.7 425.7 252.4 426.9 251.8 428.1 252.1 429.1 252.9 428.1 254.8 428 255.6 427.1 255.3 428.4 256 428.7 256.5 429.2 258.2 430.9 260.2 433.9 258.6 433.3 256.7 430.6 253.9 429 254 430.6 253.4 430.5 252.8 431.2 252.2 431 250.6 432.4 250.6 434.5 252 435.4 252.6 438.1 254.1 439.6 254.2 440.6 255.6 441.7 258.2 441.3 259.2 440.1 258.8 442.1 256.8 442.5 256.8 443.9 258.2 446.3 259.7 447.1 262.3 445.4 263.2 445.6 263 446.9
	    261.3 448.6 260.8 450 261.4 450.2 267.8 448 270.3 448.3 271 446.6 271.3 446.1 271.7 445.9 272.1 446.9 273 447.2 273.4 446.4 274.2 447 274.6 449.1 274 452.6 275.9 454.1 278.1 449.1 278.1 447.8 278.7 448 279.3 447.1 279.6 445.6 278.7 443.5 278.9 442.7 279.8 444.7 280.8 445.4 281.4 449.2 285 448.2 286.3 448.8 287.8 448.6 287.9 447.8 288.9 448.1 290.6 447 289.4 448.6 286.4 449.3 285.6 450.4 284.5 451.6 283 452.2 282.5 452.7 282.7 453.3 281.1 454.2 280.7 455.3 281.5 455.2 281.9 455.9 281.1 456.1 280.4 459.3 280.5 459.8 279.8 460.1 278.8 462.9 279.2 464.2 279.7 465.1 280.1 466.3 281.2 466.1 283 464.8 284 464.4 286 463.4 286.6 462.2 288 461.3 287.8 460.5 288.5 459 289.3 458.7 290.5 455.9 292.2 456 293.6 454.4 293.6 453.1 293.7 452.7 294.4 451.5 294.2 450.6 293.4 451.4 293.1 450.9 293.5 449.5 293.2 447.9 294.5 448.9 295.5 448.5 298.5 446.8 301.5 444 302 442.2 301.7 440.9 303 438.6 301.8 437.5 297.8 438 299 436.7 296.3 436.3 294.7 436.8 292.7 438.4 289.8 438.5 288.4 440 287.4 440.3 286.5 440.1 287 438.8 285.8 437.6 284.8 437.5 284.6 437.9 281 436.5 279.6 434.7 276.3 436.9 276.1 436.1 278.5 434.1 277.5 431.7 273.7 431.7 271.4 433.4 272.7 431.5 274.2 431.1 274.7 431.5 275.1 430.7 274.4 429.7 275.2 428.7 274.6 428.1 273.8 428.5 272 425.1 272.8 424.7 273.3 422.3 M277 509.8 274 509.2 273.8 508.1 273.2 507.8 271.9 508.2 270.7 509.5 268.7 509.3 268.6 510.5 267.6 510.2 266.8 510.2 266.9 512.8 266.5 513.6 265 512.4 264.2 513.7 262.8 513.3 261.7 513.9 260.9 513.4 261.5 516.9 263.5 516.6 262.1 518.9 260 519.5 259.8 521.4 261.7 522.3 262.6 522.2 263.1 522.9 266.7 522.2 269.4 524.4 270.2 524.8 271.7 525.4 272.3 526.5 271.6 526.9 271.8 527.6 272.7 527.7 273.1 528.3 273.7 528.7 274.9 527.9 278.7 527.2 280.2 526 281.3 526.4 281.3 527.7 280.5 528 280.1 529.2 278.5 529.8 277.8 531 276 531.5 273.8 531.1 272.1 532.6 272.5 533.4 271.9 533.8 271.7 535.5 268.2 538.6 268 540 269 541.7 270.2 541.9 271.9 540.9 274.4 540.9 276.1 540.3 277.5 539.8 279.7 537.7 281.3 538.5 280.2 538.7 280.8 539.7 280.2 540.9 278 541.8 277.3 542 274.7 543.5 273.2 543.7 271.4 544.2 270 543.7 269.5 544.2 269.3 544.7 266.7 543.4 265.7 543.5 265.4 544.1 265.7 545.2 266.3 545.2 266.2 546.3 264.5 546.3 263.5 545.7 264.5 545.7 264.3 544.3 263.4 543.8 262.8 543.4 259 543.1 257.5 547.4 257.6 548.4 257.1 549.8 258 550.2 259 550.1 259.5 550.5 260.5 551.4 261.7 551.7 262.5 551.3 263.4 551.6 264.1 552.1 264.7 552.2 265.6 549.8 267.1 550.1 268.5 549.2 269.9 549.9 270.8 549.4 271.6 550.1 272.4 550.1 273.4 548.7 275.8 548.6 276.4 548.1 277.7 549.3 278.6 549.2 281.5 547 282.1 545.9 283.8 546.4 285.6 546 287.5 543.1 289.2 542.1 289.4 542.7 290.5 542.3 290.8 543.3 289.8 543.7 289.8 544.5 288.2 545.8 289.1 546.6 291.8 547.1 292 546.5 297.3 543.6 300.5 540.3 300.8 538.9 299.7 538.7 294.5 540.8 296.6 539 296.8 537.8 298.2 537.4 298.2 536.4 297.5 535.8 299.6 535.3 299.1 538 301.5 538.8 302.3 538 303.2 535.2 303.2 534.4 303.6 531.6 303.2 530.5 301.8 531 301.5 530 300.4 528.9 299.6 528.8 298.5 526.9 297.5 527.6 296 526.8 294.1 523.9 292.2 523.6 291.8 524.6 289.7 523.1 287 523 286.3 523.7 285 522.8 284.1 523.2 281.9 516.6 280.4 515.4 279.2 513 277.9 512.8 276.9 511.9 277.5 511 277 509.8 M276.1 423.8 276.6 424.3 276.4 427.7 277 429.6 278.1 430.3 280 429.8 281.8 426.8 281.8 425.3 281.2 425.3 280.2 423.2 280.1 420.6 279.3 418.6 279.7 417.2 281.3 415.6 282.3 412.8 282.6 411 281.7 411.1 280.6 411.4 279.8 410.6 279.1 411.5 279.1 412.8 279.3 413.9 280.5 414.4 280.1 415.6 278.1 414.6 277.5 414.9 275.9 419.4 276.5 423.2 276.1 423.8 M481.3 210.3 482.6 211.9 482.9 214.8 484 213.8 484.5 214.2 485 213.7 485.9 214 486.2 213.3 486.1 212.6 485.1 212 484.7 208 486.6 204.1 484.8 203 485.3 201.4 485 200.6 482.8 202.5 483.3 203.4 482.7 205 483.6 205.8 483.5 207.9 482.1 208.7 481.1 208.3 480.8 207.4 480.5 208 480.7 210.6 481.3 210.3 M476.3 191 477.1 191.6 477.6 190.4 477.6 189.2 476.9 188 477.9 187.5 478 186.8 478.2 185.7 477.5 184 476.7 184.5 476.3 187.2 475.4 188.6 475.8 192 476.3 191 M482.3 220.6 481.3 221.4 479.9 221.4 480.1 223.1 479 224.2 477 223.7 476.1 221.7 474.1 227.5 475.3 227.8 476.2 226.9 476.5 227.6 476.6 227.6 477.6 227.2 478.9 227.5 479.6 228.3 480.2 229 480.8 229 482.1 227.8 481 225.5 482.5 222.8 482.3 220.6 M474.7 210.5 473.5 210.9 473.3 212.3 473.7 214.3 474.9 216.4 475.8 211.5 474.7 210.5 M495.3 222.9 495.9 222 496.6 222.4 497.1 221.2 498.3 221.4 498.7 221.7 499.7 220.1 498.4 219.4 498.1 217.8 499.1 216.5 498.7 216.1 498.1 216.8 495.4 217.2 494.7 216 494.8 214.7 496.7 214.6 497 214.1 496.6 213.6 495.6 214.2 494.1 213.5 493.8 213 494.4 212.7 493.2 211.5 491.6 212.8 490.3 212.7 493.6 216.1 493.7 216.8 493.3 217.9 491.9 217.6 490.7 218.1 489.5 221.9 490.1 222.4 492.1 222.3 492.5 220.9 491.7 219.2 493.2 218.4 494.8 219.6 494.8 222.7 495.3 222.9 M487.3 203.3 487.7 202.7 486.3 201.1 485.7 201.6 485.8 202.7 487.3 203.3 M467.3 215.9 469.9 215.8 472.1 214.7 471.2 211.4 472 209.9 472.4 210.5 472.8 210.1 472.8 209.3 472.1 209.2 471.8 208.4 470.2 209.6 467.9 209.7 466.8 209 466.7 207.3 465.7 207.5 465.3 206.9 462.2 210 463.8 213.5 467.3 215.9 M468.5 193.6 468.8 196 468.3 197 470.2 198.4 470.9 199.6 471.4 198.3 473.4 197.9 472.6 197 473.4 196.4 474.3 196.3 474.5 197.1 475.2 197.3 476.6 199.3 477.1 199.7 477.7 200 477.6 201.7 476.9 202.5 477.3 203.5 478.8 200.6 480 201.3 480.1 200.9 478.9 198.5 478 198.2 477.4 198.7 477.3 196.2 476.4 195.7 475.9 194 474.8 193.6 473.4 193.2 472.3 193.5 472.3 192.5 470.6 192.5 471.1 191.7 472.8 191.3 472.6 189 473.5 188.4 472.6 187.2 471.4 187.6 471 189.9 470.2 189.9 469.5 190.8 468.4 190.5 467.9 191.3 465.5 190.1 465.5 190.6 466.2 191.9 468.5 193.6 M473 217 472.8 216 472.3 215.8 468.9 217.5 472 217.9 473 217 M447.8 234.9 447.4 235.8 448.8 236.4 449.4 237.4 451.3 237.8 452 237.1 451.9 236.4 453.5 236.2 454.3 233.7 454.3 234.9 455.4 235.7 454.9 238.4 456.1 240.7 458.1 242.6 458.8 242.2 459.2 241.5 460.2 241.2 461.9 241.6 462.8 241.1 462.4 240.7 462.9 240 463.9 239.8 465 240.4 465.3 238.9 465.9 239.4 468.1 239 470.3 237.6 471 236.3 472 236.6 471.8 238.9 474.3 243.5 474.1 244.5 475.3 245.1 474.9 246.5 475.6 249.1 474.1 248.5 472.8 248.5 470.8 249.5 471.3 250 472.1 249.4 472.3 250 474.3 250.8 476.3 250.6 475.8 251.2 473.7 251.5 472.9 252.6 472.5 251.4 471 251.9 470.8 252.4 469.2 251.8 467.9 253.5 468.5 253.8 469.9 252.7 471.2 254.5 471.2 255.2 470.5 255.2 469.5 254.2 468.8 255.2 470.6 257.6 471.5 257.7 471.5 260.7 470.9 260.8 470.7 261.6 471.7 262.6 471.7 263.6 472.3 263.1 472.7 264.5 475.2 264.1 475.6 263.7 475 263.4 475.9 261.6 474 260 474.8 259.3 475.2 257.8 474.5 256.8 475 256 475.7 255.9 475.7 254.9 476.5 253.9 477 253.3 477 252 477.7 250.9 479 249.7 477 249.4 477.3 247.2 475.9 247.1 476.2 245.9 476.6 245.1 476.4 244.5 477.2 244 479 245 480.3 246.4 480 247 480.5 247.4 481.2 246.9 481.2 245.6 482.3 244.7 483.4 242.2 484.8 242.4 485.7 241.2 486.8 241.8 487.9 241.6 487.6 239.4 488.2 239 488.3 237.9 488.2 235 482.2 238.3 483.1 239 482.7 241 482.6 241.5 482.1 241.1 482.3 240.4 480.6 240.8 481 239.9 480.6 239.4 480.7 238 479.7 237.4 481.1 236 482.2 235.7 483 236.3 483 234.3 482.3 232.6 480.9 234.1 478.9 233.5 478.4 234.9 477.3 235.6 477 236.1 475.7 236.3 475.2 235.9 475.6 234.9 475.2 233.9 476.6 232.9 475.5 232.7 476.2 231.4 476.4 230.6 475.3 230.4 474.5 231 474.4 229.8 473.5 231 473.3 232.8 472.5 233.6 471.9 233.4 471.8 232.2 469.4 230.4 467.5 230.4 466.4 231.9 464.4 231.7 463.3 231.2 462.8 230.3 463.7 230.4 463.9 229.5 464.4 229.3 464.9 228.6 466.1 228.7 466 227.8 466.7 227 466.3 225.6 467.6 225.7 468.5 226.9 469.3 226.8 469 226.1 469.8 224.8 469.8 222.7 469.2 221.6 468.2 221.5 467.1 219.8 466.1 219.4 467.1 219 467.1 218.6 466.7 217.8 465.5 217.5 465.3 216.3 463.8 216.8 460.6 215.1 459.7 214 458.7 214 457.6 212.6 456 212.6 451.5 214.7 448.5 214.9 449.9 215.7 447.5 218.9 448 220.5 447.6 221.4 448.1 222.2 447.9 224.1 448.8 224.9 447.5 225.7 448.1 227 447.7 227.9 447.2 227.9 447.3 229.5 447.4 230.4 446.8 231.7 447.8 234.9 M471.5 222.6 472.3 222.2 472.9 222.4 473.3 221.8 472.5 221.4 472.2 220.2 470.3 220.8 470.3 221.5 471.2 221.7 471.5 222.6 M396.61 878.62 395.9 876.5 392 877.56 389.17 876.5 382.44 865.17 379.51 865.17 372 865.17 366.33 867.82 366.33 874.37 367.57 881.63 368.99 886.41 371.47 889.24 375.72 889.95 376.6 892.78 380.32 892.78 386.51 885.88 390.76 882.34 396.61 878.62 M381.41 759.13 380.58 763.25 380.58 766.55 384.2 770.84 383.39 774.31 380.58 777.28 374.81 786.19 368.7 790.48 364.57 794.93 360.12 794.93 356.16 794.93 354.35 792.29 357.81 787.84 357.81 782.23 358.96 778.27 367.71 773.15 368.54 767.38 372.5 763.09 377.12 759.95 381.41 759.13 M358.65 874.31 361.88 882.63 364.43 882.63 362.73 874.31 358.65 874.31"
	/>
	<circle id="london" name="London" cx="648.15" cy="1057.42" r="5" />
	<circle id="manchester" name="Manchester" cx="513" cy="858.02" r="5" />
	<circle id="brighton" name="Brighton" cx="660.69" cy="1122.28" r="5" />
	<circle id="winchester" name="Winchester" cx="574.25" cy="1105.2" r="5" />
	<circle id="southhampton" name="Southhampton" cx="569.25" cy="1120.28" r="5" />
	<circle id="bournemouth" name="Bournemouth" cx="551.78" cy="1130.28" r="5" />
	<circle id="newport" name="Newport" cx="577.17" cy="1141.95" r="5" />
	<circle id="hastings" name="Hastings" cx="694.81" cy="1118.65" r="5" />
	<circle id="dover" name="Dover" cx="737.37" cy="1093.11" r="5" />
	<circle id="maidstone" name="Maidstone" cx="691.66" cy="1084.82" r="5" />
	<circle id="chelmsford" name="Chelmsford" cx="683.81" cy="1037.94" r="5" />
	<circle id="hertford" name="Hertford" cx="648.15" cy="1031.26" r="5" />
	<circle id="ipswich" name="Ipswich" cx="729.97" cy="1003.29" r="5" />
	<circle id="norwich" name="Norwich" cx="734.97" cy="946.38" r="5" />
	<circle id="kings-lynn" name="King's Lynn" cx="676.61" cy="930.93" r="5" />
	<circle id="peterborough" name="Peterborough" cx="638.15" cy="948.6" r="5" />
	<circle id="cambridge" name="Cambridge" cx="660.15" cy="988.07" r="5" />
	<circle id="bedford" name="Bedford" cx="623.72" cy="998.07" r="5" />
	<circle id="aylesbury" name="Aylesbury" cx="600.61" cy="1027.94" r="5" />
	<circle id="grimsby" name="Grimsby" cx="617.49" cy="876.43" r="5" />
	<circle id="holyhead" name="Holyhead" cx="360.54" cy="874.31" r="5" />
	<circle id="douglas" name="Douglas" cx="372.79" cy="783.55" r="5" />
	<circle id="stranraer" name="Stranraer" cx="340" cy="705.98" r="5" />
	<circle id="dundalk" name="Dundalk" cx="254.37" cy="800.09" r="5" />
	<circle id="belfast" name="Belfast" cx="282.29" cy="736.6" r="5" />
	<circle id="lerwick" name="Lerwick" cx="585.46" cy="87.83" r="5" />
	<circle id="enniskillen" name="Enniskillen" cx="179.26" cy="766.09" r="5" />
	<circle id="strabane" name="Strabane" cx="185.68" cy="718.61" r="5" />
	<circle id="antrim" name="Antrim" cx="268.11" cy="725.82" r="5" />
	<circle id="magherafelt" name="Magherafelt" cx="243.13" cy="721.63" r="5" />
	<circle id="cookstown" name="Cookstown" cx="233.69" cy="732.75" r="5" />
	<circle id="omagh" name="Omagh" cx="198.87" cy="736.75" r="5" />
	<circle id="dungannon" name="Dungannon" cx="233.14" cy="748.04" r="5" />
	<circle id="portadown" name="Portadown" cx="255.02" cy="757.91" r="5" />
	<circle id="armagh" name="Armagh" cx="239.02" cy="765.91" r="5" />
	<circle id="newry" name="Newry" cx="260.87" cy="783.59" r="5" />
	<circle id="banbridge" name="Banbridge" cx="265.8" cy="766.47" r="5" />
	<circle id="hillsborough" name="Hillsborough" cx="277.26" cy="754.04" r="5" />
	<circle id="downpatrick" name="Downpatrick" cx="301.81" cy="767.12" r="5" />
	<circle id="newtownards" name="Newtownards" cx="299.87" cy="739.77" r="5" />
	<circle id="bangor" name="Bangor" cx="300.14" cy="728.29" r="5" />
	<circle id="larne" name="Larne" cx="292.14" cy="712.46" r="5" />
	<circle id="ballymena" name="Ballymena" cx="264.03" cy="709.75" r="5" />
	<circle id="ballycastle" name="Ballycastle" cx="267.51" cy="674.83" r="5" />
	<circle id="ballymoney" name="Ballymoney" cx="249.63" cy="686.73" r="5" />
	<circle id="limavady" name="Limavady" cx="222.25" cy="688.25" r="5" />
	<circle id="coleraine" name="Coleraine" cx="240.63" cy="678.25" r="5" />
	<circle id="londonderry" name="Londonderry" cx="197.13" cy="688.25" r="5" />
	<circle id="ayr" name="Ayr" cx="370.21" cy="641.6" r="5" />
	<circle id="stornoway" name="Stornoway" cx="255.7" cy="321.6" r="5" />
	<circle id="kirkwall" name="Kirkwall" cx="474.2" cy="234.9" r="5" />
	<circle id="thurso" name="Thurso" cx="430.78" cy="280.15" r="5" />
	<circle id="inverness" name="Inverness" cx="391.3" cy="417.01" r="5" />
	<circle id="fort-william" name="Fort William" cx="338.68" cy="491.18" r="5" />
	<circle id="aberdeen" name="Aberdeen" cx="522.83" cy="450.17" r="5" />
	<circle id="dundee" name="Dundee" cx="472.2" cy="525.28" r="5" />
	<circle id="saint-andrews" name="Saint Andrews" cx="484.2" cy="544.4" r="5" />
	<circle id="kirkcaldy" name="Kirkcaldy" cx="458.78" cy="566.21" r="5" />
	<circle id="perth" name="Perth" cx="442.07" cy="538.14" r="5" />
	<circle id="stirling" name="Stirling" cx="408.05" cy="573.06" r="5" />
	<circle id="dumfries" name="Dumfries" cx="427.42" cy="690.07" r="5" />
	<circle id="glasgow" name="Glasgow" cx="391.51" cy="597.59" r="5" />
	<circle id="edinburgh" name="Edinburgh" cx="459.35" cy="592.59" r="5" />
	<circle id="newcastle-upon-tyne" name="Newcastle upon Tyne" cx="553.92" cy="696.6" r="5" />
	<circle id="barrow-in-furness" name="Barrow-in-Furness" cx="455.57" cy="784.98" r="5" />
	<circle id="carlisle" name="Carlisle" cx="474.57" cy="705.98" r="5" />
	<circle id="middlesbrough" name="Middlesbrough" cx="577.76" cy="739.27" r="5" />
	<circle id="durham" name="Durham" cx="556.18" cy="715.35" r="5" />
	<circle id="northallerton" name="Northallerton" cx="562.65" cy="766.8" r="5" />
	<circle id="scarborough" name="Scarborough" cx="628.15" cy="766.8" r="5" />
	<circle id="york" name="York" cx="587.76" cy="801.29" r="5" />
	<circle id="sheffield" name="Sheffield" cx="561.18" cy="838.41" r="5" />
	<circle id="kingston-upon-hull" name="Kingston upon Hull" cx="633.15" cy="820.85" r="5" />
	<circle id="lincoln" name="Lincoln" cx="648.15" cy="846.51" r="5" />
	<circle id="northhampton" name="Northhampton" cx="596.65" cy="988.07" r="5" />
	<circle id="warwick" name="Warwick" cx="552.65" cy="982.07" r="5" />
	<circle id="west-bromwich" name="West Bromwich" cx="534.1" cy="964.56" r="5" />
	<circle id="leicester" name="Leicester" cx="582.76" cy="946.38" r="5" />
	<circle id="nottingham" name="Nottingham" cx="577.76" cy="913.56" r="5" />
	<circle id="matlock" name="Matlock" cx="554.19" cy="894.09" r="5" />
	<circle id="derby" name="Derby" cx="562.65" cy="915.39" r="5" />
	<circle id="blackpool" name="Blackpool" cx="469.49" cy="820.85" r="5" />
	<circle id="preston" name="Preston" cx="484.49" cy="830.85" r="5" />
	<circle id="liverpool" name="Liverpool" cx="474.49" cy="861.16" r="5" />
	<circle id="chester" name="Chester" cx="473.81" cy="892.76" r="5" />
	<circle id="stafford" name="Stafford" cx="519.49" cy="928.6" r="5" />
	<circle id="wolverhampton" name="Wolverhampton" cx="518.54" cy="944.81" r="5" />
	<circle id="shrewsbury" name="Shrewsbury" cx="479.49" cy="939.79" r="5" />
	<circle id="worcester" name="Worcester" cx="512.94" cy="992.39" r="5" />
	<circle id="gloucester" name="Gloucester" cx="517" cy="1022.94" r="5" />
	<circle id="aberystwyth" name="Aberystwyth" cx="404.47" cy="970.49" r="5" />
	<circle id="fishguard" name="Fishguard" cx="347.31" cy="1013.49" r="5" />
	<circle id="swansea" name="Swansea" cx="404.47" cy="1047.75" r="5" />
	<circle id="cardiff" name="Cardiff" cx="452.13" cy="1062.75" r="5" />
	<circle id="newport" name="Newport" cx="465.14" cy="1052.75" r="5" />
	<circle id="penzance" name="Penzance" cx="308.08" cy="1193.51" r="5" />
	<circle id="truro" name="Truro" cx="338.79" cy="1179.88" r="5" />
	<circle id="plymouth" name="Plymouth" cx="395.81" cy="1166.03" r="5" />
	<circle id="torbay" name="Torbay" cx="432.09" cy="1161.03" r="5" />
	<circle id="exeter" name="Exeter" cx="430.8" cy="1133.4" r="5" />
	<circle id="taunton" name="Taunton" cx="457.13" cy="1110.2" r="5" />
	<circle id="dorchester" name="Dorchester" cx="502.49" cy="1140.28" r="5" />
	<circle id="bristol" name="Bristol" cx="489.62" cy="1066.42" r="5" />
	<circle id="kingston" name="Kingston" cx="640.18" cy="1071.9" r="5" />
	<circle id="reading" name="Reading" cx="594.61" cy="1066.42" r="5" />
	<circle id="oxford" name="Oxford" cx="572.17" cy="1031.26" r="5" />
</svg>
