<svg xmlns="http://www.w3.org/2000/svg" viewBox="0 0 1500 1500" aria-label="Map of UK Seas">
	<path id="irish-sea" name="Irish Sea" d="M673.42 908.99 715.94 875.37 710.33 856.04 722.61 840.56 800.4 810.9 850.33 836.5 873.45 1036.37 745.89 1155 690.69 1162.12 689.1 1162.55 623.4 1135.15 606.49 1119.91 584.2 945.37 673.42 908.99" />
	<path id="english-channel" name="English Channel" d="M406.3 1208.65 0 1388.37 0 1500 1500 1500 1111.6 1219.85 1095.6 1218.68 938.6 1219.28 908.09 1121.59 758.46 1149.62 693.6 1163.07 690.43 1162.29 689.1 1162.55 623.4 1135.15 609.16 1126.24 593.22 1116.62 484.35 1136.73 426.15 1197.72 415.51 1200.31 409.19 1205.33 407.55 1207.23 406.3 1208.65" />
	<path id="north-sea" name="North Sea" d="M712.8,422.15S743.45,99.36,1146.5,2.5h356v1500l-388.4-280.15-8.37.44-44.57,6.5L1018,1241.53l-65.78-237.48L880.32,787.13,770.16,747.7,748,597.1,725.8,462.79Z" />
	<path id="atlantic-ocean" name="Atlantic Ocean" d="M1146.5,2.5H2.5V1390.87l406.3-179.72,1.25-1.42,1.64-1.9,6.32-5,10.64-2.59,58.2-61,108.87-20.11,15.94,9.62,14.24,8.91L609,1122.41,586.7,947.87l89.22-36.38,42.52-33.62-5.61-19.33,12.28-15.48L802.9,813.4,852.83,839,876,1038.87,752.23,1153.93l8.73-1.81,149.63-28,30.51,97.69,71.37-.28-60.24-217.45L880.32,787.13,770.16,747.7,748,597.1,725.8,462.79l-13-40.64S743.45,99.36,1146.5,2.5Z" />
	<path name="United Kingdom" d="M657.4 916.05 657.8 913.95 656.68 916.18 657.4 916.05" />
	<path name="United Kingdom" d="M526.8 911.95 526.67 912.11 526.7 912.15 526.86 911.97 526.8 911.95" />
	<path name="United Kingdom" d="M786.1 1325.75 785.7 1326.07 785.83 1326.02 786.1 1325.75" />
	<path name="United Kingdom" d="M560.78 563.53 560.2 562.95 560.6 563.55 560.78 563.53" />
	<path name="United Kingdom" d="M785.83 1326.02 785.8 1326.05 786 1325.95 785.83 1326.02" />
	<path name="United Kingdom" d="M795.9 1313.25 796.8 1314.15 796.6 1315.45 797.19 1316.53 796.9 1313.95 795.9 1313.25" />
	<path name="United Kingdom" d="M371.6,1164.25l-1.2,3.2,2.3-1.2.7.5,1.6-.4,4-2.5.1-1.1-1.8.2-.3-1-.6.7-.9-.5s-.4-.3-.4-.4l.1,1-1.6,1.2Z" />
	<path name="United Kingdom" d="M407.9,1193.75l.7-.8,1.4-.3-.2-.5,1.2-1-1.9.6-.7.3-.4-.6-2.8.2s-2.2.6-2.1.8l-.6,1.7h2.1l.4.1,2.2-.8Z" />
	<path name="United Kingdom" d="M432 1204.25 431.5 1204.65 431.2 1205.35 430.4 1205.65 431.1 1206.55 430.1 1207.05 430.3 1208.05 432.5 1206.45 432.8 1206.15 432.5 1204.35 432 1204.25" />
	<path name="United Kingdom" d="M382.8 947.35 385.1 947.75 386.8 946.95 387.5 948.25 390.5 947.05 392.1 948.55 391.6 949.05 391.4 952.95 392.5 953.25 393.6 952.65 393.8 953.45 395.1 954.35 394.6 955.05 395.4 955.95 397 957.35 398.1 957.35 398.7 954.75 398.4 953.65 398.5 952.35 398.6 951.35 398.6 950.95 399.4 950.45 399.3 948.95 400.1 947.85 398.2 947.65 397.7 947.75 397.3 946.85 397.8 945.95 397.3 945.05 398.8 944.95 399.1 944.25 396.3 940.75 395.4 942.55 393.8 942.25 392.9 942.75 392.1 941.55 391 941.35 390.1 942.05 388.5 944.25 386.5 944.45 385.7 943.35 384.2 943.45 383.1 942.65 383.1 944.55 381.7 946.35 379.9 946.15 379.9 946.45 382.9 948.35 382.8 947.35" />
	<path name="United Kingdom" d="M414.2 1020.25 416.4 1019.45 417.9 1018.45 417.5 1017.65 416.5 1018.15 415.3 1017.45 414.4 1017.15 413.2 1017.75 412.8 1018.45 413 1019.25 413.3 1019.85 414.2 1020.25" />
	<path name="United Kingdom" d="M412.4 1023.05 413.4 1023.25 412.5 1024.15 413.5 1025.95 414.7 1025.85 415.7 1026.05 416.9 1025.55 417.1 1022.15 416.8 1020.95 416.5 1019.95 414.6 1020.25 414.6 1021.25 412.1 1022.05 412.4 1023.05" />
	<path name="United Kingdom" d="M490.1,841.85l.2-.5h2l-.7-2.2.3-.9-2.2-1.2a7.53,7.53,0,0,0-.9-.9l-.3,1-1-.2.9,1.4-1,.7.3,1.2-.5.2v.7l2.5.2Z" />
	<path name="United Kingdom" d="M667.6,919.45l.9.3,1.2,2.4,1.5-1.7-.5-1.5.5-.6.4.4.4.3.3,1,.5-.2.5-1.2.6-.3,1.9-2.4.9-2.4.6-.6-.2-.7-.6-5.4-.8-.7-.3,1.1-.5-.7.3-1.2-2.7.4-1.5.7-.6.9-2-.3-.1-.7,1.9-.9.2-1.7.5-.3-.5-1.5.5-1.6.6-.6-.8-.7.3-.7.5-.3-.3-.7v-.6l-.4-1-.5-1.3-.9-.7-.4-.2-.1-1.8,1.1-.7-.7-.6-.9.3-.2-1.5-1.8-.3-.3-.4,1.4-.8-.1-2.4,1-1.6,5.5,3.8v.8l1,1,.4-.2.8.2.9,4,.5.3-.2,1,.1.9.4.8-.4.8.7.8-.4,1.7-.8.3-1.8,1.3-.2,2.5,1.8,2.1.6,1.9.6.2.2,2,.8-.2.7,1.4.6-1.1-.2-1,1.1-1-.7-.5.2-1.3.6-.8.6.2.6-.5-.2-2.9-.9-1.7.6-.8.9-.1.5-1.5.8-.5-.5-2.2.6-1-1.9-1.3-.5-2.9-.8-1.2.4-2.9-2.8-3.8-.6-2.1v-2.9l-3.3-3.7-1.9.2-1.3-.5v.9l-.9.8-.6-.8-1.4.3-2.2.3-1.7-1.2-3.6,1.8-3.4,2.9-1.7.6-.4,1.8-1,.7h-.9v-.7l.3-1.5-.3-1.2,1.4-4,2.9-2.4.5-1,5.9-2.2,2.4-2.1,1.3-2.4-.1-4.2-2.3-4.6-2.2-1.2-1.1.2-1,1.1-1-2.2-1.6-1.6-.3-1.9h-1l-1.2-.9-1.2-3.6-1.4-2.2-1-.9h-1.2l-.6-1.2-1.4-.2-.2-.7.9-2,.9-4.8-1.9-1.2-3,.7-1.1-.9.4-2.6,1.1-2.1-.3-2.9,1-1.5-.5-2.7-1.1-.7-.9-2.5-3.3-1.3-1.4-1.8H639l-1.4,1.4-3.6,1.1-3.4-2.8-1.2.1-2.6-1.5-1-.3-2.7,1.5-.4-.5-2.5-.3-.8-1.2h-.7l-2.3.6-.1.7-1.6.8.2.9-1,1-.4-.4-2.7,1.4-3.3.4-1-.8.5,1-.3.5-3.8,1.1-.7,2.1-10,.1-3.6-2.5-1.2-.3v4.1L586,827l-1.1.3-.8,1.6-.1.5.5,1.2-1.9,1.9-.2.8-.4.2-4.7.8-1.1-.5-.4-1.4-2-.2-1.6.4-.5-.1h-.6l-.4,1.2-1.1.5-.4-2.5-.55.18.15-.28.9-.3,2.9-4.1.4-1.4,2.9-3.5,7-4.2,1.7-.4,4.4-2.3,1.8-1.7.1-1.1-1.9-1.9-3.3-.3-.3-1.1-1.7-.4-.2-.6-1.9.2-3.4-2.4-.7.3-1.4-.5-.1-1.6-1.2-1,.4-1-.9-.4.8-.4-1.4-1.1-1.9-.3-1.3-1-1.6-.1-1.4-.9-2.5.1-.4-.8-1.6-.5-1,.8-1.7.9.5-.1,1.2,1.7,1.5.2-.3,2.9,1.1.8.3,1.5,3.4,2.1,1.5-.2-.9.6,1.3,1.2-1.2.2-.4-.6-1,.8-1.8-1.2h-2l.1-.7,2.1.3.6-.6-.6-1.1-.7.1-.7-1.1-1.7-.6-.7.3-.5,2.5h-2.2l-1,.5.3.8-1.4-.3v-.8l-.9-.6-.2,1.6-2.2-1-1.1.4-.3.6,1,1.1v.7l-.4,1-1.2.8.9,1-1.1,1.1-.8,2.3.6.5-.9.7,2.2,1.2,1.1,2.5,1,.6.8,1.9.8.1.3,1.9-1.3,2.1-.1,1.24-.3-.24-1.4.1-1.4,1.2.6,1.5,1.2.3.7.9,2.51-.36.29,1.06-.6.7-1.2.2-.5-.4-.9.7-1.1-.1-.2,1.8-.6.5-.8-.4-3.6,3.3-1.7,3.3-.8-.8-.4.8-2.2.6-.4.6v-.9l1.6-1,1.1-3,3.6-2.5,1.4-1.6v-.9l-.5-1.2-.6-.2-1.9,1.2-1-.3-.9.8-.1-.8,1-1.2,1.7-.4v-1.3l.8-.9,3.1-1.4.5-1.1-.3-1.2.8-.9-.2-1.6-1.2-.5-2.2-3,.2-1.2-1.2-.9-.7.2-1.4-1.8,1.1-1.5.3-1.7-1.5-4-.5-.2.2-.5h-1.5l-1.5,1.5-.8-.2.1,1-.6.8-1.5.1-.4-.9-.6.6h-.5l-.6.8v.4l-2.5,2.5.2,1,.8.1.9,1.5,1.4-.8.8.3-.2.7-.7-.3.2.6,2.1,1.9.4-1.4-.8-.6-.2-1.2.6-.7h-.5l-.2-1.7.9-1,.5.5-.4.9.7,2.2-.9-.6-.2.7.8.8.4-.4-.1,1.5,1-.6v2l.9.8-1.6,5.2.3.8-.6.6-.2-.9-.9.8,1.6-4.8-1.4-2.6-1.1-1-.8-.6-.1.9-.8-.4.2-.5-.7-.8-.3.6-1.1-.2-.1.5-.5-.5v.7H535l.3-1.1-1-1.2.6-.7.1-1.5,1.1-.7-.1-2.4-.9-.4-.2,1.4H534l.2,1.3-.6.1-.9-.7-1,.6-.5-.4-.4,3.1,1.4,1.3.8-.5.8,1.7-.4,1.5-1.1,1.1.6.5-1.3,1.1.3,1.2-.8.1.2-.9-.7-.9-.1.6-.7-.2-1.2.7,1-1.5,1.6-.4.7-1.5-1.2-.5-2.5,1.4,2.2-2-1.4-.3.3-1.3-1.1-.4-1.2,1.4-1.6-1.1-1.6.6.5-.9h.9l1-.7.3-1.3-.2-.6-1.6.2-1-1.5-.7,1-1.6.3-.4,1.7.7.2-.7.8.6.5-.5,1.1-.7.3-.9-.4-1.3,1.3-3.4.6.4.7-.3,1.6-.9-.5.3,1.9-.4.5.1-.8-.5-.4-.5.8-.6-.2.4-1.4-.9-.5.7.1,1.9-1.4-.3-.8h-.8l-.3,1.4-.9.6-2.9-.2-.5-.7-.8.4-3.4-1.1-.7.9.4.6-.7.7.3,1.5-1.3,1.5.1,2-.7.5.4,1.1-.4,1-1.6,1,.5,1.3-.4.9-1.1-.2-.9.9-.6-1-.5.1-.4.8.8.9-1,1.1.5,1.4-1.2-.4-.1-.7-1.8.6-.2.8,1.1,1-.5.4,1.7,1.7.3,1,3.2,1.2-1,1-.4-.5-1.4.9-1.5.1-.3-.2.1-.4-.1-.6-1.2.1-.2.9.9.6-.2.7-.7.1.1,1.2.9.8,2.1.7,1.6,1.6.6-.5-.4-1.7,1.1.6,1.1-.9.3,1.8,2.1.4-1,.8.2.7-1.8-1-1.2.8-1.1-.3.6,3-.3,1.1-.9-.3-.7-.3-1-.5-1.4,1.3-2.8-.9-1,.9.3.9-.4.5-1.9-.8-1.5,1,2.5.3-.3.9,2,.8-.1.9,2.6.1.4.6.3.4.4,1.4,1.7.3-.6,1.3-1.8-.8-.5-1.2h-.6l-.2-1-2.7.7-1.9-.6-.1.7,1.4,1,2.4.2,1.1.6.3.8,2.1.2-2.3.1-1.8-.7-1.1.3-.4-.3.6-.1-.2-.7-1.3.6-3.7-1.5-4.6.9-.4,1.1-1-.2-.9.9-.2,1-2.5.6.3.4-.6.7v1.7h1.1l-.9.5-1-.2-1.2.8-1-.5-.5.4v.9l.7.6.6-.1-.6,3.2,1.2-.5v.9l5.1,1.6,1,1.1-.5.5.3.9,3.1-.4.7.5,2.2.2.5.3,2.7-.6,3.5-1.9.2,1.2-.6.8.4.3-.2,1,.6.1,1.8-1.9.3-.8-.4-.7,1.2-1.7.5.1-1.2,3.6,1.1-.2,1.8-1.4.4.2.7,1.8-1.3,1.6-3,1v.8l-1,1.5,1.4-.8-.1-.7.7-.7,2.4-.8,2.5-2.3.6-1.6,3.4-1.8,1,1.2-1.2,1.5-.4,2.2,4-1.8,3-2.4,1.2-.3,1.9-.7,1.5-.4-.8,1.9.9.4-1.4,1.1-.2,2-.8.2-.1-2.1-1-.4v3.1L510,885l-.9-.1-.2.4.7,2.3-3.5,2.4.7,1.6-.6,2.2-1.1.5.1,1-1.8-.1-1.4.9-4,.7-1.9.9-1.3-.3-.2-1.6-.9.3.1.9-1.2,1,.9.5.1,1-1.2,1.3-.1.9-3.7,2.2-1.3.7-2.9,1.3-.5,1.2-1.2-.2-2.2,1-.2.6-.2.2,1.4.7.5,1.2,1.8-.4,1.6-.9,3.2.6.6.5,1.9.3-.1,1.1-1,.5-2.2-.7-1.2-1.7v3.2l3.2.4,2.8,2.1-.7.5-1-.5-.8.6-1.7-.3-1.5.5-1.2-.2-.1-.7h-1.4l.3.9-1.1,2.2,1.3-.6,2,2.2v.8l1.7.4,1.6,1-3.4.3-.1,1H486l-1.3-1.6-1.6-2.7-2.4-2.6h-1.3l-2.7,1-1.6-.5v-1l-.5-.3-2,2-1.9.9-1.9-1.3-.4.3-1.8-1.1-1.1-1.4-1.5-.8-7.6-.2-.5,1.5.3.8-2.7,5.2.1,1.1-2.5,1,.5,1,.2,1.7-.8.3-.5-.7-1.3-.7.4-1.1-4-1.7.7-.7.9-.7.2-1.8h-1.6l.9-3.2-.6-1.3-.8,1h-.9l-.2-1.9-.9-1.3-3.7-.8-1.4-1.2v.9l-2.3,2.7-.6-.2-.1-1.3-2.4-.3-1.3.5-1.7-1.1-1.3-.2-.3.9-.9.2-2.7-.4v-.8l-.9-.3-3.9-.2-1.4,1.2-1.7-.4-1.1-.6-2.2-.4-1.2-1.2-1.3-.4-1.7.1-1.8,1.8h-1.2l-.4.7v1.7l1.4.3,2.4.8-.2,1.6-.8-.5-3.2,1.2-.7,3-.3,1.2-.5.5,1.1.3v.8l-3.2.6-3.46-1,1.26,0,1.1-.4,2.1-.1-.6-.6.5-.6h.8l.6-1.6.2-1.5-1.3.7-.6-.2-.7-.8-1.9-.1-.6-1.7-1.1-.2.2-1.2-1.1-.5-.7.4.3,1.2-.9-.2-.4,1.1-1.3-.3-.1.7-2.1,1-.1,2.2v.7h-1.5l3.4,1.7-.5,1.7-1.2.1-.9,1.1.6,2.2-2.3,5,.2,2.2-.7.3.4,1.3,2.1,1,1.2-.2.7-1-.4-1.1-1.6-.5.5-1.3,1.1.3-.6-1.7,1.2-.6-2.1-1-.1-.6,1.2-.3.6-.8,1.3.3.4-.9-.8-1.6,1-.1,1.4,1.1.4-2.2-1.3-1.3,1.4-.1-.7-1.1,1.54,0,.26.85,2.1,1.9.3-.4,2,.3-.5.6-.7,1.2-1.1,1.2,1,1.2.9.5-.4.7-1.8-.7-.1,1.1,1.6,1.7.5-.9.6.3.2,1-.5.5-.6-.3-.6,1.1-3.1.8,1.4,2.2-.3,2.1,1.4-.5,1.3.5,2.1-1.1.3,2.1-1,.8.8,2.2,1,.8-.2.7,1.6,1.1.5.8-.2,2.9,1.3-.2.7,1.9.6-1.5-.1-1.2,1,.1-.3,1.5-.1,1.1-.8.5-.9-.3-.9-1-2.4-.1-.7.8-.9-.7-.5,1.4,1,1.1-.9,1.7-.9.5.3,2.4-.3,1.3.4.8,1.3.9,2.3-.4,3.3-1.4,1.2-1.8.5-.6,2.6,1.1v-1l1.5.2v.5l2.5-.1h1l.9.1h2l.8.4.8.4h.4l.7-.5,1.4.4-2,1-.5.2.6.4.2.3-1.2.5,1.5.5-1.5,1.2-1,.7.4.9-.5.5-.5,1,.2.8,1.8,1.3h2l1.4.1-2.2,1-.3.7v.5l-1.9-.2-1.5-.5-.3.7h-1l-.3-.7-3.5,1.3-3.1.1-.3-.7h-.7l-2.5,1.2-5.2.7-.2,1.1.6.4.3,1.2-1.6,4.4.8,2-.5,2.1.2.5,2.2.4.5,2-.7.6.3.9-1.6.2-.4.8-.3.6-1.5.4-2.1-.3-1.9-1.1-1.5.5-1.8-.4.3,1.7,1.4,1.7,2.9,1.1v.8l1.5.8-1,.3-.7.3-1.5.1-.9-1.3.6-.4-.2-.5-2-.5-1.1.5-.7-.8-1.2.2-.5-.5-1.6.1v.4l.3,1.2-.6.3-1-.8-.9.4-1.7.7.1.6-.6.6,1.4.5,2-.3.7,2-.3.8.2.6.6.7,1.2.7,1.1-.1.4.9-1,.8,1.2.7,1,1.1.5.6-1,2.1-1-.8-.5-.4-2.3-.7-1.2,1.5-1.8,3.5,2.1-1.2,1.9,2.1.9-.9.4-.6h.8l.5-1.2,1,1.2,1.6.7.5,2.5,1.2.5,2.6-.4.3.5.7-.2.7.4,1.5-1,.2-2.8,1.2-.7.7.9.3,2,1,.6.4-1.6.8-.3,1.3-1.2h1.6l.1.4-1.3.1-.2.5.6.6,1.8-.5-1,1,.1.5.8.1-1.4.6-1,.8-.7-.2-2,1.2h-1.5l.1.9.5.2-.5,1-.7.9-.5,1.6.6.7.9.7.4.8,1.5.5.5-.5.6-.2,1-.3.3.1,1.3.3,1.1.5,2.5-.7-.2-1.5,1-.6,1.4-2.6.2-.6,1-.9,1-.5.5-1.2,1.5-.6.2.7-.5.8.6,1.3-1.2.8.2.6-.5.5-.9.4,1.4.9,2.8-.5-.1-1v-2.2l-.8-1.3.4-.4.2.7.5.4.6,2.2h.7l1.5.7-1.2,2.3-1.4-.5-1.9.3-.3.7.9.9v1.7l.4.6.3,1-2.1,3,.3,1.3.8.7,1.4-.2.3-.3.7-2.4-.6-1.1.5-.8.6-.8.8-.5.9,1.4-1.8,1.5.6,1.3.2,1.3,2,1.8,1.9-.3,1.6-.1.9-.8H435l2.4-.9,1.9.4,7.3-.7,3.4-.1,2.8-.5,4.1-1.3,2.4-.4,1.4-.4v.9h1.4v-.8l1.7-.3.9.2-.4,1.2-2.4.3-.9,1,1.6.7-2.1,2-1.1.7,1.6.4,2.8.1,1.3-.3,1.1-1,.7.2-3.5,2.9v1.5l.1.5.9.8.3,2-1.5-.8-2.1-.8,1.5-.6-.1-1-1.4.8-2-.2-1.5.5.3.6,2.1.9v1l-3-1.8-1.1.3-1.8-.4-2.2.9.9.6,2-.2.9.8-.9.1-2.4,1-.9.9-.7.1-1.7-1-2.4-1-2.6-1.5-1.3,1.1-.6,1.3.2,1.3-1.4,2.7-3.1,2.2-.5,2.3-2.7,3.4,1,1-2.4,2.4-.2,2-2.6,2.5-.1,1,.6.2,1.8-.7,2.3.4,2.4-1.1.9,1.3-.3,1.4-.9.3-1.7,2.1-2.3,1.2-.5,1.7-.6,1.8,1,.5.2.6-1.5.6-.1,1.5-2.2.9.6,3.3-1.2.7.6.9-.5,1.2-1.8.4-1.7-.7-3.1.8-.2,1.1-1.2.2-.5.4,1.1,1.2-1.9,1-.7,1.4.7,1.3h-1.8l-1.3,1.6-1.7.7-.8,1.6-3.5,1.8-1.6,2.6-3.8,1-1.2,1-1,.5-.6,1.2-1.1.6,3,.4,1.5-.7.4-.9,1.1-.1,2.2.6,3.8-1.4.4-.9,1.7.6,1.2-2.7,1.8-.1,2-.9,2.4.3-.1-.7.7-.7,1.5-.6.1-1.3-.9.1v-.9l.1-.8,1-.7h.7l.3.5.1,2.5.9,1.1h1l1.7,1.2,2.4.1,1,.7,7.4-1.4,1.3-.7.2-.9h.9l-.7,1.5-3,2.3-.1.7.4.6,2.6-.2.7-.3,1-2.2,6.7-.9,1.4-1.4.6-1.5,1.7-1.2.5-1.7.9-.3,2.4-3.9.2-2.1.3-.5,3.4-1.9h1.1l.9.7-.7,1.3.8.5-.1,1.3,1.3,2.2-2.7,1.7.3.8,2.1.2.3-.7,2.6-.9,1.5.1,6,2.3.3.6-1.7.5-.7,1.2-1.2-1.6-9.2,1.3-.7,2-.5.2-.1,1.2-1.3,1-.4-.9-1.2-.1-.5.8-.6-.1-.4-1.3-3.2,2-2.4.1-.5.6-2.9.7-6.1,3.3-2-.7-2.3.4-.1-.9-1.5-.5-.5.9h-3.5l-.9,1.5-1.5.1-1.5-1.3-1.1.1h-1.1l-4.1-.7-.9.4-3,2.7.6.9-.2.8-.7.8.4,1-.8,3.2-2.5.8-2.4,2.5-3.6,1.7-2.3.8-2.9-.6-2.1,1.1-.4,1.1,2.1,1.6,3.7.3,1.4.9-.1,4.6-1,2.7-1.2,1,.3.4,2.2-.3-.6.9-1.3.3-.8,1h1.4l2.3.9,2.3-.3,2.3,1.6-.8.4-.6.8-1.3-.7-1.4.9h-1.4l-.8-.6-1.5,1.3-2.1.7-1.7-.5-2,.2-2.8-1.9-1.4-1.7.4-3.5v-.6l-1.2-.4-1.4.2,1.4,1.4v1.3l-3.1,3.4-3,.5-.4.9-1.3-.3-1.4.8,2-3.2-.8-.4.4-2.4-1.3-.2-1.9.8-.2,1.1-1.1-.5-1.7.6-.9,1.3-1.6.2-.8,1.5-3.7,1-.6,1.4,1.2.5-1.5,1.9.9.9-.4,1.5-1-1-1.8-.2.4-2.6-4,2.8.1.4.6-.1-.3,1.1v.9l-.2,1-.2,1.3.6,1-1.1,1.3,1.3.2.3,1,4.1-1.1,2.4-.1-1.9-1.1,1-1.3,2.2,1,.2.7,2,.4,1.6-.3v-.9l-2.9-.5,1.6-1.2.9.3,1.4,2.2h1.7l.8-.5,1,1.5,2.1-1.4,1.1.2,2.3-.8.8.3,2.8-1.5,3.9-.6,1.9,3.2,1.1.7.4-.7-.7-.4-.5-1.8-1.2-.9,9.4-1.9.5.8.8-1.1.5,1-.4,1.4.7,1.5-1.6-.6-.5.7-1-.2-1.1,1-2.6.7-2.4,2.5,1.2,2-1-.2-2.8,1.3-3.2,1.7-2.5-.2-2.1,1.5H390l-1.2-.2-1.2,1.2-1.7.4-1.5,1.1-.5,1.4-.8-.8-1.9.5-.5,2.8-1-.5-2.3,1.2-.2.6,2.5.1-.1.6.6.7.7-1.2,2.1.1-3.1,2.1,1.7,1,.2.8v1.2l-1.2-1.5L379,1166l-1-.2-2.5,1.3h-2.7l-.3.8.4,1.5.5.4-.8,1.6,3.8-.3.3.6-.4,1.6-.1.9.3,1.2-1.2.7.8,1.5,2.2-1.2,1.2-.8.9-.8.1-1.2,1.6-2.1,2.6-.4,2,2-.3,1.9.4.3-.6,1.8-1.3.6-1.3-.1v.4l.5.4.9-.2,2.3,1.5.8-.4.4.7,1.4.2-1.1,1.5.6.4.5-.7,1.3-.4.1-.8,2.7-.4.1-.6,1.2-.9,1.5.4,4-3,2.6-.3.4-.4,1.5-1.3,1.2.6-.1.8.5.1,1.3-.7.1-1,6-2,5.5-2.4,1.5.4,1.7-.7,1.3-.2,2.2-1.1-1,1.3-3.9,1.6-1.2,1.4-5.5,1.1-.8,1.4-2,1.2.1,1-3,1.3.3.6,2,.8.5.8-1.5.4-1.1-.2-.8-.9-.7-.6-.7,1.2.6.8-2.3,1.7-.8.1.9-1.8-.2-.5-2.9,1.9v.4l-2.9.5-2,1.9,1.5.6,1.5-.6.7.2-1.1,1-.5,1.8-1.7.2-.8,1.2-1.3-.5-1.5.9-1.1-.8-.4.6-1-.3-.8,1.1.3.5,1.8.8.8-.2v1.4l.4.7-1.6,1.3-.7-.5-2,1.2-1.3-.8-.9.6-.1.5.9.4v1.2l1.6-.8.5.3,3.5.4.9.5,4.6-3.2.2.5,1.7.1.7-.8v-1l.5-.6.7-1.7,1.5.5,1.3-.4,2.5-.6.5.5,3-.8,1.2-.9.8.3.4-.7-.6-1.1.6-.7.6,1.7,2.5-.2.2.8,3.2-1.1,2.3-1.9.9-.5,1.5-1,.3-1-.5-1,.4-.7-.4-.9.9-.2.7,1-.2,1.2,1.2.2.6,1.1,1.2.2,1.6-1.6.4.3.6.3-1.3,2.7.1.8-.3.9-1.5.1-1.4,1.6-3.8,1-1.3,1.1-6.6,2.9-1.3,1.3-4.1,2-.5.6.4.5-4.2,2.8h2.2l1.4-.9,1.3-.1.9-.9,1.3-.4.8-.6,1.3-.1.8-.9,1.4-.4.8.2,1.3-1.7,1.1.2,2.1-1.6,1.4.2,1.4-1,.4.8-.6.6-2.1.4-.5,1.2-3.9,2.4v1.2l-1.5.8-2.2,1.9-1.9-.1-1.1.5-2.8,2.7-2.6,1.3,1.9.9-.7,1-.1,1.4,1.4-.1,1.1-2.3,1.2,1.3-.8.8.2.4,1.8-1.3,2.5-.8-.4-2.6,2.5-1.1.7-.4-.3-.8,1.1-.3.1.9.5.9.2,1.2,2.8-.6v-.7l2.6-.6.4-1.9.9-.1-.2,1.6,2.3-1.1,1-.6,1.2.5,1.3-1.8-.7-.1-.5-.8-.2-1.2,2,1.1h.7l1.3-.2-.8,3.2-1.5,1.2.4.7.4.3.4.5,1.2-.5.4,1.2.4.2,1.1-.7-.4-.8,1.1-.3-.3,2-1.9,1.1.5.6,1.1-.6,1.2.7,2.8-1.8.6-.5.8-.7.8-.3-.4,1.7,2.2-1.2.3.6-.7.8.9.2,1.1-.7-.3-1.1.5-.9,1.1-.1.1-1.1.9.3,1.2-.5,1.6-.6.6-.9.7-.3,1.7-.7,1.8-.3,2.4-.8,1-.9,2.8,1.3,1,.8,1.1.7,1.5-.8.6-.4-.2-1.9,1.4-.6.1-1.6.4-.3.8.2,2.7-.2,1.8,1.2,1.1-.9.6,1,.4.5,2,.7.9-.9-.2-1.7.1-2.1,1.1-1.9-1.7-.4.7-1.1,1.2.6,1.4,1,4.9-.9,1.1.6.1,1.4,1.1,1.4.7.5.2-.5-.7-1.1.7-.8-1.4-1.6,1.2-1.4.6-2.4.6.1.4-.6-.6-1.1.4-.8.8,1.5-.1,1.4,1.1.1,1.5-1.7.8.7.8-.3.5-1.5,1.7.2.5-1.3,2.6-.1.8-1.9,1.3.1.7-3.5-1-.5,1.9-1.6.6-1-.1-1-1.3.6.1-1-1.8-.6-.1-.4.9-.1.7-1.2h-1.1l-1.4-.6.7-.9,1,.7,3.1-1.6,5.9-.4-1.4,1-.1.6-1.8.4-1.2.7-.6,1-.9,1,.9.9-.3,1.3,3.7-.5,1,.2.2,1,.8-.2,1.9-1.9,4.3-.4.9-.8,2.6-.7.2-.4-1.1-1.6-.1-.5,1.4-.9,2.2-1.1,6.3-1.2-.4-.8-2-.7-.1-1.2,1.4-.5,1.1-1.9,1.5-1.1h.7l.8.3,2.6-1.3,1.9,1.2,2.1-.2.2-.6-.8-.7,1.6-2,5-.8,1.9-1.2.8-4.5,2.4-2-3.3.3-1.1-1.2-1.4-.2-.4-1.7.7.1,2-1.6,2.4,2,.9-2.1,1.5-.8,1.5.2,2-2,1.2-.4,3-.1,2-1,2.5.1,1.9-.3,4.5,1,2.1-.2.9-.2,1.4-2.3,2.1.5-.4-1.5h1l1.3.9-.2.8-1.4,2.5,3.2-1.2,1.4.8,2.8-1.3-.1-1,1-.6.5-1.2-.2-.6-.7-1,.8-1.9-.3-.7.5-3.2.9.2,1,2.2.9.3,1.2,2.1-.6.5.8,1.8v1.4l-2.1,3,.4.9,1.2-.8.4-1.6,1.4-1.5,2.2-1.2h1.2l-.4-.8-.3-.9,1.2-2-.4-.4-.3-.7.7-.7,1.1-1.8,1.6.1,1-1.8.4,1.5-2,2-.6,1.7.5.7,5-1.4,3.9,1.6,2.3,1.7.9,1.6,6.3-2.2,4.8.5,3.6,1.3,1-1.5-.3-1.1.5-1.5,1.8-2.8-1.2-1.5-1.6.3-.8-.4-1.2-2.9.2-2.6-.7.8-.1,1.4-.5.1-.4-1.2-2.1-.9v-2l-1-1.4,1.7-1.5,3.2.1.7.7,1.1.2-.6-3.6.9-3,1.9-2.2,5.5-9.2,1.3-1.2,1.1-3-1-2.5.1-1.5-1-1.7-.2-3.3.7-.5,2.1-4.6,2.9-3.5-.4-1.1.1-2-.1-1.9.5-2,2.4-4.3,2.7-1.7-.4-.8.4-1.9,1.1-1.5.1-1.8,1-1,.4-2.7.9-1.3-.5-.8h-.7l-1.4-1.3-.4-1.1v-3.7l.9-3.9-.2-2.6-.4-2.8-2.1-4.6-.1-2.7-.9-.7-.8-2.1-.4-4.4,1.2-1.3-.7-1.3-1.5-.7-.9-.8-.8.2-3.1-2-.5-2,2.2-.3.1-.5-1.2-.5-.2-.7.6-.4,2.2-2.4,1.8-.8,1.3.2,1.3,2.4h2.1l.5-2-1-1.2h-3.6l.1-1.1-.5-4.3-5-2.3,2.9-.3.5-.7,1.1.8.8-.9,1.4-1.7-.7-.3V999l2.1-1-.8-1.1.6-1.2-.3-1.8-.9-.9-1-1.7-2.1-.5-1.1-2.1-1.5-1.3-1.6-1.4-1.2-3.5-.8-5.8-.6-1.2,1.1-5.6,1.3-1.2-2.4-.9-.3-2,.6-2.9.8-1.2-4.1-1.8h-1.7l-2.2-2.5-.5-2.2-.1-3.6.9-.9v-2.2l1.4-1.5-.5-1.1,1.9-.6,4.3,2.7,3.3.9,3.6-.1,2.3-2.2-1.5-1.8-.2-1.8-1.2.7-2-1.4-1-1.9-3-2-1.44-2.4h3.64l.8.6.5,2.1,1.2.8,4.4.4,1.3,1.6-1.5-.1-.5.9,3,1.8,2.5-1.6,1.9-2.5,1.8-.2.7-1.6,3.6-3.1,1.5-6.3-.2-2.3-1-1.9.6-1.2,3.2-2.5-.4-1.3-1,.6-.4,1V920l1.17-.88.63,1.18,4-.4,1.7-.7.5.5Zm-138.43-4.84.13-.16.06,0-.16.18Zm130.73,3.94-.72.13,1.12-2.23Z" />
	<path name="United Kingdom" d="M935.4 835.05 935.2 835.25 935.7 834.85 935.4 835.05" />
	<path name="United Kingdom" d="M785.7 1326.07 785.6 1326.15 785.8 1326.05 785.83 1326.02 785.7 1326.07" />
	<path name="United Kingdom" d="M955.4 1283.05 954.7 1282.35 955.1 1283.05 954.8 1282.85 954.3 1281.45 953.2 1280.45 953.8 1280.35 952.7 1279.95 952.6 1279.35 953.3 1279.15 952.1 1279.25 951.9 1280.35 951.7 1279.55 947.5 1279.95 947.7 1279.35 946.4 1278.95 943.9 1276.85 942.4 1277.25 941.4 1276.65 939.1 1278.35 938.6 1279.45 935.6 1280.35 935.1 1280.95 933.7 1280.75 930.3 1282.75 928 1282.75 926.4 1285.55 925 1286.05 925 1286.85 923.9 1287.05 925 1287.25 928.7 1286.35 930.3 1286.65 932.7 1288.95 936.4 1290.65 941.9 1295.75 944.6 1295.35 949.3 1293.55 950.8 1288.35 952.5 1287.15 954.6 1286.85 956.8 1284.95 954.9 1283.25 955.4 1283.05" />
	<path name="United Kingdom" d="M1135.2,1098.15l.8-2-.1-6-2.9-9-6-7.4-10.8-9.5-5.6-3.9-4.6-2-8.7-1.1-10.6-3.4-1.3.4.5.3-1.9.1-.5-.1,1-.1-4.7-1.4-.6-.1.7.3-.8.2-.2.7-1.5.2.4-.2-9.3-1-2.3.5-.2.3h-.2l-.2.5-3.1-.8-2.9.7-2.6,2.8-1.8,6.7-2.3,3.7-3.2,3.8.2,2.2-.9.5-3.9-3.7-1.5-.2-1.3.9-3.4-1.3-.2-2.1-3.7-4.3-6.8-1,.3-.3-1.7-.5-.4-1.5,1-1.6,3.2-1.9,2.1-4,2.9-3.6,4.4-2.5,1.3-1.8,7-4.5.6-8.2-1.8-7.7-4.1-9-1.8-6.3-4.7-8.6-3-1.8-1-1.2h-2.1l.3-.2-1.8-.7-1.7-2.4-1.3-.8-.3-1.2-5.5-2.3-5.5-4-3.8-4.7-2.1-3.9-1.8-.4-7.9,1.8-.7-.2.8-.2h-.5l-.1-.6-.1-.6,1.2-.4,1.2-.3.3,1,.6-.1,5.6-2.4h1.5l1.2.7.3-.3,2.6,4.5,5.5,5.8.7-.1-.9-1,1.3,1.3h-.5l.8.2,6.4.4,4.4,2,.2-.4-.1.6,1.3,1.2.3-.8.2.7.4-.5.7.8-.6,2.3,2.5-3-1.1-5.2-.8-1.6-9.2-12.6-7.3-11.5L1013,946v-4.9l1.1-2.9.4.1,1.4-2,5.3-1.2-.1-1.3-5.3-3.1-3.3-.9-1.7-1-1.6-1.8-.6-1.8.4-1.5,1.2.1-3.5-1.4-.4-1-1.2-.6-.7.2-1.1-.6v-1l-1.8-1.9.5-1.6-1.4-.6.2-1.1-.8-.8v-2.2l-.5-.9H999l-2-5.2-1.8-2.3-.8.3-1.2-1-.5-1.7.7-1.5-2.3-2-1-1.9-.8-.2-.2-.6-4.7-1.1-.9-2.1-.9-.1-.9-1.5-2.4.6-.3-1.5-1-.4-.9-1.6-1.8.3-2.8-1.5h-2.6l-2-1.8-1.5-.2-.6.5-1.3-.5-3.4-2-.8-1,.5-.1H960l.9-.3-1.1.2-.7-.5-.2.1-1.7-.3-2.5-1.7.1-.5-.7-.3-1.7-.8-1.4-2.6.3-1.4,1.2.1-.2-1-4.5-2.9-3.8-5.7-.3-3.5-.8-2.2.3-.5-1.5-1.7-1.1-4.9.7-.9-.5-.8.4-.7-.4.5-.1-1,.6.2-.7-.4-.2-1.2.6-.4-.4-.3.5-.2.2-1.4-.5-1.5-2.7-2.5-.6-1.2.2-.2-.5.4-.8-.4.9-.9.9.2-1-.5-.8-1.7.3-.5-1.5-1.8.2-1.9-.5.1v-.6l-.3.2-2-2.9-.3-1.3.6-.3-2.2-4.7.6-2.5,1-.5-.2-.9-1.5-2-.3-1,.4-.6-1.6-1.6-1.1-2.7-.2-2.7.9-2,.8-.1-.6-.7.6-.6-3-3-.9-2.6v-1.4l.9-1.2-.1-.9,1.1-.3-.1-.6.3.2-.7-1,.5.1-.3-.8.4-.3-.2-.7-1.1-.5.4-.9-.4-1.2v-3.9l-1.5-.8.5-1.2-.7-.4.6-.7-.8-.2.4-.6-.5.2-.8-1v-1.4l.9-.5-.6-.2.2-.5-1.2-1.4.3-.9-1.6-.9-1.6-2.3-2.8-1.1-1.9-1.5-1.8-3.5.9-.5v-2.2l-1.9-.3-5.9-2-3.5-2.8-1.9-2.7-.1-1.5-.5-.8-.1-.5-1.81-2.8h0l-1.4-2.9-.8-.6-.6-3.5H895l-.8-.3-1.9-1.7.4-.7-.7-2h-2.3l-3.3-1.8-2.4.9-4.5-1-.1-.5-3-1.7-.7-1.9-1.1-.7-1.4-.7-.4-.9-1.8-.8-2.4-1-2.8.2-1.3-1.8L863,725l-.5-1.5-1.4-1.6-3.1-.8-1.2.5-2.5-.6-1,.3-1.2-.8-2.4.5-2,2.4-1.5.5-2,2.5-.6,3.8-1.5.4-1.2.2-3.9,2.6-2.4-.6-2.1,1-2.7-1.7-2.2-2.7-1.5-.4-1,1.1H824l-.3-.7-2.8.8-2.3-2.2H817l-1.3-.4-1.8,1.2-1,.1-10.4-2.6-3.8-1.7-1.3-.1-4.3-1.2-1.4-2.6-.9-.7.5-.5,2.1,2.2,1.5.8,2.4-.2,2,.1.6.6,2.3-.3.9.7,5.5,1.3v1.7h2.8l.5-.5,1.3,1.2.6-2.2,1.6.1,1.1-.9h1.2l2.6-2.5,1.7-.4,1,.7.7-.4,1.1.4,1-.8,1.1-.1,1.2-2.6.2-3.3,1.8-.8,1.8-2h.7l1.9-2.7,2.2-1.2,3.3-3.6,1.5-.8,1.3.3,2,.8.6,1.5,2.2.8.9-.6,1.4.5,1.7-1.8,6-2.7,4.2-4.2,1.1-.3,1-1.9-.7-.9-2.2-.8-1.8-2.8-2.1-1-.8.3-4.5-1-.2-.7-1.3-.7-.4-2.8.4-7.7,1.5-.3h2.5l1-.5.2-.1-4.4.3-6.4-.8-2.1.2-1.6,1.8-2.4,1.3-1.8.5-2.8,1.7-7.7,3.5-1.9,1.5-2.4.7-1.2-.5.5-.8,2-.3.9-1.2,1.1.1,2.2-1.3,1-1.5.6.4.9-.2.1.1.9-.8,1.3-1.2.1-1.3,2-1.5,2.9-.8,2.7-1.5,2.8-.6,1.1-.1,1.4.7,3.3-.5-.7-.6,1.2-.5,5.1,1.6,1.5-4,.8-.1,1.8-1.9,2-1.2,1.5-2.5,3.6-1.4,1.9-2.4.1-1.1,2.5-3.9-1.4-.9.1-2.7,1-1.6,1,.1,1.8-1.8.3-1.7-.7-.5v-.7l1.5-4.9,1.7-2.3,1.1.2,1.3-1.6,2.1-.9,1.2-1.4.9-2.3,1.6-1.8,1.9-2.2,1.1-2.2v-1.5l1.2-1.6-.1-4.4.4-.5-.8-1.9,1.7-1.4,1.2-4.4,4.2-5.8-.2-.7,1.6-2.7-.1-.7h2.1l1.3-2.5v-2.4l-1.9-1.5.2-2.3-1.8-.3,1.3-5.2,2.4-5.9,2.9-5.8,2.9-2.9.8-1.7,3.3-2.8v-1.9l1.9-1.3.7-1.2-.2-1,2.3-2.9.6-1-1.4-1.8.7-.7.8-1.1.3-.8-2-1.4-.5-1.2.2-3.2-.8-.7-.7-1.9.3-4.2-3.7-2.3-2.4-4.6-1.4-1.3-1.5,1-1.4-.4-.7-.5.2-1-.6-.8-2.3.6-1.8-.8-2.5.3-.5-.4-2.2,2.1-.6-.1-.8,1.1-1.1.3-1.2-.9-2.4-.4-.9.3-2.2-1.9-1.8,1-.1,1.3-1.4.8-.7-.7-2.4.9-1.9-.6-1.3.5-3-.5-1.8.2-2.4-.1-1.3-.6-1.2-.4-2.1.2-2.1-1.1-1,.8-2-1-1.6,1.1-.5-1-1.8-.2-.9-.9-2.1.9-1-.5-.4-1.1-4.5,1-.8,1.4-5.8,2.6-9.4-2.8-5.5-2.9-.9-1.4-1.7.4-2.7-.6-5.5,1.6-1.5.9h-2.4l.1,2.6-2.1,2.1-3.2.3-3.3-.8-1.1.5-4.9,1.3-1.3,1.5-1.5,1.5-2.2.8-2.2,2.5-1.6,1.1-3.8.4-4.4-1.9-1.7-.1-3.1,2.5,1.7,1.3.3.7-.3.9-6.2,4.5-1.9,3.2-2.8-.9-2.1.6-1.6,1.2-4.3-.3-1.5-.7-1.4-.7.5-.5,1.1.1,1.2-.3,7.2-.4,4.8-7,1.8-1.2,2.7.5-1.4-1.8.7-2.1,3.7-4.8,2-1.5,1-1.8-2.7-.9-3.1,2.2-2.1.4-1.1-.4-1.1-1.4-3.8.3-2,1-7.1,6.3-.9.3-.7.7-.4,1.1-.7.1,1.4-3.3,1-.5,2.1-2.9,2.8-1,.9-2.3,1.8.1,1.5-1.5,1.1-.1,2.7.6,2.9-2.9,2.3-.9.8-.2,1.5,1.5.4,1.6,3,.4.9-.4,2.6-3.7,1.1-3,2.9-2.9,5-7.3,1.1-3.3-2.5.7-1.1,2.9-1.8.9-1.3.2-.9-.5-3-3-3.1.9-3.7,2.4-1.2-.4-1.2-.9-3.1-.8-1,1.2-2.2-3.3-4.6,1-1.8-.4.2-.4,1.1.1,1.1-1,3-.1,1.9.5.2.7,1.2.7,2.1.5,4.6-.8h2.8l2.6-.5-2.1-.4-.5-.6-.6-1.1.1-1.2,1.1-1.5-.4-2.2.6-1-.5-1.4,1-3.3,2.9-1.5,2.9-.7,1.3-1.6,1.7-.4.6-4,2-2.2,1.7-1,.8.4,1.1-.6,1.2-1.6,1-.1,2.4-2.3.8-1.4,1.9-.7,1.1-1.6,6.4-4.7,2.1-2.9.7-2.1,1.7-1.9,1.4-1.9L813,466l3.6-2.3,2.6-1.4,2.4-.2,2-.9,4.3-5.5,2.8-2.4-.1-.9,1.4-3.1.4-2.3,1.5-2.1.1-2.4.5-1.4-.5-1-3.1.7-1-.9-.5-4.6,3.9-5.3.5-2.1-.8-1.3,1.8-.7.3-3.8.8-1.8-1.7-.5-.9.5-2.2-.4-3.6,1-2.1-2.6-1.9.6-.3.5-.8.1-.7-.6-1.8.2-1.9,1.2-2.1-.4-.7-2-1.4-1-1.4,1.5-.3,2.2,3.9,2.9-1.1,2.5-1.6-.8-2.1-.1-.1-.9-1.8-.2-1.5.2-2.6,1.5-1.6-1.2.8-1.8-6,1-1-.2-.3-.8-1.1.8-1,1-2.3,1.4L791,428l-1.5.6-1.8.2-3.9,1.2-1.9-.7-2.6-.6h-1.4l-.8.5h-2.2l-.8-3.8-.4,1-1.2.1-.3,2.3-1.5,1-.9.3-1.2-.5-.8-.4h-.6l-.3.7-1.1-.4-1,1.9-.7,1-1.5-1.3H762l-.7,1.4-1.2.4.2.8-.7.5-.7-.1-.5-1.1-2.1-.8-1.1.6-.5-.4-1.4.4-2,3.2-.6.2-1.2,1.1-1.2-.1-.6.4.3.5-.4.9-.5-.6-.3-.1,1.4-1.6,1.6-.5.2-2.1.9-.6.1-.9-1.2.6-.8,1.4-.6-.6.2-2.5-1-.7-1-.6-2.3-.9-.5-1.1-2.6-.5-.7.5-1,.1-.5-.6-.8.3-.9,2.8.6,2.4-1.3,2.4-.2-1.1-1.5.4-1.7,2.6.5.3-.2,1.6-1.9.6-.9,1.5h-.9l-.7,1.9-1.1-.2,2.6-5.4,3.7-4.4v-2.2h-1.4l-1.9-.8v-1l-.8-.5-1,.2-.5-1.9-.6.1-.8-.9.3-.9-.5-.7-1.5.5,1.4,2.4-1.2.5-.6-.4-.8.9-.5-.3.2-1.5-.5-1-1.5-.4-1.7-1.9-1.2.3-2.5-.5-1.2.8-2.7-2-.7.2-.5,1.2.2,2.8-.6.6.4,1-1.1,1.1.1.8-1.1,1.9-1.4,1.1-1.3-.1-.9,1.2-.8,1.4-.5,3.2.7,1.2,1.5.1.3,1,2,.7.3.5,2,.7.2.9,1.4.5-.5.6.6.7-.1.7-2.4-3-2.8-.5-.5.3-1.3,1.3-.9,1.1.3.8,1.3-.1,1.1,1h-2.5l1.2,1,1.5.6.5.5,1.8.6-.5.9-.3.2-1.2.1.1-.9-.6-.5-1.1-.1-1.6-.1-1-1.8-.7-.1-.7,1.4.5,1.6-2,3-.6.9-.1.4.8.2v1.1l1.1.8-.7,1.4.5.5.6-.1.5-.9.9.8-1.1,1-.1,1.3.6,1.1.2.4v1.1l1.5.1,3.5,2.5,1.4-.3.7-.5,3.3.9-1.6.7,2.8,2.2-.2.7-1.5-.2-1.6-1.7-.2-1.4-.9-.4-.4.9-1.8.4-3.4-2.8h-.6l-.9.4v.7l-1.2.8-.9-.5-.4,2-.6-1.4-1.2.6-1.6-1.4-.8-.4h-1.1l-.3-.9-1.1,1.2.6.9,1.7.2-1.8.7-2.1,2.1-1-1.8-1.2-.3.2-1.1-1.9.1-.5-1.5-1.2,1.2-.7,2.2,1.5.8,1.2,1.5.3,1.8.8,1,.8,1.5,1.6.5v.7l-.7.1.4,1,.2.8,2.7.9,1.7-.9-.2.9-.6.6-.5.5h-2.4l.8,1.5,1.4.6-2.5.2.5.8.6.6.4.8-.1,1.2-.4,1,.3,1.2-1.1,1-1.4-.4-1.1-1-.7-.5-.4,1.3h-.4l-1.1-2.1-2.9-2.2-.6.1-.7.9-.5,1.5-.2,1,.9,1.7,1.9,1.2-.7,1.5.3.8,3.6.5.9,1.6,1,1,1.4,2,.1,1.4,3.9.9.4,1,.8.4,2,.1-.1,1.4.7.4-.2.7-.6.8-1.6.5,2.8,2.2.8,1.5h1.4l.7,1.5,1.9,1,1.3,2.4.6,2.9-.9-.3-2.4-4.8-1.7-.5-4.2-4-1.4-.5-3.8.4-1.8-.5-1.7-1.5.2-.9-.5-.5-.8.2.1.8-2.1-.1.6,2.1,3.5.8,1.4,1.7.4,1.5,4.1,1.5.3,1.1.9.8-.2.5-5-1.6-1-.7-1.4-2.3-3.1-2.3-1.5-.5-1,1.8-.2,2.3-1.2,1.4.2.8-.7.4-1.3-.9-3-.8-1.1-2.6.1-2.6-.7-.7-1.2-.1-2.4-.6-2.4,4.1.1,1.3,1,1.9-.2.9,2.3.5.2,1.1,1.2.6-.1,2.4-.9,1.6.9.4.2.8-1.3-.3-.6-.2-.8.8,1.4,2-.2.9-1.2-.4-2.6-3.4-.2-2,.4-1-.6-1.2-.8-.2-.5-1,.6-2.5-1-.5-1.2-.1-1.4.3-1.4-.4-1.2,1.1-1.6-.1-.6.4.3,2.1-.4,1.1.9,5.5-.6,4.1,1.7.6,1.6,1.5,3.7.1.7.9-.2,1.3.8.1.5,1.1-.9.3-.5.3-2-.3.1-.8-.9-.3-3.2,1.4.1,1.5-1.5,2.7-.5,2.5,2.2.5,1.8,1.5,1.4,2-.2,1.1.6,1.3,2.6,1.1.3,1-1.2-.5-.2,1,2.1,1.3.1.9,1.1-.8.9.2,1.3-.2,1.5-.5,2,.7,1.2-.3,1,.8-.7,1.8-1.6-.1-.7.3-2.1-.7-.6.8-.8-.5-1.7-1.5.4,4-1.5-1.8L668,552v-2.1l-.7-.7-.4.5-.6.6-1,.4-.4-.6.4-.5-1.2-.9-.5-.4-.8-1-1-.1L661,546l-.7.9-.9-.3-.8,2-.3,1.4-1.2,9,1.2,3.8,1.6.1.7,1-.5,2.5.3,1-.1,1.8-.1,2.8.7.1.6.5.9,1.4,2.8-.5,1.3-.7,2.2-2.4,4.5-3,.9,1.8-2,1-.4,1,.3.6,1.7.3-.2.6.6.5,1.3-.5,1.9.1,2.3-3,.7-.9,1.9-2,1,.7-.4,1.7-4.4,4.1h-2.7l-1,1.1-3.3,1-.1-1.6-1.1,1.1-1.4-.1.3,1.9-1-.2-.5,1-.9.2-.6,2.2-.3,1.5.6.6,4.6-.7,2,1.3,1.3-.4.3.8,1.9-.6,2.3-.5.8-1.1,1.6-.9-1.6,1.7-.1,1.1,3.5,3.8,2.8,1.4v.4l-.2.7-1.3.3-2.6-2.3-3.2-4-2.8,1.4-1.4-.1-2.4,1-1,1.4-.2,1.3,1.4.6.3,1.2-.9,1.7-2.2,1.6-.6,1.8-.1,1.2,1.9,1.6,3-.3,1.8.8,1.2.6.7,2.4,1.5,1.3,2.2-.4,4.3-1.1,2,.7-1.9-.1-4.6,1.4-1.2-.2-.7.9-.4.4-1-.5-1.1-.5-1.7-2.7-3.2-1-2.1,1-2.6.1-1.2,2.7-2.1,1.5-1.1,2,.5,2.5,1.1-.5.4,1.5,1,.8.5-.8,1.5-.6,1.6.4.4,1.1-.6,1,1.5,2.8,1.5.4,1.1,1.1,4.4-2,1.1-.2.7.7-4.1,1.6-2.8.6-.1.6-4.5-2.4-1.2-3.2-5.9.7-.7.5-.1,1.6-.9,1-.1,1.6.6.3-1.4,1.4.3,1-1.2,2.7-1.1-.2-.7.7,1.5.8.2.6h1.5l.1,1-1.8.1-.8-.8-.5,1.1-1.5.5.1,1.2.9-.2.3.7,1,.3,1.4-1.1.9.4,1.4-.9.5.3,1.9-.9,4-.6.2.5.6.3-.1.4-1.6.4-2.2,1.8-.2.7,3.9,1.3.7-1.4,1.7-2h.6l.1,1.1-1.8,1-.9,2.1-2.1-.6-2.1,1.3-1.3-.2-.6.9-1.1-.7-1.4.4-.8,2.6-.6-.1-.7,2.3,2.2.6,1.2-.7h1.4l.4.6.1.3-1.9-.1-.8.7-1,.1-1.5-.7-.4.9.6,1.2.8.7v.5l-1-.7-1,1.2H655l-2-2.9-1.3-.8-.1,1.1-.9.7-2-.4-.3.8-1.3.2-.8.2-.8.2-3.4-.5-1.8.4-1.4,1.1-1.3-.3-.4.7.7.4v.9l-1.2-.1-.6,1.3-.5.5-.4.8.9,1.8,1.9,1.4,2.6.5,2-.7,1,.1,1.8-.7,1.4.4,1,1.2,2.7-.4.9,1.3.8-1.4.9-.2h.7l.5,1.2,1.6.3,2.6-.8,1.2.9,3.9-3.8.6-.3,3.3-.2,3.7,2.8,2.7-.5,4.4.1-.1.5-3.4.2-.5.5-3,.1-2-1-1.1.3-1-1.7-1.6-.5-5.8,4.7-2.3.4v1.4l2.2,1.2.8.7-.2.5-3.8-2.3-.4-1.4-1.9-1.6-.9.1-.6,1,2.5.4-.8.5-1.7-.4-1.4.7-1.9-.1-.3.6.4,2.9,1.4,1.2,1.2,3.2,3.4,3.5,7.7,2.2,2-3.3.2.6-1.5,2.7,1,1.6.7-.7.7.8,2.3.6.7,1.6,5.5-3.2,2.4-2.2,4.3-7-1.6-.6-.1-.5H681l.6.6,1.2-.5,2.2-3.1,2.1-.4,2.7-3.2.4-1.3,2.6-2.5,1-.1.5,1,.7-1.5,1.9-.9-.8-1.2,1.6-2.3.1-1,4.8-4.8,1.8-2.6.8.6-7.4,10.2-1.3,3.2,4,.2,1.1.8.5.8,9.3-3.3,2.6-.1-8,2.4-1.4,1.5-.9-.3-1,.6-1.8-1.2-2.7.1-1.9,2.3-.8-.6-.9.3-2.4,1.9-.5.7,1.5.2.1,1-3.9,3.9-1.2,2.7-2,2.4-.6,1.4h.6l1,.5.7,2.1,1,.1,1.9-1.2,1-1.5,1.2-.4,1.2.3,1.4-.6.9.1-.2.5-1.5.5-1.4-.2-2.4,2.9-3.1,1.2-1.2-.7.3-1.2-.3-1-.9.1-3.8,6.2,1.3-.8-.2,1.4,1.4-2.1.8-.1.7.6.6,2-.8,1.4h2.9l.2-1.2,1.1-.3,3.7,1.3,2-.4,1.6,1.9,2.9-1.6,1.7-4.4,1.2-.7,1.2-.8,2.5-5.3.8-.4-2.3,5.6-1.6,2.4-1,1.2.6.6-1.3.6-1.2,2-1.2.8-2.7,1.2-.8-.5-1.2-1.2-2.9-.8-.9.8-1.5-1.1-.8.6-2.8.5-.3-.5-1.3.6-.3-.7-1.5,1.1-.6,1.1-.5-.1-.2,1.2.8,1.6-2.6,2-1.5,3.9v1.2l-.2.4-.8-.1-1.5,1.7-.9,5.6.6.2-.8,3.7.9.1,1.4-1.4,2.7.1.9-1.1,1,1.4-1.3.3-.2.8-.9-.3-1.1,1.1-1.5.3.3.6.8.1.2,1.5L675,708l.1.9-.8,1.1-.4,1.3-.7,1.8,1-.1,1.1-1.5v-.9l2.9-2.7.4-.8h1.2l-3.9,8.3.4,1,.4.5.7.2v.8l-1.5.5-1.1-.5-1.9,3.4-1.1,1-.6,2.2-.9.8-2.9,7.6,1-.3-1.5,2.8.9.6,1.7-3.6,1-1.8.1-.4,2.4-3.8-.8-.8h1.7l.5-.6,1.4-1.2-1.9,2.9,1.8-1.2-.1.4-.6,1-1.2.6-2.6,4.7-1.5,1.6-1.5,3.7-.1,1,.6.3-.2,2.2.4.1,1.3-1.8.7.2,2.4-3.2,1.2-.4.4.4-2.3,3.3-.4,1.9-1.6,2-.8,2-.5,3.8.3,1.5,1.7,1.5,1.5-.6.3.3-.6.8.9.6-.6,1.6,1.2-.2v.6l1.2-1.8,2.4-1.2,1.3-1.3,4.9-6.5-2.6,5.7-1.7,1.1-.4,1-2.1,1.8-1.3.2-.8,2.2-1,.8.2.4-1.4,2.9-1.1,1.5-2.5,1.6.7,1.6-.5,3.9-1.3,5.1-1.4,1.4.8,4.3-.6,1.8-.1,8.5-.6,1.8-1.6.3-.3,1.1-2.5,2.5-.5,8.9.4,1.2,2.3,1.2,2.3-.3,2.4-1.8,5.1.1,2.8-1.8.1-.8,2.6-3.4-.4-3.4-1.8-3.1,1-.3-.1-.7-2.7,1.6-1.4-1.2.3-.4,1.1.5,1.9-1.2.5-3.8,2-2.1.4-4.3.9-.2-.2-4.6.8-1h.6l.4,1,.6-.5v-1.8l-1-1.4-.5-4.5.8-.7.6-3.6.6-.5.1-2.5,3.4-4.6,2.7-1.6h1.5l.8-2.1-1.6-4.8-1-.8-2-3.3-1.7-.2,1.2-.7-1-1.9.5-.1-1.1-.9-.6-5.8-.9-2.9-.2-5.2h.9l.3,1.1,1.1.5h1.1l.5.4,1.5-2.4,1,.1.4-3.1.8-1,.6.1,1.1-.8,1-2.8,1.6-1,.1-1.8,1.1-1.6,2.8-2.4,3-.8,1.7-1.5.8-1.8-.4-1.4.4.5,2.1-4.8,1.2-1,.4,1.4,3.1-1,4.9-3.2-3.6,3.6-3.6,1.7-1.5,1.5-1.4,3-.2,1.9-1.2,1.2-3,2-1.9.3-1.4.8-.5.8.1,1.7-4.7,5.7-1.9,4.8-.6.5-.6.6-.9,3.4,1.1,1.8-1.1,3.2.3,1.1-.6,2.4.8.9.9.6.7.7.3.2-.4,2.1.4.5,1.2-.1.1,1.1,1.9-.2.6.9,1.4.3.6,1.2,1-.2-.3-3.2-2.2-4.2.2-1,1.9-1.5.8-2.1-.5-1.1.5-1.6.4.1-.2,1.4.7,1.5.8.1,3.4,3.5,2.4.2-.5-4.3-2.2-3.9-.7-2.7.4-1.2,1,4.1,2.3,2.2,1.8,7.8-.2,1.2,4,1.1.5-2,1.4-2.1,1.1-4.9.8-.5.8-2.4-.5-1.1-2-.8-.1-1,.8-.2,2.4,1.4.3-.6-1-7,2.3-4.5-2.2-2.7.6-3.7-1-2.2.9-.5,1.1,2.9-.5,2.3.3,1.7,1.5,1,1-1.9,1-.8.3-1.8,2.5-5,2.5-2-.2.8-2,2.1-2.7,6.2-1,.9-2.6,6.3v.9l.8,1.3v2.4l.9,1.4v1.5l1,.8,2.1.1,2.5-.8-.2-1.4-1.4-.2-.3-1.1-1-.5-.9-1.8-1-2.8.6-2.3.9,1.5-.1,1.4,1.9,3.2-.1,1.2h1.2l.5.8,2.6.9.7.7.4,2.7,3.6,1.7-1.5,1.2-1,.7-1.2-.4.5-1.5-6.2-2.2-.7,1.6-.9-.5-3.6,2.2-.3,3.4.8.3-1.7,2.1.6,1,.1,7,1.8,4.4.2,2.3-.9,1.2-.2.2-.7.1v.8l-.6.2-.5.6-.1,3.5,2.7,1.9,2.7,4.2-.2.9h1.3l.9,1,.7-.6,1.2.5,3,1.8,1.9,1.9,1.3,2.9-.3,1.8-.6.6-.6-.3-.1.5,1.4.7.6,1.6,1.4,1.1.6,2.1-.6,2.3-.9.6.1,1.4-.7,1.3-5,2.1-2.1,2.6-.4,4.4-2,1.4-.4,1.3-2.3,1.7.5,1,.1,3.9-1.7,3.7-.1,2.6-3.1,2.8-1.7,3.5h-.8l-2.6,2.9-1,5.3-2.3,3.7-.7,3.1,1.8,5.8.8.5.8,1.8.8,3-.3.6-2,1.5-2.2-2.4-.5-3.8.7-.4.6.6.3-.8-1.3-.8-1.9-4.6-2.8,1.2-1.2-.1-1.6,3.6.5.7-.5,1.9.1,3.8,2.4,5.1-.1,1,2.8,3.4,3.1,2.1.7.9-.1.8,1.9,1.1.7,1.2-.1,1.9.9.5-.2,1.7,2,.6-.4,1.3,1.1,1.9-1.5,1.1.5,2.8,2.7,2.3,2.4.4.6.6,1.4-.3-1.4-.3-.4-1.6,1.1-3.1-2.5-2.3-.6-4.1-1.3-2.5v-1.5l-1-2.5,2.3-3,4-2.4,1.8-.2,1.7.9.4,1,1.4,1,3.6.7,2.4,2.6,4.4,2.7,1.1,1.5-.2.5.8,1.9,1.6.5.5,1.4.6-.2.5,1.1,1.7,1.1,6.4,2.6,1.8-1.4v-.9l.4.3.5-1.1v-1.2l-.7-.3-.3-1.2.7-3.1-.4-1.5.2-1.7.8-.3.2-1-2-4.1.5-.5,1.1,2-.8-1.6.4-.9-1.7-1-.4-1.6,3.3,2,2,2.1-1-1.4,4.7,1.3-.5.1.9.6v.8l.2-.8.7.3-.1,1,1-.2-.2,1.4.9-.7,1,.6.3,1.3,1.4,1.6,1.6.4.4-.8,1.1,1.6,1.1.3.1-2.9.5-.8,2.3,3.2,3.9.2,1.3-.4,1.5-1.7,4.1-1.6,1-1.4,1.4-.2,1.1-2.1.6.5.8-1.6,2.5-1.4,1.2.1-1.1.9.3.7,3.8-1.2,3.6,1.1,4.5-4.8.7-1.4,1.1-.1,1.1-2,1.6.5.7-.8,2-1.2v1l1.3.6,1.3-.7.2-1.5,1.3-1,4-1.19L816,844.55l.5.4.9-.9.5.5-2.2,4.7-.9.4-2.3,3.5-1.2.5-2.1,2.9-1.6,2-.1.5.6.8.9.5.2.4-1.2,1.3.3.6.4-.3h.8l-.1,2.5-3.4,3.6-1.3,3.3-3.8,4.9.5,4.6-.7,2-.1,2.8-1.4,3.8-1.9,1.3-.1.7,1.2,2.3,1.4,1.1,2,3.5,4.5,5.6,1,1.8v1.2l2.5,3.2.9,3.1.1,3.1,5.1,8.5.7,1.9-.3,1.3,2,2.5.5,1.4,5.2,10h2.1l.1-1.8-2.6-1.4-.6-2.7.7-1,1.5-.2,1.9,1.6,1.5-1.1,2-3.6,2.3-2.6.5-3.1,1.3-1.8,1.5.9.8,2.4,2.2,2.3,1.9-.4,2.2-5,1.5-.3,1.1.4.3,3.1.4.1-.5-.1.9,1.8,2,.9.3,4.7-2.9,3-2.2.9-1.3,1-.4.5-.5,2.3-.2.5,1.5.3.2,3,1.4,3.4-6.3,3-3.1.6-1.3,1.5-.7,1.7.6,2.3L832.6,971l2.7,2.7,4.9.8,4.4-.6-.8,1.3-2.2.8-2.8,2.5-4.1,5.5-.8,2.9-.6.9-1,.3-2.4,6.7-.1.6-.4,1.1,2.3,1.8.9,2.4,3.2,4,.8,1.9,1.9,5.5,1.4,1.5,5.8,4,1.1.1.4-1,.7.4.4.8,3.5.2.1,1-1.2,1.9-.7-.6-2.2-.2-2.1,1-1.7.1-3-1.7-1.9-2.6-3.1-10.6-.7-.9-1.3.1-1.6,2-4,1.2-1.8,2-2.4,1.1v.8l.9,1.6,4.3,3.3.9,2.7,2,2.4v.6l-.9.5.3.9,1.5.6.2.6.3,0-.4,2-.5.4-.8-.4-3-2.7-1.1-.4-1.7-2-3.9-2.9-1.4-.5-.9-1.7-.6-2.1h-.1l-1.1-1.2-2.9-.3-6.6,1.9-2.7.9-3.1,2.7-3.8,1.7-3.9-.1-3.7-.7-.6-1.7-1.7-.5-1-1-2.5.5-1-1.5-2.3-.5-.7,1,.8.6v1.5l-1.2,2.2-2.2,1.9-3.3,1.2-5.8-1.8-1.6,2.2-1.1,1.6-1.8.8-1.6,1.7-2.2.8-.8,1-.3,2.2-1.9,1.2-2.4,3.3-4.1,2.5v.8l.7,3.2-.4,3.2-.8,1.6-3.5,3.6h-1.6l-2.1,3.2-.7.2-2.4,2.6-3.2.2-1.5,1.2-1.3.3-1.1,1.8h-1.1l-1.2,2.8-1.3.6-.3,1.4-1.8.6v1.8l-1.8,2.2-.1,1.2-.9.7.6,1,1.6.7.9-2.2,1.2.2.7.8,1.4-1.2,1.4.5,2.5-2.5,2,.7,2.2,1.8-.3,1.3.9.9.8-1.5,1.8-.2.2-1.1-1-1.5.4-1.8,1.5-1.1-.2-1.2,1.7-1.6,3-.8.2-1.2,4.2.2.2-1.2.7-.5h3.2l2.1-1,1.8.5,2.2,1.6,2.7,5.4-.5,2.1-1.6,1.2v.9l4.6,6.5,1.1,2.3.3,3.4-2.4,2-2.1,6,2.4,4.1,1.1,3.5.8,1,.6,4.9-1.8,3,.1,2-.8,1.9.2,1.6-1.5,2.4-1.7,5.3-1.9,2.8-2.1,3-1.9,1.5-1.7.5-4,3.4-.6-.3-1.1.6-.8-.9-.8.4-3.2,3.8-2.7,1.7-2.9,2.6h-1.7l-1.2-.9-1.1.7h-3.7l-.2.5-2.6.4-.1,1.4-1.1.8-1.5-1-1.1,1.4.4.6-1,2.1-2,2-2.9.8-.6,1.1.5.9-.7.9-2.2.2-.5-.3v-.8l-1-.4-.6,2.5-3.2.8-.1.5-.9-.4-.4-.4.6-1-.3-.2-.3-.9-1.7.5-.3-.5-3.2-.6.2.5-1.1,1.1,1.1,1.1-1.5,1.1,1,.9-.5.5.1,1.2-.8-.2-.5,1-1.3.2-.8-.5-.9,1.7-2.7-.2-.3,1-.8.3.2.6-1.6.3-1.4,1.4-1.9.1-1.1.6-.6.6.7-.1.3.9-1.1.9.5,1-.8,1.4,1.4-.3.1.7,1.9-1.4,1.1.3.2-.5,1.6-.1.6.7H700v.6l2.6-.3.7,1,1.4,4.7-.6,3.6-2.9-.1-1.7,1.8-1-.1-.6,2.2-2.6-.4,1.5,1.5-.3.5,1.4-.3.7,1.1.8.2v1.9l.9,1,.4-.8.8-.1v-1.4l-.6-.6.3-.8,1.7.2.5-.4.7.6,1.1-1,.8,1.4,1.4-.1,1.8-.3,3.1,1.2,3.1-.9,1,.4.8-.6.8-.1.3-1.8-.8-1.1.5-2.1-1.1-1,1.1.4.6-.4-.7,2.9.9.9-.1,1.5-.1.2-.4.9h-.9l-.7.8-1.1-.4-1.5.5-1.1.5.2,1.4-.7-.3.3-.6-2.9-.6-1.5.1-.5,1.5-1-.1-.3-.9-1.6-.2-1.3,1,.5.8.2.1.6.6,2.2.5,1,2.3v.4l-.6.7.2.8,3.3,1.2,1.2-.4,2.4,1.5,1.4.1.8-1.5,1,.1-.4-.8.4-1.1,2.1-1,.2-.8,1.8-.1,3.1,1.2.7-.9h.9l.1-.9,2.8.1v-.7l1.2-1.2-.5-.5.2-.9,1.2-1.3-1-.8v-.8l1.3-1.4,6.8-1.1,5.2,1.4,1.5-.1,2.9-2.2.4,1.1.4.3-2.5,1.1-.2,1.4h1.4l1.8.5.7.6,3.5,3.2,1.6.1.5.6,2.7-1.9,1.5-.4.8.4-2.5.8-.2.6,1.2.2-1.6.8-.5,2.3-3.3,2.2,1.1,1.8.2,1.7-.9,1.2.2.4,1.5-.3,4.4,2.5.5.1v-.8l.7-.4,2.6.7.5-.4-.6-1.4,1.8-1,3.9,1.1,1.7-1.1.8.5,3.4-.3-1-.8,1.4-3.2,1.2-.5,1.8.4,1.9-.8-.2.4,1,.2-.1.6,1.3-.5,2.6,2.1-.3,1.2,1.9,1.3,1.8,5.2,2.5,3.3,1,.4,3-.2,1.2,1.8,2.6,2.3,2.1,3.4,8.7,1.4,1,.7,2.6-.5,1.5.3,2.1-1.1,1.9.7,3.4-1.7,1.5.8,2.1-1,.3-3.7,1.4-1.1.4-1.3,2.1-2.2,7.4-4.1,3.1-.5,1.9.4.7.1.4.3-.7.8,1.2.3,4.1-1.3,1.1.7,1-.6,2.2-1.5,1.3-2.9.8-.1.7-1.3,2.1-1.1.6-2.9-.14-.21,1.34-2.69,3.5-4.2,7-7,2.9-1.9-.2-1.1-1.7-1.1.1-1.2,1.2-1.1,2.1-.1.7.8.2,1.5-1.1,3.4-1.1,1.5-3.6,1.6-2.4,4-.2,1.2-2.3,1.9-2.1,4.3-5.1,5.4-.3,1.6-1,1.5-.7,1-1.1,3h-.7l-.3.8-2.5-.2-1.8.9-5.3,5.7-1.8,2.9-4.3,1.2v1.2l-2.4,4.7-.5.6-.9,3.4-2.2,2.7-.1.5,1.2.7,1.4-.1.2.5-1.9,1.2-2.1,1.9-6.3,1.2-5,2.1h-4.5l-3.3-.3-3.2-2.9-.9.4-1.9-1.4-2.9-.8-2.2.1-.7.8-2,.7-.9-.8-5.21-.79h0l-3-.4-1.1-.9-1.5,1.6-2.5-.3-2.8,1.1-2.1-.8-2,1.2-4.3.3-1,.9-3-1.1-.5.7h-2l-2.9,1.3-1.8-.1-.5,1-1.4.3,1.1.6-.3,2.9-.5.7-2.1.2,1.1.9-.1,1.1,1,.6-.6,3.1,2,1.6.6,1.2-2.3-1.5-.5,3.3-1.5.5-2.8,4-2.1.6-3-.5-2.3-2-2.7-.7-3.5-.1-.6,1.5.4,2.2-1,3.3.2.8-.5.3.1,1.1H739l-.4.3-.9,2.2.8,3.8-.3,8.2-.8,1.1-2.4,1-.4.9-1.3.6-.8.6-.2,2.4-1.5,1v.9l-1.1.2-.5.8-1.3.2-.2,1-.9-.3-1.3.7-.2,1.3.4.5-1.9,4.8-2.2.8-1.6-.5-.6.6-.6.3-1.2.7-1.2-.2-1.1-.9-.7.7.9.8-.7,1.2-.1.7-.8-.2.2-.9-1.7,1.1-.8,1.4-2-.2-.5-.6-.8.2.7,2.2-.2,1.6-1.1,1.2.7.9-.8,4.7-1.8,2.2-1.5-.7-.4,1.2-2.5.8v1l-.7.6.5,1.2-.8,3.1-1.2.5.1.6-1.3,1.3-2.2.3.1,1.2-1.1,2.3-3.3,2.1-1.6,1.8-2.5.7-.6-.8-1.1.3-.5,2.2-2,2.2-.1-.4h-2l-.6-1.8-3.9.3-3.2,2.7-.6-.4-1.8,2.4-2.8.2-2.4,3.8,1.2,3.8-1.2,1.1-.4,1.4.6.8.8.1.1.9.8.9,1.6-.3.5-.6.5.4,1.1-1.1,2.6-.1,2.2-1.8.6-1.8-1-1.7.2-.3,1-.5v-.9l2.8-.4.3,1.1,1-.7.8.9-.3.4,1.1-.1.6,1.3,1.2-.7,1.1.1,1.8,1.3,1-.3,1.6,1.1.3-.3,2.3,2.8-.1,1.4,1.1.8.3,1.9-.6,1,1.5,1.8-.2.9,1.7.6.7,1.5.8-.8h.7v-1.7l1.2-2.2,2.7-.6,1.4.6.7-1.2-.3-1.2,1.8-.7.1-1.4.6-.4-.8-1.5-.7-.2.3-1.7-1.9-.1.7-.3-1.5-.7-3.6.6.6-.5,1.1-.1.4-.9.5.7,2.7-.4.6-.7-.6-.5-.1-1.1,1.2-.8-.2-.6,1.3-.7.8.4-.5-1.2-1,.3-.8-1.4,1.3.6.7-.8.2-.6-.8-.4-.3-1.3,1-1.3,1.1-.5.2.1-.7.6.6,2.1.5-.1-.6,2.6,1.4.1-.8.7.5,1,1.8-1.2-.1-.6.7-.7-.1-1.9,1.1-1.8,1.5-.4.9,1,1-1.6,2.5-2.2,2.8.4,1.3,1.1v-1.1l1.1-.8-.3-.7,1.2-1.1-1.2-.5-.2-.8.8-2.4.7-.6.7.2-.9-2.1.6-1.2,3.5-1.2,1.2.6-.2,1.8.8.6.4-.9.9-.1.8-.6.3.6,1.7-.4.5.5,1.2-.8,2.6.8,2.2-.6.3-.6,1.5.5.1-.7,1.5-.4-.1-.9,1.4-.9,7.1-.1,2.2.7,3.1,2,.6.8-.4.7.3.8.8-.7,1.4.1-.8-1.5,2.2-1.6-.6-1.1-.8.3-.7-1.1-.2-2-1-.6.4-.5.5-1.1.4-1.9-.8-3.1.9,3.2-.4,1.9-.1,1.2,1,.9.3,2.1,1.2.1.1.7,1.3-.5,1,.6.3,3.9,1,.5,1.4-.5.7.8-.2.7,2.3,1.1,3-1.5,1.8.4,1-.4.2,1.1,2.1.2.8.7-.2.9.9-.2,1,1.6.7.2v1.8l-.7.1.2.4,2.8,2.1,2.1.8.5-.6-.1-1.1,1-1.4.5.1-.5-2.1.4.8.2-.08.4-.32-.27.27.17-.07-.2.1-.2.2.1,1.1.8-.2-1.2.4-.7,1.2,2.3.9.9,1.3,1.1-.4,1.5-1.6,1.6.4,1-.3-1.1-1.7,1.1-5.2,1.9-2.7,2.5-.7.5-.9-.62-1.15,1.82,1.15,1.6-1.1-.2-1.1.8-2.1,3.2-2-.7-6.4-1.8-5.2h-.8l1-2.8,1.6-1.8.1-1.4,2.7-3.1-.1-.5-.7.3-.5-.6-.4-2.5.3-1.1.2.4-.2-.8.4.6-.3,1.2.5.6.1-1.3.1.9.3-.1-.4.6.4-.1-.5.4.6.3-.4.1-.1,1.3.4-.8,2.8,1.7,1.6-.1v-.8l.8-.6,1.8-.8.8.2,1.6-3,1.6-1.5,4-1.1,6-.1,1-1.7,4,.3,4.4-1.9v-.1l2.3-1.5,7.3,1.5,9.8,5.3,6.7,5.1,5,5-.4,4.8,2.6-3.6-.8-1.7.4-.3-2.4-.2-.6-1.2,1.3-1.7,1.1.5-1-.5.5-.8-.6-.5,1.6-2,5.5.3,1,.7,5.2.8,2.7-.7.7.8h1.8l.7.8.8-.5.5,1,1.2.7,2.6.2.6,1.7,1.8-1.2,4.8-.6.5-1.3-.8-.1-.1-.9,2.1-2.5-1.1.2-.6-.5-.2-1,.7-1.7-.6-.7,2.2-2.3,2-1.1,3.4-.6,5.1.9,1.2-2.1,2.3-.5.6-1.4h.1l-.7,1.5,6.1,1.5,2.8,1.6-.4-.9,2.5-2.7,2.9-1.6,3.5-.9,2.5-1.8,1.8.1,1.4-2,1.3-.6.1-.6-.8-.7-.8.6.6-.7-1.4-2.1.8-.8,1.7,1.9,5.4,2.4,1.5,2,1.8.5,1.2,1.1,2.5-1.2.8.8,3.1-.8.3.4-.1-.4.8-.2.7,1.6.3-.6-.8-.7,5.5.7,1.1.1,3.3,1.6,4.7,3.8,2.7-4.1,2.7-1.3,8.8-2.1,11.1-.7,5.3-1.7,3.5-.5,7.8,1.2.8.3-.2,1.2,1.3.3v-1.2l9.4,3.4-.3-.5.9-.1,3.3,2.4,1.1.3.9-.4,3.4,2.1,3.1.3,2.7-3.7,1.9-1.3,1.3-2.3,1.5-1,2.7-1.2,11.1-2.3,3.7-1.3,1.3-.7,3.7-3.8,2.8-1.4,2-.2,2.72.58,0,0,5.8,1.1,2.1-.1.4-2-.7-4.4.2-2,1.5-2.7,2-2.2,4-2.2,6.2-.8-.4-.3,1.1-.3.2-1.1,1.2-.6,2.6-.3,2.2-1.1,1.5.2-.9-.3.6.1-.6-.5.2-.4,1.3-.4.3.6v-.9l2.3-1,1.7-3.4-.1-5.6-1.3-5.9.2-2.9,2.8-.8,1.3-5.2-1.3-2-.7.5-2.4-.2-1.1.7-1.9-.1-1.2.6-1.3-.3-2.6.8-2.3-.5-3.9.8-4.5-.1-2.8.8-.2-.6.1.6-2,1-2,.1.2-.4-.6.4.4-1.3-1.5-2.8-3.1-2.2-4.3-.8-1.7-1.2-3.8-.8-.6-.5.1-2.1-3.5-1.5v-1.7l-11.6.5-1.5.6-1.1,2.1-1.4-1.1.1-1.2,1.1-1.4,4-1.2,3,.5,2-.3,2.7-1.5,1.9.1,2.5-1,3.8,1.3,9.7-6.5,1.4-2.3H1081l2.4-6.7-.5-3.7.6-2.1-1-1-1.3.1-1.5,1.1-.7-1,2.6-2.4h3.5l.8-.8,1,.3-.5-.5h1.1l.1-2.1.5-.1,1.4,1.2-1-.6,1,2.7,4.8-.5,1.3-.3,6.6-4.6,3.3-4.6-.2-1.1-1.6-1,.5-.5-.4.3-.7-.4,1.1-3.3.7-.9,1-.2-.4-1.4h-4.4l2.3-.8.9.4,1.5-.7,1.4,1,.2,1.9,1.7-2.5,1.5-.7,1.7-2.4,2.2-1.8,1-2.4,1.8-2.3,6.6-3.6,2.7-10.3.8-9.5,1.2-2.4,1.5-1.1.9-3.7,2.3-5.2.4-4.9,2.1-3.5-.1-3.6ZM799.1,1318l.2-1.3-.9-.9,1,.7.29,2.58Z" />
	<path name="United Kingdom" d="M952.8 233.55 953.1 235.85 956.2 238.05 956.4 234.65 957.5 233.15 958 230.05 957.7 229.45 957.2 230.65 956.3 231.05 956 230.45 956.5 229.05 955.8 227.15 955.1 227.65 955.8 229.45 955.1 229.35 954.6 228.45 953.6 228.05 953.3 228.45 952.6 227.75 952.3 228.25 951.5 228.25 951.4 229.15 953.6 232.15 953.4 233.25 952.8 233.55" />
	<path name="United Kingdom" d="M632.3 629.35 631.1 629.65 630.2 629.05 629.6 628.95 629.9 629.75 628.9 630.25 629.4 631.35 630.1 631.55 630.7 630.75 631.5 631.95 632.1 631.45 632.6 631.35 632.8 630.45 632.3 629.35" />
	<path name="United Kingdom" d="M579.1 523.25 578.4 521.45 577.2 522.25 578.7 524.25 579.1 523.25" />
	<path name="United Kingdom" d="M636.3 626.55 637.8 626.45 639.1 624.45 639.4 620.35 638.9 618.95 637.5 617.85 635.8 619.05 636.4 619.75 636.2 621.45 634.2 621.55 633.2 622.85 633.4 624.95 636.3 626.55" />
	<path name="United Kingdom" d="M667 706.55 666.5 704.45 666.8 703.75 665.8 702.75 663.4 704.15 662.8 705.55 662.4 705.35 661.9 706.35 662.4 707.45 665.2 707.55 666.3 706.45 667 706.55" />
	<path name="United Kingdom" d="M633 672.95 633.5 673.55 634.2 673.55 634.5 672.85 636.2 673.15 637.4 672.15 636.1 671.05 635.1 670.85 632.3 668.85 631.6 668.85 630.9 669.15 629.2 669.95 628.7 669.05 627.4 669.15 627 669.05 627 671.35 627.9 671.55 628.6 671.05 628.9 672.25 629.4 671.65 630.8 672.25 631.3 674.05 631.8 673.55 631.5 672.75 632.5 672.75 633 672.95" />
	<path name="United Kingdom" d="M633.1 594.25 634.1 594.75 634.9 593.95 634.8 592.65 633.3 592.35 632.3 593.25 632 593.35 630.2 594.35 631.3 596.55 632.3 596.85 633.5 596.15 633.1 594.25" />
	<path name="United Kingdom" d="M576.2 481.55 577 486.75 577.8 487.45 579 487.15 580.8 486.35 581.5 485.35 581.9 486.55 580 487.45 579.6 488.45 582 488.55 579.4 489.45 579.4 490.05 580.8 490.95 584.6 489.25 587.2 489.05 585.5 490.05 584 489.85 581.5 491.05 580.3 492.15 580.1 493.65 578 492.25 577.6 494.65 576.4 495.25 576.1 496.15 576.8 496.45 577.6 495.55 578.1 496.15 578.3 498.75 579.1 498.95 579.7 498.45 579.8 499.45 581.9 500.65 583.7 500.35 583.1 499.25 583.4 498.95 585.3 500.75 586.9 500.65 588.3 501.85 588.8 502.35 592.3 503.15 592.9 502.55 593.3 503.35 591.7 503.75 592.3 504.65 595 506.45 593.1 505.95 592.8 506.65 591.5 506.55 590.9 505.85 588.6 505.35 587.2 506.35 586.6 505.95 586.6 507.25 585.7 507.95 586 510.25 585 510.85 584.3 510.25 583.7 510.65 583.1 513.05 582.4 513.35 582 514.45 580.9 514.45 579.5 515.75 578.6 515.55 578.5 516.55 578.2 514.45 576.8 513.65 575.1 514.15 576 516.65 577.1 517.75 578.2 517.95 580.1 521.25 581.6 522.45 582.2 523.25 582.3 523.85 583.4 524.15 585.2 526.95 585.8 526.85 585.2 525.35 586.4 525.95 587.2 525.65 587.6 523.35 590 522.65 589.4 522.25 589.6 521.05 590 521.05 590.2 521.45 591.7 521.45 591 519.45 591.1 518.85 591.8 518.85 592.1 519.25 592.7 518.95 592.7 518.75 592.3 517.05 592.9 516.95 593.3 518.25 594.1 516.85 594.7 517.05 595.4 517.45 596.7 518.05 597.1 516.85 596.9 516.35 596.3 514.55 597.8 515.55 598.6 516.05 599.2 515.95 600.1 515.35 599.8 513.55 598.9 513.55 597.7 510.55 597 510.15 596.7 510.85 595.8 510.55 595.3 508.85 596 508.45 596.7 509.15 596.6 508.15 595.8 506.95 597.7 506.85 598.6 507.15 599.5 508.25 602.5 508.95 604.5 508.75 604.2 506.65 601.5 504.85 602.4 504.45 603.4 504.75 603.9 503.95 601.8 500.15 600.7 500.25 600.9 499.25 599.8 495.85 598.6 495.25 598.7 494.25 600.7 493.15 602.2 490.95 604.1 489.35 604.1 488.45 604.4 488.45 604.4 489.75 603 490.75 601.4 493.65 602 495.65 601.5 496.85 602.2 499.45 602.8 499.65 603.9 502.55 605.4 504.65 605.8 503.85 606.6 504.15 607.1 504.75 608.2 504.75 606.9 502.75 605.9 499.45 607.2 500.95 607.7 500.75 608.6 503.95 609.5 505.05 609.9 505.45 610.8 504.95 612.3 504.65 611.8 499.95 613.7 503.35 614.8 501.75 616.7 502.05 616.9 499.25 618.1 498.75 617.8 498.15 618.2 497.15 617.7 496.35 618.1 495.95 616.6 494.45 613.9 494.75 610.6 494.05 613.4 493.95 613.3 492.85 614.3 493.75 615.7 493.55 615.1 492.75 616.9 493.55 617.1 492.45 617.8 493.25 618.2 493.95 619.1 493.35 619.4 493.35 620.2 493.15 622.1 494.65 622.1 493.65 623.5 492.55 624 490.05 621.3 489.85 619.2 489.05 623 489.05 623.4 487.15 622.6 486.75 623.4 485.75 622.6 485.45 621.6 484.75 621.5 483.85 621.8 483.15 621.6 482.55 621.4 481.45 619.1 482.85 619.8 483.25 619.3 484.15 618.5 483.45 616.7 483.45 616 483.65 614.4 483.65 613.3 484.45 611 484.35 610.8 485.15 609.9 484.25 613.2 483.55 613.3 483.15 614.4 482.65 615.9 482.55 617.1 482.65 618 481.35 619.8 480.35 618.9 479.55 618.4 479.75 617.3 479.25 617 478.95 617 478.65 619.8 479.65 620.9 479.55 622 479.65 623.2 479.35 623.2 477.95 622.9 477.45 623.3 476.85 622.6 473.85 622 473.65 622.4 472.65 622 472.35 621.3 470.45 621.8 469.85 622.2 470.95 623.1 471.25 623.7 470.85 624 472.45 624.7 472.75 625.4 472.45 625.6 471.65 625.8 471.45 626.4 470.85 628.1 470.55 629 472.45 630 472.75 630.2 473.55 631.1 473.55 633.2 472.55 633.2 471.45 635.4 470.45 636.1 469.55 636.5 468.75 635.8 467.85 636.9 466.45 636.5 465.65 637.4 465.15 637.7 464.15 636.3 463.55 635.7 463.75 635.2 464.95 633.3 465.55 632 467.85 631.2 468.45 630.5 468.25 628.2 470.25 627.7 470.15 627.1 469.85 625.1 467.35 626.3 465.85 625.8 464.35 626.2 463.25 628.6 462.85 629 462.25 628.7 461.55 629.3 460.75 629 460.25 631.1 459.65 631 458.05 631.6 457.05 632.3 456.95 634 454.45 636 454.05 633.8 452.55 632.8 450.85 634.3 446.25 635.6 445.15 635.7 443.65 634 441.65 634 440.25 634.9 439.15 632.1 436.45 632.3 435.05 631 434.45 630 433.15 628.2 434.05 628.8 434.45 628.8 435.55 626.9 437.75 625 438.05 623.6 440.35 618.7 443.15 618.2 444.45 615.5 446.35 614.7 447.75 613.3 447.95 611.6 450.75 611.7 451.75 609.7 451.85 608.2 453.25 607.4 453.65 607 453.95 605.9 454.35 605.2 452.95 604.8 453.55 604.2 453.35 604 454.35 602.8 454.85 601.9 454.95 600.5 455.95 600.2 456.85 598.8 457.55 597.3 458.05 596.5 458.75 595.5 458.75 596.1 459.65 595.4 460.45 594.9 460.35 594.1 461.15 594.3 461.65 594.7 462.35 595.5 464.15 595.3 464.85 595.9 465.45 596.7 466.95 597.2 467.25 598.6 469.05 599.8 469.65 599.6 470.15 598.7 469.95 598.4 470.85 599 471.35 599.9 471.55 600.4 471.65 600.7 472.65 600.7 473.25 600.3 474.05 599.2 472.05 598.6 472.65 597.2 471.85 596.4 471.25 594.7 471.15 594.3 470.65 593.6 470.85 592.9 471.75 592.1 472.05 591.3 472.55 591 472.75 590.9 473.65 590.5 473.65 590.1 472.75 588.7 472.75 588.2 472.55 587.6 472.75 585.7 470.85 586.9 470.75 588.9 470.85 589.1 469.65 588.7 469.05 587.5 469.15 585.9 466.95 585.4 467.45 585.6 468.45 585 468.75 583.8 467.25 582.4 466.95 581.8 467.35 581.9 465.95 580.9 466.65 580.9 467.35 580.2 467.45 579.6 469.85 580.1 470.15 579.3 471.65 580.2 472.45 579.8 472.85 579.7 473.55 578.4 473.15 578.2 472.55 577 473.25 576.7 474.05 577.3 474.35 577.7 476.15 576.8 477.25 576.6 477.95 576.1 478.75 575.2 478.55 574.8 480.55 575.6 481.55 576.2 481.55" />
	<path name="United Kingdom" d="M580.2 526.85 577.8 524.25 577.4 524.65 577.6 525.45 580.2 526.85" />
	<path name="United Kingdom" d="M602.1 509.05 601.4 509.65 601.8 510.65 602 511.25 602.4 511.95 603.3 512.05 603.9 512.15 604.1 512.55 606 511.75 605.8 510.75 605.2 510.55 605.5 510.05 602.1 509.05" />
	<path name="United Kingdom" d="M600.1 666.25 600.7 665.85 600.6 663.95 599.7 663.85 598.8 662.35 597.9 663.55 597.5 663.85 596.8 664.05 595.6 664.25 594.9 664.25 592.4 665.55 591.3 666.95 590.6 666.85 590.4 665.85 588.8 665.45 587.7 665.45 586.5 665.75 586.1 666.55 585.1 666.75 584.4 668.25 584.2 668.65 584.6 669.75 584.9 670.45 584.6 674.55 586.1 673.85 587 674.15 587.6 675.65 588.8 675.95 590 675.45 590.4 673.65 590 672.15 591.2 670.55 592.4 670.05 593.1 670.45 594.1 670.45 595.3 670.45 596.3 668.35 595.4 667.45 595.8 666.55 597.5 666.15 598.2 667.15 598.9 667.15 598.5 666.15 599.4 666.45 600.1 666.25" />
	<path name="United Kingdom" d="M591.2 466.75 591.2 467.25 591.9 468.35 592.3 468.25 592.4 468.95 591.3 468.55 591.8 470.05 595.8 470.05 597.1 470.75 597.1 468.65 596.8 468.25 596.2 467.75 595.3 467.25 595 466.15 593.9 466.25 592.9 464.15 590.7 464.15 590.3 463.65 590.5 465.95 591.2 466.75" />
	<path name="United Kingdom" d="M629.6 719.75 629.5 720.55 628.7 721.15 629.3 721.45 630.5 720.65 630.4 721.75 629.8 722.25 628.8 722.95 628.9 723.25 629 723.95 630.3 723.85 629.8 724.75 630.3 725.45 631.8 724.25 631.8 723.25 632.8 722.95 633.1 723.55 633.6 722.85 633.3 722.05 634.8 720.35 634.5 720.05 635 719.35 634 718.55 636 716.35 636.4 714.65 638 711.75 637 710.35 635.1 711.95 635.1 713.45 633.9 712.95 633.1 713.25 633.2 713.85 631.7 714.65 630.7 716.05 630.4 717.05 629.9 718.05 630 718.85 630.5 719.05 630.4 719.65 629.6 719.75" />
	<path name="United Kingdom" d="M664.6 708.45 663.7 708.85 663.8 709.75 663.3 709.35 662.3 709.85 662.3 710.75 660.4 711.95 659.9 713.05 658.9 712.75 658.7 713.65 657.5 714.45 657.6 715.25 656.6 715.25 654.9 716.45 649.3 721.25 648.5 723.55 646.4 726.35 646 728.35 646.8 728.15 650.2 729.85 651.5 729.45 651.8 728.35 653 728.25 653 727.75 653.5 727.75 653.7 728.75 651.6 730.05 651 729.75 644.7 731.15 643.6 731.95 641.7 735.85 641 736.25 640.3 739.65 640.9 740.65 640.9 744.25 642.3 747.05 643.9 747.65 644.1 748.25 645.8 747.95 648.7 748.65 649.4 745.85 650.2 744.85 649.5 743.95 650.4 740.35 651.2 739.75 652.5 740.35 653 739.75 652.9 737.75 653.7 737.75 653.4 738.95 654.3 737.75 654.1 736.05 656.1 732.05 655.7 731.85 656.7 728.65 657.1 728.95 657.7 728.35 659.4 723.85 660.4 723.45 661.8 719.95 666 712.75 665.6 711.45 666 710.75 664.6 708.45" />
	<path name="United Kingdom" d="M672.2 701.95 672 700.15 670.9 699.35 670.2 701.65 670.7 703.35 672.2 701.95" />
	<path name="United Kingdom" d="M670.3 689.05 668.1 691.85 668.3 692.45 669.3 692.65 669.1 694.35 669.9 695.55 670.7 694.85 670.6 694.25 671.5 693.85 671 692.25 672.1 691.35 671.9 689.15 671.3 689.55 670.3 689.05" />
	<path name="United Kingdom" d="M975.1 196.45 974.3 197.55 973.5 199.05 974.9 197.75 976.3 197.95 975.7 197.35 975.9 196.45 975.1 196.45" />
	<path name="United Kingdom" d="M669.4 696.65 669.5 695.45 669 694.85 668.3 695.55 668.1 697.65 667.9 698.55 667.3 700.75 668.2 701.95 668.3 703.45 669.2 703.95 669.6 703.45 669.3 700.65 670.3 697.45 669.4 696.65" />
	<path name="United Kingdom" d="M663.7 755.55 663.4 756.25 662.9 756.15 662.7 756.85 663.3 756.65 663 758.05 662.5 757.85 662 759.75 660.8 761.55 661 762.55 661.7 762.55 661.1 763.95 661.5 764.95 663.3 763.45 663.6 762.55 663.1 761.45 664.2 760.55 663.3 760.35 663.9 758.95 663.3 757.75 664.5 756.35 663.7 755.55" />
	<path name="United Kingdom" d="M611.3 603.45 611.2 604.25 609.5 604.15 607.6 605.65 608.9 606.75 610.7 606.25 611.8 604.95 612.4 604.95 612.8 605.05 613.9 604.95 614.2 606.45 615.6 605.95 616 606.45 617.1 606.45 616.8 605.85 615.6 605.15 615.6 603.75 611.3 603.45" />
	<path name="United Kingdom" d="M630.7 609.25 629.9 607.35 628.5 606.95 627.9 605.95 625.6 604.55 621.2 606.55 620.4 608.05 617.3 610.65 621.4 614.45 622.5 614.65 623 617.05 624.5 617.45 625.5 618.95 626.7 619.05 627.8 618.25 628.3 617.05 629.9 616.05 631.3 611.05 630.9 610.55 629 610.35 629 609.75 630.7 609.25" />
	<path name="United Kingdom" d="M606.2 660.55 607 658.75 608 660.25 608.8 659.35 610 659.25 610.8 658.85 611.8 657.95 613.3 656.95 613.5 654.55 614.5 655.45 615 654.95 617.9 648.85 617.8 647.35 616.6 646.95 615.3 647.15 614.8 647.55 614.5 648.25 613 648.75 611.8 650.65 610.5 651.05 610.6 651.75 609.8 652.35 608.8 653.15 608 653.15 607.6 655.05 606.5 655.45 605.9 657.35 605.1 657.45 605.2 658.25 604.2 658.45 604 657.75 602.8 659.55 602.3 658.95 601.8 660.15 602.4 660.55 602.7 662.05 603.6 661.45 603.8 659.65 605.4 659.45 605.8 659.65 605.6 660.55 606.2 660.55" />
	<path name="United Kingdom" d="M645.2 760.65 644.8 759.35 644.4 758.75 643.8 757.85 644.5 756.25 643 754.25 643.4 751.85 641 749.85 639.8 746.55 639.9 743.35 638.8 738.65 638 737.55 638.8 734.25 638.8 732.75 638.3 732.25 635.6 732.55 634.9 733.55 633.4 733.35 632 734.95 631.2 736.25 628 738.95 626 739.25 625.8 738.05 625.4 737.45 621.9 739.95 621.2 741.25 619.9 741.95 618.9 741.05 618.6 741.65 617.3 741.95 617.3 744.25 616.7 744.75 617.3 745.25 617.1 746.75 615.3 748.55 615.4 749.15 616.8 749.35 617.1 749.85 617.1 751.15 616.4 752.65 616.9 753.15 615.7 753.65 614.7 754.95 614.1 756.75 614.8 757.25 614.6 758.25 612.9 759.65 613.8 760.35 614 761.55 615.4 762.25 620 758.35 622.7 754.05 624.1 749.95 625.6 749.35 627.6 749.55 629.1 750.95 629.1 751.95 627.2 753.25 625.5 753.65 624.8 755.65 624.7 757.15 626.5 757.25 628 758.65 629.7 762.75 629.5 764.35 627.4 764.45 625.3 767.95 625.6 769.05 625 771.15 626.6 771.45 626.7 772.15 629.5 772.45 630.1 771.25 631.2 770.95 633.1 767.75 632.6 767.05 632.9 766.65 634.2 766.35 634.7 767.35 636 766.55 637 767.15 640.9 764.65 640.6 765.85 641.7 765.35 642.2 763.65 642.9 763.25 642.7 762.85 643.3 762.45 645.2 760.65" />
	<path name="United Kingdom" d="M674.5 683.25 677.9 678.75 677.9 677.95 678.5 677.75 677.9 677.35 675.9 678.55 675 679.25 673.8 679.25 672.2 682.45 673.8 682.25 674.4 682.65 674 683.55 674.5 683.25" />
	<path name="United Kingdom" d="M544.2 631.25 542.6 632.15 541.9 631.95 542.6 633.05 542 634.25 542.3 634.95 543 634.95 544.3 634.25 543.9 633.35 544.6 631.25 544.2 631.25" />
	<path name="United Kingdom" d="M541.4 550.95 542.6 550.55 543.5 551.35 544.2 550.85 544.4 552.05 543.7 552.35 544.6 552.35 545 551.15 545.9 550.95 545.4 550.65 545.9 549.95 545.2 549.55 543.8 550.75 542.9 550.25 543.2 549.65 542.7 549.35 541.4 550.65 540.9 550.25 540.6 551.25 541.8 551.45 541.4 550.95" />
	<path name="United Kingdom" d="M545.8 628.95 547.6 629.15 548.5 628.25 547.1 627.55 546.1 627.75 546.4 628.25 545.8 628.95" />
	<path name="United Kingdom" d="M543.3 637.15 544.9 636.45 542.9 635.75 541.8 636.35 543.3 637.15" />
	<path name="United Kingdom" d="M549.1 619.55 549.1 620.35 548.1 620.35 548.9 621.85 549.9 621.95 550.1 621.45 550.8 621.65 551.8 621.05 551.8 620.55 549.9 620.55 550.9 619.25 553.1 619.65 552.2 618.95 549.5 618.65 550.1 618.25 549.9 617.85 547.6 617.45 548.1 617.95 546.8 618.95 549.1 619.55" />
	<path name="United Kingdom" d="M549.5 623.25 549.9 624.65 551 625.45 551 624.95 552 625.35 552.1 624.45 552.6 624.75 552 623.25 550.3 622.85 549.5 623.25" />
	<path name="United Kingdom" d="M688.5 760.35 686.3 761.45 684.4 766.95 684.4 768.95 687.3 773.45 687.6 774.95 686.8 780.55 688.6 781.45 689.4 785.05 692.7 787.05 693.1 788.05 693.1 787.65 693.8 788.25 697.5 788.65 699.3 787.55 700.8 787.35 702.1 787.95 704.1 786.15 704.4 785.05 703.4 782.25 704.3 779.95 701.8 778.55 701.3 777.65 704 775.25 702.4 773.05 699.7 772.05 699.6 771.05 701.2 768.95 700.5 765.15 699.1 761.25 696.6 758.65 692.7 756.45 691.2 757.05 690.7 757.85 691.2 758.45 689.4 758.35 688.5 760.35" />
	<path name="United Kingdom" d="M703.4 777.25 703.6 778.35 705.1 779.85 705.1 778.45 704 776.95 703.4 777.25" />
	<path name="United Kingdom" d="M714.6 753.85 715.4 752.85 715.9 751.45 715.3 748.45 713.5 749.25 712.2 752.75 712.5 754.05 714.3 752.85 714.6 753.85" />
	<path name="United Kingdom" d="M574.6 529.25 575.8 529.25 573.9 528.25 573.9 527.25 574.5 526.55 573.2 525.55 570.8 526.05 569.1 529.65 572.2 529.95 572.5 528.95 573.2 529.25 572.6 528.05 573.1 527.75 574.6 529.25" />
	<path name="United Kingdom" d="M698.6 742.05 700.7 742.85 700.1 746.45 700.5 747.65 701.3 747.55 701.6 750.95 703 750.35 705 752.25 705.7 755.25 707.4 756.65 709 755.75 708.7 754.25 707.7 752.95 709.3 751.25 708 746.75 707.8 742.95 705.7 743.45 705.4 741.15 703.7 740.75 704.5 739.55 704.3 738.65 702.1 737.45 699.1 734.05 697.7 733.75 695.2 736.35 695.7 736.85 695.7 738.15 698.6 742.05" />
	<path name="United Kingdom" d="M565.9 530.25 566.2 528.35 565.3 527.75 564.5 528.25 564.6 529.45 565.9 530.25" />
	<path name="United Kingdom" d="M569.5 523.15 570.9 521.85 569.9 520.25 569 520.15 567.2 520.75 566.6 521.85 568.1 523.25 569.5 523.15" />
	<path name="United Kingdom" d="M575.1 493.45 576.1 494.45 576.9 494.35 577.2 493.45 576.7 491.45 575.2 490.25 573.3 490.85 572.7 491.65 573.9 493.75 575.1 493.45" />
	<path name="United Kingdom" d="M550.3 543.05 551.1 542.85 551.7 543.75 552.2 544.35 553 544.65 552.9 545.65 554.7 545.95 555.7 546.05 557.2 548.05 557.4 548.25 559.9 550.95 559.9 553.95 561.4 553.55 562.2 553.05 562.7 554.15 564.5 554.95 565.3 554.45 566.5 554.95 567.1 555.05 568.3 555.85 569.1 555.85 570.7 556.45 571 555.75 570.42 554.72 571.5 555.35 571.2 556.65 572 557.15 573.5 555.35 572.5 554.95 573.1 554.75 573.6 554.55 572.8 553.95 572.9 553.35 571.9 553.25 570.9 553.65 570.6 553.65 570.33 554.55 569.6 553.25 569.6 552.45 571.2 552.55 572.4 552.45 574.2 552.35 574.3 551.65 574.3 550.65 575.2 549.45 574.8 548.75 575.2 547.25 574.5 546.75 576.3 545.65 577.3 542.45 576.5 542.15 575.6 542.95 574.7 542.65 574.1 543.25 573.5 542.75 573.9 542.25 573.8 541.45 573.7 540.85 574 540.25 573.5 539.55 574 538.75 574.2 538.55 574.5 538.65 575.1 538.85 577.2 540.95 579.6 537.05 578.8 536.15 578.4 536.45 577.4 535.85 577.3 535.25 576 534.35 575.4 534.25 574.4 535.05 573.6 534.95 573.4 534.75 573.8 534.15 573.3 533.85 573.7 532.95 572.2 531.45 571.3 531.35 571.7 530.75 570.8 530.15 570.1 531.45 567 531.35 567.2 532.05 567.9 531.75 568 532.15 567.1 533.85 565.3 533.25 565.1 533.55 563.7 532.85 563.9 530.45 563.1 530.35 563 531.35 562.3 531.55 562.2 532.15 561.6 532.15 562.1 532.95 561.7 533.65 560.2 534.35 560 533.85 559.8 533.45 558.5 533.45 557.8 533.95 557.1 534.35 555.6 534.45 555.2 534.25 554.5 534.75 553.5 534.15 552.3 534.65 552.9 535.65 552.6 536.05 551.8 537.05 552.1 538.05 550.4 538.85 551 539.35 551 540.25 550.3 540.45 549.7 540.45 549 541.55 549.9 541.75 550.3 543.05" />
	<path name="United Kingdom" d="M580.1 508.55 580.5 507.15 582.8 508.85 583.7 507.35 583.9 506.85 584.3 506.15 583.9 504.35 582.9 503.95 580.9 504.85 580.4 506.65 578.8 506.85 578.7 507.35 578 507.15 577.9 507.75 578.6 507.75 578.6 509.45 580.1 508.55" />
	<path name="United Kingdom" d="M571 576.45 569.6 576.95 569.7 575.85 569.1 575.35 569.6 574.75 569.1 574.35 568.6 574.15 568.4 574.75 567.5 574.65 566.4 574.35 564.9 572.75 564.7 572.35 566.8 573.25 567.4 573.65 568 572.85 568.9 572.85 569.5 572.15 569.6 571.25 568.6 571.15 567 569.65 566.6 569.15 565.8 568.65 565.3 568.05 566.8 568.55 566.6 567.75 565.5 566.95 565.1 567.35 564.5 566.55 565.2 566.15 565 566.05 564.1 565.95 561.63 563.48 561.9 563.45 564.2 565.95 565.5 566.05 565.5 565.25 567.1 565.85 566.6 564.65 568.5 565.35 568.9 564.85 569.9 564.55 571.1 563.95 570.6 563.65 570.8 563.25 570.9 562.75 570.8 562.15 569.7 560.85 567.7 560.95 568.9 561.95 567.7 561.75 567 561.05 566.9 560.65 566.5 560.15 567.1 560.15 567.3 560.65 567.7 560.65 567.6 559.65 568.2 559.75 569.7 559.85 569.3 559.25 568.2 559.35 568.6 558.15 570.1 558.95 570.8 558.25 570.3 558.35 568.7 556.85 568.1 556.55 567.8 556.35 567.2 556.05 566.1 555.65 565.1 555.05 564.3 555.55 562.3 554.65 559.5 555.15 559.5 556.75 557.5 557.25 557.3 558.25 558.1 558.55 557.5 558.95 557.5 559.75 558.4 560.55 558.7 561.55 558.6 562.35 558.1 562.45 559.6 563.25 560.2 562.95 560.78 563.53 560.6 563.55 560.2 562.95 559.5 563.35 559.7 564.95 558.3 565.15 557.6 566.35 556.6 566.25 556.3 566.75 558.1 571.45 558.2 576.35 557.9 577.55 557.1 577.75 556.8 578.55 556 578.05 555.7 578.45 556.9 578.85 556.8 579.75 556.3 579.85 556.7 580.25 556.6 582.25 555.8 583.55 554.5 583.75 555.9 584.35 555.9 586.15 556.6 586.65 556.4 589.35 557.7 593.15 557 594.55 557.9 595.75 557.2 596.65 558.2 596.95 558.7 598.05 558.4 598.85 559.4 598.95 559.9 599.75 564.1 599.95 565.8 599.25 567.1 600.35 569 600.75 568.7 599.75 569.7 599.45 570.1 598.25 569.2 598.05 569 597.25 568.3 597.35 567.6 597.05 568 596.15 565.3 595.35 563.6 596.05 562.9 595.65 562.9 595.15 561.4 594.45 561.3 594.05 562.4 593.85 562.4 594.35 563.1 594.45 564 594.45 563.9 593.95 564.4 593.85 565.6 594.55 566.6 594.55 568.1 592.95 567.7 590.65 566.7 589.45 567 587.55 566.4 587.55 566.2 586.85 564.6 586.95 564.2 585.75 565.6 586.25 565.7 585.75 566.5 585.95 567.1 585.35 567.4 584.75 567.2 583.65 568.1 583.05 568.2 582.15 567.5 581.75 569.2 579.25 570.6 579.35 571 578.15 570.7 577.75 571.4 577.25 571 576.45" />
	<path name="United Kingdom" d="M558.4 604.95 558.1 605.35 558.5 606.75 559.2 606.75 560.1 605.65 559 604.45 558.4 604.95" />
	<path name="United Kingdom" d="M551.4 617.85 551.9 617.35 552.5 616.65 553.1 616.85 553 617.65 554.8 617.95 555.2 617.25 555.9 617.55 556.4 617.05 555.7 616.15 556 615.75 556.5 615.55 557.3 614.55 558 614.15 558.5 613.75 559.7 613.85 559.6 612.65 558.5 612.35 557.9 611.25 556.5 609.45 557.6 608.25 556.5 605.55 556.9 605.65 555.1 604.75 554.8 604.75 555.2 606.45 554.4 608.95 552.9 609.75 550.2 609.95 551.6 610.85 550.8 611.65 551.4 612.15 551.2 612.85 551.2 613.85 550.5 614.65 548.8 614.75 548.1 616.55 548.6 617.15 551.4 617.85" />
	<path name="United Kingdom" d="M571.5 565.35 571 565.05 571.5 563.95 569.3 564.85 569.5 565.55 569.2 565.85 568.7 566.25 570.6 566.85 570.6 566.55 571.6 565.85 571.5 565.35" />
	<path name="United Kingdom" d="M565 601.15 564.5 601.65 564.3 601.25 563.8 601.35 563.6 601.95 564.3 603.35 564 604.65 565.2 605.65 566.1 604.55 566 604.05 566.6 601.25 565 601.15" />
	<path name="United Kingdom" d="M618.6 690.55 619.8 690.85 621.2 689.55 622.2 687.55 622.1 685.75 618.9 687.85 619.7 688.55 618.3 690.05 618.6 690.55" />
	<path name="United Kingdom" d="M937.2 244.75 937.7 245.85 938.9 244.85 938.9 243.85 939.4 243.75 939.8 242.55 939.8 241.05 939.8 240.75 941.3 237.65 940.9 235.95 940.7 237.85 939.6 237.25 938.9 237.65 939.4 238.75 939.3 239.95 938.5 241.05 938.9 241.55 938.4 242.25 938.7 243.45 938 244.85 937.2 244.75" />
	<path name="United Kingdom" d="M854.8 351.95 854.6 350.45 855.6 351.35 855.9 349.35 857 349.05 856.7 348.65 857.5 347.65 857.8 345.95 859.6 345.95 860.2 347.05 861.9 345.55 861.5 347.35 862.2 348.15 862.7 346.05 865 346.35 865.2 346.75 866.3 347.85 866.4 346.65 865.6 346.35 865.6 345.45 868.1 340.95 870.7 340.35 871.3 341.45 872.4 340.85 872.8 341.25 874.6 341.05 874.6 340.45 873.3 340.75 872 340.05 871.4 338.05 871.8 336.75 871.2 336.45 869.6 337.55 869.5 339.35 867.3 338.95 866.8 340.15 865.5 341.25 864.8 341.15 864.4 342.05 863.1 341.45 863.4 340.95 863.1 339.45 864.3 338.95 865 337.45 864.8 337.05 864.1 337.55 862.8 337.05 862.8 337.65 861.4 338.95 860.5 338.45 859.8 339.35 859.3 337.25 858.8 337.05 859.2 340.25 860.6 341.95 859.4 342.05 860.1 342.95 858.9 343.25 856.5 345.35 855.3 346.95 855 347.85 854 347.65 853.7 350.65 854.2 352.15 854.8 351.95" />
	<path name="United Kingdom" d="M945.9,236.85s-1.4.5-1.3.5v2.4l-.8,1.2,1.5-.9Z" />
	<path name="United Kingdom" d="M948.8 250.55 949.4 250.65 949.5 251.85 950.1 252.15 950.9 251.75 951 251.25 949 249.75 948.8 250.55" />
	<path name="United Kingdom" d="M939.3 244.95 939.5 245.95 940.6 243.75 940.8 242.85 942 240.05 941.8 238.65 941.1 238.95 939.8 241.05 939.9 243.15 939.3 244.95" />
	<path name="United Kingdom" d="M892.5 235.85 893.7 236.25 893.9 237.15 894.6 236.55 895.2 234.65 894.9 234.05 895.5 233.35 894.7 231.15 894.1 231.55 893.3 231.05 891 232.45 890.6 234.05 892.1 234.65 892.5 235.85" />
	<path name="United Kingdom" d="M870.8 330.95 871.3 332.15 872.3 331.15 873.1 331.05 872 329.45 872.4 327.95 873.9 327.45 874.6 327.85 873.6 326.25 872.8 327.25 872.3 327.35 872.2 326.65 870.6 327.35 870.8 328.45 869.5 330.85 870.8 330.95" />
	<path name="United Kingdom" d="M930.5 210.35 931.1 211.65 931.4 210.55 932 210.65 932.4 209.85 933.3 209.55 931.8 208.45 931 209.05 931 207.75 930 209.55 930.5 210.35" />
	<path name="United Kingdom" d="M915.4 209.55 915.1 209.75 915.5 210.45 916.4 209.25 916.8 209.75 916 210.55 916.4 210.95 917.4 211.05 918 210.15 918.8 210.35 919 209.45 918.2 209.35 919 208.85 918.6 207.55 917.8 207.65 917.3 207.65 916.8 207.45 916.2 207.95 915.6 207.15 914.7 207.15 914.9 207.85 914.2 208.25 915.4 209.55" />
	<path name="United Kingdom" d="M924 226.25 925 226.55 925.1 225.35 924 224.45 923 224.65 922.7 225.65 923.8 226.75 924 226.25" />
	<path name="United Kingdom" d="M923.2 308.25 922.2 308.15 922.8 307.05 922.5 306.55 921.8 306.85 920.4 306.65 920.2 307.55 919.9 308.05 919.7 309.25 920.1 309.95 919.7 310.55 919.2 310.35 919.4 311.65 921 311.45 921.3 309.85 922.4 310.25 922 309.05 923 309.15 923.2 308.25" />
	<path name="United Kingdom" d="M968.41,167.86h0S968.39,167.88,968.41,167.86Z" />
	<path name="United Kingdom" d="M958.5 231.35 958 231.55 958.1 232.55 958.7 232.25 959.4 233.95 960.2 234.25 960.2 233.45 960.7 233.35 960.5 231.85 958.8 231.75 958.5 231.35" />
	<path name="United Kingdom" d="M962.8 173.35 962.4 172.55 961.8 172.85 961.4 172.35 960.8 172.35 960.8 173.35 959.9 174.45 960.6 175.25 960.7 174.05 962.1 174.45 962.2 173.65 962.8 173.35" />
	<path name="United Kingdom" d="M962.3 208.15 964 206.75 965.4 203.95 967.1 202.75 966.3 202.45 966.3 201.85 964.8 203.45 963.1 202.75 962.2 204.35 960.5 204.55 959.3 206.55 959.7 207.45 958.3 208.15 958.3 208.95 959.2 208.95 960.4 209.95 962.1 209.25 962.3 208.15" />
	<path name="United Kingdom" d="M968.8 176.35 969.6 175.85 970.4 177.15 971.4 176.45 971.8 177.55 972.5 178.15 973 177.85 973.4 178.95 974.2 177.85 974 177.05 974.6 177.05 974.3 176.55 975.2 175.85 975.6 174.35 975 174.15 975 172.95 973.9 173.15 973.5 174.55 972.8 174.95 972.8 174.05 972.2 174.55 971.8 173.95 971.9 172.15 971.4 171.25 969.2 170.55 967.2 172.35 966.3 171.85 966.5 171.05 965.8 171.55 964.7 171.05 964 173.75 964.5 173.85 966.4 178.65 967.4 179.85 969.6 179.05 968.6 177.45 967.4 176.85 967.7 176.05 968.8 176.35" />
	<path name="United Kingdom" d="M935.3 209.55 936 210.25 937.3 208.65 936.5 207.55 935.6 207.95 936.2 208.65 935.4 208.75 935.3 209.55" />
	<path name="United Kingdom" d="M671.5 673.35 672.2 673.35 677.3 669.15 682.4 661.95 680.5 662.75 679.6 662.15 679.7 663.25 675.7 667.95 671.8 669.85 673.2 669.55 672.9 671.65 671.5 673.35" />
	<path name="United Kingdom" d="M934.8 202.65 933.9 201.55 932.6 202.05 932.1 202.65 931.7 203.35 930.9 203.55 931.6 204.55 931.7 205.85 932.4 206.85 933.7 207.35 936.2 206.55 937 204.45 936.9 203.35 934.8 202.65" />
	<path name="United Kingdom" d="M962.7 162.65 962.2 164.15 963.2 164.05 963.2 165.15 964.2 165.15 964.3 165.95 966.5 163.35 967 163.45 967.1 164.25 969.7 164.75 970 165.35 970.9 164.15 971.5 164.15 971.4 162.45 970.8 163.25 969.1 161.75 974.4 156.05 974.1 154.35 972.1 152.85 972.2 151.85 971.1 150.95 971.9 150.55 974.6 151.75 974.8 149.35 973.1 147.95 973.8 147.35 975.8 147.25 975.8 146.75 974.4 146.55 974.7 145.35 973.4 145.45 973.4 144.65 972.2 144.65 971.2 143.45 971 144.15 970.3 144.25 969.5 147.65 968.7 148.55 969.3 144.85 968.6 143.25 967.1 143.95 967.7 145.45 966.9 145.95 966.6 147.25 965.7 147.05 965 147.65 965.8 148.05 963.9 150.35 965.3 151.55 964.8 154.05 964.1 154.45 964.2 155.75 963.2 156.45 963.7 158.15 963.1 158.55 963.9 158.75 964.1 159.65 963.6 159.95 962.4 159.05 962.1 159.45 963.3 162.55 962.7 162.65" />
	<path name="United Kingdom" d="M969.5,169.45l.7-.3.3.5.6-1.5-2.2-1s-.4.61-.49.71l1,.69Z" />
	<path name="United Kingdom" d="M917.6 212.95 916.5 214.55 916.7 215.35 917.3 215.25 918 215.85 917.5 216.15 917 217.45 916.6 218.75 917.4 219.75 917.4 221.25 918.2 221.15 919.7 222.35 920.8 222.05 919.9 223.25 921.5 224.15 921.5 224.85 923.3 224.45 923.4 223.95 922.4 223.25 923.6 222.85 924.8 223.35 925.5 223.05 925.8 223.25 925.4 225.35 925.8 225.95 926.1 225.25 926.1 224.35 927.9 222.95 928.3 221.65 927.3 221.05 927.2 219.45 928.4 220.15 927.8 220.65 928.2 221.25 928.9 221.75 928.8 223.45 929.1 224.05 928.3 224.25 926.6 224.85 926.3 226.55 927 227.95 928.6 227.55 928.7 229.85 929.4 230.15 930.2 230.15 931.3 230.35 931.7 232.15 932.5 231.35 932.4 228.35 932.9 228.45 933.3 228.85 934.4 229.75 935.7 227.95 935.3 227.05 935.9 223.15 936.1 225.35 937.7 224.15 937.4 226.55 938.2 226.15 938.2 223.55 937.4 222.65 937.2 220.65 936.4 220.85 936.1 219.75 937.1 219.05 938.5 219.65 938.7 220.45 937.8 220.25 937.7 220.95 938.2 221.75 939 223.35 939 225.35 941.2 222.15 940.2 230.05 940.8 230.55 942.3 227.45 942.2 226.35 942.9 225.95 941.8 232.15 942.6 232.15 941.6 233.95 942.8 233.95 943.3 233.35 943.8 233.75 943.6 238.35 943.1 238.45 941.7 243.25 941.6 245.95 940.6 248.35 940.9 249.15 940.4 250.05 940.1 249.55 939.1 250.95 940.1 254.35 938.6 253.25 938.8 254.05 938.2 254.55 940 254.65 939.6 256.55 940.1 256.75 940.1 257.55 939.4 257.55 939.1 257.95 937.9 257.55 938.1 258.95 937.4 259.15 937.4 260.15 937.9 260.85 936.1 261.75 936.8 264.85 938.3 264.35 938.8 265.55 939.3 263.85 940.8 263.95 941.4 265.85 940.7 267.25 941.3 268.35 942.1 266.65 943.3 269.55 943.8 268.85 943.9 266.65 943 266.95 943 265.75 943.7 265.35 943.4 264.25 943.9 262.55 942.5 260.75 943.8 260.95 944 259.45 944.7 259.05 944.3 257.15 945 256.65 944.4 255.35 945 253.95 944 253.75 943.5 252.15 944.6 252.35 945 251.35 946.2 253.25 946.6 251.55 947.1 251.55 947.6 254.05 948.2 254.35 948 252.25 948.7 252.05 947.1 249.95 946.5 246.65 947.5 246.75 947.8 246.35 949.8 246.15 950.2 246.65 950.2 245.75 949.4 245.75 948.2 244.85 948.5 243.45 947.7 242.65 948 241.65 947.4 241.55 948 239.55 946.9 238.25 948.5 237.45 948.8 235.95 948 235.25 948.2 234.55 949.2 234.75 950 235.95 950.2 233.15 951.2 234.75 950.9 232.25 951.6 231.95 952.3 232.75 952.6 232.15 951.8 230.85 951.1 230.95 950.5 229.65 951.1 229.15 951.1 227.85 951.8 226.95 951 227.25 951.2 225.35 949.1 226.55 949.1 225.35 950.2 224.75 949.5 224.35 950.4 222.85 949.7 222.95 948.2 225.05 947.1 225.65 949.3 221.65 948.7 221.25 947.7 222.15 946.4 221.95 946.8 221.15 947.8 220.95 948.7 219.95 948.6 218.95 948 218.75 947.9 217.15 948.3 216.95 948.7 217.25 948.8 217.95 950.5 218.15 949.6 219.05 949.7 220.85 951.5 220.25 951.2 219.85 951.9 218.25 952.9 218.35 953.2 217.75 954.5 218.35 954.8 216.95 953.6 217.15 953.2 216.55 952.8 216.55 951.4 216.25 950.9 216.35 951.5 215.45 950.5 215.45 953.3 212.65 955.1 213.05 955.4 212.35 954.7 211.65 955.5 210.15 955.2 209.65 953.8 210.15 953 209.25 952.2 209.45 952 210.15 950.8 208.05 950 210.05 949.6 207.05 948.8 206.45 952.4 206.55 953.2 207.15 954.5 205.95 955.8 205.75 955.8 203.45 955.8 201.75 955.1 201.95 953.7 201.05 952.5 202.55 951.6 202.45 952.8 200.05 954.8 199.05 957 196.25 957.4 193.85 954.8 195.55 953.6 197.15 952.9 196.55 952.7 197.75 951.7 198.75 952.1 199.65 951.3 199.65 950.8 199.85 950.1 203.15 949.8 198.45 948.6 198.45 948.3 197.75 948.6 197.35 950 197.75 949.6 195.95 950.1 195.55 950.1 195.05 949.5 194.35 949.4 193.45 949 192.35 951.6 192.45 954.1 190.45 954.4 188.85 953.1 188.35 952.8 187.65 953.2 186.75 953.6 187.85 954.9 187.75 956.2 188.95 957.1 188.65 957.9 189.05 958.8 187.95 958.2 187.45 958.3 186.25 959 186.35 959.1 185.15 958.8 184.45 959.3 183.45 958.2 183.65 957.9 183.15 958.4 182.65 957.6 182.05 957.6 181.25 959.8 181.45 960 180.85 959.2 179.85 960.5 179.15 960.1 177.95 960.6 177.25 959.7 177.05 959.7 175.95 959 176.45 958.9 175.15 957 175.05 956.7 174.35 955.4 174.05 956.4 173.45 957.9 174.75 959 174.15 959.6 172.65 959.4 171.15 958.5 170.95 957.5 169.35 956.6 166.25 957.8 167.25 957.9 168.35 958.8 169.45 960.6 169.95 960.9 170.65 962 169.85 961.2 169.65 960.9 168.55 961.5 167.65 960.9 165.45 961.2 164.85 960.7 164.25 960.9 162.05 960.4 160.95 960.8 159.35 960 158.55 959.2 158.75 958.4 158.75 957.9 159.35 956.6 158.25 955.7 158.25 955.1 158.55 953.7 158.35 953.2 158.95 952.5 158.85 953 159.85 952 161.75 952.5 164.55 951.9 168.65 951.4 168.95 951.4 171.35 952.5 171.95 953.7 174.35 953 174.25 952 172.25 951 172.35 950.8 167.75 949.1 170.65 941.3 170.25 940 172.25 939.1 171.45 938.6 173.05 938.7 173.75 937.1 174.25 934.3 172.85 934.3 173.55 933.3 174.65 932.7 176.35 933.4 177.35 933.3 178.35 930.9 180.05 930.9 180.95 929.5 181.75 929.3 182.95 932 186.35 935.8 186.15 932.4 187.15 928.1 183.65 928.1 181.55 927.2 180.45 925.8 181.45 925.5 182.95 925.1 182.85 925.1 185.75 924.3 186.55 923.7 187.05 922.2 186.45 921.7 188.85 920.9 189.35 921 190.15 921.9 190.15 922.6 190.35 923.3 190.65 923.9 189.95 924.8 190.65 925.9 188.85 926.9 190.25 927.4 189.95 928.1 190.35 929.4 189.65 929.7 190.65 928.8 190.95 928.4 191.85 929.5 193.65 930.6 191.45 930.1 190.75 932.1 188.85 931.4 191.55 931.6 192.15 931.6 193.75 934.3 193.95 932.6 194.75 932.7 195.75 932.1 196.35 932.7 197.45 932.4 198.35 933.8 198.65 935.2 198.55 934.7 199.75 935.1 200.85 935.4 202.35 937.2 203.25 937.8 201.35 938.6 200.95 938.9 202.75 937.9 204.25 939.2 204.75 941.8 204.15 942 205.35 939.5 205.45 940 208.35 939.4 208.55 939 207.35 938.5 207.25 937.6 208.35 937.8 209.45 937.2 210.05 937.7 210.45 938 212.55 937.8 213.05 937.7 214.75 937 214.45 936.5 211.15 935 210.35 934.5 210.95 934 209.15 933.4 210.15 932.8 210.45 931.6 211.45 931.5 212.15 931.2 211.95 930.2 212.15 929.7 210.85 929.1 210.65 926.3 212.35 926.1 212.85 927.1 213.15 927.2 213.95 926.6 213.45 925.1 213.85 924.9 214.65 924.1 213.55 923.5 213.55 923.1 212.25 921.3 212.45 920.5 212.05 920.1 212.65 919.1 212.35 918.8 212.95 917.6 212.95" />
	<path name="United Kingdom" d="M815.5 381.75 815.7 383.75 817.1 384.35 818.4 383.95 817.9 382.15 817.3 382.75 815.5 381.75" />
	<path name="United Kingdom" d="M830.8 393.65 830.6 392.75 827.5 393.75 826.1 394.85 825.7 395.55 826.3 396.95 827 397.35 828.4 397.15 828.6 396.45 830 397.15 830.2 394.95 828.7 395.35 828.6 394.95 829.9 393.65 830.8 393.65" />
	<path name="United Kingdom" d="M811.8 394.45 814.4 396.95 814 397.45 816.3 401.65 816.8 401.95 819.3 401.25 820.4 402.45 821.2 401.85 821.1 401.05 823.3 401.75 826.8 400.55 826.9 400.05 825.5 400.45 826.5 398.85 825.5 398.05 824.6 398.65 822 398.75 820.2 400.85 819 400.45 819.6 398.95 821.8 398.15 822.3 398.45 822.8 397.45 824.7 396.45 822.6 395.75 823.1 394.65 821.6 394.05 822.7 392.65 821.5 391.65 821.5 390.65 821.7 389.95 821.6 389.45 817.1 386.15 815.3 385.75 815.4 384.95 814.5 383.35 812.5 382.75 811.2 384.15 809.7 384.25 808.5 386.65 808.3 388.45 807.9 388.45 807.8 390.35 811.2 390.95 811.8 394.45" />
	<path name="United Kingdom" d="M827.1 411.55 827.1 413.05 826.1 414.45 826.4 415.35 827 414.65 828.4 414.45 828.7 412.85 827.7 411.35 827.1 411.55" />
	<path name="United Kingdom" d="M823.6 393.35 824.2 394.75 825 394.85 825.7 393.65 824.4 391.95 823.6 393.35" />
	<path name="United Kingdom" d="M645.3 574.45 644.9 575.95 645.8 578.25 646.6 578.45 647.4 579.95 649.9 579.85 651.1 578.95 651 576.05 649.5 574.75 646.6 573.95 645.3 574.45" />
	<path name="United Kingdom" d="M646.7 549.45 646.4 550.35 647.7 552.25 649.3 545.55 648.9 543.95 648.3 543.75 648 544.35 648.6 544.65 648.5 545.25 647.7 544.65 647.3 544.75 646.9 545.35 647.5 548.15 646.1 548.55 646.7 549.45" />
	<path name="United Kingdom" d="M638.4 565.55 637.3 564.25 636.1 564.15 635.2 564.75 634.5 564.75 633.9 564.25 634.5 563.35 635.1 563.85 637 561.55 637.6 555.15 636.8 553.45 637.3 548.05 636.8 545.75 637.5 543.25 636.7 543.35 634.1 537.85 631.4 537.25 630.5 533.25 628 530.95 627.9 530.35 627.6 529.25 626.8 529.25 625.5 530.15 624.9 530.65 624.3 531.15 624.6 532.75 624.9 533.25 624.4 534.25 622.5 535.55 620.9 535.45 621.1 536.65 620.1 536.95 619.7 537.65 621.7 541.15 621.7 544.35 622.9 544.45 623.3 543.85 623.9 544.15 622.6 546.75 621.8 546.05 621.5 546.95 623.6 552.35 626.4 555.65 626 556.25 625.5 555.25 625.1 555.05 624.5 554.55 622.9 553.75 622.4 551.75 621.4 550.75 620.9 551.45 621.3 552.95 620.1 553.45 619.1 554.95 618.9 556.55 618.3 555.65 619.6 551.85 617.4 554.05 616.7 552.35 614.7 549.95 612.5 548.35 611.6 548.75 610.8 548.25 610.6 545.45 609.7 543.55 607.6 541.55 606.3 541.25 606.4 544.25 605.9 547.15 605.1 547.65 605.1 548.75 605.4 548.95 605.9 547.85 608.2 549.65 609.5 551.95 611 553.05 610.4 554.45 608.6 552.65 607.4 553.55 605.6 553.45 605.7 554.25 606.3 554.05 607.1 557.05 607.7 557.65 607.6 558.35 607 558.15 607.1 558.65 607.8 559.15 608.4 558.65 608.8 559.15 608.4 560.05 607.9 559.95 607.8 560.85 607 561.25 606.9 560.65 606.1 560.45 605.3 558.65 604.4 558.45 604.4 557.25 603.1 554.95 602 554.05 601.2 552.15 599.2 553.75 599.1 555.65 599.5 557.95 600.9 559.65 598.5 558.65 597 558.75 597.2 560.25 596.7 560.85 596.5 563.15 597.9 562.15 598.1 562.75 599.4 563.35 600.3 565.85 599.7 566.55 601.1 568.85 602.1 568.75 604 570.65 605 570.25 607 571.15 608.8 572.85 609.6 573.15 610.3 573.15 610.8 572.45 610.6 567.05 610.2 566.65 610.9 566.45 611.5 567.05 612.2 566.45 612.8 566.05 612.9 565.05 613.6 566.15 613 567.25 613.5 567.55 613.1 568.95 614.7 567.15 615.2 564.75 615.8 565.75 615.5 567.45 616.1 568.15 615.8 568.95 617.5 570.15 616.9 571.35 617.2 572.35 618 571.35 619.9 571.25 620.7 570.35 620.4 571.65 621.1 571.95 621.6 572.45 623.3 574.15 625.3 577.15 623.7 576.55 621.8 573.85 619 572.25 619.1 573.85 618.5 573.75 617.9 574.45 617.3 574.25 615.7 575.65 615.7 577.75 617.1 578.65 617.7 581.35 619.2 582.85 619.3 583.85 620.7 584.95 623.3 584.55 624.3 583.35 623.9 585.35 621.9 585.75 621.9 587.15 623.3 589.55 624.8 590.35 627.4 588.65 628.3 588.85 628.1 590.15 626.4 591.85 625.9 593.25 626.5 593.45 632.9 591.25 635.4 591.55 636.1 589.85 636.4 589.35 636.8 589.15 637.2 590.15 638.1 590.45 638.5 589.65 639.3 590.25 639.7 592.35 639.1 595.85 641 597.35 643.2 592.35 643.2 591.05 643.8 591.25 644.4 590.35 644.7 588.85 643.8 586.75 644 585.95 644.9 587.95 645.9 588.65 646.5 592.45 650.1 591.45 651.4 592.05 652.9 591.85 653 591.05 654 591.35 655.7 590.25 654.5 591.85 651.5 592.55 650.7 593.65 649.6 594.85 648.1 595.45 647.6 595.95 647.8 596.55 646.2 597.45 645.8 598.55 646.6 598.45 647 599.15 646.2 599.35 645.5 602.55 645.6 603.05 644.9 603.35 643.9 606.15 644.3 607.45 644.8 608.35 645.2 609.55 646.3 609.35 648.1 608.05 649.1 607.65 651.1 606.65 651.7 605.45 653.1 604.55 652.9 603.75 653.6 602.25 654.4 601.95 655.6 599.15 657.3 599.25 658.7 597.65 658.7 596.35 658.8 595.95 659.5 594.75 659.3 593.85 658.5 594.65 658.2 594.15 658.6 592.75 658.3 591.15 659.6 592.15 660.6 591.75 663.6 590.05 666.6 587.25 667.1 585.45 666.8 584.15 668.1 581.85 666.9 580.75 662.9 581.25 664.1 579.95 661.4 579.55 659.8 580.05 657.8 581.65 654.9 581.75 653.5 583.25 652.5 583.55 651.6 583.35 652.1 582.05 650.9 580.85 649.9 580.75 649.7 581.15 646.1 579.75 644.7 577.95 641.4 580.15 641.2 579.35 643.6 577.35 642.6 574.95 638.8 574.95 636.5 576.65 637.8 574.75 639.3 574.35 639.8 574.75 640.2 573.95 639.5 572.95 640.3 571.95 639.7 571.35 638.9 571.75 637.1 568.35 637.9 567.95 638.4 565.55" />
	<path name="United Kingdom" d="M642.1 653.05 639.1 652.45 638.9 651.35 638.3 651.05 637 651.45 635.8 652.75 633.8 652.55 633.7 653.75 632.7 653.45 631.9 653.45 632 656.05 631.6 656.85 630.1 655.65 629.3 656.95 627.9 656.55 626.8 657.15 626 656.65 626.6 660.15 628.6 659.85 627.2 662.15 625.1 662.75 624.9 664.65 626.8 665.55 627.7 665.45 628.2 666.15 631.8 665.45 634.5 667.65 635.3 668.05 636.8 668.65 637.4 669.75 636.7 670.15 636.9 670.85 637.8 670.95 638.2 671.55 638.8 671.95 640 671.15 643.8 670.45 645.3 669.25 646.4 669.65 646.4 670.95 645.6 671.25 645.2 672.45 643.6 673.05 642.9 674.25 641.1 674.75 638.9 674.35 637.2 675.85 637.6 676.65 637 677.05 636.8 678.75 633.3 681.85 633.1 683.25 634.1 684.95 635.3 685.15 637 684.15 639.5 684.15 641.2 683.55 642.6 683.05 644.8 680.95 646.4 681.75 645.3 681.95 645.9 682.95 645.3 684.15 643.1 685.05 642.4 685.25 639.8 686.75 638.3 686.95 636.5 687.45 635.1 686.95 634.6 687.45 634.4 687.95 631.8 686.65 630.8 686.75 630.5 687.35 630.8 688.45 631.4 688.45 631.3 689.55 629.6 689.55 628.6 688.95 629.6 688.95 629.4 687.55 628.5 687.05 627.9 686.65 624.1 686.35 622.6 690.65 622.7 691.65 622.2 693.05 623.1 693.45 624.1 693.35 624.6 693.75 625.6 694.65 626.8 694.95 627.6 694.55 628.5 694.85 629.2 695.35 629.8 695.45 630.7 693.05 632.2 693.35 633.6 692.45 635 693.15 635.9 692.65 636.7 693.35 637.5 693.35 638.5 691.95 640.9 691.85 641.5 691.35 642.8 692.55 643.7 692.45 646.6 690.25 647.2 689.15 648.9 689.65 650.7 689.25 652.6 686.35 654.3 685.35 654.5 685.95 655.6 685.55 655.9 686.55 654.9 686.95 654.9 687.75 653.3 689.05 654.2 689.85 656.9 690.35 657.1 689.75 662.4 686.85 665.6 683.55 665.9 682.15 664.8 681.95 659.6 684.05 661.7 682.25 661.9 681.05 663.3 680.65 663.3 679.65 662.6 679.05 664.7 678.55 664.2 681.25 666.6 682.05 667.4 681.25 668.3 678.45 668.3 677.65 668.7 674.85 668.3 673.75 666.9 674.25 666.6 673.25 665.5 672.15 664.7 672.05 663.6 670.15 662.6 670.85 661.1 670.05 659.2 667.15 657.3 666.85 656.9 667.85 654.8 666.35 652.1 666.25 651.4 666.95 650.1 666.05 649.2 666.45 647 659.85 645.5 658.65 644.3 656.25 643 656.05 642 655.15 642.6 654.25 642.1 653.05" />
	<path name="United Kingdom" d="M641.2 567.05 641.7 567.55 641.5 570.95 642.1 572.85 643.2 573.55 645.1 573.05 646.9 570.05 646.9 568.55 646.3 568.55 645.3 566.45 645.2 563.85 644.4 561.85 644.8 560.45 646.4 558.85 647.4 556.05 647.7 554.25 646.8 554.35 645.7 554.65 644.9 553.85 644.2 554.75 644.2 556.05 644.4 557.15 645.6 557.65 645.2 558.85 643.2 557.85 642.6 558.15 641 562.65 641.6 566.45 641.2 567.05" />
	<path name="United Kingdom" d="M846.4 353.55 847.7 355.15 848 358.05 849.1 357.05 849.6 357.45 850.1 356.95 851 357.25 851.3 356.55 851.2 355.85 850.2 355.25 849.8 351.25 851.7 347.35 849.9 346.25 850.4 344.65 850.1 343.85 847.9 345.75 848.4 346.65 847.8 348.25 848.7 349.05 848.6 351.15 847.2 351.95 846.2 351.55 845.9 350.65 845.6 351.25 845.8 353.85 846.4 353.55" />
	<path name="United Kingdom" d="M841.4 334.25 842.2 334.85 842.7 333.65 842.7 332.45 842 331.25 843 330.75 843.1 330.05 843.3 328.95 842.6 327.25 841.8 327.75 841.4 330.45 840.5 331.85 840.9 335.25 841.4 334.25" />
	<path name="United Kingdom" d="M847.4 363.85 846.4 364.65 845 364.65 845.2 366.35 844.1 367.45 842.1 366.95 841.2 364.95 839.2 370.75 840.4 371.05 841.3 370.15 841.6 370.85 841.7 370.85 842.7 370.45 844 370.75 844.7 371.55 845.3 372.25 845.9 372.25 847.2 371.05 846.1 368.75 847.6 366.05 847.4 363.85" />
	<path name="United Kingdom" d="M839.8 353.75 838.6 354.15 838.4 355.55 838.8 357.55 840 359.65 840.9 354.75 839.8 353.75" />
	<path name="United Kingdom" d="M860.4 366.15 861 365.25 861.7 365.65 862.2 364.45 863.4 364.65 863.8 364.95 864.8 363.35 863.5 362.65 863.2 361.05 864.2 359.75 863.8 359.35 863.2 360.05 860.5 360.45 859.8 359.25 859.9 357.95 861.8 357.85 862.1 357.35 861.7 356.85 860.7 357.45 859.2 356.75 858.9 356.25 859.5 355.95 858.3 354.75 856.7 356.05 855.4 355.95 858.7 359.35 858.8 360.05 858.4 361.15 857 360.85 855.8 361.35 854.6 365.15 855.2 365.65 857.2 365.55 857.6 364.15 856.8 362.45 858.3 361.65 859.9 362.85 859.9 365.95 860.4 366.15" />
	<path name="United Kingdom" d="M852.4 346.55 852.8 345.95 851.4 344.35 850.8 344.85 850.9 345.95 852.4 346.55" />
	<path name="United Kingdom" d="M832.4 359.15 835 359.05 837.2 357.95 836.3 354.65 837.1 353.15 837.5 353.75 837.9 353.35 837.9 352.55 837.2 352.45 836.9 351.65 835.3 352.85 833 352.95 831.9 352.25 831.8 350.55 830.8 350.75 830.4 350.15 827.3 353.25 828.9 356.75 832.4 359.15" />
	<path name="United Kingdom" d="M833.6 336.85 833.9 339.25 833.4 340.25 835.3 341.65 836 342.85 836.5 341.55 838.5 341.15 837.7 340.25 838.5 339.65 839.4 339.55 839.6 340.35 840.3 340.55 841.7 342.55 842.2 342.95 842.8 343.25 842.7 344.95 842 345.75 842.4 346.75 843.9 343.85 845.1 344.55 845.2 344.15 844 341.75 843.1 341.45 842.5 341.95 842.4 339.45 841.5 338.95 841 337.25 839.9 336.85 838.5 336.45 837.4 336.75 837.4 335.75 835.7 335.75 836.2 334.95 837.9 334.55 837.7 332.25 838.6 331.65 837.7 330.45 836.5 330.85 836.1 333.15 835.3 333.15 834.6 334.05 833.5 333.75 833 334.55 830.6 333.35 830.6 333.85 831.3 335.15 833.6 336.85" />
	<path name="United Kingdom" d="M838.1 360.25 837.9 359.25 837.4 359.05 834 360.75 837.1 361.15 838.1 360.25" />
	<path name="United Kingdom" d="M812.9 378.15 812.5 379.05 813.9 379.65 814.5 380.65 816.4 381.05 817.1 380.35 817 379.65 818.6 379.45 819.4 376.95 819.4 378.15 820.5 378.95 820 381.65 821.2 383.95 823.2 385.85 823.9 385.45 824.3 384.75 825.3 384.45 827 384.85 827.9 384.35 827.5 383.95 828 383.25 829 383.05 830.1 383.65 830.4 382.15 831 382.65 833.2 382.25 835.4 380.85 836.1 379.55 837.1 379.85 836.9 382.15 839.4 386.75 839.2 387.75 840.4 388.35 840 389.75 840.7 392.35 839.2 391.75 837.9 391.75 835.9 392.75 836.4 393.25 837.2 392.65 837.4 393.25 839.4 394.05 841.4 393.85 840.9 394.45 838.8 394.75 838 395.85 837.6 394.65 836.1 395.15 835.9 395.65 834.3 395.05 833 396.75 833.6 397.05 835 395.95 836.3 397.75 836.3 398.45 835.6 398.45 834.6 397.45 833.9 398.45 835.7 400.85 836.6 400.95 836.6 403.95 836 404.05 835.8 404.85 836.8 405.85 836.8 406.85 837.4 406.35 837.8 407.75 840.3 407.35 840.7 406.95 840.1 406.65 841 404.85 839.1 403.25 839.9 402.55 840.3 401.05 839.6 400.05 840.1 399.25 840.8 399.15 840.8 398.15 841.6 397.15 842.1 396.55 842.1 395.25 842.8 394.15 844.1 392.95 842.1 392.65 842.4 390.45 841 390.35 841.3 389.15 841.7 388.35 841.5 387.75 842.3 387.25 844.1 388.25 845.4 389.65 845.1 390.25 845.6 390.65 846.3 390.15 846.3 388.85 847.4 387.95 848.5 385.45 849.9 385.65 850.8 384.45 851.9 385.05 853 384.85 852.7 382.65 853.3 382.25 853.4 381.15 853.3 378.25 847.3 381.55 848.2 382.25 847.8 384.25 847.7 384.75 847.2 384.35 847.4 383.65 845.7 384.05 846.1 383.15 845.7 382.65 845.8 381.25 844.8 380.65 846.2 379.25 847.3 378.95 848.1 379.55 848.1 377.55 847.4 375.85 846 377.35 844 376.75 843.5 378.15 842.4 378.85 842.1 379.35 840.8 379.55 840.3 379.15 840.7 378.15 840.3 377.15 841.7 376.15 840.6 375.95 841.3 374.65 841.5 373.85 840.4 373.65 839.6 374.25 839.5 373.05 838.6 374.25 838.4 376.05 837.6 376.85 837 376.65 836.9 375.45 834.5 373.65 832.6 373.65 831.5 375.15 829.5 374.95 828.4 374.45 827.9 373.55 828.8 373.65 829 372.75 829.5 372.55 830 371.85 831.2 371.95 831.1 371.05 831.8 370.25 831.4 368.85 832.7 368.95 833.6 370.15 834.4 370.05 834.1 369.35 834.9 368.05 834.9 365.95 834.3 364.85 833.3 364.75 832.2 363.05 831.2 362.65 832.2 362.25 832.2 361.85 831.8 361.05 830.6 360.75 830.4 359.55 828.9 360.05 825.7 358.35 824.8 357.25 823.8 357.25 822.7 355.85 821.1 355.85 816.6 357.95 813.6 358.15 815 358.95 812.6 362.15 813.1 363.75 812.7 364.65 813.2 365.45 813 367.35 813.9 368.15 812.6 368.95 813.2 370.25 812.8 371.15 812.3 371.15 812.4 372.75 812.5 373.65 811.9 374.95 812.9 378.15" />
	<path name="United Kingdom" d="M836.6 365.85 837.4 365.45 838 365.65 838.4 365.05 837.6 364.65 837.3 363.45 835.4 364.05 835.4 364.75 836.3 364.95 836.6 365.85" />
</svg>
